<svg width="16" height="16" viewBox="0 0 16 16" fill="none" xmlns="http://www.w3.org/2000/svg">
<g id="Frame">
<path id="Vector" d="M2.66797 12L2.66951 9.34752C2.66981 9.16352 2.81901 9.01439 3.00303 9.01419C4.11434 9.01419 5.22567 9.01419 6.337 9.01419C6.64417 9.01419 6.64254 8.74172 6.64254 8.09306C6.64254 7.44439 5.00867 6.89802 5.00867 4.61759C5.00867 2.33716 6.70127 1.66666 8.10797 1.66666C9.51467 1.66666 11.0468 2.33716 11.0468 4.61759C11.0468 6.89802 9.42154 7.26059 9.42154 8.09306C9.42154 8.92549 9.42154 9.01419 9.68174 9.01419C10.7883 9.01419 11.8948 9.01419 13.0014 9.01419C13.1855 9.01419 13.3347 9.16346 13.3347 9.34752V12H2.66797Z" stroke="#338F7A" stroke-linejoin="round"/>
<path id="Vector_2" d="M2.66797 14H13.3346" stroke="#338F7A" stroke-linejoin="round"/>
</g>
</svg>
