<svg width="115" height="136" viewBox="0 0 115 136" fill="none" xmlns="http://www.w3.org/2000/svg">
<g filter="url(#filter0_f_1076_12297)">
<ellipse cx="57.5" cy="83" rx="15.5" ry="11" fill="var(--default-main-color)"/>
</g>
<path d="M102.861 67.5083L62.7422 90.8237V93.9583L102.861 70.643C103.604 70.2122 103.977 69.6468 103.977 69.0814V65.9468C103.977 66.5199 103.604 67.0853 102.861 67.5083Z" fill="url(#paint0_linear_1076_12297)"/>
<path d="M102.861 67.5083L62.7422 90.8237V93.9583L102.861 70.643C103.604 70.2122 103.977 69.6468 103.977 69.0814V65.9468C103.977 66.5199 103.604 67.0853 102.861 67.5083Z" fill="white" fill-opacity="0.7"/>
<path d="M16.9234 67.5079C16.1541 67.0694 15.7695 66.4964 15.7695 65.9194V69.0579C15.7695 69.631 16.1541 70.2118 16.9041 70.6425L57.2887 93.9579V90.8194L16.9234 67.5079Z" fill="url(#paint1_linear_1076_12297)"/>
<path d="M16.9234 67.5079C16.1541 67.0694 15.7695 66.4964 15.7695 65.9194V69.0579C15.7695 69.631 16.1541 70.2118 16.9041 70.6425L57.2887 93.9579V90.8194L16.9234 67.5079Z" fill="white" fill-opacity="0.7"/>
<path d="M62.7426 90.832V93.9666C61.8995 94.3952 60.9672 94.6186 60.0214 94.6186C59.0757 94.6186 58.1433 94.3952 57.3003 93.9666V90.8281C58.1427 91.2583 59.075 91.4829 60.021 91.4835C60.9669 91.4842 61.8995 91.2609 62.7426 90.832Z" fill="white"/>
<path d="M102.843 64.3664C104.35 65.2356 104.358 66.6472 102.862 67.5164L62.7427 90.8318C61.8999 91.2614 60.9675 91.4853 60.0215 91.4853C59.0756 91.4853 58.1432 91.2614 57.3004 90.8318L16.9158 67.5203C15.4081 66.6472 15.3773 65.2395 16.8965 64.3703L57.0158 41.0549C57.8582 40.6263 58.7898 40.4028 59.735 40.4028C60.6801 40.4028 61.6119 40.6263 62.4542 41.0549L102.843 64.3664Z" fill="white"/>
<path d="M92.8233 64.731C93.9772 65.4003 93.9772 66.481 92.8233 67.1502L62.0541 85.0272C61.4074 85.355 60.6926 85.5258 59.9676 85.5258C59.2426 85.5258 58.5278 85.355 57.8811 85.0272L26.9157 67.1502C25.7618 66.4849 25.7618 65.4041 26.9157 64.7349L57.6849 46.858C58.3311 46.5308 59.0452 46.3604 59.7695 46.3604C60.4938 46.3604 61.2079 46.5308 61.8541 46.858L92.8233 64.731Z" fill="url(#paint2_linear_1076_12297)"/>
<path d="M92.8233 64.731C93.9772 65.4003 93.9772 66.481 92.8233 67.1502L62.0541 85.0272C61.4074 85.355 60.6926 85.5258 59.9676 85.5258C59.2426 85.5258 58.5278 85.355 57.8811 85.0272L26.9157 67.1502C25.7618 66.4849 25.7618 65.4041 26.9157 64.7349L57.6849 46.858C58.3311 46.5308 59.0452 46.3604 59.7695 46.3604C60.4938 46.3604 61.2079 46.5308 61.8541 46.858L92.8233 64.731Z" fill="url(#paint3_linear_1076_12297)"/>
<path d="M93.6922 20.2007C93.6922 19.7507 93.4192 19.2969 92.823 18.9507L61.8576 1.0738C61.2114 0.746659 60.4973 0.576172 59.773 0.576172C59.0487 0.576172 58.3347 0.746659 57.6885 1.0738L26.9192 18.9507C26.3269 19.293 26.0462 19.7469 26.0654 20.1969C26.0616 20.2211 26.0616 20.2458 26.0654 20.27C26.0615 20.2955 26.0615 20.3214 26.0654 20.3469C26.0615 20.3724 26.0615 20.3983 26.0654 20.4238C26.0615 20.4493 26.0615 20.4752 26.0654 20.5007C26.0615 20.5262 26.0615 20.5521 26.0654 20.5776C26.0616 20.6018 26.0616 20.6265 26.0654 20.6507C26.0615 20.6762 26.0615 20.7021 26.0654 20.7276C26.0615 20.7531 26.0615 20.779 26.0654 20.8045C26.0615 20.83 26.0615 20.856 26.0654 20.8815C26.0615 20.907 26.0615 20.9329 26.0654 20.9584C26.0616 20.9826 26.0616 21.0073 26.0654 21.0315C26.0615 21.057 26.0615 21.0829 26.0654 21.1084C26.0615 21.1339 26.0615 21.1599 26.0654 21.1854C26.0615 21.2108 26.0615 21.2368 26.0654 21.2623C26.0615 21.2878 26.0615 21.3137 26.0654 21.3392C26.0616 21.3634 26.0616 21.3881 26.0654 21.4123C26.0615 21.4378 26.0615 21.4637 26.0654 21.4892C26.0615 21.5147 26.0615 21.5406 26.0654 21.5661C26.0615 21.5916 26.0615 21.6175 26.0654 21.643C26.0615 21.6685 26.0615 21.6944 26.0654 21.7199C26.0616 21.7441 26.0616 21.7688 26.0654 21.793C26.0615 21.8185 26.0615 21.8444 26.0654 21.8699C26.0615 21.8954 26.0615 21.9214 26.0654 21.9469C26.0615 21.9724 26.0615 21.9983 26.0654 22.0238C26.0615 22.0493 26.0615 22.0752 26.0654 22.1007C26.0616 22.1249 26.0616 22.1496 26.0654 22.1738C26.0615 22.1993 26.0615 22.2252 26.0654 22.2507C26.0615 22.2762 26.0615 22.3021 26.0654 22.3276C26.0615 22.3531 26.0615 22.3791 26.0654 22.4046C26.0615 22.43 26.0615 22.456 26.0654 22.4815C26.0616 22.5057 26.0616 22.5303 26.0654 22.5546C26.0615 22.5801 26.0615 22.606 26.0654 22.6315C26.0615 22.657 26.0615 22.6829 26.0654 22.7084C26.0615 22.7339 26.0615 22.7598 26.0654 22.7853C26.0615 22.8108 26.0615 22.8368 26.0654 22.8623C26.0616 22.8865 26.0616 22.9111 26.0654 22.9353C26.0615 22.9608 26.0615 22.9868 26.0654 23.0123C26.0615 23.0378 26.0615 23.0637 26.0654 23.0892C26.0615 23.1147 26.0615 23.1406 26.0654 23.1661C26.0615 23.1916 26.0615 23.2175 26.0654 23.243C26.0616 23.2672 26.0616 23.2919 26.0654 23.3161C26.0615 23.3416 26.0615 23.3675 26.0654 23.393C26.0615 23.4185 26.0615 23.4444 26.0654 23.4699C26.0615 23.4954 26.0615 23.5214 26.0654 23.5468C26.0615 23.5723 26.0615 23.5983 26.0654 23.6238C26.0616 23.648 26.0616 23.6726 26.0654 23.6969C26.0615 23.7223 26.0615 23.7483 26.0654 23.7738C26.0615 23.7993 26.0615 23.8252 26.0654 23.8507C26.0615 23.8762 26.0615 23.9021 26.0654 23.9276C26.0615 23.9531 26.0615 23.9791 26.0654 24.0046C26.0616 24.0288 26.0616 24.0534 26.0654 24.0776C26.0615 24.1031 26.0615 24.1291 26.0654 24.1546C26.0615 24.1801 26.0615 24.206 26.0654 24.2315C26.0615 24.257 26.0615 24.2829 26.0654 24.3084C26.0615 24.3339 26.0615 24.3598 26.0654 24.3853C26.0616 24.4095 26.0616 24.4342 26.0654 24.4584C26.0615 24.4839 26.0615 24.5098 26.0654 24.5353C26.0615 24.5608 26.0615 24.5867 26.0654 24.6122C26.0615 24.6377 26.0615 24.6637 26.0654 24.6892C26.0615 24.7147 26.0615 24.7406 26.0654 24.7661C26.0616 24.7903 26.0616 24.815 26.0654 24.8392C26.0615 24.8647 26.0615 24.8906 26.0654 24.9161C26.0615 24.9416 26.0615 24.9675 26.0654 24.993C26.0615 25.0185 26.0615 25.0445 26.0654 25.07C26.0615 25.0955 26.0615 25.1214 26.0654 25.1469C26.0616 25.1711 26.0616 25.1958 26.0654 25.22C26.0615 25.2455 26.0615 25.2714 26.0654 25.2969C26.0615 25.3224 26.0615 25.3483 26.0654 25.3738C26.0615 25.3993 26.0615 25.4252 26.0654 25.4507C26.0615 25.4762 26.0615 25.5021 26.0654 25.5276C26.0616 25.5518 26.0616 25.5765 26.0654 25.6007C26.0615 25.6262 26.0615 25.6521 26.0654 25.6776C26.0615 25.7031 26.0615 25.729 26.0654 25.7545C26.0615 25.78 26.0615 25.806 26.0654 25.8315C26.0615 25.857 26.0615 25.8829 26.0654 25.9084C26.0616 25.9326 26.0616 25.9573 26.0654 25.9815C26.0615 26.007 26.0615 26.0329 26.0654 26.0584C26.0615 26.0839 26.0615 26.1099 26.0654 26.1353C26.0615 26.1608 26.0615 26.1868 26.0654 26.2123C26.0615 26.2377 26.0615 26.2637 26.0654 26.2892C26.0616 26.3134 26.0616 26.338 26.0654 26.3623C26.0615 26.3878 26.0615 26.4137 26.0654 26.4392C26.0615 26.4647 26.0615 26.4906 26.0654 26.5161C26.0615 26.5416 26.0615 26.5675 26.0654 26.593C26.0615 26.6185 26.0615 26.6444 26.0654 26.6699C26.0616 26.6941 26.0616 26.7188 26.0654 26.743C26.0615 26.7685 26.0615 26.7944 26.0654 26.8199C26.0615 26.8454 26.0615 26.8714 26.0654 26.8969C26.0615 26.9224 26.0615 26.9483 26.0654 26.9738C26.0615 26.9993 26.0615 27.0252 26.0654 27.0507C26.0616 27.0749 26.0616 27.0996 26.0654 27.1238C26.0615 27.1493 26.0615 27.1752 26.0654 27.2007C26.0615 27.2262 26.0615 27.2521 26.0654 27.2776C26.0615 27.3031 26.0615 27.3291 26.0654 27.3545C26.0615 27.38 26.0615 27.406 26.0654 27.4315C26.0616 27.4557 26.0616 27.4803 26.0654 27.5046C26.0615 27.5301 26.0615 27.556 26.0654 27.5815C26.0615 27.607 26.0615 27.6329 26.0654 27.6584C26.0615 27.6839 26.0615 27.7098 26.0654 27.7353C26.0615 27.7608 26.0615 27.7868 26.0654 27.8123C26.0616 27.8365 26.0616 27.8611 26.0654 27.8853C26.0615 27.9108 26.0615 27.9368 26.0654 27.9623C26.0615 27.9878 26.0615 28.0137 26.0654 28.0392C26.0615 28.0647 26.0615 28.0906 26.0654 28.1161C26.0615 28.1416 26.0615 28.1675 26.0654 28.193C26.0616 28.2172 26.0616 28.2419 26.0654 28.2661C26.0615 28.2916 26.0615 28.3175 26.0654 28.343C26.0615 28.3685 26.0615 28.3944 26.0654 28.4199C26.0615 28.4454 26.0615 28.4713 26.0654 28.4968C26.0615 28.5223 26.0615 28.5483 26.0654 28.5738C26.0616 28.598 26.0616 28.6226 26.0654 28.6469C26.0615 28.6723 26.0615 28.6983 26.0654 28.7238C26.0615 28.7493 26.0615 28.7752 26.0654 28.8007C26.0615 28.8262 26.0615 28.8522 26.0654 28.8777C26.0615 28.9032 26.0615 28.9291 26.0654 28.9546C26.0616 28.9788 26.0616 29.0034 26.0654 29.0276C26.0615 29.0531 26.0615 29.0791 26.0654 29.1046C26.0615 29.1301 26.0615 29.156 26.0654 29.1815C26.0615 29.207 26.0615 29.2329 26.0654 29.2584C26.0615 29.2839 26.0615 29.3098 26.0654 29.3353C26.0616 29.3595 26.0616 29.3842 26.0654 29.4084C26.0615 29.4339 26.0615 29.4598 26.0654 29.4853C26.0615 29.5108 26.0615 29.5367 26.0654 29.5622C26.0615 29.5877 26.0615 29.6137 26.0654 29.6392C26.0615 29.6647 26.0615 29.6906 26.0654 29.7161C26.0616 29.7403 26.0616 29.765 26.0654 29.7892C26.0615 29.8147 26.0615 29.8406 26.0654 29.8661C26.0615 29.8916 26.0615 29.9175 26.0654 29.943C26.0615 29.9685 26.0615 29.9945 26.0654 30.02C26.0615 30.0455 26.0615 30.0714 26.0654 30.0969C26.0616 30.1211 26.0616 30.1458 26.0654 30.17C26.0615 30.1955 26.0615 30.2214 26.0654 30.2469C26.0615 30.2724 26.0615 30.2983 26.0654 30.3238C26.0615 30.3493 26.0615 30.3752 26.0654 30.4007C26.0615 30.4262 26.0615 30.4521 26.0654 30.4776C26.0616 30.5018 26.0616 30.5265 26.0654 30.5507C26.0615 30.5762 26.0615 30.6021 26.0654 30.6276C26.0615 30.6531 26.0615 30.6791 26.0654 30.7046C26.0615 30.7301 26.0615 30.756 26.0654 30.7815C26.0615 30.807 26.0615 30.8329 26.0654 30.8584C26.0616 30.8826 26.0616 30.9073 26.0654 30.9315C26.0615 30.957 26.0615 30.9829 26.0654 31.0084C26.0615 31.0339 26.0615 31.0598 26.0654 31.0853C26.0615 31.1108 26.0615 31.1368 26.0654 31.1623C26.0615 31.1877 26.0615 31.2137 26.0654 31.2392C26.0616 31.2634 26.0616 31.288 26.0654 31.3123C26.0615 31.3378 26.0615 31.3637 26.0654 31.3892C26.0615 31.4147 26.0615 31.4406 26.0654 31.4661C26.0615 31.4916 26.0615 31.5175 26.0654 31.543C26.0615 31.5685 26.0615 31.5944 26.0654 31.6199C26.0616 31.6441 26.0616 31.6688 26.0654 31.693C26.0615 31.7185 26.0615 31.7444 26.0654 31.7699C26.0615 31.7954 26.0615 31.8214 26.0654 31.8469C26.0615 31.8724 26.0615 31.8983 26.0654 31.9238C26.0615 31.9493 26.0615 31.9752 26.0654 32.0007C26.0616 32.0249 26.0616 32.0496 26.0654 32.0738C26.0615 32.0993 26.0615 32.1252 26.0654 32.1507C26.0615 32.1762 26.0615 32.2021 26.0654 32.2276C26.0615 32.2531 26.0615 32.2791 26.0654 32.3045C26.0615 32.33 26.0615 32.356 26.0654 32.3815C26.0616 32.4057 26.0616 32.4303 26.0654 32.4546C26.0615 32.48 26.0615 32.506 26.0654 32.5315C26.0615 32.557 26.0615 32.5829 26.0654 32.6084C26.0615 32.6339 26.0615 32.6598 26.0654 32.6853C26.0615 32.7108 26.0615 32.7368 26.0654 32.7623C26.0616 32.7865 26.0616 32.8111 26.0654 32.8353C26.0615 32.8608 26.0615 32.8868 26.0654 32.9123C26.0615 32.9378 26.0615 32.9637 26.0654 32.9892C26.0615 33.0147 26.0615 33.0406 26.0654 33.0661C26.0615 33.0916 26.0615 33.1175 26.0654 33.143C26.0616 33.1672 26.0616 33.1919 26.0654 33.2161C26.0615 33.2416 26.0615 33.2675 26.0654 33.293C26.0615 33.3185 26.0615 33.3444 26.0654 33.3699C26.0615 33.3954 26.0615 33.4213 26.0654 33.4468C26.0615 33.4723 26.0615 33.4983 26.0654 33.5238C26.0616 33.548 26.0616 33.5726 26.0654 33.5968C26.0615 33.6223 26.0615 33.6483 26.0654 33.6738C26.0615 33.6993 26.0615 33.7252 26.0654 33.7507C26.0615 33.7762 26.0615 33.8022 26.0654 33.8277C26.0615 33.8532 26.0615 33.8791 26.0654 33.9046C26.0616 33.9288 26.0616 33.9534 26.0654 33.9776C26.0615 34.0031 26.0615 34.0291 26.0654 34.0546C26.0615 34.0801 26.0615 34.106 26.0654 34.1315C26.0615 34.157 26.0615 34.1829 26.0654 34.2084C26.0615 34.2339 26.0615 34.2598 26.0654 34.2853C26.0616 34.3095 26.0616 34.3342 26.0654 34.3584C26.0615 34.3839 26.0615 34.4098 26.0654 34.4353C26.0615 34.4608 26.0615 34.4867 26.0654 34.5122C26.0615 34.5377 26.0615 34.5637 26.0654 34.5892C26.0615 34.6147 26.0615 34.6406 26.0654 34.6661C26.0616 34.6903 26.0616 34.715 26.0654 34.7392C26.0615 34.7647 26.0615 34.7906 26.0654 34.8161C26.0615 34.8416 26.0615 34.8675 26.0654 34.893C26.0615 34.9185 26.0615 34.9445 26.0654 34.97C26.0615 34.9954 26.0615 35.0214 26.0654 35.0469C26.0616 35.0711 26.0616 35.0957 26.0654 35.12C26.0615 35.1455 26.0615 35.1714 26.0654 35.1969C26.0615 35.2224 26.0615 35.2483 26.0654 35.2738C26.0615 35.2993 26.0615 35.3252 26.0654 35.3507C26.0615 35.3762 26.0615 35.4021 26.0654 35.4276C26.0616 35.4518 26.0616 35.4765 26.0654 35.5007C26.0615 35.5262 26.0615 35.5521 26.0654 35.5776C26.0615 35.6031 26.0615 35.6291 26.0654 35.6546C26.0615 35.6801 26.0615 35.706 26.0654 35.7315C26.0615 35.757 26.0615 35.7829 26.0654 35.8084C26.0616 35.8326 26.0616 35.8573 26.0654 35.8815C26.0615 35.907 26.0615 35.9329 26.0654 35.9584C26.0615 35.9839 26.0615 36.0098 26.0654 36.0353C26.0615 36.0608 26.0615 36.0868 26.0654 36.1122C26.0615 36.1377 26.0615 36.1637 26.0654 36.1892C26.0616 36.2134 26.0616 36.238 26.0654 36.2623C26.0615 36.2878 26.0615 36.3137 26.0654 36.3392C26.0615 36.3647 26.0615 36.3906 26.0654 36.4161C26.0615 36.4416 26.0615 36.4675 26.0654 36.493C26.0615 36.5185 26.0615 36.5445 26.0654 36.57C26.0616 36.5942 26.0616 36.6188 26.0654 36.643C26.0615 36.6685 26.0615 36.6944 26.0654 36.7199C26.0615 36.7454 26.0615 36.7714 26.0654 36.7969C26.0615 36.8224 26.0615 36.8483 26.0654 36.8738C26.0615 36.8993 26.0615 36.9252 26.0654 36.9507C26.0616 36.9749 26.0616 36.9996 26.0654 37.0238C26.0615 37.0493 26.0615 37.0752 26.0654 37.1007C26.0615 37.1262 26.0615 37.1521 26.0654 37.1776C26.0615 37.2031 26.0615 37.229 26.0654 37.2545C26.0615 37.28 26.0615 37.306 26.0654 37.3315C26.0616 37.3557 26.0616 37.3803 26.0654 37.4046C26.0615 37.43 26.0615 37.456 26.0654 37.4815C26.0615 37.507 26.0615 37.5329 26.0654 37.5584C26.0615 37.5839 26.0615 37.6098 26.0654 37.6353C26.0615 37.6608 26.0615 37.6868 26.0654 37.7123C26.0616 37.7365 26.0616 37.7611 26.0654 37.7853C26.0615 37.8108 26.0615 37.8368 26.0654 37.8623C26.0615 37.8878 26.0615 37.9137 26.0654 37.9392C26.0615 37.9647 26.0615 37.9906 26.0654 38.0161C26.0615 38.0416 26.0615 38.0675 26.0654 38.093C26.0616 38.1172 26.0616 38.1419 26.0654 38.1661C26.0615 38.1916 26.0615 38.2175 26.0654 38.243C26.0615 38.2685 26.0615 38.2944 26.0654 38.3199C26.0615 38.3454 26.0615 38.3714 26.0654 38.3969C26.0615 38.4224 26.0615 38.4483 26.0654 38.4738C26.0616 38.498 26.0616 38.5226 26.0654 38.5468C26.0615 38.5723 26.0615 38.5983 26.0654 38.6238C26.0615 38.6493 26.0615 38.6752 26.0654 38.7007C26.0615 38.7262 26.0615 38.7522 26.0654 38.7777C26.0615 38.8032 26.0615 38.8291 26.0654 38.8546C26.0616 38.8788 26.0616 38.9034 26.0654 38.9276C26.0615 38.9531 26.0615 38.9791 26.0654 39.0046C26.0615 39.0301 26.0615 39.056 26.0654 39.0815C26.0615 39.107 26.0615 39.1329 26.0654 39.1584C26.0615 39.1839 26.0615 39.2098 26.0654 39.2353C26.0616 39.2595 26.0616 39.2842 26.0654 39.3084C26.0615 39.3339 26.0615 39.3598 26.0654 39.3853C26.0615 39.4108 26.0615 39.4367 26.0654 39.4622C26.0615 39.4877 26.0615 39.5137 26.0654 39.5392C26.0615 39.5647 26.0615 39.5906 26.0654 39.6161C26.0616 39.6403 26.0616 39.665 26.0654 39.6892C26.0615 39.7147 26.0615 39.7406 26.0654 39.7661C26.0615 39.7916 26.0615 39.8175 26.0654 39.843C26.0615 39.8685 26.0615 39.8945 26.0654 39.92C26.0615 39.9454 26.0615 39.9714 26.0654 39.9969C26.0616 40.0211 26.0616 40.0457 26.0654 40.07C26.0615 40.0955 26.0615 40.1214 26.0654 40.1469C26.0615 40.1724 26.0615 40.1983 26.0654 40.2238C26.0615 40.2493 26.0615 40.2752 26.0654 40.3007C26.0615 40.3262 26.0615 40.3521 26.0654 40.3776C26.0616 40.4018 26.0616 40.4265 26.0654 40.4507C26.0615 40.4762 26.0615 40.5021 26.0654 40.5276C26.0615 40.5531 26.0615 40.5791 26.0654 40.6046C26.0615 40.6301 26.0615 40.656 26.0654 40.6815C26.0615 40.707 26.0615 40.7329 26.0654 40.7584C26.0616 40.7826 26.0616 40.8073 26.0654 40.8315C26.0615 40.857 26.0615 40.8829 26.0654 40.9084C26.0615 40.9339 26.0615 40.9598 26.0654 40.9853C26.0615 41.0108 26.0615 41.0368 26.0654 41.0622C26.0615 41.0877 26.0615 41.1137 26.0654 41.1392C26.0616 41.1634 26.0616 41.188 26.0654 41.2123C26.0615 41.2377 26.0615 41.2637 26.0654 41.2892C26.0615 41.3147 26.0615 41.3406 26.0654 41.3661C26.0615 41.3916 26.0615 41.4175 26.0654 41.443C26.0615 41.4685 26.0615 41.4945 26.0654 41.52C26.0616 41.5442 26.0616 41.5688 26.0654 41.593C26.0615 41.6185 26.0615 41.6444 26.0654 41.6699C26.0615 41.6954 26.0615 41.7214 26.0654 41.7469C26.0615 41.7724 26.0615 41.7983 26.0654 41.8238C26.0615 41.8493 26.0615 41.8752 26.0654 41.9007C26.0616 41.9249 26.0616 41.9496 26.0654 41.9738C26.0615 41.9993 26.0615 42.0252 26.0654 42.0507C26.0615 42.0762 26.0615 42.1021 26.0654 42.1276C26.0615 42.1531 26.0615 42.179 26.0654 42.2045C26.0615 42.23 26.0615 42.256 26.0654 42.2815C26.0616 42.3057 26.0616 42.3303 26.0654 42.3545C26.0615 42.38 26.0615 42.406 26.0654 42.4315C26.0615 42.457 26.0615 42.4829 26.0654 42.5084C26.0615 42.5339 26.0615 42.5598 26.0654 42.5853C26.0615 42.6108 26.0615 42.6368 26.0654 42.6623C26.0616 42.6865 26.0616 42.7111 26.0654 42.7353C26.0615 42.7608 26.0615 42.7868 26.0654 42.8123C26.0615 42.8378 26.0615 42.8637 26.0654 42.8892C26.0615 42.9147 26.0615 42.9406 26.0654 42.9661C26.0615 42.9916 26.0615 43.0175 26.0654 43.043C26.0616 43.0672 26.0616 43.0919 26.0654 43.1161C26.0615 43.1416 26.0615 43.1675 26.0654 43.193C26.0615 43.2185 26.0615 43.2444 26.0654 43.2699C26.0615 43.2954 26.0615 43.3214 26.0654 43.3469C26.0615 43.3724 26.0615 43.3983 26.0654 43.4238C26.0616 43.448 26.0616 43.4726 26.0654 43.4968C26.0615 43.5223 26.0615 43.5483 26.0654 43.5738C26.0615 43.5993 26.0615 43.6252 26.0654 43.6507C26.0615 43.6762 26.0615 43.7022 26.0654 43.7277C26.0615 43.7531 26.0615 43.7791 26.0654 43.8046C26.0616 43.8288 26.0616 43.8534 26.0654 43.8777C26.0615 43.9032 26.0615 43.9291 26.0654 43.9546C26.0615 43.9801 26.0615 44.006 26.0654 44.0315C26.0615 44.057 26.0615 44.0829 26.0654 44.1084C26.0615 44.1339 26.0615 44.1598 26.0654 44.1853C26.0616 44.2095 26.0616 44.2342 26.0654 44.2584C26.0615 44.2839 26.0615 44.3098 26.0654 44.3353C26.0615 44.3608 26.0615 44.3867 26.0654 44.4122C26.0615 44.4377 26.0615 44.4637 26.0654 44.4892C26.0615 44.5147 26.0615 44.5406 26.0654 44.5661C26.0616 44.5903 26.0616 44.615 26.0654 44.6392C26.0615 44.6647 26.0615 44.6906 26.0654 44.7161C26.0615 44.7416 26.0615 44.7675 26.0654 44.793C26.0615 44.8185 26.0615 44.8445 26.0654 44.8699C26.0615 44.8954 26.0615 44.9214 26.0654 44.9469C26.0616 44.9711 26.0616 44.9957 26.0654 45.02C26.0615 45.0455 26.0615 45.0714 26.0654 45.0969C26.0615 45.1224 26.0615 45.1483 26.0654 45.1738C26.0615 45.1993 26.0615 45.2252 26.0654 45.2507C26.0615 45.2762 26.0615 45.3021 26.0654 45.3276C26.0616 45.3518 26.0616 45.3765 26.0654 45.4007C26.0615 45.4262 26.0615 45.4521 26.0654 45.4776C26.0615 45.5031 26.0615 45.5291 26.0654 45.5546C26.0615 45.5801 26.0615 45.606 26.0654 45.6315C26.0615 45.657 26.0615 45.6829 26.0654 45.7084C26.0616 45.7326 26.0616 45.7573 26.0654 45.7815C26.0615 45.807 26.0615 45.8329 26.0654 45.8584C26.0615 45.8839 26.0615 45.9098 26.0654 45.9353C26.0615 45.9608 26.0615 45.9867 26.0654 46.0122C26.0615 46.0377 26.0615 46.0637 26.0654 46.0892C26.0616 46.1134 26.0616 46.138 26.0654 46.1623C26.0615 46.1877 26.0615 46.2137 26.0654 46.2392C26.0615 46.2647 26.0615 46.2906 26.0654 46.3161C26.0615 46.3416 26.0615 46.3675 26.0654 46.393C26.0615 46.4185 26.0615 46.4445 26.0654 46.47C26.0616 46.4942 26.0616 46.5188 26.0654 46.543C26.0615 46.5685 26.0615 46.5944 26.0654 46.6199C26.0615 46.6454 26.0615 46.6714 26.0654 46.6969C26.0615 46.7224 26.0615 46.7483 26.0654 46.7738C26.0615 46.7993 26.0615 46.8252 26.0654 46.8507C26.0616 46.8749 26.0616 46.8996 26.0654 46.9238C26.0615 46.9493 26.0615 46.9752 26.0654 47.0007C26.0615 47.0262 26.0615 47.0521 26.0654 47.0776C26.0615 47.1031 26.0615 47.129 26.0654 47.1545C26.0615 47.18 26.0615 47.206 26.0654 47.2315C26.0616 47.2557 26.0616 47.2803 26.0654 47.3045C26.0615 47.33 26.0615 47.356 26.0654 47.3815C26.0615 47.407 26.0615 47.4329 26.0654 47.4584C26.0615 47.4839 26.0615 47.5098 26.0654 47.5353C26.0615 47.5608 26.0615 47.5868 26.0654 47.6123C26.0616 47.6365 26.0616 47.6611 26.0654 47.6853C26.0615 47.7108 26.0615 47.7368 26.0654 47.7623C26.0615 47.7878 26.0615 47.8137 26.0654 47.8392C26.0615 47.8647 26.0615 47.8906 26.0654 47.9161C26.0615 47.9416 26.0615 47.9675 26.0654 47.993C26.0616 48.0172 26.0616 48.0419 26.0654 48.0661C26.0615 48.0916 26.0615 48.1175 26.0654 48.143C26.0615 48.1685 26.0615 48.1944 26.0654 48.2199C26.0615 48.2454 26.0615 48.2714 26.0654 48.2969C26.0615 48.3224 26.0615 48.3483 26.0654 48.3738C26.0616 48.398 26.0616 48.4226 26.0654 48.4468C26.0615 48.4723 26.0615 48.4983 26.0654 48.5238C26.0615 48.5493 26.0615 48.5752 26.0654 48.6007C26.0615 48.6262 26.0615 48.6522 26.0654 48.6777C26.0615 48.7031 26.0615 48.7291 26.0654 48.7546C26.0616 48.7788 26.0616 48.8034 26.0654 48.8277C26.0615 48.8532 26.0615 48.8791 26.0654 48.9046C26.0615 48.9301 26.0615 48.956 26.0654 48.9815C26.0615 49.007 26.0615 49.0329 26.0654 49.0584C26.0615 49.0839 26.0615 49.1098 26.0654 49.1353C26.0616 49.1595 26.0616 49.1842 26.0654 49.2084C26.0615 49.2339 26.0615 49.2598 26.0654 49.2853C26.0615 49.3108 26.0615 49.3367 26.0654 49.3622C26.0615 49.3877 26.0615 49.4137 26.0654 49.4392C26.0615 49.4647 26.0615 49.4906 26.0654 49.5161C26.0616 49.5403 26.0616 49.565 26.0654 49.5892C26.0615 49.6147 26.0615 49.6406 26.0654 49.6661C26.0615 49.6916 26.0615 49.7175 26.0654 49.743C26.0615 49.7685 26.0615 49.7945 26.0654 49.8199C26.0615 49.8454 26.0615 49.8714 26.0654 49.8969C26.0616 49.9211 26.0616 49.9457 26.0654 49.97C26.0615 49.9954 26.0615 50.0214 26.0654 50.0469C26.0615 50.0724 26.0615 50.0983 26.0654 50.1238C26.0615 50.1493 26.0615 50.1752 26.0654 50.2007C26.0615 50.2262 26.0615 50.2521 26.0654 50.2776C26.0616 50.3018 26.0616 50.3265 26.0654 50.3507C26.0615 50.3762 26.0615 50.4021 26.0654 50.4276C26.0615 50.4531 26.0615 50.4791 26.0654 50.5046C26.0615 50.5301 26.0615 50.556 26.0654 50.5815C26.0615 50.607 26.0615 50.6329 26.0654 50.6584C26.0616 50.6826 26.0616 50.7073 26.0654 50.7315C26.0615 50.757 26.0615 50.7829 26.0654 50.8084C26.0615 50.8339 26.0615 50.8598 26.0654 50.8853C26.0615 50.9108 26.0615 50.9367 26.0654 50.9622C26.0615 50.9877 26.0615 51.0137 26.0654 51.0392C26.0616 51.0634 26.0616 51.088 26.0654 51.1122C26.0615 51.1377 26.0615 51.1637 26.0654 51.1892C26.0615 51.2147 26.0615 51.2406 26.0654 51.2661C26.0615 51.2916 26.0615 51.3175 26.0654 51.343C26.0615 51.3685 26.0615 51.3945 26.0654 51.42C26.0616 51.4442 26.0616 51.4688 26.0654 51.493C26.0615 51.5185 26.0615 51.5445 26.0654 51.57C26.0615 51.5955 26.0615 51.6214 26.0654 51.6469C26.0615 51.6724 26.0615 51.6983 26.0654 51.7238C26.0615 51.7493 26.0615 51.7752 26.0654 51.8007C26.0616 51.8249 26.0616 51.8496 26.0654 51.8738C26.0615 51.8993 26.0615 51.9252 26.0654 51.9507C26.0615 51.9762 26.0615 52.0021 26.0654 52.0276C26.0615 52.0531 26.0615 52.079 26.0654 52.1045C26.0615 52.13 26.0615 52.156 26.0654 52.1815C26.0616 52.2057 26.0616 52.2303 26.0654 52.2545C26.0615 52.28 26.0615 52.306 26.0654 52.3315C26.0615 52.357 26.0615 52.3829 26.0654 52.4084C26.0615 52.4339 26.0615 52.4598 26.0654 52.4853C26.0615 52.5108 26.0615 52.5368 26.0654 52.5623C26.0616 52.5865 26.0616 52.6111 26.0654 52.6353C26.0615 52.6608 26.0615 52.6868 26.0654 52.7123C26.0615 52.7378 26.0615 52.7637 26.0654 52.7892C26.0615 52.8147 26.0615 52.8406 26.0654 52.8661C26.0615 52.8916 26.0615 52.9175 26.0654 52.943C26.0616 52.9672 26.0616 52.9919 26.0654 53.0161C26.0615 53.0416 26.0615 53.0675 26.0654 53.093C26.0615 53.1185 26.0615 53.1444 26.0654 53.1699C26.0615 53.1954 26.0615 53.2214 26.0654 53.2469C26.0615 53.2724 26.0615 53.2983 26.0654 53.3238C26.0616 53.348 26.0616 53.3727 26.0654 53.3969C26.0615 53.4224 26.0615 53.4483 26.0654 53.4738C26.0615 53.4993 26.0615 53.5252 26.0654 53.5507C26.0615 53.5762 26.0615 53.6022 26.0654 53.6276C26.0615 53.6531 26.0615 53.6791 26.0654 53.7046C26.0616 53.7288 26.0616 53.7534 26.0654 53.7777C26.0615 53.8032 26.0615 53.8291 26.0654 53.8546C26.0615 53.8801 26.0615 53.906 26.0654 53.9315C26.0615 53.957 26.0615 53.9829 26.0654 54.0084C26.0615 54.0339 26.0615 54.0598 26.0654 54.0853C26.0616 54.1095 26.0616 54.1342 26.0654 54.1584C26.0615 54.1839 26.0615 54.2098 26.0654 54.2353C26.0615 54.2608 26.0615 54.2867 26.0654 54.3122C26.0615 54.3377 26.0615 54.3637 26.0654 54.3892C26.0615 54.4147 26.0615 54.4406 26.0654 54.4661C26.0616 54.4903 26.0616 54.515 26.0654 54.5392C26.0615 54.5647 26.0615 54.5906 26.0654 54.6161C26.0615 54.6416 26.0615 54.6675 26.0654 54.693C26.0615 54.7185 26.0615 54.7444 26.0654 54.7699C26.0615 54.7954 26.0615 54.8214 26.0654 54.8468C26.0616 54.8711 26.0616 54.8957 26.0654 54.92C26.0615 54.9454 26.0615 54.9714 26.0654 54.9969C26.0615 55.0224 26.0615 55.0483 26.0654 55.0738C26.0615 55.0993 26.0615 55.1252 26.0654 55.1507C26.0615 55.1762 26.0615 55.2021 26.0654 55.2276C26.0616 55.2518 26.0616 55.2765 26.0654 55.3007C26.0615 55.3262 26.0615 55.3521 26.0654 55.3776C26.0615 55.4031 26.0615 55.4291 26.0654 55.4546C26.0615 55.4801 26.0615 55.506 26.0654 55.5315C26.0615 55.557 26.0615 55.5829 26.0654 55.6084C26.0616 55.6326 26.0616 55.6573 26.0654 55.6815C26.0615 55.707 26.0615 55.7329 26.0654 55.7584C26.0615 55.7839 26.0615 55.8098 26.0654 55.8353C26.0615 55.8608 26.0615 55.8867 26.0654 55.9122C26.0615 55.9377 26.0615 55.9637 26.0654 55.9892C26.0616 56.0134 26.0616 56.038 26.0654 56.0622C26.0615 56.0877 26.0615 56.1137 26.0654 56.1392C26.0615 56.1646 26.0615 56.1906 26.0654 56.2161C26.0615 56.2416 26.0615 56.2675 26.0654 56.293C26.0615 56.3185 26.0615 56.3445 26.0654 56.37C26.0616 56.3942 26.0616 56.4188 26.0654 56.443C26.0615 56.4685 26.0615 56.4945 26.0654 56.52C26.0615 56.5455 26.0615 56.5714 26.0654 56.5969C26.0615 56.6224 26.0615 56.6483 26.0654 56.6738C26.0615 56.6993 26.0615 56.7252 26.0654 56.7507C26.0616 56.7749 26.0616 56.7996 26.0654 56.8238C26.0615 56.8493 26.0615 56.8752 26.0654 56.9007C26.0615 56.9262 26.0615 56.9521 26.0654 56.9776C26.0615 57.0031 26.0615 57.029 26.0654 57.0545C26.0615 57.08 26.0615 57.106 26.0654 57.1315C26.0616 57.1557 26.0616 57.1803 26.0654 57.2045C26.0615 57.23 26.0615 57.256 26.0654 57.2815C26.0615 57.307 26.0615 57.3329 26.0654 57.3584C26.0615 57.3839 26.0615 57.4099 26.0654 57.4354C26.0615 57.4608 26.0615 57.4868 26.0654 57.5123C26.0616 57.5365 26.0616 57.5611 26.0654 57.5853C26.0615 57.6108 26.0615 57.6368 26.0654 57.6623C26.0615 57.6878 26.0615 57.7137 26.0654 57.7392C26.0615 57.7647 26.0615 57.7906 26.0654 57.8161C26.0615 57.8416 26.0615 57.8675 26.0654 57.893C26.0616 57.9172 26.0616 57.9419 26.0654 57.9661C26.0615 57.9916 26.0615 58.0175 26.0654 58.043C26.0615 58.0685 26.0615 58.0944 26.0654 58.1199C26.0615 58.1454 26.0615 58.1714 26.0654 58.1969C26.0615 58.2224 26.0615 58.2483 26.0654 58.2738C26.0616 58.298 26.0616 58.3227 26.0654 58.3469C26.0615 58.3724 26.0615 58.3983 26.0654 58.4238C26.0615 58.4493 26.0615 58.4752 26.0654 58.5007C26.0615 58.5262 26.0615 58.5522 26.0654 58.5776C26.0615 58.6031 26.0615 58.6291 26.0654 58.6546C26.0616 58.6788 26.0616 58.7034 26.0654 58.7277C26.0615 58.7531 26.0615 58.7791 26.0654 58.8046C26.0615 58.8301 26.0615 58.856 26.0654 58.8815C26.0615 58.907 26.0615 58.9329 26.0654 58.9584C26.0615 58.9839 26.0615 59.0098 26.0654 59.0353C26.0615 59.0608 26.0615 59.0868 26.0654 59.1123C26.0616 59.1365 26.0616 59.1611 26.0654 59.1853C26.0615 59.2108 26.0615 59.2368 26.0654 59.2623C26.0615 59.2878 26.0615 59.3137 26.0654 59.3392C26.0615 59.3647 26.0615 59.3906 26.0654 59.4161C26.0615 59.4416 26.0615 59.4675 26.0654 59.493C26.0616 59.5172 26.0616 59.5419 26.0654 59.5661C26.0615 59.5916 26.0615 59.6175 26.0654 59.643C26.0615 59.6685 26.0615 59.6944 26.0654 59.7199C26.0615 59.7454 26.0615 59.7714 26.0654 59.7968C26.0615 59.8223 26.0615 59.8483 26.0654 59.8738C26.0616 59.898 26.0616 59.9226 26.0654 59.9469C26.0615 59.9724 26.0615 59.9983 26.0654 60.0238C26.0615 60.0493 26.0615 60.0752 26.0654 60.1007C26.0615 60.1262 26.0615 60.1521 26.0654 60.1776C26.0615 60.2031 26.0615 60.2291 26.0654 60.2546C26.0616 60.2788 26.0616 60.3034 26.0654 60.3276C26.0615 60.3531 26.0615 60.3791 26.0654 60.4046C26.0615 60.4301 26.0615 60.456 26.0654 60.4815C26.0615 60.507 26.0615 60.5329 26.0654 60.5584C26.0615 60.5839 26.0615 60.6098 26.0654 60.6353C26.0616 60.6595 26.0616 60.6842 26.0654 60.7084C26.0615 60.7339 26.0615 60.7598 26.0654 60.7853C26.0615 60.8108 26.0615 60.8367 26.0654 60.8622C26.0615 60.8877 26.0615 60.9137 26.0654 60.9392C26.0615 60.9647 26.0615 60.9906 26.0654 61.0161C26.0616 61.0403 26.0616 61.065 26.0654 61.0892C26.0615 61.1147 26.0615 61.1406 26.0654 61.1661C26.0615 61.1916 26.0615 61.2175 26.0654 61.243C26.0615 61.2685 26.0615 61.2945 26.0654 61.32C26.0615 61.3455 26.0615 61.3714 26.0654 61.3969C26.0616 61.4211 26.0616 61.4458 26.0654 61.47C26.0615 61.4955 26.0615 61.5214 26.0654 61.5469C26.0615 61.5724 26.0615 61.5983 26.0654 61.6238C26.0615 61.6493 26.0615 61.6752 26.0654 61.7007C26.0615 61.7262 26.0615 61.7521 26.0654 61.7776C26.0616 61.8018 26.0616 61.8265 26.0654 61.8507C26.0615 61.8762 26.0615 61.9021 26.0654 61.9276C26.0615 61.9531 26.0615 61.979 26.0654 62.0045C26.0615 62.03 26.0615 62.056 26.0654 62.0815C26.0615 62.107 26.0615 62.1329 26.0654 62.1584C26.0616 62.1826 26.0616 62.2073 26.0654 62.2315C26.0615 62.257 26.0615 62.2829 26.0654 62.3084C26.0615 62.3339 26.0615 62.3599 26.0654 62.3853C26.0615 62.4108 26.0615 62.4368 26.0654 62.4623C26.0615 62.4877 26.0615 62.5137 26.0654 62.5392C26.0616 62.5634 26.0616 62.588 26.0654 62.6123C26.0615 62.6378 26.0615 62.6637 26.0654 62.6892C26.0615 62.7147 26.0615 62.7406 26.0654 62.7661C26.0615 62.7916 26.0615 62.8175 26.0654 62.843C26.0615 62.8685 26.0615 62.8944 26.0654 62.9199C26.0616 62.9441 26.0616 62.9688 26.0654 62.993C26.0615 63.0185 26.0615 63.0444 26.0654 63.0699C26.0615 63.0954 26.0615 63.1214 26.0654 63.1469C26.0615 63.1724 26.0615 63.1983 26.0654 63.2238C26.0615 63.2493 26.0615 63.2752 26.0654 63.3007C26.0616 63.3249 26.0616 63.3496 26.0654 63.3738C26.0615 63.3993 26.0615 63.4252 26.0654 63.4507C26.0615 63.4762 26.0615 63.5021 26.0654 63.5276C26.0615 63.5531 26.0615 63.5791 26.0654 63.6045C26.0615 63.63 26.0615 63.656 26.0654 63.6815C26.0616 63.7057 26.0616 63.7303 26.0654 63.7546C26.0615 63.7801 26.0615 63.806 26.0654 63.8315C26.0615 63.857 26.0615 63.8829 26.0654 63.9084C26.0615 63.9339 26.0615 63.9598 26.0654 63.9853C26.0615 64.0108 26.0615 64.0368 26.0654 64.0623C26.0616 64.0865 26.0616 64.1111 26.0654 64.1353C26.0615 64.1608 26.0615 64.1868 26.0654 64.2123C26.0615 64.2378 26.0615 64.2637 26.0654 64.2892C26.0615 64.3147 26.0615 64.3406 26.0654 64.3661C26.0615 64.3916 26.0615 64.4175 26.0654 64.443C26.0616 64.4672 26.0616 64.4919 26.0654 64.5161C26.0615 64.5416 26.0615 64.5675 26.0654 64.593C26.0615 64.6185 26.0615 64.6444 26.0654 64.6699C26.0615 64.6954 26.0615 64.7213 26.0654 64.7468C26.0615 64.7723 26.0615 64.7983 26.0654 64.8238C26.0616 64.848 26.0616 64.8726 26.0654 64.8969C26.0615 64.9223 26.0615 64.9483 26.0654 64.9738C26.0615 64.9993 26.0615 65.0252 26.0654 65.0507C26.0615 65.0762 26.0615 65.1022 26.0654 65.1277C26.0615 65.1532 26.0615 65.1791 26.0654 65.2046C26.0616 65.2288 26.0616 65.2534 26.0654 65.2776C26.0615 65.3031 26.0615 65.3291 26.0654 65.3546C26.0615 65.3801 26.0615 65.406 26.0654 65.4315C26.0615 65.457 26.0615 65.4829 26.0654 65.5084C26.0615 65.5339 26.0615 65.5598 26.0654 65.5853C26.0616 65.6095 26.0616 65.6342 26.0654 65.6584C26.0615 65.6839 26.0615 65.7098 26.0654 65.7353C26.0615 65.7608 26.0615 65.7867 26.0654 65.8122C26.0615 65.8377 26.0615 65.8637 26.0654 65.8892C26.0462 66.3392 26.3346 66.793 26.9308 67.1353L57.8962 85.0123C58.5429 85.34 59.2576 85.5108 59.9826 85.5108C60.7076 85.5108 61.4225 85.34 62.0692 85.0123L92.8384 67.1353C93.4269 66.7892 93.7115 66.3392 93.6922 65.8892V20.2007Z" fill="url(#paint4_linear_1076_12297)"/>
<path d="M93.6922 20.2007C93.6922 19.7507 93.4192 19.2969 92.823 18.9507L61.8576 1.0738C61.2114 0.746659 60.4973 0.576172 59.773 0.576172C59.0487 0.576172 58.3347 0.746659 57.6885 1.0738L26.9192 18.9507C26.3269 19.293 26.0462 19.7469 26.0654 20.1969C26.0616 20.2211 26.0616 20.2458 26.0654 20.27C26.0615 20.2955 26.0615 20.3214 26.0654 20.3469C26.0615 20.3724 26.0615 20.3983 26.0654 20.4238C26.0615 20.4493 26.0615 20.4752 26.0654 20.5007C26.0615 20.5262 26.0615 20.5521 26.0654 20.5776C26.0616 20.6018 26.0616 20.6265 26.0654 20.6507C26.0615 20.6762 26.0615 20.7021 26.0654 20.7276C26.0615 20.7531 26.0615 20.779 26.0654 20.8045C26.0615 20.83 26.0615 20.856 26.0654 20.8815C26.0615 20.907 26.0615 20.9329 26.0654 20.9584C26.0616 20.9826 26.0616 21.0073 26.0654 21.0315C26.0615 21.057 26.0615 21.0829 26.0654 21.1084C26.0615 21.1339 26.0615 21.1599 26.0654 21.1854C26.0615 21.2108 26.0615 21.2368 26.0654 21.2623C26.0615 21.2878 26.0615 21.3137 26.0654 21.3392C26.0616 21.3634 26.0616 21.3881 26.0654 21.4123C26.0615 21.4378 26.0615 21.4637 26.0654 21.4892C26.0615 21.5147 26.0615 21.5406 26.0654 21.5661C26.0615 21.5916 26.0615 21.6175 26.0654 21.643C26.0615 21.6685 26.0615 21.6944 26.0654 21.7199C26.0616 21.7441 26.0616 21.7688 26.0654 21.793C26.0615 21.8185 26.0615 21.8444 26.0654 21.8699C26.0615 21.8954 26.0615 21.9214 26.0654 21.9469C26.0615 21.9724 26.0615 21.9983 26.0654 22.0238C26.0615 22.0493 26.0615 22.0752 26.0654 22.1007C26.0616 22.1249 26.0616 22.1496 26.0654 22.1738C26.0615 22.1993 26.0615 22.2252 26.0654 22.2507C26.0615 22.2762 26.0615 22.3021 26.0654 22.3276C26.0615 22.3531 26.0615 22.3791 26.0654 22.4046C26.0615 22.43 26.0615 22.456 26.0654 22.4815C26.0616 22.5057 26.0616 22.5303 26.0654 22.5546C26.0615 22.5801 26.0615 22.606 26.0654 22.6315C26.0615 22.657 26.0615 22.6829 26.0654 22.7084C26.0615 22.7339 26.0615 22.7598 26.0654 22.7853C26.0615 22.8108 26.0615 22.8368 26.0654 22.8623C26.0616 22.8865 26.0616 22.9111 26.0654 22.9353C26.0615 22.9608 26.0615 22.9868 26.0654 23.0123C26.0615 23.0378 26.0615 23.0637 26.0654 23.0892C26.0615 23.1147 26.0615 23.1406 26.0654 23.1661C26.0615 23.1916 26.0615 23.2175 26.0654 23.243C26.0616 23.2672 26.0616 23.2919 26.0654 23.3161C26.0615 23.3416 26.0615 23.3675 26.0654 23.393C26.0615 23.4185 26.0615 23.4444 26.0654 23.4699C26.0615 23.4954 26.0615 23.5214 26.0654 23.5468C26.0615 23.5723 26.0615 23.5983 26.0654 23.6238C26.0616 23.648 26.0616 23.6726 26.0654 23.6969C26.0615 23.7223 26.0615 23.7483 26.0654 23.7738C26.0615 23.7993 26.0615 23.8252 26.0654 23.8507C26.0615 23.8762 26.0615 23.9021 26.0654 23.9276C26.0615 23.9531 26.0615 23.9791 26.0654 24.0046C26.0616 24.0288 26.0616 24.0534 26.0654 24.0776C26.0615 24.1031 26.0615 24.1291 26.0654 24.1546C26.0615 24.1801 26.0615 24.206 26.0654 24.2315C26.0615 24.257 26.0615 24.2829 26.0654 24.3084C26.0615 24.3339 26.0615 24.3598 26.0654 24.3853C26.0616 24.4095 26.0616 24.4342 26.0654 24.4584C26.0615 24.4839 26.0615 24.5098 26.0654 24.5353C26.0615 24.5608 26.0615 24.5867 26.0654 24.6122C26.0615 24.6377 26.0615 24.6637 26.0654 24.6892C26.0615 24.7147 26.0615 24.7406 26.0654 24.7661C26.0616 24.7903 26.0616 24.815 26.0654 24.8392C26.0615 24.8647 26.0615 24.8906 26.0654 24.9161C26.0615 24.9416 26.0615 24.9675 26.0654 24.993C26.0615 25.0185 26.0615 25.0445 26.0654 25.07C26.0615 25.0955 26.0615 25.1214 26.0654 25.1469C26.0616 25.1711 26.0616 25.1958 26.0654 25.22C26.0615 25.2455 26.0615 25.2714 26.0654 25.2969C26.0615 25.3224 26.0615 25.3483 26.0654 25.3738C26.0615 25.3993 26.0615 25.4252 26.0654 25.4507C26.0615 25.4762 26.0615 25.5021 26.0654 25.5276C26.0616 25.5518 26.0616 25.5765 26.0654 25.6007C26.0615 25.6262 26.0615 25.6521 26.0654 25.6776C26.0615 25.7031 26.0615 25.729 26.0654 25.7545C26.0615 25.78 26.0615 25.806 26.0654 25.8315C26.0615 25.857 26.0615 25.8829 26.0654 25.9084C26.0616 25.9326 26.0616 25.9573 26.0654 25.9815C26.0615 26.007 26.0615 26.0329 26.0654 26.0584C26.0615 26.0839 26.0615 26.1099 26.0654 26.1353C26.0615 26.1608 26.0615 26.1868 26.0654 26.2123C26.0615 26.2377 26.0615 26.2637 26.0654 26.2892C26.0616 26.3134 26.0616 26.338 26.0654 26.3623C26.0615 26.3878 26.0615 26.4137 26.0654 26.4392C26.0615 26.4647 26.0615 26.4906 26.0654 26.5161C26.0615 26.5416 26.0615 26.5675 26.0654 26.593C26.0615 26.6185 26.0615 26.6444 26.0654 26.6699C26.0616 26.6941 26.0616 26.7188 26.0654 26.743C26.0615 26.7685 26.0615 26.7944 26.0654 26.8199C26.0615 26.8454 26.0615 26.8714 26.0654 26.8969C26.0615 26.9224 26.0615 26.9483 26.0654 26.9738C26.0615 26.9993 26.0615 27.0252 26.0654 27.0507C26.0616 27.0749 26.0616 27.0996 26.0654 27.1238C26.0615 27.1493 26.0615 27.1752 26.0654 27.2007C26.0615 27.2262 26.0615 27.2521 26.0654 27.2776C26.0615 27.3031 26.0615 27.3291 26.0654 27.3545C26.0615 27.38 26.0615 27.406 26.0654 27.4315C26.0616 27.4557 26.0616 27.4803 26.0654 27.5046C26.0615 27.5301 26.0615 27.556 26.0654 27.5815C26.0615 27.607 26.0615 27.6329 26.0654 27.6584C26.0615 27.6839 26.0615 27.7098 26.0654 27.7353C26.0615 27.7608 26.0615 27.7868 26.0654 27.8123C26.0616 27.8365 26.0616 27.8611 26.0654 27.8853C26.0615 27.9108 26.0615 27.9368 26.0654 27.9623C26.0615 27.9878 26.0615 28.0137 26.0654 28.0392C26.0615 28.0647 26.0615 28.0906 26.0654 28.1161C26.0615 28.1416 26.0615 28.1675 26.0654 28.193C26.0616 28.2172 26.0616 28.2419 26.0654 28.2661C26.0615 28.2916 26.0615 28.3175 26.0654 28.343C26.0615 28.3685 26.0615 28.3944 26.0654 28.4199C26.0615 28.4454 26.0615 28.4713 26.0654 28.4968C26.0615 28.5223 26.0615 28.5483 26.0654 28.5738C26.0616 28.598 26.0616 28.6226 26.0654 28.6469C26.0615 28.6723 26.0615 28.6983 26.0654 28.7238C26.0615 28.7493 26.0615 28.7752 26.0654 28.8007C26.0615 28.8262 26.0615 28.8522 26.0654 28.8777C26.0615 28.9032 26.0615 28.9291 26.0654 28.9546C26.0616 28.9788 26.0616 29.0034 26.0654 29.0276C26.0615 29.0531 26.0615 29.0791 26.0654 29.1046C26.0615 29.1301 26.0615 29.156 26.0654 29.1815C26.0615 29.207 26.0615 29.2329 26.0654 29.2584C26.0615 29.2839 26.0615 29.3098 26.0654 29.3353C26.0616 29.3595 26.0616 29.3842 26.0654 29.4084C26.0615 29.4339 26.0615 29.4598 26.0654 29.4853C26.0615 29.5108 26.0615 29.5367 26.0654 29.5622C26.0615 29.5877 26.0615 29.6137 26.0654 29.6392C26.0615 29.6647 26.0615 29.6906 26.0654 29.7161C26.0616 29.7403 26.0616 29.765 26.0654 29.7892C26.0615 29.8147 26.0615 29.8406 26.0654 29.8661C26.0615 29.8916 26.0615 29.9175 26.0654 29.943C26.0615 29.9685 26.0615 29.9945 26.0654 30.02C26.0615 30.0455 26.0615 30.0714 26.0654 30.0969C26.0616 30.1211 26.0616 30.1458 26.0654 30.17C26.0615 30.1955 26.0615 30.2214 26.0654 30.2469C26.0615 30.2724 26.0615 30.2983 26.0654 30.3238C26.0615 30.3493 26.0615 30.3752 26.0654 30.4007C26.0615 30.4262 26.0615 30.4521 26.0654 30.4776C26.0616 30.5018 26.0616 30.5265 26.0654 30.5507C26.0615 30.5762 26.0615 30.6021 26.0654 30.6276C26.0615 30.6531 26.0615 30.6791 26.0654 30.7046C26.0615 30.7301 26.0615 30.756 26.0654 30.7815C26.0615 30.807 26.0615 30.8329 26.0654 30.8584C26.0616 30.8826 26.0616 30.9073 26.0654 30.9315C26.0615 30.957 26.0615 30.9829 26.0654 31.0084C26.0615 31.0339 26.0615 31.0598 26.0654 31.0853C26.0615 31.1108 26.0615 31.1368 26.0654 31.1623C26.0615 31.1877 26.0615 31.2137 26.0654 31.2392C26.0616 31.2634 26.0616 31.288 26.0654 31.3123C26.0615 31.3378 26.0615 31.3637 26.0654 31.3892C26.0615 31.4147 26.0615 31.4406 26.0654 31.4661C26.0615 31.4916 26.0615 31.5175 26.0654 31.543C26.0615 31.5685 26.0615 31.5944 26.0654 31.6199C26.0616 31.6441 26.0616 31.6688 26.0654 31.693C26.0615 31.7185 26.0615 31.7444 26.0654 31.7699C26.0615 31.7954 26.0615 31.8214 26.0654 31.8469C26.0615 31.8724 26.0615 31.8983 26.0654 31.9238C26.0615 31.9493 26.0615 31.9752 26.0654 32.0007C26.0616 32.0249 26.0616 32.0496 26.0654 32.0738C26.0615 32.0993 26.0615 32.1252 26.0654 32.1507C26.0615 32.1762 26.0615 32.2021 26.0654 32.2276C26.0615 32.2531 26.0615 32.2791 26.0654 32.3045C26.0615 32.33 26.0615 32.356 26.0654 32.3815C26.0616 32.4057 26.0616 32.4303 26.0654 32.4546C26.0615 32.48 26.0615 32.506 26.0654 32.5315C26.0615 32.557 26.0615 32.5829 26.0654 32.6084C26.0615 32.6339 26.0615 32.6598 26.0654 32.6853C26.0615 32.7108 26.0615 32.7368 26.0654 32.7623C26.0616 32.7865 26.0616 32.8111 26.0654 32.8353C26.0615 32.8608 26.0615 32.8868 26.0654 32.9123C26.0615 32.9378 26.0615 32.9637 26.0654 32.9892C26.0615 33.0147 26.0615 33.0406 26.0654 33.0661C26.0615 33.0916 26.0615 33.1175 26.0654 33.143C26.0616 33.1672 26.0616 33.1919 26.0654 33.2161C26.0615 33.2416 26.0615 33.2675 26.0654 33.293C26.0615 33.3185 26.0615 33.3444 26.0654 33.3699C26.0615 33.3954 26.0615 33.4213 26.0654 33.4468C26.0615 33.4723 26.0615 33.4983 26.0654 33.5238C26.0616 33.548 26.0616 33.5726 26.0654 33.5968C26.0615 33.6223 26.0615 33.6483 26.0654 33.6738C26.0615 33.6993 26.0615 33.7252 26.0654 33.7507C26.0615 33.7762 26.0615 33.8022 26.0654 33.8277C26.0615 33.8532 26.0615 33.8791 26.0654 33.9046C26.0616 33.9288 26.0616 33.9534 26.0654 33.9776C26.0615 34.0031 26.0615 34.0291 26.0654 34.0546C26.0615 34.0801 26.0615 34.106 26.0654 34.1315C26.0615 34.157 26.0615 34.1829 26.0654 34.2084C26.0615 34.2339 26.0615 34.2598 26.0654 34.2853C26.0616 34.3095 26.0616 34.3342 26.0654 34.3584C26.0615 34.3839 26.0615 34.4098 26.0654 34.4353C26.0615 34.4608 26.0615 34.4867 26.0654 34.5122C26.0615 34.5377 26.0615 34.5637 26.0654 34.5892C26.0615 34.6147 26.0615 34.6406 26.0654 34.6661C26.0616 34.6903 26.0616 34.715 26.0654 34.7392C26.0615 34.7647 26.0615 34.7906 26.0654 34.8161C26.0615 34.8416 26.0615 34.8675 26.0654 34.893C26.0615 34.9185 26.0615 34.9445 26.0654 34.97C26.0615 34.9954 26.0615 35.0214 26.0654 35.0469C26.0616 35.0711 26.0616 35.0957 26.0654 35.12C26.0615 35.1455 26.0615 35.1714 26.0654 35.1969C26.0615 35.2224 26.0615 35.2483 26.0654 35.2738C26.0615 35.2993 26.0615 35.3252 26.0654 35.3507C26.0615 35.3762 26.0615 35.4021 26.0654 35.4276C26.0616 35.4518 26.0616 35.4765 26.0654 35.5007C26.0615 35.5262 26.0615 35.5521 26.0654 35.5776C26.0615 35.6031 26.0615 35.6291 26.0654 35.6546C26.0615 35.6801 26.0615 35.706 26.0654 35.7315C26.0615 35.757 26.0615 35.7829 26.0654 35.8084C26.0616 35.8326 26.0616 35.8573 26.0654 35.8815C26.0615 35.907 26.0615 35.9329 26.0654 35.9584C26.0615 35.9839 26.0615 36.0098 26.0654 36.0353C26.0615 36.0608 26.0615 36.0868 26.0654 36.1122C26.0615 36.1377 26.0615 36.1637 26.0654 36.1892C26.0616 36.2134 26.0616 36.238 26.0654 36.2623C26.0615 36.2878 26.0615 36.3137 26.0654 36.3392C26.0615 36.3647 26.0615 36.3906 26.0654 36.4161C26.0615 36.4416 26.0615 36.4675 26.0654 36.493C26.0615 36.5185 26.0615 36.5445 26.0654 36.57C26.0616 36.5942 26.0616 36.6188 26.0654 36.643C26.0615 36.6685 26.0615 36.6944 26.0654 36.7199C26.0615 36.7454 26.0615 36.7714 26.0654 36.7969C26.0615 36.8224 26.0615 36.8483 26.0654 36.8738C26.0615 36.8993 26.0615 36.9252 26.0654 36.9507C26.0616 36.9749 26.0616 36.9996 26.0654 37.0238C26.0615 37.0493 26.0615 37.0752 26.0654 37.1007C26.0615 37.1262 26.0615 37.1521 26.0654 37.1776C26.0615 37.2031 26.0615 37.229 26.0654 37.2545C26.0615 37.28 26.0615 37.306 26.0654 37.3315C26.0616 37.3557 26.0616 37.3803 26.0654 37.4046C26.0615 37.43 26.0615 37.456 26.0654 37.4815C26.0615 37.507 26.0615 37.5329 26.0654 37.5584C26.0615 37.5839 26.0615 37.6098 26.0654 37.6353C26.0615 37.6608 26.0615 37.6868 26.0654 37.7123C26.0616 37.7365 26.0616 37.7611 26.0654 37.7853C26.0615 37.8108 26.0615 37.8368 26.0654 37.8623C26.0615 37.8878 26.0615 37.9137 26.0654 37.9392C26.0615 37.9647 26.0615 37.9906 26.0654 38.0161C26.0615 38.0416 26.0615 38.0675 26.0654 38.093C26.0616 38.1172 26.0616 38.1419 26.0654 38.1661C26.0615 38.1916 26.0615 38.2175 26.0654 38.243C26.0615 38.2685 26.0615 38.2944 26.0654 38.3199C26.0615 38.3454 26.0615 38.3714 26.0654 38.3969C26.0615 38.4224 26.0615 38.4483 26.0654 38.4738C26.0616 38.498 26.0616 38.5226 26.0654 38.5468C26.0615 38.5723 26.0615 38.5983 26.0654 38.6238C26.0615 38.6493 26.0615 38.6752 26.0654 38.7007C26.0615 38.7262 26.0615 38.7522 26.0654 38.7777C26.0615 38.8032 26.0615 38.8291 26.0654 38.8546C26.0616 38.8788 26.0616 38.9034 26.0654 38.9276C26.0615 38.9531 26.0615 38.9791 26.0654 39.0046C26.0615 39.0301 26.0615 39.056 26.0654 39.0815C26.0615 39.107 26.0615 39.1329 26.0654 39.1584C26.0615 39.1839 26.0615 39.2098 26.0654 39.2353C26.0616 39.2595 26.0616 39.2842 26.0654 39.3084C26.0615 39.3339 26.0615 39.3598 26.0654 39.3853C26.0615 39.4108 26.0615 39.4367 26.0654 39.4622C26.0615 39.4877 26.0615 39.5137 26.0654 39.5392C26.0615 39.5647 26.0615 39.5906 26.0654 39.6161C26.0616 39.6403 26.0616 39.665 26.0654 39.6892C26.0615 39.7147 26.0615 39.7406 26.0654 39.7661C26.0615 39.7916 26.0615 39.8175 26.0654 39.843C26.0615 39.8685 26.0615 39.8945 26.0654 39.92C26.0615 39.9454 26.0615 39.9714 26.0654 39.9969C26.0616 40.0211 26.0616 40.0457 26.0654 40.07C26.0615 40.0955 26.0615 40.1214 26.0654 40.1469C26.0615 40.1724 26.0615 40.1983 26.0654 40.2238C26.0615 40.2493 26.0615 40.2752 26.0654 40.3007C26.0615 40.3262 26.0615 40.3521 26.0654 40.3776C26.0616 40.4018 26.0616 40.4265 26.0654 40.4507C26.0615 40.4762 26.0615 40.5021 26.0654 40.5276C26.0615 40.5531 26.0615 40.5791 26.0654 40.6046C26.0615 40.6301 26.0615 40.656 26.0654 40.6815C26.0615 40.707 26.0615 40.7329 26.0654 40.7584C26.0616 40.7826 26.0616 40.8073 26.0654 40.8315C26.0615 40.857 26.0615 40.8829 26.0654 40.9084C26.0615 40.9339 26.0615 40.9598 26.0654 40.9853C26.0615 41.0108 26.0615 41.0368 26.0654 41.0622C26.0615 41.0877 26.0615 41.1137 26.0654 41.1392C26.0616 41.1634 26.0616 41.188 26.0654 41.2123C26.0615 41.2377 26.0615 41.2637 26.0654 41.2892C26.0615 41.3147 26.0615 41.3406 26.0654 41.3661C26.0615 41.3916 26.0615 41.4175 26.0654 41.443C26.0615 41.4685 26.0615 41.4945 26.0654 41.52C26.0616 41.5442 26.0616 41.5688 26.0654 41.593C26.0615 41.6185 26.0615 41.6444 26.0654 41.6699C26.0615 41.6954 26.0615 41.7214 26.0654 41.7469C26.0615 41.7724 26.0615 41.7983 26.0654 41.8238C26.0615 41.8493 26.0615 41.8752 26.0654 41.9007C26.0616 41.9249 26.0616 41.9496 26.0654 41.9738C26.0615 41.9993 26.0615 42.0252 26.0654 42.0507C26.0615 42.0762 26.0615 42.1021 26.0654 42.1276C26.0615 42.1531 26.0615 42.179 26.0654 42.2045C26.0615 42.23 26.0615 42.256 26.0654 42.2815C26.0616 42.3057 26.0616 42.3303 26.0654 42.3545C26.0615 42.38 26.0615 42.406 26.0654 42.4315C26.0615 42.457 26.0615 42.4829 26.0654 42.5084C26.0615 42.5339 26.0615 42.5598 26.0654 42.5853C26.0615 42.6108 26.0615 42.6368 26.0654 42.6623C26.0616 42.6865 26.0616 42.7111 26.0654 42.7353C26.0615 42.7608 26.0615 42.7868 26.0654 42.8123C26.0615 42.8378 26.0615 42.8637 26.0654 42.8892C26.0615 42.9147 26.0615 42.9406 26.0654 42.9661C26.0615 42.9916 26.0615 43.0175 26.0654 43.043C26.0616 43.0672 26.0616 43.0919 26.0654 43.1161C26.0615 43.1416 26.0615 43.1675 26.0654 43.193C26.0615 43.2185 26.0615 43.2444 26.0654 43.2699C26.0615 43.2954 26.0615 43.3214 26.0654 43.3469C26.0615 43.3724 26.0615 43.3983 26.0654 43.4238C26.0616 43.448 26.0616 43.4726 26.0654 43.4968C26.0615 43.5223 26.0615 43.5483 26.0654 43.5738C26.0615 43.5993 26.0615 43.6252 26.0654 43.6507C26.0615 43.6762 26.0615 43.7022 26.0654 43.7277C26.0615 43.7531 26.0615 43.7791 26.0654 43.8046C26.0616 43.8288 26.0616 43.8534 26.0654 43.8777C26.0615 43.9032 26.0615 43.9291 26.0654 43.9546C26.0615 43.9801 26.0615 44.006 26.0654 44.0315C26.0615 44.057 26.0615 44.0829 26.0654 44.1084C26.0615 44.1339 26.0615 44.1598 26.0654 44.1853C26.0616 44.2095 26.0616 44.2342 26.0654 44.2584C26.0615 44.2839 26.0615 44.3098 26.0654 44.3353C26.0615 44.3608 26.0615 44.3867 26.0654 44.4122C26.0615 44.4377 26.0615 44.4637 26.0654 44.4892C26.0615 44.5147 26.0615 44.5406 26.0654 44.5661C26.0616 44.5903 26.0616 44.615 26.0654 44.6392C26.0615 44.6647 26.0615 44.6906 26.0654 44.7161C26.0615 44.7416 26.0615 44.7675 26.0654 44.793C26.0615 44.8185 26.0615 44.8445 26.0654 44.8699C26.0615 44.8954 26.0615 44.9214 26.0654 44.9469C26.0616 44.9711 26.0616 44.9957 26.0654 45.02C26.0615 45.0455 26.0615 45.0714 26.0654 45.0969C26.0615 45.1224 26.0615 45.1483 26.0654 45.1738C26.0615 45.1993 26.0615 45.2252 26.0654 45.2507C26.0615 45.2762 26.0615 45.3021 26.0654 45.3276C26.0616 45.3518 26.0616 45.3765 26.0654 45.4007C26.0615 45.4262 26.0615 45.4521 26.0654 45.4776C26.0615 45.5031 26.0615 45.5291 26.0654 45.5546C26.0615 45.5801 26.0615 45.606 26.0654 45.6315C26.0615 45.657 26.0615 45.6829 26.0654 45.7084C26.0616 45.7326 26.0616 45.7573 26.0654 45.7815C26.0615 45.807 26.0615 45.8329 26.0654 45.8584C26.0615 45.8839 26.0615 45.9098 26.0654 45.9353C26.0615 45.9608 26.0615 45.9867 26.0654 46.0122C26.0615 46.0377 26.0615 46.0637 26.0654 46.0892C26.0616 46.1134 26.0616 46.138 26.0654 46.1623C26.0615 46.1877 26.0615 46.2137 26.0654 46.2392C26.0615 46.2647 26.0615 46.2906 26.0654 46.3161C26.0615 46.3416 26.0615 46.3675 26.0654 46.393C26.0615 46.4185 26.0615 46.4445 26.0654 46.47C26.0616 46.4942 26.0616 46.5188 26.0654 46.543C26.0615 46.5685 26.0615 46.5944 26.0654 46.6199C26.0615 46.6454 26.0615 46.6714 26.0654 46.6969C26.0615 46.7224 26.0615 46.7483 26.0654 46.7738C26.0615 46.7993 26.0615 46.8252 26.0654 46.8507C26.0616 46.8749 26.0616 46.8996 26.0654 46.9238C26.0615 46.9493 26.0615 46.9752 26.0654 47.0007C26.0615 47.0262 26.0615 47.0521 26.0654 47.0776C26.0615 47.1031 26.0615 47.129 26.0654 47.1545C26.0615 47.18 26.0615 47.206 26.0654 47.2315C26.0616 47.2557 26.0616 47.2803 26.0654 47.3045C26.0615 47.33 26.0615 47.356 26.0654 47.3815C26.0615 47.407 26.0615 47.4329 26.0654 47.4584C26.0615 47.4839 26.0615 47.5098 26.0654 47.5353C26.0615 47.5608 26.0615 47.5868 26.0654 47.6123C26.0616 47.6365 26.0616 47.6611 26.0654 47.6853C26.0615 47.7108 26.0615 47.7368 26.0654 47.7623C26.0615 47.7878 26.0615 47.8137 26.0654 47.8392C26.0615 47.8647 26.0615 47.8906 26.0654 47.9161C26.0615 47.9416 26.0615 47.9675 26.0654 47.993C26.0616 48.0172 26.0616 48.0419 26.0654 48.0661C26.0615 48.0916 26.0615 48.1175 26.0654 48.143C26.0615 48.1685 26.0615 48.1944 26.0654 48.2199C26.0615 48.2454 26.0615 48.2714 26.0654 48.2969C26.0615 48.3224 26.0615 48.3483 26.0654 48.3738C26.0616 48.398 26.0616 48.4226 26.0654 48.4468C26.0615 48.4723 26.0615 48.4983 26.0654 48.5238C26.0615 48.5493 26.0615 48.5752 26.0654 48.6007C26.0615 48.6262 26.0615 48.6522 26.0654 48.6777C26.0615 48.7031 26.0615 48.7291 26.0654 48.7546C26.0616 48.7788 26.0616 48.8034 26.0654 48.8277C26.0615 48.8532 26.0615 48.8791 26.0654 48.9046C26.0615 48.9301 26.0615 48.956 26.0654 48.9815C26.0615 49.007 26.0615 49.0329 26.0654 49.0584C26.0615 49.0839 26.0615 49.1098 26.0654 49.1353C26.0616 49.1595 26.0616 49.1842 26.0654 49.2084C26.0615 49.2339 26.0615 49.2598 26.0654 49.2853C26.0615 49.3108 26.0615 49.3367 26.0654 49.3622C26.0615 49.3877 26.0615 49.4137 26.0654 49.4392C26.0615 49.4647 26.0615 49.4906 26.0654 49.5161C26.0616 49.5403 26.0616 49.565 26.0654 49.5892C26.0615 49.6147 26.0615 49.6406 26.0654 49.6661C26.0615 49.6916 26.0615 49.7175 26.0654 49.743C26.0615 49.7685 26.0615 49.7945 26.0654 49.8199C26.0615 49.8454 26.0615 49.8714 26.0654 49.8969C26.0616 49.9211 26.0616 49.9457 26.0654 49.97C26.0615 49.9954 26.0615 50.0214 26.0654 50.0469C26.0615 50.0724 26.0615 50.0983 26.0654 50.1238C26.0615 50.1493 26.0615 50.1752 26.0654 50.2007C26.0615 50.2262 26.0615 50.2521 26.0654 50.2776C26.0616 50.3018 26.0616 50.3265 26.0654 50.3507C26.0615 50.3762 26.0615 50.4021 26.0654 50.4276C26.0615 50.4531 26.0615 50.4791 26.0654 50.5046C26.0615 50.5301 26.0615 50.556 26.0654 50.5815C26.0615 50.607 26.0615 50.6329 26.0654 50.6584C26.0616 50.6826 26.0616 50.7073 26.0654 50.7315C26.0615 50.757 26.0615 50.7829 26.0654 50.8084C26.0615 50.8339 26.0615 50.8598 26.0654 50.8853C26.0615 50.9108 26.0615 50.9367 26.0654 50.9622C26.0615 50.9877 26.0615 51.0137 26.0654 51.0392C26.0616 51.0634 26.0616 51.088 26.0654 51.1122C26.0615 51.1377 26.0615 51.1637 26.0654 51.1892C26.0615 51.2147 26.0615 51.2406 26.0654 51.2661C26.0615 51.2916 26.0615 51.3175 26.0654 51.343C26.0615 51.3685 26.0615 51.3945 26.0654 51.42C26.0616 51.4442 26.0616 51.4688 26.0654 51.493C26.0615 51.5185 26.0615 51.5445 26.0654 51.57C26.0615 51.5955 26.0615 51.6214 26.0654 51.6469C26.0615 51.6724 26.0615 51.6983 26.0654 51.7238C26.0615 51.7493 26.0615 51.7752 26.0654 51.8007C26.0616 51.8249 26.0616 51.8496 26.0654 51.8738C26.0615 51.8993 26.0615 51.9252 26.0654 51.9507C26.0615 51.9762 26.0615 52.0021 26.0654 52.0276C26.0615 52.0531 26.0615 52.079 26.0654 52.1045C26.0615 52.13 26.0615 52.156 26.0654 52.1815C26.0616 52.2057 26.0616 52.2303 26.0654 52.2545C26.0615 52.28 26.0615 52.306 26.0654 52.3315C26.0615 52.357 26.0615 52.3829 26.0654 52.4084C26.0615 52.4339 26.0615 52.4598 26.0654 52.4853C26.0615 52.5108 26.0615 52.5368 26.0654 52.5623C26.0616 52.5865 26.0616 52.6111 26.0654 52.6353C26.0615 52.6608 26.0615 52.6868 26.0654 52.7123C26.0615 52.7378 26.0615 52.7637 26.0654 52.7892C26.0615 52.8147 26.0615 52.8406 26.0654 52.8661C26.0615 52.8916 26.0615 52.9175 26.0654 52.943C26.0616 52.9672 26.0616 52.9919 26.0654 53.0161C26.0615 53.0416 26.0615 53.0675 26.0654 53.093C26.0615 53.1185 26.0615 53.1444 26.0654 53.1699C26.0615 53.1954 26.0615 53.2214 26.0654 53.2469C26.0615 53.2724 26.0615 53.2983 26.0654 53.3238C26.0616 53.348 26.0616 53.3727 26.0654 53.3969C26.0615 53.4224 26.0615 53.4483 26.0654 53.4738C26.0615 53.4993 26.0615 53.5252 26.0654 53.5507C26.0615 53.5762 26.0615 53.6022 26.0654 53.6276C26.0615 53.6531 26.0615 53.6791 26.0654 53.7046C26.0616 53.7288 26.0616 53.7534 26.0654 53.7777C26.0615 53.8032 26.0615 53.8291 26.0654 53.8546C26.0615 53.8801 26.0615 53.906 26.0654 53.9315C26.0615 53.957 26.0615 53.9829 26.0654 54.0084C26.0615 54.0339 26.0615 54.0598 26.0654 54.0853C26.0616 54.1095 26.0616 54.1342 26.0654 54.1584C26.0615 54.1839 26.0615 54.2098 26.0654 54.2353C26.0615 54.2608 26.0615 54.2867 26.0654 54.3122C26.0615 54.3377 26.0615 54.3637 26.0654 54.3892C26.0615 54.4147 26.0615 54.4406 26.0654 54.4661C26.0616 54.4903 26.0616 54.515 26.0654 54.5392C26.0615 54.5647 26.0615 54.5906 26.0654 54.6161C26.0615 54.6416 26.0615 54.6675 26.0654 54.693C26.0615 54.7185 26.0615 54.7444 26.0654 54.7699C26.0615 54.7954 26.0615 54.8214 26.0654 54.8468C26.0616 54.8711 26.0616 54.8957 26.0654 54.92C26.0615 54.9454 26.0615 54.9714 26.0654 54.9969C26.0615 55.0224 26.0615 55.0483 26.0654 55.0738C26.0615 55.0993 26.0615 55.1252 26.0654 55.1507C26.0615 55.1762 26.0615 55.2021 26.0654 55.2276C26.0616 55.2518 26.0616 55.2765 26.0654 55.3007C26.0615 55.3262 26.0615 55.3521 26.0654 55.3776C26.0615 55.4031 26.0615 55.4291 26.0654 55.4546C26.0615 55.4801 26.0615 55.506 26.0654 55.5315C26.0615 55.557 26.0615 55.5829 26.0654 55.6084C26.0616 55.6326 26.0616 55.6573 26.0654 55.6815C26.0615 55.707 26.0615 55.7329 26.0654 55.7584C26.0615 55.7839 26.0615 55.8098 26.0654 55.8353C26.0615 55.8608 26.0615 55.8867 26.0654 55.9122C26.0615 55.9377 26.0615 55.9637 26.0654 55.9892C26.0616 56.0134 26.0616 56.038 26.0654 56.0622C26.0615 56.0877 26.0615 56.1137 26.0654 56.1392C26.0615 56.1646 26.0615 56.1906 26.0654 56.2161C26.0615 56.2416 26.0615 56.2675 26.0654 56.293C26.0615 56.3185 26.0615 56.3445 26.0654 56.37C26.0616 56.3942 26.0616 56.4188 26.0654 56.443C26.0615 56.4685 26.0615 56.4945 26.0654 56.52C26.0615 56.5455 26.0615 56.5714 26.0654 56.5969C26.0615 56.6224 26.0615 56.6483 26.0654 56.6738C26.0615 56.6993 26.0615 56.7252 26.0654 56.7507C26.0616 56.7749 26.0616 56.7996 26.0654 56.8238C26.0615 56.8493 26.0615 56.8752 26.0654 56.9007C26.0615 56.9262 26.0615 56.9521 26.0654 56.9776C26.0615 57.0031 26.0615 57.029 26.0654 57.0545C26.0615 57.08 26.0615 57.106 26.0654 57.1315C26.0616 57.1557 26.0616 57.1803 26.0654 57.2045C26.0615 57.23 26.0615 57.256 26.0654 57.2815C26.0615 57.307 26.0615 57.3329 26.0654 57.3584C26.0615 57.3839 26.0615 57.4099 26.0654 57.4354C26.0615 57.4608 26.0615 57.4868 26.0654 57.5123C26.0616 57.5365 26.0616 57.5611 26.0654 57.5853C26.0615 57.6108 26.0615 57.6368 26.0654 57.6623C26.0615 57.6878 26.0615 57.7137 26.0654 57.7392C26.0615 57.7647 26.0615 57.7906 26.0654 57.8161C26.0615 57.8416 26.0615 57.8675 26.0654 57.893C26.0616 57.9172 26.0616 57.9419 26.0654 57.9661C26.0615 57.9916 26.0615 58.0175 26.0654 58.043C26.0615 58.0685 26.0615 58.0944 26.0654 58.1199C26.0615 58.1454 26.0615 58.1714 26.0654 58.1969C26.0615 58.2224 26.0615 58.2483 26.0654 58.2738C26.0616 58.298 26.0616 58.3227 26.0654 58.3469C26.0615 58.3724 26.0615 58.3983 26.0654 58.4238C26.0615 58.4493 26.0615 58.4752 26.0654 58.5007C26.0615 58.5262 26.0615 58.5522 26.0654 58.5776C26.0615 58.6031 26.0615 58.6291 26.0654 58.6546C26.0616 58.6788 26.0616 58.7034 26.0654 58.7277C26.0615 58.7531 26.0615 58.7791 26.0654 58.8046C26.0615 58.8301 26.0615 58.856 26.0654 58.8815C26.0615 58.907 26.0615 58.9329 26.0654 58.9584C26.0615 58.9839 26.0615 59.0098 26.0654 59.0353C26.0615 59.0608 26.0615 59.0868 26.0654 59.1123C26.0616 59.1365 26.0616 59.1611 26.0654 59.1853C26.0615 59.2108 26.0615 59.2368 26.0654 59.2623C26.0615 59.2878 26.0615 59.3137 26.0654 59.3392C26.0615 59.3647 26.0615 59.3906 26.0654 59.4161C26.0615 59.4416 26.0615 59.4675 26.0654 59.493C26.0616 59.5172 26.0616 59.5419 26.0654 59.5661C26.0615 59.5916 26.0615 59.6175 26.0654 59.643C26.0615 59.6685 26.0615 59.6944 26.0654 59.7199C26.0615 59.7454 26.0615 59.7714 26.0654 59.7968C26.0615 59.8223 26.0615 59.8483 26.0654 59.8738C26.0616 59.898 26.0616 59.9226 26.0654 59.9469C26.0615 59.9724 26.0615 59.9983 26.0654 60.0238C26.0615 60.0493 26.0615 60.0752 26.0654 60.1007C26.0615 60.1262 26.0615 60.1521 26.0654 60.1776C26.0615 60.2031 26.0615 60.2291 26.0654 60.2546C26.0616 60.2788 26.0616 60.3034 26.0654 60.3276C26.0615 60.3531 26.0615 60.3791 26.0654 60.4046C26.0615 60.4301 26.0615 60.456 26.0654 60.4815C26.0615 60.507 26.0615 60.5329 26.0654 60.5584C26.0615 60.5839 26.0615 60.6098 26.0654 60.6353C26.0616 60.6595 26.0616 60.6842 26.0654 60.7084C26.0615 60.7339 26.0615 60.7598 26.0654 60.7853C26.0615 60.8108 26.0615 60.8367 26.0654 60.8622C26.0615 60.8877 26.0615 60.9137 26.0654 60.9392C26.0615 60.9647 26.0615 60.9906 26.0654 61.0161C26.0616 61.0403 26.0616 61.065 26.0654 61.0892C26.0615 61.1147 26.0615 61.1406 26.0654 61.1661C26.0615 61.1916 26.0615 61.2175 26.0654 61.243C26.0615 61.2685 26.0615 61.2945 26.0654 61.32C26.0615 61.3455 26.0615 61.3714 26.0654 61.3969C26.0616 61.4211 26.0616 61.4458 26.0654 61.47C26.0615 61.4955 26.0615 61.5214 26.0654 61.5469C26.0615 61.5724 26.0615 61.5983 26.0654 61.6238C26.0615 61.6493 26.0615 61.6752 26.0654 61.7007C26.0615 61.7262 26.0615 61.7521 26.0654 61.7776C26.0616 61.8018 26.0616 61.8265 26.0654 61.8507C26.0615 61.8762 26.0615 61.9021 26.0654 61.9276C26.0615 61.9531 26.0615 61.979 26.0654 62.0045C26.0615 62.03 26.0615 62.056 26.0654 62.0815C26.0615 62.107 26.0615 62.1329 26.0654 62.1584C26.0616 62.1826 26.0616 62.2073 26.0654 62.2315C26.0615 62.257 26.0615 62.2829 26.0654 62.3084C26.0615 62.3339 26.0615 62.3599 26.0654 62.3853C26.0615 62.4108 26.0615 62.4368 26.0654 62.4623C26.0615 62.4877 26.0615 62.5137 26.0654 62.5392C26.0616 62.5634 26.0616 62.588 26.0654 62.6123C26.0615 62.6378 26.0615 62.6637 26.0654 62.6892C26.0615 62.7147 26.0615 62.7406 26.0654 62.7661C26.0615 62.7916 26.0615 62.8175 26.0654 62.843C26.0615 62.8685 26.0615 62.8944 26.0654 62.9199C26.0616 62.9441 26.0616 62.9688 26.0654 62.993C26.0615 63.0185 26.0615 63.0444 26.0654 63.0699C26.0615 63.0954 26.0615 63.1214 26.0654 63.1469C26.0615 63.1724 26.0615 63.1983 26.0654 63.2238C26.0615 63.2493 26.0615 63.2752 26.0654 63.3007C26.0616 63.3249 26.0616 63.3496 26.0654 63.3738C26.0615 63.3993 26.0615 63.4252 26.0654 63.4507C26.0615 63.4762 26.0615 63.5021 26.0654 63.5276C26.0615 63.5531 26.0615 63.5791 26.0654 63.6045C26.0615 63.63 26.0615 63.656 26.0654 63.6815C26.0616 63.7057 26.0616 63.7303 26.0654 63.7546C26.0615 63.7801 26.0615 63.806 26.0654 63.8315C26.0615 63.857 26.0615 63.8829 26.0654 63.9084C26.0615 63.9339 26.0615 63.9598 26.0654 63.9853C26.0615 64.0108 26.0615 64.0368 26.0654 64.0623C26.0616 64.0865 26.0616 64.1111 26.0654 64.1353C26.0615 64.1608 26.0615 64.1868 26.0654 64.2123C26.0615 64.2378 26.0615 64.2637 26.0654 64.2892C26.0615 64.3147 26.0615 64.3406 26.0654 64.3661C26.0615 64.3916 26.0615 64.4175 26.0654 64.443C26.0616 64.4672 26.0616 64.4919 26.0654 64.5161C26.0615 64.5416 26.0615 64.5675 26.0654 64.593C26.0615 64.6185 26.0615 64.6444 26.0654 64.6699C26.0615 64.6954 26.0615 64.7213 26.0654 64.7468C26.0615 64.7723 26.0615 64.7983 26.0654 64.8238C26.0616 64.848 26.0616 64.8726 26.0654 64.8969C26.0615 64.9223 26.0615 64.9483 26.0654 64.9738C26.0615 64.9993 26.0615 65.0252 26.0654 65.0507C26.0615 65.0762 26.0615 65.1022 26.0654 65.1277C26.0615 65.1532 26.0615 65.1791 26.0654 65.2046C26.0616 65.2288 26.0616 65.2534 26.0654 65.2776C26.0615 65.3031 26.0615 65.3291 26.0654 65.3546C26.0615 65.3801 26.0615 65.406 26.0654 65.4315C26.0615 65.457 26.0615 65.4829 26.0654 65.5084C26.0615 65.5339 26.0615 65.5598 26.0654 65.5853C26.0616 65.6095 26.0616 65.6342 26.0654 65.6584C26.0615 65.6839 26.0615 65.7098 26.0654 65.7353C26.0615 65.7608 26.0615 65.7867 26.0654 65.8122C26.0615 65.8377 26.0615 65.8637 26.0654 65.8892C26.0462 66.3392 26.3346 66.793 26.9308 67.1353L57.8962 85.0123C58.5429 85.34 59.2576 85.5108 59.9826 85.5108C60.7076 85.5108 61.4225 85.34 62.0692 85.0123L92.8384 67.1353C93.4269 66.7892 93.7115 66.3392 93.6922 65.8892V20.2007Z" fill="url(#paint5_linear_1076_12297)"/>
<path d="M92.5725 59.0253L92.5721 59.0255L61.8157 76.8951C61.2423 77.1833 60.6095 77.3334 59.9676 77.3334C59.3256 77.3334 58.6924 77.1832 58.1189 76.8948L27.1657 59.0248L27.1655 59.0247C26.6799 58.7447 26.5503 58.4471 26.5503 58.2516C26.5503 58.0557 26.6804 57.757 27.1665 57.475L27.1669 57.4748L57.9233 39.6054C58.4962 39.3178 59.1284 39.168 59.7695 39.168C60.4109 39.168 61.0433 39.3179 61.6164 39.6057L92.5725 57.4712C93.0585 57.7531 93.1887 58.0518 93.1887 58.2483C93.1887 58.4447 93.0585 58.7434 92.5725 59.0253Z" stroke="url(#paint6_linear_1076_12297)"/>
<path d="M92.5725 51.333L92.5721 51.3331L61.8157 69.2027C61.2423 69.4909 60.6095 69.641 59.9676 69.641C59.3256 69.641 58.6924 69.4908 58.1189 69.2024L27.1657 51.3325L27.1655 51.3323C26.6799 51.0523 26.5503 50.7547 26.5503 50.5592C26.5503 50.3634 26.6804 50.0646 27.1665 49.7826L27.1669 49.7825L57.9233 31.913C58.4962 31.6254 59.1284 31.4756 59.7695 31.4756C60.4109 31.4756 61.0433 31.6255 61.6164 31.9133L92.5725 49.7788C93.0585 50.0607 93.1887 50.3594 93.1887 50.5559C93.1887 50.7523 93.0585 51.0511 92.5725 51.333Z" stroke="url(#paint7_linear_1076_12297)"/>
<path d="M62.1021 50.0924L56.7178 46.9386C56.998 46.6112 57.2311 46.2461 57.4101 45.854L62.7944 49.0078C62.6103 49.3971 62.3777 49.7616 62.1021 50.0924Z" fill="var(--default-main-color)"/>
<path d="M62.773 49.0085L57.3579 45.8547L58.4425 43.5854L63.8652 46.7393L62.773 49.0085Z" fill="var(--default-main-color)"/>
<path d="M58.4429 43.5686C58.664 43.12 58.8145 42.64 58.889 42.1455L64.2733 45.2993C64.1952 45.793 64.0449 46.2725 63.8272 46.7224L58.4429 43.5686Z" fill="var(--default-main-color)"/>
<path d="M58.8872 42.1619C58.9611 41.7654 58.9611 41.3585 58.8872 40.9619L64.2715 44.1157C64.3454 44.5123 64.3454 44.9192 64.2715 45.3157L58.8872 42.1619Z" fill="var(--default-main-color)"/>
<path d="M59.6021 51.0928L54.2178 47.939C54.3719 48.0233 54.5425 48.0731 54.7178 48.0851C55.0686 48.0844 55.4121 47.9859 55.71 47.8005C56.0875 47.5752 56.4211 47.2833 56.6945 46.939L62.0788 50.0928C61.8032 50.4328 61.4699 50.7218 61.0943 50.9466C60.7975 51.1343 60.4532 51.233 60.1021 51.2312C59.9266 51.2265 59.755 51.179 59.6021 51.0928Z" fill="var(--default-main-color)"/>
<path d="M59.602 51.092L54.2177 47.9382C54.1487 47.8963 54.0842 47.8473 54.0254 47.792L59.4097 50.9458L59.602 51.092Z" fill="white"/>
<path d="M59.4124 50.9471L53.9896 47.7933L52.8896 46.7856L58.3124 49.9395L59.4124 50.9471Z" fill="white"/>
<path d="M64.2952 44.1156L58.8724 40.9618L57.7725 36.1157L63.1875 39.2695L64.2952 44.1156Z" fill="var(--default-main-color)"/>
<path d="M58.3104 49.9384L52.9261 46.7922C52.6829 46.542 52.5242 46.2219 52.4723 45.8768C52.3959 45.4727 52.3959 45.0579 52.4723 44.6538L57.8566 47.8076C57.7839 48.212 57.7839 48.6262 57.8566 49.0306C57.9065 49.3741 58.0656 49.6924 58.3104 49.9384Z" fill="white"/>
<path d="M63.1895 39.27L57.7667 36.1238C57.7377 35.9193 57.665 35.7235 57.5535 35.5497C57.442 35.3758 57.2943 35.2279 57.1206 35.1162L62.5049 38.2623C62.6845 38.3715 62.8385 38.5181 62.9566 38.6919C63.0747 38.8657 63.1541 39.0629 63.1895 39.27Z" fill="var(--default-main-color)"/>
<path d="M57.8798 47.8081L52.457 44.6543L53.5339 38.5312L58.9567 41.6774L57.8798 47.8081Z" fill="white"/>
<path d="M58.9585 41.685L53.5356 38.5311C53.6411 37.932 53.8521 37.3565 54.1587 36.8312C54.517 36.2021 55.0274 35.6731 55.6432 35.2927C55.8557 35.1433 56.1026 35.0501 56.3609 35.0218C56.6191 34.9936 56.8803 35.0312 57.1201 35.1312L62.5044 38.2773C62.264 38.1784 62.0024 38.1421 61.7441 38.1717C61.4859 38.2013 61.2393 38.2958 61.0275 38.4465C60.4091 38.8238 59.898 39.3535 59.543 39.985C59.2494 40.5127 59.0514 41.0883 58.9585 41.685Z" fill="white"/>
<mask id="path-26-inside-1_1076_12297" fill="white">
<path d="M76.5114 41.1932C76.4691 42.3996 76.1197 43.5751 75.4961 44.6086C74.9107 45.6643 74.0663 46.5537 73.0424 47.1931L49.3053 60.9008C48.952 61.1523 48.5395 61.3079 48.1081 61.3524C47.6767 61.3969 47.2411 61.3287 46.8439 61.1546C46.4899 60.9037 46.2082 60.5641 46.0273 60.1697C45.8463 59.7754 45.7725 59.3404 45.8131 58.9084C45.8131 54.2316 47.4054 48.8162 50.2744 43.847C53.1435 38.8778 57.0433 34.7625 61.1123 32.4164C65.1813 30.0702 69.0964 29.6703 71.9809 31.3087C74.8653 32.9472 76.496 36.5087 76.5114 41.1932ZM64.3121 45.3163C64.386 44.9197 64.386 44.5128 64.3121 44.1162L63.2045 39.2702C63.1736 39.0663 63.1 38.8711 62.9887 38.6975C62.8773 38.5239 62.7307 38.3757 62.5583 38.2625C62.3179 38.1636 62.0564 38.1272 61.7982 38.1568C61.5399 38.1864 61.2934 38.281 61.0816 38.4317C60.4632 38.8089 59.952 39.3387 59.597 39.9701C59.289 40.4976 59.0781 41.076 58.974 41.6779L57.8894 47.8316C57.8167 48.2361 57.8167 48.6502 57.8894 49.0547C57.9393 49.3981 58.0984 49.7165 58.3432 49.9624L59.4432 50.97C59.6325 51.1446 59.878 51.2456 60.1354 51.2547C60.4865 51.2565 60.8309 51.1577 61.1277 50.97C61.5033 50.7453 61.8366 50.4563 62.1122 50.1162C62.3879 49.7854 62.6205 49.4209 62.8045 49.0316L63.8967 46.7239C64.1145 46.274 64.2648 45.7946 64.3429 45.3009"/>
</mask>
<path d="M76.5114 41.1932C76.4691 42.3996 76.1197 43.5751 75.4961 44.6086C74.9107 45.6643 74.0663 46.5537 73.0424 47.1931L49.3053 60.9008C48.952 61.1523 48.5395 61.3079 48.1081 61.3524C47.6767 61.3969 47.2411 61.3287 46.8439 61.1546C46.4899 60.9037 46.2082 60.5641 46.0273 60.1697C45.8463 59.7754 45.7725 59.3404 45.8131 58.9084C45.8131 54.2316 47.4054 48.8162 50.2744 43.847C53.1435 38.8778 57.0433 34.7625 61.1123 32.4164C65.1813 30.0702 69.0964 29.6703 71.9809 31.3087C74.8653 32.9472 76.496 36.5087 76.5114 41.1932ZM64.3121 45.3163C64.386 44.9197 64.386 44.5128 64.3121 44.1162L63.2045 39.2702C63.1736 39.0663 63.1 38.8711 62.9887 38.6975C62.8773 38.5239 62.7307 38.3757 62.5583 38.2625C62.3179 38.1636 62.0564 38.1272 61.7982 38.1568C61.5399 38.1864 61.2934 38.281 61.0816 38.4317C60.4632 38.8089 59.952 39.3387 59.597 39.9701C59.289 40.4976 59.0781 41.076 58.974 41.6779L57.8894 47.8316C57.8167 48.2361 57.8167 48.6502 57.8894 49.0547C57.9393 49.3981 58.0984 49.7165 58.3432 49.9624L59.4432 50.97C59.6325 51.1446 59.878 51.2456 60.1354 51.2547C60.4865 51.2565 60.8309 51.1577 61.1277 50.97C61.5033 50.7453 61.8366 50.4563 62.1122 50.1162C62.3879 49.7854 62.6205 49.4209 62.8045 49.0316L63.8967 46.7239C64.1145 46.274 64.2648 45.7946 64.3429 45.3009" fill="var(--default-main-color)"/>
<path d="M76.5114 41.1932L77.111 41.2143L77.1114 41.2028L77.1114 41.1913L76.5114 41.1932ZM75.4961 44.6086L74.9824 44.2986L74.9767 44.308L74.9714 44.3176L75.4961 44.6086ZM73.0424 47.1931L73.3424 47.7127L73.3514 47.7075L73.3602 47.702L73.0424 47.1931ZM49.3053 60.9008L49.0052 60.3812L48.9805 60.3955L48.9572 60.412L49.3053 60.9008ZM46.8439 61.1546L46.497 61.6441L46.5469 61.6795L46.6029 61.704L46.8439 61.1546ZM45.8131 58.9084L46.4105 58.9647L46.4131 58.9366V58.9084H45.8131ZM64.3121 44.1162L64.902 44.0064L64.8997 43.9944L64.897 43.9826L64.3121 44.1162ZM63.2045 39.2702L62.6113 39.3602L62.6147 39.3822L62.6196 39.4039L63.2045 39.2702ZM62.5583 38.2625L62.8877 37.7609L62.8397 37.7294L62.7865 37.7076L62.5583 38.2625ZM61.0816 38.4317L61.394 38.9439L61.4121 38.9328L61.4294 38.9206L61.0816 38.4317ZM59.597 39.9701L60.1152 40.2727L60.12 40.2641L59.597 39.9701ZM58.974 41.6779L59.5649 41.782L59.5652 41.7801L58.974 41.6779ZM57.8894 47.8316L58.4799 47.9379L58.4803 47.9358L57.8894 47.8316ZM57.8894 49.0547L58.4832 48.9685L58.4817 48.9585L58.4799 48.9485L57.8894 49.0547ZM58.3432 49.9624L57.918 50.3857L57.9278 50.3955L57.9379 50.4048L58.3432 49.9624ZM59.4432 50.97L59.85 50.529L59.8485 50.5276L59.4432 50.97ZM60.1354 51.2547L60.1143 51.8543L60.1233 51.8546L60.1322 51.8546L60.1354 51.2547ZM61.1277 50.97L60.8196 50.4552L60.8132 50.459L60.807 50.463L61.1277 50.97ZM62.1122 50.1162L61.6512 49.7322L61.6462 49.7384L62.1122 50.1162ZM62.8045 49.0316L62.2622 48.7749L62.2621 48.7752L62.8045 49.0316ZM63.8967 46.7239L63.3566 46.4625L63.3544 46.4673L63.8967 46.7239ZM75.9118 41.1722C75.8731 42.2765 75.5532 43.3525 74.9824 44.2986L76.0099 44.9185C76.6862 43.7976 77.0651 42.5226 77.111 41.2143L75.9118 41.1722ZM74.9714 44.3176C74.4354 45.2843 73.6621 46.0987 72.7246 46.6842L73.3602 47.702C74.4704 47.0087 75.3861 46.0443 76.0208 44.8995L74.9714 44.3176ZM72.7423 46.6736L49.0052 60.3812L49.6053 61.4203L73.3424 47.7127L72.7423 46.6736ZM48.9572 60.412C48.6885 60.6034 48.3747 60.7217 48.0465 60.7556L48.1696 61.9492C48.7043 61.8941 49.2154 61.7013 49.6533 61.3895L48.9572 60.412ZM48.0465 60.7556C47.7184 60.7894 47.387 60.7376 47.0848 60.6051L46.6029 61.704C47.0952 61.9199 47.635 62.0044 48.1696 61.9492L48.0465 60.7556ZM47.1908 60.665C46.9228 60.4751 46.7096 60.218 46.5726 59.9195L45.482 60.42C45.7069 60.9101 46.057 61.3323 46.497 61.6441L47.1908 60.665ZM46.5726 59.9195C46.4356 59.621 46.3797 59.2916 46.4105 58.9647L45.2158 58.8522C45.1652 59.3891 45.2571 59.9299 45.482 60.42L46.5726 59.9195ZM46.4131 58.9084C46.4131 54.3571 47.9665 49.0443 50.794 44.147L49.7548 43.547C46.8442 48.5882 45.2131 54.106 45.2131 58.9084H46.4131ZM50.794 44.147C53.6221 39.2488 57.4527 35.219 61.412 32.9361L60.8126 31.8966C56.6339 34.306 52.6649 38.5069 49.7548 43.547L50.794 44.147ZM61.412 32.9361C65.3819 30.6471 69.057 30.3379 71.6846 31.8304L72.2772 30.787C69.1358 29.0027 64.9807 29.4933 60.8126 31.8966L61.412 32.9361ZM71.6846 31.8304C74.3092 33.3213 75.8964 36.6265 75.9114 41.1952L77.1114 41.1913C77.0956 36.3908 75.4215 32.5731 72.2772 30.787L71.6846 31.8304ZM64.902 45.4261C64.9893 44.9569 64.9893 44.4756 64.902 44.0064L63.7223 44.2261C63.7826 44.5501 63.7826 44.8824 63.7223 45.2064L64.902 45.4261ZM64.897 43.9826L63.7894 39.1365L62.6196 39.4039L63.7272 44.2499L64.897 43.9826ZM63.7977 39.1802C63.7541 38.8929 63.6505 38.6181 63.4937 38.3736L62.4836 39.0213C62.5495 39.1241 62.593 39.2397 62.6113 39.3602L63.7977 39.1802ZM63.4937 38.3736C63.337 38.1291 63.1305 37.9204 62.8877 37.7609L62.229 38.764C62.331 38.8309 62.4177 38.9186 62.4836 39.0213L63.4937 38.3736ZM62.7865 37.7076C62.4524 37.5702 62.0889 37.5196 61.7299 37.5607L61.8665 38.7529C62.024 38.7349 62.1835 38.757 62.3301 38.8173L62.7865 37.7076ZM61.7299 37.5607C61.3709 37.6019 61.0282 37.7333 60.7338 37.9428L61.4294 38.9206C61.5586 38.8286 61.709 38.771 61.8665 38.7529L61.7299 37.5607ZM60.7691 37.9195C60.063 38.3502 59.4793 38.9551 59.074 39.6761L60.12 40.2641C60.4246 39.7222 60.8633 39.2676 61.394 38.9439L60.7691 37.9195ZM59.0789 39.6676C58.7348 40.257 58.4991 40.9032 58.3828 41.5756L59.5652 41.7801C59.6571 41.2488 59.8433 40.7382 60.1151 40.2726L59.0789 39.6676ZM58.3831 41.5737L57.2985 47.7275L58.4803 47.9358L59.5649 41.782L58.3831 41.5737ZM57.2989 47.7254C57.2135 48.2001 57.2135 48.6862 57.2989 49.1609L58.4799 48.9485C58.4198 48.6143 58.4198 48.2721 58.4799 47.9379L57.2989 47.7254ZM57.2957 49.1409C57.364 49.6118 57.5822 50.0484 57.918 50.3857L58.7684 49.5391C58.6145 49.3846 58.5145 49.1845 58.4832 48.9685L57.2957 49.1409ZM57.9379 50.4048L59.0379 51.4125L59.8485 50.5276L58.7485 49.52L57.9379 50.4048ZM59.0364 51.4111C59.3312 51.6829 59.7135 51.8402 60.1143 51.8543L60.1564 50.655C60.0425 50.651 59.9338 50.6064 59.85 50.529L59.0364 51.4111ZM60.1322 51.8546C60.598 51.8571 61.0547 51.7261 61.4484 51.4771L60.807 50.463C60.6071 50.5894 60.3751 50.6559 60.1385 50.6547L60.1322 51.8546ZM61.4357 51.4849C61.8716 51.2241 62.2584 50.8887 62.5783 50.494L61.6462 49.7384C61.4148 50.0239 61.135 50.2665 60.8196 50.4552L61.4357 51.4849ZM62.5732 50.5002C62.8813 50.1305 63.1413 49.7231 63.347 49.288L62.2621 48.7752C62.0997 49.1187 61.8945 49.4403 61.6513 49.7322L62.5732 50.5002ZM63.3468 49.2883L64.439 46.9806L63.3544 46.4673L62.2622 48.7749L63.3468 49.2883ZM64.4368 46.9853C64.6801 46.4824 64.8483 45.9465 64.9355 45.3946L63.7503 45.2072C63.6814 45.6426 63.5488 46.0656 63.3567 46.4625L64.4368 46.9853Z" fill="url(#paint8_linear_1076_12297)" fill-opacity="0.6" mask="url(#path-26-inside-1_1076_12297)"/>
<path d="M63.1881 39.2696L64.2957 44.1156C64.3695 44.5122 64.3695 44.9191 64.2957 45.3157C64.2176 45.8094 64.0673 46.2888 63.8496 46.7387L62.7573 49.0464C62.5732 49.4357 62.3406 49.8002 62.065 50.131C61.7893 50.4711 61.4562 50.7601 61.0805 50.9848C60.7837 51.1725 60.4394 51.2713 60.0882 51.2695C59.8309 51.2604 59.5852 51.1594 59.3959 50.9848L58.2961 49.9771C58.0512 49.7312 57.892 49.4129 57.8422 49.0695C57.7694 48.665 57.7694 48.2509 57.8422 47.8464L58.9267 41.6927C59.0308 41.0908 59.2419 40.5124 59.5498 39.9849C59.9048 39.3535 60.4159 38.8237 61.0343 38.4465C61.2461 38.2958 61.4927 38.2012 61.7509 38.1716C62.0092 38.142 62.2708 38.1784 62.5112 38.2773C62.6875 38.3856 62.839 38.53 62.9557 38.701C63.0723 38.872 63.1515 39.0658 63.1881 39.2696Z" fill="white"/>
<path d="M46.8428 61.1538L41.42 58C41.0663 57.7511 40.7851 57.4127 40.6054 57.0193C40.4256 56.626 40.3537 56.1918 40.397 55.7615C40.397 51.0846 41.9815 45.6616 44.8506 40.6925C47.7196 35.7233 51.6195 31.6156 55.6885 29.2618C59.7575 26.908 63.6726 26.5156 66.5571 28.1618L71.9414 31.308C69.057 29.6695 65.1418 30.0618 61.0728 32.4156C57.0038 34.7694 53.1039 38.8771 50.2349 43.8463C47.3658 48.8154 45.7659 54.2308 45.7736 58.9077C45.7371 59.3432 45.8169 59.7806 46.0047 60.1752C46.1926 60.5698 46.4818 60.9075 46.8428 61.1538Z" fill="var(--default-main-color)"/>
<path d="M46.8428 61.1538L41.42 58C41.0663 57.7511 40.7851 57.4127 40.6054 57.0193C40.4256 56.626 40.3537 56.1918 40.397 55.7615C40.397 51.0846 41.9815 45.6616 44.8506 40.6925C47.7196 35.7233 51.6195 31.6156 55.6885 29.2618C59.7575 26.908 63.6726 26.5156 66.5571 28.1618L71.9414 31.308C69.057 29.6695 65.1418 30.0618 61.0728 32.4156C57.0038 34.7694 53.1039 38.8771 50.2349 43.8463C47.3658 48.8154 45.7659 54.2308 45.7736 58.9077C45.7371 59.3432 45.8169 59.7806 46.0047 60.1752C46.1926 60.5698 46.4818 60.9075 46.8428 61.1538Z" fill="black" fill-opacity="0.1"/>
<path d="M66.5028 11.97L61.1185 8.82384C59.6263 7.95461 57.5649 8.07768 55.2881 9.39305L55.3066 9.40389C50.8005 12.0033 47.1729 18.3385 47.1729 23.5232C47.1805 26.1078 48.0882 27.9232 49.5573 28.7771L54.9259 31.914C53.466 31.0564 52.5648 29.2448 52.5572 26.6771C52.5418 21.4772 56.1954 15.1541 60.7105 12.5465L60.6918 12.5355C62.9609 11.2003 65.0148 11.1109 66.5028 11.97Z" fill="#FE9025"/>
<path d="M66.5028 11.97L61.1185 8.82384C59.6263 7.95461 57.5649 8.07768 55.2881 9.39305L55.3066 9.40389C50.8005 12.0033 47.1729 18.3385 47.1729 23.5232C47.1805 26.1078 48.0882 27.9232 49.5573 28.7771L54.9259 31.914C53.466 31.0564 52.5648 29.2448 52.5572 26.6771C52.5418 21.4772 56.1954 15.1541 60.7105 12.5465L60.6918 12.5355C62.9609 11.2003 65.0148 11.1109 66.5028 11.97Z" fill="black" fill-opacity="0.1"/>
<path d="M60.7105 12.5477C65.2334 9.93233 68.9101 12.0323 68.9255 17.2245C68.9409 22.4168 65.2873 28.7629 60.7644 31.3552C56.2416 33.9475 52.5726 31.8706 52.5572 26.6783C52.5418 21.4861 56.1954 15.1554 60.7105 12.5477Z" fill="#FFA64F"/>
<path d="M60.8606 12.8075L60.8607 12.8074C63.0676 11.5312 64.9985 11.4432 66.3598 12.2189C67.7204 12.9943 68.618 14.6933 68.6255 17.2254C68.633 19.7561 67.7444 22.5889 66.287 25.1149C64.8295 27.6409 62.8198 29.8314 60.6153 31.0949C58.4079 32.3601 56.4784 32.4484 55.1188 31.6752C53.7604 30.9027 52.8647 29.2097 52.8572 26.6774C52.8497 24.1468 53.7382 21.3178 55.1948 18.7937C56.6512 16.2697 58.6593 14.0788 60.8606 12.8075Z" stroke="url(#paint9_linear_1076_12297)" stroke-opacity="0.6" stroke-width="0.59998"/>
<defs>
<filter id="filter0_f_1076_12297" x="0" y="30" width="115" height="106" filterUnits="userSpaceOnUse" color-interpolation-filters="sRGB">
<feFlood flood-opacity="0" result="BackgroundImageFix"/>
<feBlend mode="normal" in="SourceGraphic" in2="BackgroundImageFix" result="shape"/>
<feGaussianBlur stdDeviation="21" result="effect1_foregroundBlur_1076_12297"/>
</filter>
<linearGradient id="paint0_linear_1076_12297" x1="62.7498" y1="79.9602" x2="103.988" y2="79.9602" gradientUnits="userSpaceOnUse">
<stop stop-color="white"/>
<stop offset="1" stop-color="var(--default-main-color)"/>
</linearGradient>
<linearGradient id="paint1_linear_1076_12297" x1="15.7772" y1="79.9464" x2="57.3003" y2="79.9464" gradientUnits="userSpaceOnUse">
<stop stop-color="var(--default-main-color)"/>
<stop offset="1" stop-color="white"/>
</linearGradient>
<linearGradient id="paint2_linear_1076_12297" x1="60.0076" y1="86.5504" x2="60.0076" y2="46.5504" gradientUnits="userSpaceOnUse">
<stop stop-color="white" stop-opacity="0"/>
<stop offset="1" stop-color="var(--default-main-color)"/>
</linearGradient>
<linearGradient id="paint3_linear_1076_12297" x1="60.0076" y1="86.5504" x2="60.0076" y2="46.5504" gradientUnits="userSpaceOnUse">
<stop stop-color="white" stop-opacity="0"/>
<stop offset="1" stop-color="white" stop-opacity="0.3"/>
</linearGradient>
<linearGradient id="paint4_linear_1076_12297" x1="60.0159" y1="104.624" x2="60.0159" y2="0.988322" gradientUnits="userSpaceOnUse">
<stop stop-color="var(--default-main-color)"/>
<stop offset="1" stop-color="white" stop-opacity="0"/>
</linearGradient>
<linearGradient id="paint5_linear_1076_12297" x1="60.0159" y1="104.624" x2="60.0159" y2="0.988322" gradientUnits="userSpaceOnUse">
<stop stop-color="white" stop-opacity="0.8"/>
<stop offset="1" stop-color="white" stop-opacity="0"/>
</linearGradient>
<linearGradient id="paint6_linear_1076_12297" x1="59.8695" y1="38.668" x2="59.8695" y2="77.8334" gradientUnits="userSpaceOnUse">
<stop stop-color="white" stop-opacity="0"/>
<stop offset="1" stop-color="white"/>
</linearGradient>
<linearGradient id="paint7_linear_1076_12297" x1="59.8695" y1="30.9756" x2="59.8695" y2="70.141" gradientUnits="userSpaceOnUse">
<stop stop-color="white" stop-opacity="0"/>
<stop offset="1" stop-color="white"/>
</linearGradient>
<linearGradient id="paint8_linear_1076_12297" x1="61.1568" y1="30.3149" x2="61.1568" y2="61.3656" gradientUnits="userSpaceOnUse">
<stop stop-color="white"/>
<stop offset="1" stop-color="white" stop-opacity="0"/>
</linearGradient>
<linearGradient id="paint9_linear_1076_12297" x1="60.7413" y1="11.4224" x2="60.7413" y2="32.4704" gradientUnits="userSpaceOnUse">
<stop stop-color="white"/>
<stop offset="1" stop-color="white" stop-opacity="0"/>
</linearGradient>
</defs>
</svg>
