
<svg width="120" height="121" viewBox="0 0 120 121" fill="none" xmlns="http://www.w3.org/2000/svg">
<g id="Frame 1155" clip-path="url(#clip0_1079_13058)">
<g id="Ellipse 370" filter="url(#filter0_f_1079_13058)">
<ellipse cx="53.5" cy="78.5" rx="15.5" ry="11" fill="var(--default-main-color)"/>
</g>
<g id="Group 1156">
<g id="Group 1138">
<path id="Vector" d="M103.092 69.4322L62.9727 92.7475V95.8822L103.092 72.5668C103.834 72.136 104.207 71.5706 104.207 71.0052V67.8706C104.207 68.4437 103.834 69.0091 103.092 69.4322Z" fill="url(#paint0_linear_1079_13058)"/>
<path id="Vector_2" d="M103.092 69.4322L62.9727 92.7475V95.8822L103.092 72.5668C103.834 72.136 104.207 71.5706 104.207 71.0052V67.8706C104.207 68.4437 103.834 69.0091 103.092 69.4322Z" fill="white" fill-opacity="0.7"/>
<path id="Vector_3" d="M17.1538 69.4317C16.3846 68.9933 16 68.4202 16 67.8433V70.9817C16 71.5548 16.3846 72.1356 17.1346 72.5663L57.5192 95.8817V92.7433L17.1538 69.4317Z" fill="url(#paint1_linear_1079_13058)"/>
<path id="Vector_4" d="M17.1538 69.4317C16.3846 68.9933 16 68.4202 16 67.8433V70.9817C16 71.5548 16.3846 72.1356 17.1346 72.5663L57.5192 95.8817V92.7433L17.1538 69.4317Z" fill="white" fill-opacity="0.7"/>
<path id="Vector_5" d="M62.973 92.7558V95.8904C62.13 96.3191 61.1976 96.5425 60.2519 96.5425C59.3061 96.5425 58.3738 96.3191 57.5308 95.8904V92.752C58.3732 93.1821 59.3055 93.4067 60.2514 93.4074C61.1973 93.408 62.13 93.1848 62.973 92.7558Z" fill="white"/>
<path id="Vector_6" d="M103.073 66.2902C104.581 67.1595 104.589 68.571 103.092 69.4403L62.9732 92.7556C62.1304 93.1852 61.1979 93.4091 60.252 93.4091C59.3061 93.4091 58.3736 93.1852 57.5309 92.7556L17.1463 69.4441C15.6386 68.571 15.6078 67.1633 17.127 66.2941L57.2463 42.9787C58.0886 42.5501 59.0203 42.3267 59.9654 42.3267C60.9106 42.3267 61.8423 42.5501 62.6847 42.9787L103.073 66.2902Z" fill="white"/>
</g>
<path id="Vector_7" d="M93.0538 66.6549C94.2076 67.3241 94.2076 68.4048 93.0538 69.0741L62.2846 86.951C61.6379 87.2788 60.9231 87.4496 60.1981 87.4496C59.4731 87.4496 58.7582 87.2788 58.1115 86.951L27.1461 69.0741C25.9923 68.4087 25.9923 67.3279 27.1461 66.6587L57.9154 48.7818C58.5616 48.4547 59.2757 48.2842 60 48.2842C60.7243 48.2842 61.4383 48.4547 62.0845 48.7818L93.0538 66.6549Z" fill="url(#paint2_linear_1079_13058)"/>
<path id="Vector_8" d="M93.0538 66.6549C94.2076 67.3241 94.2076 68.4048 93.0538 69.0741L62.2846 86.951C61.6379 87.2788 60.9231 87.4496 60.1981 87.4496C59.4731 87.4496 58.7582 87.2788 58.1115 86.951L27.1461 69.0741C25.9923 68.4087 25.9923 67.3279 27.1461 66.6587L57.9154 48.7818C58.5616 48.4547 59.2757 48.2842 60 48.2842C60.7243 48.2842 61.4383 48.4547 62.0845 48.7818L93.0538 66.6549Z" fill="url(#paint3_linear_1079_13058)"/>
<path id="Vector_9" d="M93.9227 22.1245C93.9227 21.6745 93.6496 21.2207 93.0535 20.8745L62.0881 2.99762C61.4419 2.67049 60.7278 2.5 60.0035 2.5C59.2792 2.5 58.5651 2.67049 57.9189 2.99762L27.1497 20.8745C26.5574 21.2168 26.2766 21.6707 26.2959 22.1207C26.292 22.1449 26.292 22.1696 26.2959 22.1938C26.292 22.2193 26.292 22.2452 26.2959 22.2707C26.292 22.2962 26.292 22.3221 26.2959 22.3476C26.292 22.3731 26.292 22.3991 26.2959 22.4246C26.292 22.45 26.292 22.476 26.2959 22.5015C26.292 22.5257 26.292 22.5503 26.2959 22.5746C26.292 22.6001 26.292 22.626 26.2959 22.6515C26.292 22.677 26.292 22.7029 26.2959 22.7284C26.292 22.7539 26.292 22.7798 26.2959 22.8053C26.292 22.8308 26.292 22.8567 26.2959 22.8822C26.292 22.9064 26.292 22.9311 26.2959 22.9553C26.292 22.9808 26.292 23.0067 26.2959 23.0322C26.292 23.0577 26.292 23.0837 26.2959 23.1092C26.292 23.1347 26.292 23.1606 26.2959 23.1861C26.292 23.2116 26.292 23.2375 26.2959 23.263C26.292 23.2872 26.292 23.3119 26.2959 23.3361C26.292 23.3616 26.292 23.3875 26.2959 23.413C26.292 23.4385 26.292 23.4644 26.2959 23.4899C26.292 23.5154 26.292 23.5414 26.2959 23.5668C26.292 23.5923 26.292 23.6183 26.2959 23.6438C26.292 23.668 26.292 23.6926 26.2959 23.7169C26.292 23.7424 26.292 23.7683 26.2959 23.7938C26.292 23.8193 26.292 23.8452 26.2959 23.8707C26.292 23.8962 26.292 23.9221 26.2959 23.9476C26.292 23.9731 26.292 23.999 26.2959 24.0245C26.292 24.0487 26.292 24.0734 26.2959 24.0976C26.292 24.1231 26.292 24.149 26.2959 24.1745C26.292 24.2 26.292 24.226 26.2959 24.2515C26.292 24.277 26.292 24.3029 26.2959 24.3284C26.292 24.3539 26.292 24.3798 26.2959 24.4053C26.292 24.4295 26.292 24.4542 26.2959 24.4784C26.292 24.5039 26.292 24.5298 26.2959 24.5553C26.292 24.5808 26.292 24.6067 26.2959 24.6322C26.292 24.6577 26.292 24.6836 26.2959 24.7091C26.292 24.7346 26.292 24.7606 26.2959 24.7861C26.292 24.8103 26.292 24.8349 26.2959 24.8592C26.292 24.8846 26.292 24.9106 26.2959 24.9361C26.292 24.9616 26.292 24.9875 26.2959 25.013C26.292 25.0385 26.292 25.0644 26.2959 25.0899C26.292 25.1154 26.292 25.1414 26.2959 25.1669C26.292 25.1911 26.292 25.2157 26.2959 25.2399C26.292 25.2654 26.292 25.2914 26.2959 25.3169C26.292 25.3424 26.292 25.3683 26.2959 25.3938C26.292 25.4193 26.292 25.4452 26.2959 25.4707C26.292 25.4962 26.292 25.5221 26.2959 25.5476C26.292 25.5718 26.292 25.5965 26.2959 25.6207C26.292 25.6462 26.292 25.6721 26.2959 25.6976C26.292 25.7231 26.292 25.749 26.2959 25.7745C26.292 25.8 26.292 25.8259 26.2959 25.8514C26.292 25.8769 26.292 25.9029 26.2959 25.9284C26.292 25.9526 26.292 25.9772 26.2959 26.0014C26.292 26.0269 26.292 26.0529 26.2959 26.0784C26.292 26.1039 26.292 26.1298 26.2959 26.1553C26.292 26.1808 26.292 26.2068 26.2959 26.2323C26.292 26.2577 26.292 26.2837 26.2959 26.3092C26.292 26.3334 26.292 26.358 26.2959 26.3822C26.292 26.4077 26.292 26.4337 26.2959 26.4592C26.292 26.4847 26.292 26.5106 26.2959 26.5361C26.292 26.5616 26.292 26.5875 26.2959 26.613C26.292 26.6385 26.292 26.6644 26.2959 26.6899C26.292 26.7141 26.292 26.7388 26.2959 26.763C26.292 26.7885 26.292 26.8144 26.2959 26.8399C26.292 26.8654 26.292 26.8913 26.2959 26.9168C26.292 26.9423 26.292 26.9683 26.2959 26.9938C26.292 27.0193 26.292 27.0452 26.2959 27.0707C26.292 27.0949 26.292 27.1196 26.2959 27.1438C26.292 27.1693 26.292 27.1952 26.2959 27.2207C26.292 27.2462 26.292 27.2721 26.2959 27.2976C26.292 27.3231 26.292 27.3491 26.2959 27.3745C26.292 27.4 26.292 27.426 26.2959 27.4515C26.292 27.4757 26.292 27.5003 26.2959 27.5246C26.292 27.5501 26.292 27.576 26.2959 27.6015C26.292 27.627 26.292 27.6529 26.2959 27.6784C26.292 27.7039 26.292 27.7298 26.2959 27.7553C26.292 27.7808 26.292 27.8067 26.2959 27.8322C26.292 27.8564 26.292 27.8811 26.2959 27.9053C26.292 27.9308 26.292 27.9567 26.2959 27.9822C26.292 28.0077 26.292 28.0337 26.2959 28.0592C26.292 28.0847 26.292 28.1106 26.2959 28.1361C26.292 28.1616 26.292 28.1875 26.2959 28.213C26.292 28.2372 26.292 28.2619 26.2959 28.2861C26.292 28.3116 26.292 28.3375 26.2959 28.363C26.292 28.3885 26.292 28.4144 26.2959 28.4399C26.292 28.4654 26.292 28.4913 26.2959 28.5168C26.292 28.5423 26.292 28.5683 26.2959 28.5938C26.292 28.618 26.292 28.6426 26.2959 28.6669C26.292 28.6923 26.292 28.7183 26.2959 28.7438C26.292 28.7693 26.292 28.7952 26.2959 28.8207C26.292 28.8462 26.292 28.8721 26.2959 28.8976C26.292 28.9231 26.292 28.9491 26.2959 28.9746C26.292 28.9988 26.292 29.0234 26.2959 29.0476C26.292 29.0731 26.292 29.099 26.2959 29.1245C26.292 29.15 26.292 29.176 26.2959 29.2015C26.292 29.227 26.292 29.2529 26.2959 29.2784C26.292 29.3039 26.292 29.3298 26.2959 29.3553C26.292 29.3795 26.292 29.4042 26.2959 29.4284C26.292 29.4539 26.292 29.4798 26.2959 29.5053C26.292 29.5308 26.292 29.5567 26.2959 29.5822C26.292 29.6077 26.292 29.6336 26.2959 29.6591C26.292 29.6846 26.292 29.7106 26.2959 29.7361C26.292 29.7603 26.292 29.7849 26.2959 29.8091C26.292 29.8346 26.292 29.8606 26.2959 29.8861C26.292 29.9116 26.292 29.9375 26.2959 29.963C26.292 29.9885 26.292 30.0144 26.2959 30.0399C26.292 30.0654 26.292 30.0914 26.2959 30.1169C26.292 30.1411 26.292 30.1657 26.2959 30.1899C26.292 30.2154 26.292 30.2414 26.2959 30.2669C26.292 30.2924 26.292 30.3183 26.2959 30.3438C26.292 30.3693 26.292 30.3952 26.2959 30.4207C26.292 30.4462 26.292 30.4721 26.2959 30.4976C26.292 30.5218 26.292 30.5465 26.2959 30.5707C26.292 30.5962 26.292 30.6221 26.2959 30.6476C26.292 30.6731 26.292 30.699 26.2959 30.7245C26.292 30.75 26.292 30.776 26.2959 30.8015C26.292 30.827 26.292 30.8529 26.2959 30.8784C26.292 30.9026 26.292 30.9272 26.2959 30.9514C26.292 30.9769 26.292 31.0029 26.2959 31.0284C26.292 31.0539 26.292 31.0798 26.2959 31.1053C26.292 31.1308 26.292 31.1568 26.2959 31.1823C26.292 31.2077 26.292 31.2337 26.2959 31.2592C26.292 31.2834 26.292 31.308 26.2959 31.3322C26.292 31.3577 26.292 31.3837 26.2959 31.4092C26.292 31.4347 26.292 31.4606 26.2959 31.4861C26.292 31.5116 26.292 31.5375 26.2959 31.563C26.292 31.5885 26.292 31.6144 26.2959 31.6399C26.292 31.6641 26.292 31.6888 26.2959 31.713C26.292 31.7385 26.292 31.7644 26.2959 31.7899C26.292 31.8154 26.292 31.8413 26.2959 31.8668C26.292 31.8923 26.292 31.9183 26.2959 31.9438C26.292 31.9693 26.292 31.9952 26.2959 32.0207C26.292 32.0449 26.292 32.0696 26.2959 32.0938C26.292 32.1193 26.292 32.1452 26.2959 32.1707C26.292 32.1962 26.292 32.2221 26.2959 32.2476C26.292 32.2731 26.292 32.2991 26.2959 32.3245C26.292 32.35 26.292 32.376 26.2959 32.4015C26.292 32.4257 26.292 32.4503 26.2959 32.4746C26.292 32.5001 26.292 32.526 26.2959 32.5515C26.292 32.577 26.292 32.6029 26.2959 32.6284C26.292 32.6539 26.292 32.6798 26.2959 32.7053C26.292 32.7308 26.292 32.7567 26.2959 32.7822C26.292 32.8064 26.292 32.8311 26.2959 32.8553C26.292 32.8808 26.292 32.9067 26.2959 32.9322C26.292 32.9577 26.292 32.9837 26.2959 33.0092C26.292 33.0347 26.292 33.0606 26.2959 33.0861C26.292 33.1116 26.292 33.1375 26.2959 33.163C26.292 33.1872 26.292 33.2119 26.2959 33.2361C26.292 33.2616 26.292 33.2875 26.2959 33.313C26.292 33.3385 26.292 33.3644 26.2959 33.3899C26.292 33.4154 26.292 33.4413 26.2959 33.4668C26.292 33.4923 26.292 33.5183 26.2959 33.5437C26.292 33.568 26.292 33.5926 26.2959 33.6169C26.292 33.6423 26.292 33.6683 26.2959 33.6938C26.292 33.7193 26.292 33.7452 26.2959 33.7707C26.292 33.7962 26.292 33.8221 26.2959 33.8476C26.292 33.8731 26.292 33.8991 26.2959 33.9246C26.292 33.9488 26.292 33.9734 26.2959 33.9976C26.292 34.0231 26.292 34.049 26.2959 34.0745C26.292 34.1 26.292 34.126 26.2959 34.1515C26.292 34.177 26.292 34.2029 26.2959 34.2284C26.292 34.2539 26.292 34.2798 26.2959 34.3053C26.292 34.3295 26.292 34.3542 26.2959 34.3784C26.292 34.4039 26.292 34.4298 26.2959 34.4553C26.292 34.4808 26.292 34.5067 26.2959 34.5322C26.292 34.5577 26.292 34.5836 26.2959 34.6091C26.292 34.6346 26.292 34.6606 26.2959 34.6861C26.292 34.7103 26.292 34.7349 26.2959 34.7591C26.292 34.7846 26.292 34.8106 26.2959 34.8361C26.292 34.8616 26.292 34.8875 26.2959 34.913C26.292 34.9385 26.292 34.9644 26.2959 34.9899C26.292 35.0154 26.292 35.0414 26.2959 35.0669C26.292 35.0911 26.292 35.1157 26.2959 35.1399C26.292 35.1654 26.292 35.1914 26.2959 35.2169C26.292 35.2424 26.292 35.2683 26.2959 35.2938C26.292 35.3193 26.292 35.3452 26.2959 35.3707C26.292 35.3962 26.292 35.4221 26.2959 35.4476C26.292 35.4718 26.292 35.4965 26.2959 35.5207C26.292 35.5462 26.292 35.5721 26.2959 35.5976C26.292 35.6231 26.292 35.649 26.2959 35.6745C26.292 35.7 26.292 35.726 26.2959 35.7515C26.292 35.777 26.292 35.8029 26.2959 35.8284C26.292 35.8526 26.292 35.8772 26.2959 35.9014C26.292 35.9269 26.292 35.9529 26.2959 35.9784C26.292 36.0039 26.292 36.0298 26.2959 36.0553C26.292 36.0808 26.292 36.1068 26.2959 36.1322C26.292 36.1577 26.292 36.1837 26.2959 36.2092C26.292 36.2334 26.292 36.258 26.2959 36.2823C26.292 36.3078 26.292 36.3337 26.2959 36.3592C26.292 36.3847 26.292 36.4106 26.2959 36.4361C26.292 36.4616 26.292 36.4875 26.2959 36.513C26.292 36.5385 26.292 36.5644 26.2959 36.5899C26.292 36.6141 26.292 36.6388 26.2959 36.663C26.292 36.6885 26.292 36.7144 26.2959 36.7399C26.292 36.7654 26.292 36.7913 26.2959 36.8168C26.292 36.8423 26.292 36.8683 26.2959 36.8938C26.292 36.9193 26.292 36.9452 26.2959 36.9707C26.292 36.9949 26.292 37.0196 26.2959 37.0438C26.292 37.0693 26.292 37.0952 26.2959 37.1207C26.292 37.1462 26.292 37.1721 26.2959 37.1976C26.292 37.2231 26.292 37.249 26.2959 37.2745C26.292 37.3 26.292 37.326 26.2959 37.3515C26.292 37.3757 26.292 37.4003 26.2959 37.4246C26.292 37.45 26.292 37.476 26.2959 37.5015C26.292 37.527 26.292 37.5529 26.2959 37.5784C26.292 37.6039 26.292 37.6298 26.2959 37.6553C26.292 37.6808 26.292 37.7067 26.2959 37.7322C26.292 37.7564 26.292 37.7811 26.2959 37.8053C26.292 37.8308 26.292 37.8567 26.2959 37.8822C26.292 37.9077 26.292 37.9337 26.2959 37.9592C26.292 37.9847 26.292 38.0106 26.2959 38.0361C26.292 38.0616 26.292 38.0875 26.2959 38.113C26.292 38.1372 26.292 38.1619 26.2959 38.1861C26.292 38.2116 26.292 38.2375 26.2959 38.263C26.292 38.2885 26.292 38.3144 26.2959 38.3399C26.292 38.3654 26.292 38.3913 26.2959 38.4168C26.292 38.4423 26.292 38.4683 26.2959 38.4938C26.292 38.518 26.292 38.5426 26.2959 38.5668C26.292 38.5923 26.292 38.6183 26.2959 38.6438C26.292 38.6692 26.292 38.6952 26.2959 38.7207C26.292 38.7462 26.292 38.7721 26.2959 38.7976C26.292 38.8231 26.292 38.8491 26.2959 38.8746C26.292 38.8988 26.292 38.9234 26.2959 38.9476C26.292 38.9731 26.292 38.999 26.2959 39.0245C26.292 39.05 26.292 39.076 26.2959 39.1015C26.292 39.127 26.292 39.1529 26.2959 39.1784C26.292 39.2039 26.292 39.2298 26.2959 39.2553C26.292 39.2795 26.292 39.3042 26.2959 39.3284C26.292 39.3539 26.292 39.3798 26.2959 39.4053C26.292 39.4308 26.292 39.4567 26.2959 39.4822C26.292 39.5077 26.292 39.5336 26.2959 39.5591C26.292 39.5846 26.292 39.6106 26.2959 39.6361C26.292 39.6603 26.292 39.6849 26.2959 39.7091C26.292 39.7346 26.292 39.7606 26.2959 39.7861C26.292 39.8116 26.292 39.8375 26.2959 39.863C26.292 39.8885 26.292 39.9144 26.2959 39.9399C26.292 39.9654 26.292 39.9914 26.2959 40.0169C26.292 40.0411 26.292 40.0657 26.2959 40.0899C26.292 40.1154 26.292 40.1414 26.2959 40.1669C26.292 40.1924 26.292 40.2183 26.2959 40.2438C26.292 40.2693 26.292 40.2952 26.2959 40.3207C26.292 40.3462 26.292 40.3721 26.2959 40.3976C26.292 40.4218 26.292 40.4465 26.2959 40.4707C26.292 40.4962 26.292 40.5221 26.2959 40.5476C26.292 40.5731 26.292 40.599 26.2959 40.6245C26.292 40.65 26.292 40.676 26.2959 40.7015C26.292 40.727 26.292 40.7529 26.2959 40.7784C26.292 40.8026 26.292 40.8272 26.2959 40.8514C26.292 40.8769 26.292 40.9029 26.2959 40.9284C26.292 40.9539 26.292 40.9798 26.2959 41.0053C26.292 41.0308 26.292 41.0568 26.2959 41.0822C26.292 41.1077 26.292 41.1337 26.2959 41.1592C26.292 41.1834 26.292 41.208 26.2959 41.2323C26.292 41.2578 26.292 41.2837 26.2959 41.3092C26.292 41.3347 26.292 41.3606 26.2959 41.3861C26.292 41.4116 26.292 41.4375 26.2959 41.463C26.292 41.4885 26.292 41.5144 26.2959 41.5399C26.292 41.5641 26.292 41.5888 26.2959 41.613C26.292 41.6385 26.292 41.6644 26.2959 41.6899C26.292 41.7154 26.292 41.7413 26.2959 41.7668C26.292 41.7923 26.292 41.8183 26.2959 41.8438C26.292 41.8693 26.292 41.8952 26.2959 41.9207C26.292 41.9449 26.292 41.9696 26.2959 41.9938C26.292 42.0193 26.292 42.0452 26.2959 42.0707C26.292 42.0962 26.292 42.1221 26.2959 42.1476C26.292 42.1731 26.292 42.199 26.2959 42.2245C26.292 42.25 26.292 42.276 26.2959 42.3014C26.292 42.3257 26.292 42.3503 26.2959 42.3745C26.292 42.4 26.292 42.426 26.2959 42.4515C26.292 42.477 26.292 42.5029 26.2959 42.5284C26.292 42.5539 26.292 42.5798 26.2959 42.6053C26.292 42.6308 26.292 42.6567 26.2959 42.6822C26.292 42.7064 26.292 42.7311 26.2959 42.7553C26.292 42.7808 26.292 42.8067 26.2959 42.8322C26.292 42.8577 26.292 42.8837 26.2959 42.9092C26.292 42.9347 26.292 42.9606 26.2959 42.9861C26.292 43.0116 26.292 43.0375 26.2959 43.063C26.292 43.0872 26.292 43.1119 26.2959 43.1361C26.292 43.1616 26.292 43.1875 26.2959 43.213C26.292 43.2385 26.292 43.2644 26.2959 43.2899C26.292 43.3154 26.292 43.3413 26.2959 43.3668C26.292 43.3923 26.292 43.4183 26.2959 43.4438C26.292 43.468 26.292 43.4926 26.2959 43.5168C26.292 43.5423 26.292 43.5683 26.2959 43.5938C26.292 43.6192 26.292 43.6452 26.2959 43.6707C26.292 43.6962 26.292 43.7221 26.2959 43.7476C26.292 43.7731 26.292 43.7991 26.2959 43.8246C26.292 43.8488 26.292 43.8734 26.2959 43.8976C26.292 43.9231 26.292 43.9491 26.2959 43.9746C26.292 44.0001 26.292 44.026 26.2959 44.0515C26.292 44.077 26.292 44.1029 26.2959 44.1284C26.292 44.1539 26.292 44.1798 26.2959 44.2053C26.292 44.2295 26.292 44.2542 26.2959 44.2784C26.292 44.3039 26.292 44.3298 26.2959 44.3553C26.292 44.3808 26.292 44.4067 26.2959 44.4322C26.292 44.4577 26.292 44.4836 26.2959 44.5091C26.292 44.5346 26.292 44.5606 26.2959 44.5861C26.292 44.6103 26.292 44.6349 26.2959 44.6591C26.292 44.6846 26.292 44.7106 26.2959 44.7361C26.292 44.7616 26.292 44.7875 26.2959 44.813C26.292 44.8385 26.292 44.8644 26.2959 44.8899C26.292 44.9154 26.292 44.9414 26.2959 44.9669C26.292 44.9911 26.292 45.0157 26.2959 45.0399C26.292 45.0654 26.292 45.0914 26.2959 45.1169C26.292 45.1424 26.292 45.1683 26.2959 45.1938C26.292 45.2193 26.292 45.2452 26.2959 45.2707C26.292 45.2962 26.292 45.3221 26.2959 45.3476C26.292 45.3718 26.292 45.3965 26.2959 45.4207C26.292 45.4462 26.292 45.4721 26.2959 45.4976C26.292 45.5231 26.292 45.549 26.2959 45.5745C26.292 45.6 26.292 45.626 26.2959 45.6515C26.292 45.677 26.292 45.7029 26.2959 45.7284C26.292 45.7526 26.292 45.7773 26.2959 45.8015C26.292 45.827 26.292 45.8529 26.2959 45.8784C26.292 45.9039 26.292 45.9298 26.2959 45.9553C26.292 45.9808 26.292 46.0067 26.2959 46.0322C26.292 46.0577 26.292 46.0837 26.2959 46.1092C26.292 46.1334 26.292 46.158 26.2959 46.1823C26.292 46.2077 26.292 46.2337 26.2959 46.2592C26.292 46.2847 26.292 46.3106 26.2959 46.3361C26.292 46.3616 26.292 46.3875 26.2959 46.413C26.292 46.4385 26.292 46.4644 26.2959 46.4899C26.292 46.5141 26.292 46.5388 26.2959 46.563C26.292 46.5885 26.292 46.6144 26.2959 46.6399C26.292 46.6654 26.292 46.6913 26.2959 46.7168C26.292 46.7423 26.292 46.7683 26.2959 46.7938C26.292 46.8193 26.292 46.8452 26.2959 46.8707C26.292 46.8949 26.292 46.9196 26.2959 46.9438C26.292 46.9693 26.292 46.9952 26.2959 47.0207C26.292 47.0462 26.292 47.0721 26.2959 47.0976C26.292 47.1231 26.292 47.149 26.2959 47.1745C26.292 47.2 26.292 47.226 26.2959 47.2514C26.292 47.2757 26.292 47.3003 26.2959 47.3245C26.292 47.35 26.292 47.376 26.2959 47.4015C26.292 47.4269 26.292 47.4529 26.2959 47.4784C26.292 47.5039 26.292 47.5298 26.2959 47.5553C26.292 47.5808 26.292 47.6067 26.2959 47.6322C26.292 47.6564 26.292 47.6811 26.2959 47.7053C26.292 47.7308 26.292 47.7567 26.2959 47.7822C26.292 47.8077 26.292 47.8337 26.2959 47.8592C26.292 47.8847 26.292 47.9106 26.2959 47.9361C26.292 47.9616 26.292 47.9875 26.2959 48.013C26.292 48.0372 26.292 48.0619 26.2959 48.0861C26.292 48.1116 26.292 48.1375 26.2959 48.163C26.292 48.1885 26.292 48.2144 26.2959 48.2399C26.292 48.2654 26.292 48.2913 26.2959 48.3168C26.292 48.3423 26.292 48.3683 26.2959 48.3938C26.292 48.418 26.292 48.4426 26.2959 48.4668C26.292 48.4923 26.292 48.5183 26.2959 48.5437C26.292 48.5692 26.292 48.5952 26.2959 48.6207C26.292 48.6462 26.292 48.6721 26.2959 48.6976C26.292 48.7231 26.292 48.7491 26.2959 48.7746C26.292 48.7988 26.292 48.8234 26.2959 48.8476C26.292 48.8731 26.292 48.8991 26.2959 48.9246C26.292 48.9501 26.292 48.976 26.2959 49.0015C26.292 49.027 26.292 49.0529 26.2959 49.0784C26.292 49.1039 26.292 49.1298 26.2959 49.1553C26.292 49.1795 26.292 49.2042 26.2959 49.2284C26.292 49.2539 26.292 49.2798 26.2959 49.3053C26.292 49.3308 26.292 49.3567 26.2959 49.3822C26.292 49.4077 26.292 49.4336 26.2959 49.4591C26.292 49.4846 26.292 49.5106 26.2959 49.5361C26.292 49.5603 26.292 49.5849 26.2959 49.6091C26.292 49.6346 26.292 49.6606 26.2959 49.6861C26.292 49.7116 26.292 49.7375 26.2959 49.763C26.292 49.7885 26.292 49.8145 26.2959 49.8399C26.292 49.8654 26.292 49.8914 26.2959 49.9169C26.292 49.9411 26.292 49.9657 26.2959 49.9899C26.292 50.0154 26.292 50.0414 26.2959 50.0669C26.292 50.0924 26.292 50.1183 26.2959 50.1438C26.292 50.1693 26.292 50.1952 26.2959 50.2207C26.292 50.2462 26.292 50.2721 26.2959 50.2976C26.292 50.3218 26.292 50.3465 26.2959 50.3707C26.292 50.3962 26.292 50.4221 26.2959 50.4476C26.292 50.4731 26.292 50.499 26.2959 50.5245C26.292 50.55 26.292 50.576 26.2959 50.6015C26.292 50.627 26.292 50.6529 26.2959 50.6784C26.292 50.7026 26.292 50.7273 26.2959 50.7515C26.292 50.777 26.292 50.8029 26.2959 50.8284C26.292 50.8539 26.292 50.8798 26.2959 50.9053C26.292 50.9308 26.292 50.9567 26.2959 50.9822C26.292 51.0077 26.292 51.0337 26.2959 51.0591C26.292 51.0834 26.292 51.108 26.2959 51.1322C26.292 51.1577 26.292 51.1837 26.2959 51.2092C26.292 51.2347 26.292 51.2606 26.2959 51.2861C26.292 51.3116 26.292 51.3375 26.2959 51.363C26.292 51.3885 26.292 51.4144 26.2959 51.4399C26.292 51.4641 26.292 51.4888 26.2959 51.513C26.292 51.5385 26.292 51.5644 26.2959 51.5899C26.292 51.6154 26.292 51.6414 26.2959 51.6669C26.292 51.6924 26.292 51.7183 26.2959 51.7438C26.292 51.7693 26.292 51.7952 26.2959 51.8207C26.292 51.8449 26.292 51.8696 26.2959 51.8938C26.292 51.9193 26.292 51.9452 26.2959 51.9707C26.292 51.9962 26.292 52.0221 26.2959 52.0476C26.292 52.0731 26.292 52.099 26.2959 52.1245C26.292 52.15 26.292 52.1759 26.2959 52.2014C26.292 52.2257 26.292 52.2503 26.2959 52.2745C26.292 52.3 26.292 52.326 26.2959 52.3515C26.292 52.3769 26.292 52.4029 26.2959 52.4284C26.292 52.4539 26.292 52.4798 26.2959 52.5053C26.292 52.5308 26.292 52.5567 26.2959 52.5822C26.292 52.6064 26.292 52.6311 26.2959 52.6553C26.292 52.6808 26.292 52.7067 26.2959 52.7322C26.292 52.7577 26.292 52.7837 26.2959 52.8092C26.292 52.8347 26.292 52.8606 26.2959 52.8861C26.292 52.9116 26.292 52.9375 26.2959 52.963C26.292 52.9872 26.292 53.0119 26.2959 53.0361C26.292 53.0616 26.292 53.0875 26.2959 53.113C26.292 53.1385 26.292 53.1644 26.2959 53.1899C26.292 53.2154 26.292 53.2413 26.2959 53.2668C26.292 53.2923 26.292 53.3183 26.2959 53.3438C26.292 53.368 26.292 53.3926 26.2959 53.4168C26.292 53.4423 26.292 53.4683 26.2959 53.4938C26.292 53.5193 26.292 53.5452 26.2959 53.5707C26.292 53.5962 26.292 53.6221 26.2959 53.6476C26.292 53.6731 26.292 53.6991 26.2959 53.7246C26.292 53.7488 26.292 53.7734 26.2959 53.7976C26.292 53.8231 26.292 53.8491 26.2959 53.8746C26.292 53.9001 26.292 53.926 26.2959 53.9515C26.292 53.977 26.292 54.0029 26.2959 54.0284C26.292 54.0539 26.292 54.0798 26.2959 54.1053C26.292 54.1295 26.292 54.1542 26.2959 54.1784C26.292 54.2039 26.292 54.2298 26.2959 54.2553C26.292 54.2808 26.292 54.3067 26.2959 54.3322C26.292 54.3577 26.292 54.3836 26.2959 54.4091C26.292 54.4346 26.292 54.4606 26.2959 54.4861C26.292 54.5103 26.292 54.5349 26.2959 54.5591C26.292 54.5846 26.292 54.6106 26.2959 54.6361C26.292 54.6616 26.292 54.6875 26.2959 54.713C26.292 54.7385 26.292 54.7644 26.2959 54.7899C26.292 54.8154 26.292 54.8414 26.2959 54.8669C26.292 54.8911 26.292 54.9157 26.2959 54.9399C26.292 54.9654 26.292 54.9914 26.2959 55.0169C26.292 55.0424 26.292 55.0683 26.2959 55.0938C26.292 55.1193 26.292 55.1452 26.2959 55.1707C26.292 55.1962 26.292 55.2221 26.2959 55.2476C26.292 55.2718 26.292 55.2965 26.2959 55.3207C26.292 55.3462 26.292 55.3721 26.2959 55.3976C26.292 55.4231 26.292 55.449 26.2959 55.4745C26.292 55.5 26.292 55.526 26.2959 55.5515C26.292 55.577 26.292 55.6029 26.2959 55.6284C26.292 55.6526 26.292 55.6773 26.2959 55.7015C26.292 55.727 26.292 55.7529 26.2959 55.7784C26.292 55.8039 26.292 55.8298 26.2959 55.8553C26.292 55.8808 26.292 55.9067 26.2959 55.9322C26.292 55.9577 26.292 55.9837 26.2959 56.0091C26.292 56.0334 26.292 56.058 26.2959 56.0822C26.292 56.1077 26.292 56.1337 26.2959 56.1592C26.292 56.1846 26.292 56.2106 26.2959 56.2361C26.292 56.2616 26.292 56.2875 26.2959 56.313C26.292 56.3385 26.292 56.3644 26.2959 56.3899C26.292 56.4141 26.292 56.4388 26.2959 56.463C26.292 56.4885 26.292 56.5144 26.2959 56.5399C26.292 56.5654 26.292 56.5914 26.2959 56.6169C26.292 56.6424 26.292 56.6683 26.2959 56.6938C26.292 56.7193 26.292 56.7452 26.2959 56.7707C26.292 56.7949 26.292 56.8196 26.2959 56.8438C26.292 56.8693 26.292 56.8952 26.2959 56.9207C26.292 56.9462 26.292 56.9721 26.2959 56.9976C26.292 57.0231 26.292 57.049 26.2959 57.0745C26.292 57.1 26.292 57.1259 26.2959 57.1514C26.292 57.1757 26.292 57.2003 26.2959 57.2245C26.292 57.25 26.292 57.276 26.2959 57.3014C26.292 57.3269 26.292 57.3529 26.2959 57.3784C26.292 57.4039 26.292 57.4298 26.2959 57.4553C26.292 57.4808 26.292 57.5068 26.2959 57.5323C26.292 57.5565 26.292 57.5811 26.2959 57.6053C26.292 57.6308 26.292 57.6567 26.2959 57.6822C26.292 57.7077 26.292 57.7337 26.2959 57.7592C26.292 57.7847 26.292 57.8106 26.2959 57.8361C26.292 57.8616 26.292 57.8875 26.2959 57.913C26.292 57.9372 26.292 57.9619 26.2959 57.9861C26.292 58.0116 26.292 58.0375 26.2959 58.063C26.292 58.0885 26.292 58.1144 26.2959 58.1399C26.292 58.1654 26.292 58.1913 26.2959 58.2168C26.292 58.2423 26.292 58.2683 26.2959 58.2938C26.292 58.318 26.292 58.3426 26.2959 58.3668C26.292 58.3923 26.292 58.4183 26.2959 58.4438C26.292 58.4693 26.292 58.4952 26.2959 58.5207C26.292 58.5462 26.292 58.5721 26.2959 58.5976C26.292 58.6231 26.292 58.6491 26.2959 58.6746C26.292 58.6988 26.292 58.7234 26.2959 58.7476C26.292 58.7731 26.292 58.7991 26.2959 58.8246C26.292 58.8501 26.292 58.876 26.2959 58.9015C26.292 58.927 26.292 58.9529 26.2959 58.9784C26.292 59.0039 26.292 59.0298 26.2959 59.0553C26.292 59.0795 26.292 59.1042 26.2959 59.1284C26.292 59.1539 26.292 59.1798 26.2959 59.2053C26.292 59.2308 26.292 59.2567 26.2959 59.2822C26.292 59.3077 26.292 59.3337 26.2959 59.3592C26.292 59.3847 26.292 59.4106 26.2959 59.4361C26.292 59.4603 26.292 59.4849 26.2959 59.5091C26.292 59.5346 26.292 59.5606 26.2959 59.5861C26.292 59.6116 26.292 59.6375 26.2959 59.663C26.292 59.6885 26.292 59.7144 26.2959 59.7399C26.292 59.7654 26.292 59.7914 26.2959 59.8168C26.292 59.8411 26.292 59.8657 26.2959 59.8899C26.292 59.9154 26.292 59.9414 26.2959 59.9669C26.292 59.9924 26.292 60.0183 26.2959 60.0438C26.292 60.0693 26.292 60.0952 26.2959 60.1207C26.292 60.1462 26.292 60.1721 26.2959 60.1976C26.292 60.2218 26.292 60.2465 26.2959 60.2707C26.292 60.2962 26.292 60.3221 26.2959 60.3476C26.292 60.3731 26.292 60.399 26.2959 60.4245C26.292 60.45 26.292 60.476 26.2959 60.5015C26.292 60.527 26.292 60.5529 26.2959 60.5784C26.292 60.6026 26.292 60.6273 26.2959 60.6515C26.292 60.677 26.292 60.7029 26.2959 60.7284C26.292 60.7539 26.292 60.7798 26.2959 60.8053C26.292 60.8308 26.292 60.8567 26.2959 60.8822C26.292 60.9077 26.292 60.9336 26.2959 60.9591C26.292 60.9846 26.292 61.0106 26.2959 61.0361C26.292 61.0603 26.292 61.0849 26.2959 61.1092C26.292 61.1346 26.292 61.1606 26.2959 61.1861C26.292 61.2116 26.292 61.2375 26.2959 61.263C26.292 61.2885 26.292 61.3144 26.2959 61.3399C26.292 61.3654 26.292 61.3914 26.2959 61.4169C26.292 61.4411 26.292 61.4657 26.2959 61.4899C26.292 61.5154 26.292 61.5414 26.2959 61.5669C26.292 61.5924 26.292 61.6183 26.2959 61.6438C26.292 61.6693 26.292 61.6952 26.2959 61.7207C26.292 61.7462 26.292 61.7721 26.2959 61.7976C26.292 61.8218 26.292 61.8465 26.2959 61.8707C26.292 61.8962 26.292 61.9221 26.2959 61.9476C26.292 61.9731 26.292 61.999 26.2959 62.0245C26.292 62.05 26.292 62.0759 26.2959 62.1014C26.292 62.1269 26.292 62.1529 26.2959 62.1784C26.292 62.2026 26.292 62.2272 26.2959 62.2514C26.292 62.2769 26.292 62.3029 26.2959 62.3284C26.292 62.3539 26.292 62.3798 26.2959 62.4053C26.292 62.4308 26.292 62.4568 26.2959 62.4823C26.292 62.5078 26.292 62.5337 26.2959 62.5592C26.292 62.5834 26.292 62.608 26.2959 62.6322C26.292 62.6577 26.292 62.6837 26.2959 62.7092C26.292 62.7347 26.292 62.7606 26.2959 62.7861C26.292 62.8116 26.292 62.8375 26.2959 62.863C26.292 62.8885 26.292 62.9144 26.2959 62.9399C26.292 62.9641 26.292 62.9888 26.2959 63.013C26.292 63.0385 26.292 63.0644 26.2959 63.0899C26.292 63.1154 26.292 63.1413 26.2959 63.1668C26.292 63.1923 26.292 63.2183 26.2959 63.2438C26.292 63.2693 26.292 63.2952 26.2959 63.3207C26.292 63.3449 26.292 63.3696 26.2959 63.3938C26.292 63.4193 26.292 63.4452 26.2959 63.4707C26.292 63.4962 26.292 63.5221 26.2959 63.5476C26.292 63.5731 26.292 63.5991 26.2959 63.6246C26.292 63.65 26.292 63.676 26.2959 63.7015C26.292 63.7257 26.292 63.7503 26.2959 63.7746C26.292 63.8001 26.292 63.826 26.2959 63.8515C26.292 63.877 26.292 63.9029 26.2959 63.9284C26.292 63.9539 26.292 63.9798 26.2959 64.0053C26.292 64.0308 26.292 64.0567 26.2959 64.0822C26.292 64.1064 26.292 64.1311 26.2959 64.1553C26.292 64.1808 26.292 64.2067 26.2959 64.2322C26.292 64.2577 26.292 64.2837 26.2959 64.3092C26.292 64.3347 26.292 64.3606 26.2959 64.3861C26.292 64.4116 26.292 64.4375 26.2959 64.463C26.292 64.4872 26.292 64.5119 26.2959 64.5361C26.292 64.5616 26.292 64.5875 26.2959 64.613C26.292 64.6385 26.292 64.6644 26.2959 64.6899C26.292 64.7154 26.292 64.7414 26.2959 64.7668C26.292 64.7923 26.292 64.8183 26.2959 64.8438C26.292 64.868 26.292 64.8926 26.2959 64.9169C26.292 64.9423 26.292 64.9683 26.2959 64.9938C26.292 65.0193 26.292 65.0452 26.2959 65.0707C26.292 65.0962 26.292 65.1221 26.2959 65.1476C26.292 65.1731 26.292 65.1991 26.2959 65.2246C26.292 65.2488 26.292 65.2734 26.2959 65.2976C26.292 65.3231 26.292 65.349 26.2959 65.3745C26.292 65.4 26.292 65.426 26.2959 65.4515C26.292 65.477 26.292 65.5029 26.2959 65.5284C26.292 65.5539 26.292 65.5798 26.2959 65.6053C26.292 65.6295 26.292 65.6542 26.2959 65.6784C26.292 65.7039 26.292 65.7298 26.2959 65.7553C26.292 65.7808 26.292 65.8067 26.2959 65.8322C26.292 65.8577 26.292 65.8836 26.2959 65.9091C26.292 65.9346 26.292 65.9606 26.2959 65.9861C26.292 66.0103 26.292 66.0349 26.2959 66.0591C26.292 66.0846 26.292 66.1106 26.2959 66.1361C26.292 66.1616 26.292 66.1875 26.2959 66.213C26.292 66.2385 26.292 66.2644 26.2959 66.2899C26.292 66.3154 26.292 66.3414 26.2959 66.3669C26.292 66.3911 26.292 66.4157 26.2959 66.4399C26.292 66.4654 26.292 66.4914 26.2959 66.5169C26.292 66.5424 26.292 66.5683 26.2959 66.5938C26.292 66.6193 26.292 66.6452 26.2959 66.6707C26.292 66.6962 26.292 66.7221 26.2959 66.7476C26.292 66.7718 26.292 66.7965 26.2959 66.8207C26.292 66.8462 26.292 66.8721 26.2959 66.8976C26.292 66.9231 26.292 66.949 26.2959 66.9745C26.292 67 26.292 67.026 26.2959 67.0515C26.292 67.077 26.292 67.1029 26.2959 67.1284C26.292 67.1526 26.292 67.1772 26.2959 67.2014C26.292 67.2269 26.292 67.2529 26.2959 67.2784C26.292 67.3039 26.292 67.3298 26.2959 67.3553C26.292 67.3808 26.292 67.4068 26.2959 67.4323C26.292 67.4577 26.292 67.4837 26.2959 67.5092C26.292 67.5334 26.292 67.558 26.2959 67.5822C26.292 67.6077 26.292 67.6337 26.2959 67.6592C26.292 67.6847 26.292 67.7106 26.2959 67.7361C26.292 67.7616 26.292 67.7875 26.2959 67.813C26.2766 68.263 26.5651 68.7169 27.1612 69.0592L58.1266 86.9361C58.7733 87.2639 59.4881 87.4346 60.2131 87.4346C60.9381 87.4346 61.6529 87.2639 62.2996 86.9361L93.0689 69.0592C93.6573 68.713 93.9419 68.263 93.9227 67.813V22.1245Z" fill="url(#paint4_linear_1079_13058)"/>
<path id="Vector_10" d="M93.9227 22.1245C93.9227 21.6745 93.6496 21.2207 93.0535 20.8745L62.0881 2.99762C61.4419 2.67049 60.7278 2.5 60.0035 2.5C59.2792 2.5 58.5651 2.67049 57.9189 2.99762L27.1497 20.8745C26.5574 21.2168 26.2766 21.6707 26.2959 22.1207C26.292 22.1449 26.292 22.1696 26.2959 22.1938C26.292 22.2193 26.292 22.2452 26.2959 22.2707C26.292 22.2962 26.292 22.3221 26.2959 22.3476C26.292 22.3731 26.292 22.3991 26.2959 22.4246C26.292 22.45 26.292 22.476 26.2959 22.5015C26.292 22.5257 26.292 22.5503 26.2959 22.5746C26.292 22.6001 26.292 22.626 26.2959 22.6515C26.292 22.677 26.292 22.7029 26.2959 22.7284C26.292 22.7539 26.292 22.7798 26.2959 22.8053C26.292 22.8308 26.292 22.8567 26.2959 22.8822C26.292 22.9064 26.292 22.9311 26.2959 22.9553C26.292 22.9808 26.292 23.0067 26.2959 23.0322C26.292 23.0577 26.292 23.0837 26.2959 23.1092C26.292 23.1347 26.292 23.1606 26.2959 23.1861C26.292 23.2116 26.292 23.2375 26.2959 23.263C26.292 23.2872 26.292 23.3119 26.2959 23.3361C26.292 23.3616 26.292 23.3875 26.2959 23.413C26.292 23.4385 26.292 23.4644 26.2959 23.4899C26.292 23.5154 26.292 23.5414 26.2959 23.5668C26.292 23.5923 26.292 23.6183 26.2959 23.6438C26.292 23.668 26.292 23.6926 26.2959 23.7169C26.292 23.7424 26.292 23.7683 26.2959 23.7938C26.292 23.8193 26.292 23.8452 26.2959 23.8707C26.292 23.8962 26.292 23.9221 26.2959 23.9476C26.292 23.9731 26.292 23.999 26.2959 24.0245C26.292 24.0487 26.292 24.0734 26.2959 24.0976C26.292 24.1231 26.292 24.149 26.2959 24.1745C26.292 24.2 26.292 24.226 26.2959 24.2515C26.292 24.277 26.292 24.3029 26.2959 24.3284C26.292 24.3539 26.292 24.3798 26.2959 24.4053C26.292 24.4295 26.292 24.4542 26.2959 24.4784C26.292 24.5039 26.292 24.5298 26.2959 24.5553C26.292 24.5808 26.292 24.6067 26.2959 24.6322C26.292 24.6577 26.292 24.6836 26.2959 24.7091C26.292 24.7346 26.292 24.7606 26.2959 24.7861C26.292 24.8103 26.292 24.8349 26.2959 24.8592C26.292 24.8846 26.292 24.9106 26.2959 24.9361C26.292 24.9616 26.292 24.9875 26.2959 25.013C26.292 25.0385 26.292 25.0644 26.2959 25.0899C26.292 25.1154 26.292 25.1414 26.2959 25.1669C26.292 25.1911 26.292 25.2157 26.2959 25.2399C26.292 25.2654 26.292 25.2914 26.2959 25.3169C26.292 25.3424 26.292 25.3683 26.2959 25.3938C26.292 25.4193 26.292 25.4452 26.2959 25.4707C26.292 25.4962 26.292 25.5221 26.2959 25.5476C26.292 25.5718 26.292 25.5965 26.2959 25.6207C26.292 25.6462 26.292 25.6721 26.2959 25.6976C26.292 25.7231 26.292 25.749 26.2959 25.7745C26.292 25.8 26.292 25.8259 26.2959 25.8514C26.292 25.8769 26.292 25.9029 26.2959 25.9284C26.292 25.9526 26.292 25.9772 26.2959 26.0014C26.292 26.0269 26.292 26.0529 26.2959 26.0784C26.292 26.1039 26.292 26.1298 26.2959 26.1553C26.292 26.1808 26.292 26.2068 26.2959 26.2323C26.292 26.2577 26.292 26.2837 26.2959 26.3092C26.292 26.3334 26.292 26.358 26.2959 26.3822C26.292 26.4077 26.292 26.4337 26.2959 26.4592C26.292 26.4847 26.292 26.5106 26.2959 26.5361C26.292 26.5616 26.292 26.5875 26.2959 26.613C26.292 26.6385 26.292 26.6644 26.2959 26.6899C26.292 26.7141 26.292 26.7388 26.2959 26.763C26.292 26.7885 26.292 26.8144 26.2959 26.8399C26.292 26.8654 26.292 26.8913 26.2959 26.9168C26.292 26.9423 26.292 26.9683 26.2959 26.9938C26.292 27.0193 26.292 27.0452 26.2959 27.0707C26.292 27.0949 26.292 27.1196 26.2959 27.1438C26.292 27.1693 26.292 27.1952 26.2959 27.2207C26.292 27.2462 26.292 27.2721 26.2959 27.2976C26.292 27.3231 26.292 27.3491 26.2959 27.3745C26.292 27.4 26.292 27.426 26.2959 27.4515C26.292 27.4757 26.292 27.5003 26.2959 27.5246C26.292 27.5501 26.292 27.576 26.2959 27.6015C26.292 27.627 26.292 27.6529 26.2959 27.6784C26.292 27.7039 26.292 27.7298 26.2959 27.7553C26.292 27.7808 26.292 27.8067 26.2959 27.8322C26.292 27.8564 26.292 27.8811 26.2959 27.9053C26.292 27.9308 26.292 27.9567 26.2959 27.9822C26.292 28.0077 26.292 28.0337 26.2959 28.0592C26.292 28.0847 26.292 28.1106 26.2959 28.1361C26.292 28.1616 26.292 28.1875 26.2959 28.213C26.292 28.2372 26.292 28.2619 26.2959 28.2861C26.292 28.3116 26.292 28.3375 26.2959 28.363C26.292 28.3885 26.292 28.4144 26.2959 28.4399C26.292 28.4654 26.292 28.4913 26.2959 28.5168C26.292 28.5423 26.292 28.5683 26.2959 28.5938C26.292 28.618 26.292 28.6426 26.2959 28.6669C26.292 28.6923 26.292 28.7183 26.2959 28.7438C26.292 28.7693 26.292 28.7952 26.2959 28.8207C26.292 28.8462 26.292 28.8721 26.2959 28.8976C26.292 28.9231 26.292 28.9491 26.2959 28.9746C26.292 28.9988 26.292 29.0234 26.2959 29.0476C26.292 29.0731 26.292 29.099 26.2959 29.1245C26.292 29.15 26.292 29.176 26.2959 29.2015C26.292 29.227 26.292 29.2529 26.2959 29.2784C26.292 29.3039 26.292 29.3298 26.2959 29.3553C26.292 29.3795 26.292 29.4042 26.2959 29.4284C26.292 29.4539 26.292 29.4798 26.2959 29.5053C26.292 29.5308 26.292 29.5567 26.2959 29.5822C26.292 29.6077 26.292 29.6336 26.2959 29.6591C26.292 29.6846 26.292 29.7106 26.2959 29.7361C26.292 29.7603 26.292 29.7849 26.2959 29.8091C26.292 29.8346 26.292 29.8606 26.2959 29.8861C26.292 29.9116 26.292 29.9375 26.2959 29.963C26.292 29.9885 26.292 30.0144 26.2959 30.0399C26.292 30.0654 26.292 30.0914 26.2959 30.1169C26.292 30.1411 26.292 30.1657 26.2959 30.1899C26.292 30.2154 26.292 30.2414 26.2959 30.2669C26.292 30.2924 26.292 30.3183 26.2959 30.3438C26.292 30.3693 26.292 30.3952 26.2959 30.4207C26.292 30.4462 26.292 30.4721 26.2959 30.4976C26.292 30.5218 26.292 30.5465 26.2959 30.5707C26.292 30.5962 26.292 30.6221 26.2959 30.6476C26.292 30.6731 26.292 30.699 26.2959 30.7245C26.292 30.75 26.292 30.776 26.2959 30.8015C26.292 30.827 26.292 30.8529 26.2959 30.8784C26.292 30.9026 26.292 30.9272 26.2959 30.9514C26.292 30.9769 26.292 31.0029 26.2959 31.0284C26.292 31.0539 26.292 31.0798 26.2959 31.1053C26.292 31.1308 26.292 31.1568 26.2959 31.1823C26.292 31.2077 26.292 31.2337 26.2959 31.2592C26.292 31.2834 26.292 31.308 26.2959 31.3322C26.292 31.3577 26.292 31.3837 26.2959 31.4092C26.292 31.4347 26.292 31.4606 26.2959 31.4861C26.292 31.5116 26.292 31.5375 26.2959 31.563C26.292 31.5885 26.292 31.6144 26.2959 31.6399C26.292 31.6641 26.292 31.6888 26.2959 31.713C26.292 31.7385 26.292 31.7644 26.2959 31.7899C26.292 31.8154 26.292 31.8413 26.2959 31.8668C26.292 31.8923 26.292 31.9183 26.2959 31.9438C26.292 31.9693 26.292 31.9952 26.2959 32.0207C26.292 32.0449 26.292 32.0696 26.2959 32.0938C26.292 32.1193 26.292 32.1452 26.2959 32.1707C26.292 32.1962 26.292 32.2221 26.2959 32.2476C26.292 32.2731 26.292 32.2991 26.2959 32.3245C26.292 32.35 26.292 32.376 26.2959 32.4015C26.292 32.4257 26.292 32.4503 26.2959 32.4746C26.292 32.5001 26.292 32.526 26.2959 32.5515C26.292 32.577 26.292 32.6029 26.2959 32.6284C26.292 32.6539 26.292 32.6798 26.2959 32.7053C26.292 32.7308 26.292 32.7567 26.2959 32.7822C26.292 32.8064 26.292 32.8311 26.2959 32.8553C26.292 32.8808 26.292 32.9067 26.2959 32.9322C26.292 32.9577 26.292 32.9837 26.2959 33.0092C26.292 33.0347 26.292 33.0606 26.2959 33.0861C26.292 33.1116 26.292 33.1375 26.2959 33.163C26.292 33.1872 26.292 33.2119 26.2959 33.2361C26.292 33.2616 26.292 33.2875 26.2959 33.313C26.292 33.3385 26.292 33.3644 26.2959 33.3899C26.292 33.4154 26.292 33.4413 26.2959 33.4668C26.292 33.4923 26.292 33.5183 26.2959 33.5437C26.292 33.568 26.292 33.5926 26.2959 33.6169C26.292 33.6423 26.292 33.6683 26.2959 33.6938C26.292 33.7193 26.292 33.7452 26.2959 33.7707C26.292 33.7962 26.292 33.8221 26.2959 33.8476C26.292 33.8731 26.292 33.8991 26.2959 33.9246C26.292 33.9488 26.292 33.9734 26.2959 33.9976C26.292 34.0231 26.292 34.049 26.2959 34.0745C26.292 34.1 26.292 34.126 26.2959 34.1515C26.292 34.177 26.292 34.2029 26.2959 34.2284C26.292 34.2539 26.292 34.2798 26.2959 34.3053C26.292 34.3295 26.292 34.3542 26.2959 34.3784C26.292 34.4039 26.292 34.4298 26.2959 34.4553C26.292 34.4808 26.292 34.5067 26.2959 34.5322C26.292 34.5577 26.292 34.5836 26.2959 34.6091C26.292 34.6346 26.292 34.6606 26.2959 34.6861C26.292 34.7103 26.292 34.7349 26.2959 34.7591C26.292 34.7846 26.292 34.8106 26.2959 34.8361C26.292 34.8616 26.292 34.8875 26.2959 34.913C26.292 34.9385 26.292 34.9644 26.2959 34.9899C26.292 35.0154 26.292 35.0414 26.2959 35.0669C26.292 35.0911 26.292 35.1157 26.2959 35.1399C26.292 35.1654 26.292 35.1914 26.2959 35.2169C26.292 35.2424 26.292 35.2683 26.2959 35.2938C26.292 35.3193 26.292 35.3452 26.2959 35.3707C26.292 35.3962 26.292 35.4221 26.2959 35.4476C26.292 35.4718 26.292 35.4965 26.2959 35.5207C26.292 35.5462 26.292 35.5721 26.2959 35.5976C26.292 35.6231 26.292 35.649 26.2959 35.6745C26.292 35.7 26.292 35.726 26.2959 35.7515C26.292 35.777 26.292 35.8029 26.2959 35.8284C26.292 35.8526 26.292 35.8772 26.2959 35.9014C26.292 35.9269 26.292 35.9529 26.2959 35.9784C26.292 36.0039 26.292 36.0298 26.2959 36.0553C26.292 36.0808 26.292 36.1068 26.2959 36.1322C26.292 36.1577 26.292 36.1837 26.2959 36.2092C26.292 36.2334 26.292 36.258 26.2959 36.2823C26.292 36.3078 26.292 36.3337 26.2959 36.3592C26.292 36.3847 26.292 36.4106 26.2959 36.4361C26.292 36.4616 26.292 36.4875 26.2959 36.513C26.292 36.5385 26.292 36.5644 26.2959 36.5899C26.292 36.6141 26.292 36.6388 26.2959 36.663C26.292 36.6885 26.292 36.7144 26.2959 36.7399C26.292 36.7654 26.292 36.7913 26.2959 36.8168C26.292 36.8423 26.292 36.8683 26.2959 36.8938C26.292 36.9193 26.292 36.9452 26.2959 36.9707C26.292 36.9949 26.292 37.0196 26.2959 37.0438C26.292 37.0693 26.292 37.0952 26.2959 37.1207C26.292 37.1462 26.292 37.1721 26.2959 37.1976C26.292 37.2231 26.292 37.249 26.2959 37.2745C26.292 37.3 26.292 37.326 26.2959 37.3515C26.292 37.3757 26.292 37.4003 26.2959 37.4246C26.292 37.45 26.292 37.476 26.2959 37.5015C26.292 37.527 26.292 37.5529 26.2959 37.5784C26.292 37.6039 26.292 37.6298 26.2959 37.6553C26.292 37.6808 26.292 37.7067 26.2959 37.7322C26.292 37.7564 26.292 37.7811 26.2959 37.8053C26.292 37.8308 26.292 37.8567 26.2959 37.8822C26.292 37.9077 26.292 37.9337 26.2959 37.9592C26.292 37.9847 26.292 38.0106 26.2959 38.0361C26.292 38.0616 26.292 38.0875 26.2959 38.113C26.292 38.1372 26.292 38.1619 26.2959 38.1861C26.292 38.2116 26.292 38.2375 26.2959 38.263C26.292 38.2885 26.292 38.3144 26.2959 38.3399C26.292 38.3654 26.292 38.3913 26.2959 38.4168C26.292 38.4423 26.292 38.4683 26.2959 38.4938C26.292 38.518 26.292 38.5426 26.2959 38.5668C26.292 38.5923 26.292 38.6183 26.2959 38.6438C26.292 38.6692 26.292 38.6952 26.2959 38.7207C26.292 38.7462 26.292 38.7721 26.2959 38.7976C26.292 38.8231 26.292 38.8491 26.2959 38.8746C26.292 38.8988 26.292 38.9234 26.2959 38.9476C26.292 38.9731 26.292 38.999 26.2959 39.0245C26.292 39.05 26.292 39.076 26.2959 39.1015C26.292 39.127 26.292 39.1529 26.2959 39.1784C26.292 39.2039 26.292 39.2298 26.2959 39.2553C26.292 39.2795 26.292 39.3042 26.2959 39.3284C26.292 39.3539 26.292 39.3798 26.2959 39.4053C26.292 39.4308 26.292 39.4567 26.2959 39.4822C26.292 39.5077 26.292 39.5336 26.2959 39.5591C26.292 39.5846 26.292 39.6106 26.2959 39.6361C26.292 39.6603 26.292 39.6849 26.2959 39.7091C26.292 39.7346 26.292 39.7606 26.2959 39.7861C26.292 39.8116 26.292 39.8375 26.2959 39.863C26.292 39.8885 26.292 39.9144 26.2959 39.9399C26.292 39.9654 26.292 39.9914 26.2959 40.0169C26.292 40.0411 26.292 40.0657 26.2959 40.0899C26.292 40.1154 26.292 40.1414 26.2959 40.1669C26.292 40.1924 26.292 40.2183 26.2959 40.2438C26.292 40.2693 26.292 40.2952 26.2959 40.3207C26.292 40.3462 26.292 40.3721 26.2959 40.3976C26.292 40.4218 26.292 40.4465 26.2959 40.4707C26.292 40.4962 26.292 40.5221 26.2959 40.5476C26.292 40.5731 26.292 40.599 26.2959 40.6245C26.292 40.65 26.292 40.676 26.2959 40.7015C26.292 40.727 26.292 40.7529 26.2959 40.7784C26.292 40.8026 26.292 40.8272 26.2959 40.8514C26.292 40.8769 26.292 40.9029 26.2959 40.9284C26.292 40.9539 26.292 40.9798 26.2959 41.0053C26.292 41.0308 26.292 41.0568 26.2959 41.0822C26.292 41.1077 26.292 41.1337 26.2959 41.1592C26.292 41.1834 26.292 41.208 26.2959 41.2323C26.292 41.2578 26.292 41.2837 26.2959 41.3092C26.292 41.3347 26.292 41.3606 26.2959 41.3861C26.292 41.4116 26.292 41.4375 26.2959 41.463C26.292 41.4885 26.292 41.5144 26.2959 41.5399C26.292 41.5641 26.292 41.5888 26.2959 41.613C26.292 41.6385 26.292 41.6644 26.2959 41.6899C26.292 41.7154 26.292 41.7413 26.2959 41.7668C26.292 41.7923 26.292 41.8183 26.2959 41.8438C26.292 41.8693 26.292 41.8952 26.2959 41.9207C26.292 41.9449 26.292 41.9696 26.2959 41.9938C26.292 42.0193 26.292 42.0452 26.2959 42.0707C26.292 42.0962 26.292 42.1221 26.2959 42.1476C26.292 42.1731 26.292 42.199 26.2959 42.2245C26.292 42.25 26.292 42.276 26.2959 42.3014C26.292 42.3257 26.292 42.3503 26.2959 42.3745C26.292 42.4 26.292 42.426 26.2959 42.4515C26.292 42.477 26.292 42.5029 26.2959 42.5284C26.292 42.5539 26.292 42.5798 26.2959 42.6053C26.292 42.6308 26.292 42.6567 26.2959 42.6822C26.292 42.7064 26.292 42.7311 26.2959 42.7553C26.292 42.7808 26.292 42.8067 26.2959 42.8322C26.292 42.8577 26.292 42.8837 26.2959 42.9092C26.292 42.9347 26.292 42.9606 26.2959 42.9861C26.292 43.0116 26.292 43.0375 26.2959 43.063C26.292 43.0872 26.292 43.1119 26.2959 43.1361C26.292 43.1616 26.292 43.1875 26.2959 43.213C26.292 43.2385 26.292 43.2644 26.2959 43.2899C26.292 43.3154 26.292 43.3413 26.2959 43.3668C26.292 43.3923 26.292 43.4183 26.2959 43.4438C26.292 43.468 26.292 43.4926 26.2959 43.5168C26.292 43.5423 26.292 43.5683 26.2959 43.5938C26.292 43.6192 26.292 43.6452 26.2959 43.6707C26.292 43.6962 26.292 43.7221 26.2959 43.7476C26.292 43.7731 26.292 43.7991 26.2959 43.8246C26.292 43.8488 26.292 43.8734 26.2959 43.8976C26.292 43.9231 26.292 43.9491 26.2959 43.9746C26.292 44.0001 26.292 44.026 26.2959 44.0515C26.292 44.077 26.292 44.1029 26.2959 44.1284C26.292 44.1539 26.292 44.1798 26.2959 44.2053C26.292 44.2295 26.292 44.2542 26.2959 44.2784C26.292 44.3039 26.292 44.3298 26.2959 44.3553C26.292 44.3808 26.292 44.4067 26.2959 44.4322C26.292 44.4577 26.292 44.4836 26.2959 44.5091C26.292 44.5346 26.292 44.5606 26.2959 44.5861C26.292 44.6103 26.292 44.6349 26.2959 44.6591C26.292 44.6846 26.292 44.7106 26.2959 44.7361C26.292 44.7616 26.292 44.7875 26.2959 44.813C26.292 44.8385 26.292 44.8644 26.2959 44.8899C26.292 44.9154 26.292 44.9414 26.2959 44.9669C26.292 44.9911 26.292 45.0157 26.2959 45.0399C26.292 45.0654 26.292 45.0914 26.2959 45.1169C26.292 45.1424 26.292 45.1683 26.2959 45.1938C26.292 45.2193 26.292 45.2452 26.2959 45.2707C26.292 45.2962 26.292 45.3221 26.2959 45.3476C26.292 45.3718 26.292 45.3965 26.2959 45.4207C26.292 45.4462 26.292 45.4721 26.2959 45.4976C26.292 45.5231 26.292 45.549 26.2959 45.5745C26.292 45.6 26.292 45.626 26.2959 45.6515C26.292 45.677 26.292 45.7029 26.2959 45.7284C26.292 45.7526 26.292 45.7773 26.2959 45.8015C26.292 45.827 26.292 45.8529 26.2959 45.8784C26.292 45.9039 26.292 45.9298 26.2959 45.9553C26.292 45.9808 26.292 46.0067 26.2959 46.0322C26.292 46.0577 26.292 46.0837 26.2959 46.1092C26.292 46.1334 26.292 46.158 26.2959 46.1823C26.292 46.2077 26.292 46.2337 26.2959 46.2592C26.292 46.2847 26.292 46.3106 26.2959 46.3361C26.292 46.3616 26.292 46.3875 26.2959 46.413C26.292 46.4385 26.292 46.4644 26.2959 46.4899C26.292 46.5141 26.292 46.5388 26.2959 46.563C26.292 46.5885 26.292 46.6144 26.2959 46.6399C26.292 46.6654 26.292 46.6913 26.2959 46.7168C26.292 46.7423 26.292 46.7683 26.2959 46.7938C26.292 46.8193 26.292 46.8452 26.2959 46.8707C26.292 46.8949 26.292 46.9196 26.2959 46.9438C26.292 46.9693 26.292 46.9952 26.2959 47.0207C26.292 47.0462 26.292 47.0721 26.2959 47.0976C26.292 47.1231 26.292 47.149 26.2959 47.1745C26.292 47.2 26.292 47.226 26.2959 47.2514C26.292 47.2757 26.292 47.3003 26.2959 47.3245C26.292 47.35 26.292 47.376 26.2959 47.4015C26.292 47.4269 26.292 47.4529 26.2959 47.4784C26.292 47.5039 26.292 47.5298 26.2959 47.5553C26.292 47.5808 26.292 47.6067 26.2959 47.6322C26.292 47.6564 26.292 47.6811 26.2959 47.7053C26.292 47.7308 26.292 47.7567 26.2959 47.7822C26.292 47.8077 26.292 47.8337 26.2959 47.8592C26.292 47.8847 26.292 47.9106 26.2959 47.9361C26.292 47.9616 26.292 47.9875 26.2959 48.013C26.292 48.0372 26.292 48.0619 26.2959 48.0861C26.292 48.1116 26.292 48.1375 26.2959 48.163C26.292 48.1885 26.292 48.2144 26.2959 48.2399C26.292 48.2654 26.292 48.2913 26.2959 48.3168C26.292 48.3423 26.292 48.3683 26.2959 48.3938C26.292 48.418 26.292 48.4426 26.2959 48.4668C26.292 48.4923 26.292 48.5183 26.2959 48.5437C26.292 48.5692 26.292 48.5952 26.2959 48.6207C26.292 48.6462 26.292 48.6721 26.2959 48.6976C26.292 48.7231 26.292 48.7491 26.2959 48.7746C26.292 48.7988 26.292 48.8234 26.2959 48.8476C26.292 48.8731 26.292 48.8991 26.2959 48.9246C26.292 48.9501 26.292 48.976 26.2959 49.0015C26.292 49.027 26.292 49.0529 26.2959 49.0784C26.292 49.1039 26.292 49.1298 26.2959 49.1553C26.292 49.1795 26.292 49.2042 26.2959 49.2284C26.292 49.2539 26.292 49.2798 26.2959 49.3053C26.292 49.3308 26.292 49.3567 26.2959 49.3822C26.292 49.4077 26.292 49.4336 26.2959 49.4591C26.292 49.4846 26.292 49.5106 26.2959 49.5361C26.292 49.5603 26.292 49.5849 26.2959 49.6091C26.292 49.6346 26.292 49.6606 26.2959 49.6861C26.292 49.7116 26.292 49.7375 26.2959 49.763C26.292 49.7885 26.292 49.8145 26.2959 49.8399C26.292 49.8654 26.292 49.8914 26.2959 49.9169C26.292 49.9411 26.292 49.9657 26.2959 49.9899C26.292 50.0154 26.292 50.0414 26.2959 50.0669C26.292 50.0924 26.292 50.1183 26.2959 50.1438C26.292 50.1693 26.292 50.1952 26.2959 50.2207C26.292 50.2462 26.292 50.2721 26.2959 50.2976C26.292 50.3218 26.292 50.3465 26.2959 50.3707C26.292 50.3962 26.292 50.4221 26.2959 50.4476C26.292 50.4731 26.292 50.499 26.2959 50.5245C26.292 50.55 26.292 50.576 26.2959 50.6015C26.292 50.627 26.292 50.6529 26.2959 50.6784C26.292 50.7026 26.292 50.7273 26.2959 50.7515C26.292 50.777 26.292 50.8029 26.2959 50.8284C26.292 50.8539 26.292 50.8798 26.2959 50.9053C26.292 50.9308 26.292 50.9567 26.2959 50.9822C26.292 51.0077 26.292 51.0337 26.2959 51.0591C26.292 51.0834 26.292 51.108 26.2959 51.1322C26.292 51.1577 26.292 51.1837 26.2959 51.2092C26.292 51.2347 26.292 51.2606 26.2959 51.2861C26.292 51.3116 26.292 51.3375 26.2959 51.363C26.292 51.3885 26.292 51.4144 26.2959 51.4399C26.292 51.4641 26.292 51.4888 26.2959 51.513C26.292 51.5385 26.292 51.5644 26.2959 51.5899C26.292 51.6154 26.292 51.6414 26.2959 51.6669C26.292 51.6924 26.292 51.7183 26.2959 51.7438C26.292 51.7693 26.292 51.7952 26.2959 51.8207C26.292 51.8449 26.292 51.8696 26.2959 51.8938C26.292 51.9193 26.292 51.9452 26.2959 51.9707C26.292 51.9962 26.292 52.0221 26.2959 52.0476C26.292 52.0731 26.292 52.099 26.2959 52.1245C26.292 52.15 26.292 52.1759 26.2959 52.2014C26.292 52.2257 26.292 52.2503 26.2959 52.2745C26.292 52.3 26.292 52.326 26.2959 52.3515C26.292 52.3769 26.292 52.4029 26.2959 52.4284C26.292 52.4539 26.292 52.4798 26.2959 52.5053C26.292 52.5308 26.292 52.5567 26.2959 52.5822C26.292 52.6064 26.292 52.6311 26.2959 52.6553C26.292 52.6808 26.292 52.7067 26.2959 52.7322C26.292 52.7577 26.292 52.7837 26.2959 52.8092C26.292 52.8347 26.292 52.8606 26.2959 52.8861C26.292 52.9116 26.292 52.9375 26.2959 52.963C26.292 52.9872 26.292 53.0119 26.2959 53.0361C26.292 53.0616 26.292 53.0875 26.2959 53.113C26.292 53.1385 26.292 53.1644 26.2959 53.1899C26.292 53.2154 26.292 53.2413 26.2959 53.2668C26.292 53.2923 26.292 53.3183 26.2959 53.3438C26.292 53.368 26.292 53.3926 26.2959 53.4168C26.292 53.4423 26.292 53.4683 26.2959 53.4938C26.292 53.5193 26.292 53.5452 26.2959 53.5707C26.292 53.5962 26.292 53.6221 26.2959 53.6476C26.292 53.6731 26.292 53.6991 26.2959 53.7246C26.292 53.7488 26.292 53.7734 26.2959 53.7976C26.292 53.8231 26.292 53.8491 26.2959 53.8746C26.292 53.9001 26.292 53.926 26.2959 53.9515C26.292 53.977 26.292 54.0029 26.2959 54.0284C26.292 54.0539 26.292 54.0798 26.2959 54.1053C26.292 54.1295 26.292 54.1542 26.2959 54.1784C26.292 54.2039 26.292 54.2298 26.2959 54.2553C26.292 54.2808 26.292 54.3067 26.2959 54.3322C26.292 54.3577 26.292 54.3836 26.2959 54.4091C26.292 54.4346 26.292 54.4606 26.2959 54.4861C26.292 54.5103 26.292 54.5349 26.2959 54.5591C26.292 54.5846 26.292 54.6106 26.2959 54.6361C26.292 54.6616 26.292 54.6875 26.2959 54.713C26.292 54.7385 26.292 54.7644 26.2959 54.7899C26.292 54.8154 26.292 54.8414 26.2959 54.8669C26.292 54.8911 26.292 54.9157 26.2959 54.9399C26.292 54.9654 26.292 54.9914 26.2959 55.0169C26.292 55.0424 26.292 55.0683 26.2959 55.0938C26.292 55.1193 26.292 55.1452 26.2959 55.1707C26.292 55.1962 26.292 55.2221 26.2959 55.2476C26.292 55.2718 26.292 55.2965 26.2959 55.3207C26.292 55.3462 26.292 55.3721 26.2959 55.3976C26.292 55.4231 26.292 55.449 26.2959 55.4745C26.292 55.5 26.292 55.526 26.2959 55.5515C26.292 55.577 26.292 55.6029 26.2959 55.6284C26.292 55.6526 26.292 55.6773 26.2959 55.7015C26.292 55.727 26.292 55.7529 26.2959 55.7784C26.292 55.8039 26.292 55.8298 26.2959 55.8553C26.292 55.8808 26.292 55.9067 26.2959 55.9322C26.292 55.9577 26.292 55.9837 26.2959 56.0091C26.292 56.0334 26.292 56.058 26.2959 56.0822C26.292 56.1077 26.292 56.1337 26.2959 56.1592C26.292 56.1846 26.292 56.2106 26.2959 56.2361C26.292 56.2616 26.292 56.2875 26.2959 56.313C26.292 56.3385 26.292 56.3644 26.2959 56.3899C26.292 56.4141 26.292 56.4388 26.2959 56.463C26.292 56.4885 26.292 56.5144 26.2959 56.5399C26.292 56.5654 26.292 56.5914 26.2959 56.6169C26.292 56.6424 26.292 56.6683 26.2959 56.6938C26.292 56.7193 26.292 56.7452 26.2959 56.7707C26.292 56.7949 26.292 56.8196 26.2959 56.8438C26.292 56.8693 26.292 56.8952 26.2959 56.9207C26.292 56.9462 26.292 56.9721 26.2959 56.9976C26.292 57.0231 26.292 57.049 26.2959 57.0745C26.292 57.1 26.292 57.1259 26.2959 57.1514C26.292 57.1757 26.292 57.2003 26.2959 57.2245C26.292 57.25 26.292 57.276 26.2959 57.3014C26.292 57.3269 26.292 57.3529 26.2959 57.3784C26.292 57.4039 26.292 57.4298 26.2959 57.4553C26.292 57.4808 26.292 57.5068 26.2959 57.5323C26.292 57.5565 26.292 57.5811 26.2959 57.6053C26.292 57.6308 26.292 57.6567 26.2959 57.6822C26.292 57.7077 26.292 57.7337 26.2959 57.7592C26.292 57.7847 26.292 57.8106 26.2959 57.8361C26.292 57.8616 26.292 57.8875 26.2959 57.913C26.292 57.9372 26.292 57.9619 26.2959 57.9861C26.292 58.0116 26.292 58.0375 26.2959 58.063C26.292 58.0885 26.292 58.1144 26.2959 58.1399C26.292 58.1654 26.292 58.1913 26.2959 58.2168C26.292 58.2423 26.292 58.2683 26.2959 58.2938C26.292 58.318 26.292 58.3426 26.2959 58.3668C26.292 58.3923 26.292 58.4183 26.2959 58.4438C26.292 58.4693 26.292 58.4952 26.2959 58.5207C26.292 58.5462 26.292 58.5721 26.2959 58.5976C26.292 58.6231 26.292 58.6491 26.2959 58.6746C26.292 58.6988 26.292 58.7234 26.2959 58.7476C26.292 58.7731 26.292 58.7991 26.2959 58.8246C26.292 58.8501 26.292 58.876 26.2959 58.9015C26.292 58.927 26.292 58.9529 26.2959 58.9784C26.292 59.0039 26.292 59.0298 26.2959 59.0553C26.292 59.0795 26.292 59.1042 26.2959 59.1284C26.292 59.1539 26.292 59.1798 26.2959 59.2053C26.292 59.2308 26.292 59.2567 26.2959 59.2822C26.292 59.3077 26.292 59.3337 26.2959 59.3592C26.292 59.3847 26.292 59.4106 26.2959 59.4361C26.292 59.4603 26.292 59.4849 26.2959 59.5091C26.292 59.5346 26.292 59.5606 26.2959 59.5861C26.292 59.6116 26.292 59.6375 26.2959 59.663C26.292 59.6885 26.292 59.7144 26.2959 59.7399C26.292 59.7654 26.292 59.7914 26.2959 59.8168C26.292 59.8411 26.292 59.8657 26.2959 59.8899C26.292 59.9154 26.292 59.9414 26.2959 59.9669C26.292 59.9924 26.292 60.0183 26.2959 60.0438C26.292 60.0693 26.292 60.0952 26.2959 60.1207C26.292 60.1462 26.292 60.1721 26.2959 60.1976C26.292 60.2218 26.292 60.2465 26.2959 60.2707C26.292 60.2962 26.292 60.3221 26.2959 60.3476C26.292 60.3731 26.292 60.399 26.2959 60.4245C26.292 60.45 26.292 60.476 26.2959 60.5015C26.292 60.527 26.292 60.5529 26.2959 60.5784C26.292 60.6026 26.292 60.6273 26.2959 60.6515C26.292 60.677 26.292 60.7029 26.2959 60.7284C26.292 60.7539 26.292 60.7798 26.2959 60.8053C26.292 60.8308 26.292 60.8567 26.2959 60.8822C26.292 60.9077 26.292 60.9336 26.2959 60.9591C26.292 60.9846 26.292 61.0106 26.2959 61.0361C26.292 61.0603 26.292 61.0849 26.2959 61.1092C26.292 61.1346 26.292 61.1606 26.2959 61.1861C26.292 61.2116 26.292 61.2375 26.2959 61.263C26.292 61.2885 26.292 61.3144 26.2959 61.3399C26.292 61.3654 26.292 61.3914 26.2959 61.4169C26.292 61.4411 26.292 61.4657 26.2959 61.4899C26.292 61.5154 26.292 61.5414 26.2959 61.5669C26.292 61.5924 26.292 61.6183 26.2959 61.6438C26.292 61.6693 26.292 61.6952 26.2959 61.7207C26.292 61.7462 26.292 61.7721 26.2959 61.7976C26.292 61.8218 26.292 61.8465 26.2959 61.8707C26.292 61.8962 26.292 61.9221 26.2959 61.9476C26.292 61.9731 26.292 61.999 26.2959 62.0245C26.292 62.05 26.292 62.0759 26.2959 62.1014C26.292 62.1269 26.292 62.1529 26.2959 62.1784C26.292 62.2026 26.292 62.2272 26.2959 62.2514C26.292 62.2769 26.292 62.3029 26.2959 62.3284C26.292 62.3539 26.292 62.3798 26.2959 62.4053C26.292 62.4308 26.292 62.4568 26.2959 62.4823C26.292 62.5078 26.292 62.5337 26.2959 62.5592C26.292 62.5834 26.292 62.608 26.2959 62.6322C26.292 62.6577 26.292 62.6837 26.2959 62.7092C26.292 62.7347 26.292 62.7606 26.2959 62.7861C26.292 62.8116 26.292 62.8375 26.2959 62.863C26.292 62.8885 26.292 62.9144 26.2959 62.9399C26.292 62.9641 26.292 62.9888 26.2959 63.013C26.292 63.0385 26.292 63.0644 26.2959 63.0899C26.292 63.1154 26.292 63.1413 26.2959 63.1668C26.292 63.1923 26.292 63.2183 26.2959 63.2438C26.292 63.2693 26.292 63.2952 26.2959 63.3207C26.292 63.3449 26.292 63.3696 26.2959 63.3938C26.292 63.4193 26.292 63.4452 26.2959 63.4707C26.292 63.4962 26.292 63.5221 26.2959 63.5476C26.292 63.5731 26.292 63.5991 26.2959 63.6246C26.292 63.65 26.292 63.676 26.2959 63.7015C26.292 63.7257 26.292 63.7503 26.2959 63.7746C26.292 63.8001 26.292 63.826 26.2959 63.8515C26.292 63.877 26.292 63.9029 26.2959 63.9284C26.292 63.9539 26.292 63.9798 26.2959 64.0053C26.292 64.0308 26.292 64.0567 26.2959 64.0822C26.292 64.1064 26.292 64.1311 26.2959 64.1553C26.292 64.1808 26.292 64.2067 26.2959 64.2322C26.292 64.2577 26.292 64.2837 26.2959 64.3092C26.292 64.3347 26.292 64.3606 26.2959 64.3861C26.292 64.4116 26.292 64.4375 26.2959 64.463C26.292 64.4872 26.292 64.5119 26.2959 64.5361C26.292 64.5616 26.292 64.5875 26.2959 64.613C26.292 64.6385 26.292 64.6644 26.2959 64.6899C26.292 64.7154 26.292 64.7414 26.2959 64.7668C26.292 64.7923 26.292 64.8183 26.2959 64.8438C26.292 64.868 26.292 64.8926 26.2959 64.9169C26.292 64.9423 26.292 64.9683 26.2959 64.9938C26.292 65.0193 26.292 65.0452 26.2959 65.0707C26.292 65.0962 26.292 65.1221 26.2959 65.1476C26.292 65.1731 26.292 65.1991 26.2959 65.2246C26.292 65.2488 26.292 65.2734 26.2959 65.2976C26.292 65.3231 26.292 65.349 26.2959 65.3745C26.292 65.4 26.292 65.426 26.2959 65.4515C26.292 65.477 26.292 65.5029 26.2959 65.5284C26.292 65.5539 26.292 65.5798 26.2959 65.6053C26.292 65.6295 26.292 65.6542 26.2959 65.6784C26.292 65.7039 26.292 65.7298 26.2959 65.7553C26.292 65.7808 26.292 65.8067 26.2959 65.8322C26.292 65.8577 26.292 65.8836 26.2959 65.9091C26.292 65.9346 26.292 65.9606 26.2959 65.9861C26.292 66.0103 26.292 66.0349 26.2959 66.0591C26.292 66.0846 26.292 66.1106 26.2959 66.1361C26.292 66.1616 26.292 66.1875 26.2959 66.213C26.292 66.2385 26.292 66.2644 26.2959 66.2899C26.292 66.3154 26.292 66.3414 26.2959 66.3669C26.292 66.3911 26.292 66.4157 26.2959 66.4399C26.292 66.4654 26.292 66.4914 26.2959 66.5169C26.292 66.5424 26.292 66.5683 26.2959 66.5938C26.292 66.6193 26.292 66.6452 26.2959 66.6707C26.292 66.6962 26.292 66.7221 26.2959 66.7476C26.292 66.7718 26.292 66.7965 26.2959 66.8207C26.292 66.8462 26.292 66.8721 26.2959 66.8976C26.292 66.9231 26.292 66.949 26.2959 66.9745C26.292 67 26.292 67.026 26.2959 67.0515C26.292 67.077 26.292 67.1029 26.2959 67.1284C26.292 67.1526 26.292 67.1772 26.2959 67.2014C26.292 67.2269 26.292 67.2529 26.2959 67.2784C26.292 67.3039 26.292 67.3298 26.2959 67.3553C26.292 67.3808 26.292 67.4068 26.2959 67.4323C26.292 67.4577 26.292 67.4837 26.2959 67.5092C26.292 67.5334 26.292 67.558 26.2959 67.5822C26.292 67.6077 26.292 67.6337 26.2959 67.6592C26.292 67.6847 26.292 67.7106 26.2959 67.7361C26.292 67.7616 26.292 67.7875 26.2959 67.813C26.2766 68.263 26.5651 68.7169 27.1612 69.0592L58.1266 86.9361C58.7733 87.2639 59.4881 87.4346 60.2131 87.4346C60.9381 87.4346 61.6529 87.2639 62.2996 86.9361L93.0689 69.0592C93.6573 68.713 93.9419 68.263 93.9227 67.813V22.1245Z" fill="url(#paint5_linear_1079_13058)"/>
<path id="Vector_11" d="M92.8029 60.9492L92.8026 60.9494L62.0461 78.8189C61.4728 79.1071 60.8399 79.2572 60.1981 79.2572C59.556 79.2572 58.9229 79.107 58.3494 78.8186L27.3961 60.9487L27.3959 60.9485C26.9104 60.6685 26.7808 60.3709 26.7808 60.1755C26.7808 59.9796 26.9109 59.6808 27.397 59.3989L27.3973 59.3987L58.1537 41.5292C58.7266 41.2416 59.3588 41.0918 60 41.0918C60.6413 41.0918 61.2738 41.2417 61.8468 41.5295L92.8029 59.395C93.289 59.6769 93.4192 59.9756 93.4192 60.1721C93.4192 60.3685 93.289 60.6673 92.8029 60.9492Z" stroke="url(#paint6_linear_1079_13058)"/>
<path id="Vector_12" d="M92.8029 53.2568L92.8026 53.257L62.0461 71.1265C61.4728 71.4147 60.8399 71.5648 60.1981 71.5648C59.556 71.5648 58.9229 71.4146 58.3494 71.1262L27.3961 53.2563L27.3959 53.2562C26.9104 52.9762 26.7808 52.6785 26.7808 52.4831C26.7808 52.2872 26.9109 51.9884 27.397 51.7065L27.3973 51.7063L58.1537 33.8368C58.7266 33.5492 59.3588 33.3994 60 33.3994C60.6413 33.3994 61.2738 33.5493 61.8468 33.8371L92.8029 51.7026C93.289 51.9845 93.4192 52.2832 93.4192 52.4797C93.4192 52.6762 93.289 52.9749 92.8029 53.2568Z" stroke="url(#paint7_linear_1079_13058)"/>
<g id="Group 1149">
<g id="Group">
<g id="Union">
<path d="M51.0177 53.5354L47.51 51.6277C46.9502 51.3263 46.3075 51.2156 45.6792 51.3124L49.1869 53.22C49.8152 53.1239 50.4578 53.2345 51.0177 53.5354Z" fill="var(--default-main-color)"/>
<path d="M43.8415 58.3898L47.3492 60.2975C46.8447 60.0032 46.43 59.577 46.1495 59.0647C45.8689 58.5524 45.7332 57.9734 45.7569 57.3898C45.7564 56.4048 46.0984 55.4503 46.7243 54.6897C47.3502 53.9291 48.2203 53.4092 49.1869 53.22L45.6792 51.3124C44.7133 51.5017 43.8442 52.022 43.2196 52.7827C42.595 53.5435 42.2546 54.4978 42.2569 55.4821C42.2316 56.0651 42.3658 56.6439 42.645 57.1563C42.9242 57.6686 43.3379 58.0951 43.8415 58.3898Z" fill="var(--default-main-color)"/>
</g>
<g id="Union_2">
<path d="M51.0177 53.5354L47.51 51.6277C46.9502 51.3263 46.3075 51.2156 45.6792 51.3124L49.1869 53.22C49.8152 53.1239 50.4578 53.2345 51.0177 53.5354Z" fill="black" fill-opacity="0.1"/>
<path d="M43.8415 58.3898L47.3492 60.2975C46.8447 60.0032 46.43 59.577 46.1495 59.0647C45.8689 58.5524 45.7332 57.9734 45.7569 57.3898C45.7564 56.4048 46.0984 55.4503 46.7243 54.6897C47.3502 53.9291 48.2203 53.4092 49.1869 53.22L45.6792 51.3124C44.7133 51.5017 43.8442 52.022 43.2196 52.7827C42.595 53.5435 42.2546 54.4978 42.2569 55.4821C42.2316 56.0651 42.3658 56.6439 42.645 57.1563C42.9242 57.6686 43.3379 58.0951 43.8415 58.3898Z" fill="black" fill-opacity="0.1"/>
</g>
<g id="Vector_13">
<path d="M49.188 53.2201C49.6329 53.1594 50.0857 53.1987 50.5135 53.3353C50.9412 53.472 51.333 53.7023 51.6603 54.0097C51.9876 54.3171 52.2421 54.6938 52.4053 55.1121C52.5684 55.5304 52.6361 55.9799 52.6033 56.4277C52.6056 57.4141 52.2644 58.3704 51.6384 59.1326C51.0124 59.8948 50.1405 60.4153 49.1726 60.6047C48.727 60.6656 48.2735 60.6261 47.8451 60.4891C47.4168 60.352 47.0244 60.1209 46.697 59.8126C46.3695 59.5044 46.1152 59.1267 45.9526 58.7074C45.7899 58.2881 45.7232 57.8377 45.7572 57.3893C45.7567 56.4043 46.0987 55.4498 46.7246 54.6892C47.3505 53.9286 48.2213 53.4093 49.188 53.2201Z" fill="var(--default-main-color)"/>
<path d="M52.3041 56.4058L52.3033 56.4171L52.3033 56.4284C52.3054 57.3451 51.9884 58.2339 51.4066 58.9422C50.8266 59.6483 50.0197 60.1312 49.1235 60.3086C48.7249 60.3618 48.3195 60.3259 47.9365 60.2034C47.5508 60.0799 47.1975 59.8718 46.9026 59.5942C46.6078 59.3166 46.3787 58.9765 46.2323 58.599C46.0858 58.2214 46.0257 57.8158 46.0563 57.4119L46.0571 57.4005L46.0571 57.3891C46.0567 56.4737 46.3746 55.5867 46.9562 54.8798C47.5361 54.1752 48.3421 53.6934 49.2371 53.5162C49.635 53.4631 50.0397 53.4989 50.4222 53.6211C50.8074 53.7441 51.1602 53.9516 51.4549 54.2284C51.7496 54.5052 51.9789 54.8444 52.1258 55.2211C52.2727 55.5978 52.3336 56.0026 52.3041 56.4058Z" stroke="url(#paint8_linear_1079_13058)" stroke-opacity="0.6" stroke-width="0.59998"/>
</g>
</g>
<g id="Group_2">
<path id="Union_3" d="M75.6626 50.0969L72.155 48.1892C71.6081 47.8978 70.9832 47.7878 70.3704 47.8746L70.3252 47.8501C69.3586 48.0381 68.4879 48.5573 67.8631 49.3183C67.2382 50.0794 66.8984 51.0346 66.9022 52.0192C66.8758 52.6013 67.0095 53.1795 67.2889 53.6908C67.5683 54.2022 67.9826 54.6271 68.4868 54.9192L71.9945 56.8269C71.4903 56.5348 71.0759 56.1098 70.7965 55.5985C70.5171 55.0872 70.3834 54.509 70.4098 53.9269C70.4072 52.9417 70.7473 51.9862 71.3718 51.2242C71.9871 50.4735 72.8406 49.9565 73.79 49.7588L73.8319 49.7815C74.4601 49.6886 75.1016 49.7991 75.6626 50.0969Z" fill="var(--default-main-color)"/>
<path id="Union_4" d="M75.6626 50.0969L72.155 48.1892C71.6081 47.8978 70.9832 47.7878 70.3704 47.8746L70.3252 47.8501C69.3586 48.0381 68.4879 48.5573 67.8631 49.3183C67.2382 50.0794 66.8984 51.0346 66.9022 52.0192C66.8758 52.6013 67.0095 53.1795 67.2889 53.6908C67.5683 54.2022 67.9826 54.6271 68.4868 54.9192L71.9945 56.8269C71.4903 56.5348 71.0759 56.1098 70.7965 55.5985C70.5171 55.0872 70.3834 54.509 70.4098 53.9269C70.4072 52.9417 70.7473 51.9862 71.3718 51.2242C71.9871 50.4735 72.8406 49.9565 73.79 49.7588L73.8319 49.7815C74.4601 49.6886 75.1016 49.7991 75.6626 50.0969Z" fill="black" fill-opacity="0.1"/>
<g id="Vector_14">
<path d="M73.8317 49.7276C74.2773 49.6684 74.7307 49.709 75.1587 49.8465C75.5867 49.9841 75.9787 50.2151 76.3064 50.5229C76.6341 50.8307 76.8892 51.2075 77.0532 51.6261C77.2172 52.0447 77.2861 52.4946 77.2548 52.943C77.2538 53.9297 76.9105 54.8853 76.2834 55.6471C75.6564 56.4088 74.7844 56.9293 73.8164 57.1199C73.3711 57.181 72.9178 57.1417 72.4898 57.0046C72.0617 56.8675 71.6699 56.6362 71.343 56.3278C71.0161 56.0193 70.7625 55.6415 70.6008 55.2222C70.4391 54.8028 70.3734 54.3526 70.4087 53.9046C70.406 52.9193 70.7462 51.9638 71.3707 51.2018C71.9952 50.4397 72.8651 49.9186 73.8317 49.7276Z" fill="var(--default-main-color)"/>
<path d="M76.9556 52.9222L76.9548 52.9324L76.9548 52.9427C76.9539 53.8599 76.6347 54.7483 76.0518 55.4564C75.4707 56.1623 74.6635 56.6453 73.767 56.8238C73.3689 56.8772 72.9638 56.8414 72.5813 56.7189C72.1959 56.5955 71.8431 56.3872 71.5488 56.1096C71.2546 55.8319 71.0262 55.4918 70.8807 55.1143C70.7351 54.7367 70.676 54.3314 70.7077 53.9281L70.7087 53.9159L70.7087 53.9038C70.7062 52.9882 71.0223 52.1001 71.6027 51.3919C72.1811 50.6862 72.986 50.2028 73.8805 50.0238C74.2791 49.9722 74.6842 50.0091 75.0669 50.1321C75.4526 50.2561 75.8058 50.4642 76.101 50.7415C76.3963 51.0189 76.6261 51.3584 76.7739 51.7356C76.9217 52.1127 76.9838 52.5181 76.9556 52.9222Z" stroke="url(#paint9_linear_1079_13058)" stroke-opacity="0.6" stroke-width="0.59998"/>
</g>
</g>
<path id="Vector_15" d="M74.3485 44.7893L70.8408 42.8816C70.9222 42.8676 70.9974 42.8292 71.0564 42.7716C71.1155 42.7139 71.1556 42.6396 71.1715 42.5586L74.6793 44.4663C74.6614 44.5464 74.6206 44.6196 74.5619 44.677C74.5032 44.7343 74.429 44.7733 74.3485 44.7893Z" fill="var(--default-main-color)"/>
<path id="Vector_16" d="M74.6791 44.4579L71.1714 42.5502L75.7021 22.5195L79.2021 24.4272L74.6791 44.4579Z" fill="var(--default-main-color)"/>
<path id="Vector_17" d="M46.8426 28.52L43.335 26.6123L75.3656 22.1123L78.8733 24.0123L46.8426 28.52Z" fill="var(--default-main-color)"/>
<path id="Vector_18" d="M79.2105 24.4278L75.7028 22.5201C75.7151 22.461 75.7139 22.3998 75.6993 22.3412C75.6846 22.2826 75.6569 22.228 75.6182 22.1816L79.1258 24.0894C79.1645 24.1358 79.1924 24.1902 79.207 24.2488C79.2217 24.3075 79.2229 24.3687 79.2105 24.4278Z" fill="var(--default-main-color)"/>
<path id="Vector_19" d="M75.5581 22.1426L79.0657 24.0502L79.1272 24.0887L75.6196 22.181L75.5581 22.1426Z" fill="var(--default-main-color)"/>
<path id="Vector_20" d="M70.0336 40.4129L66.5259 38.5052C66.9074 38.4396 67.252 38.2372 67.4951 37.936C67.751 37.6262 67.8923 37.2377 67.8951 36.8359L71.4029 38.7436C71.4 39.1454 71.2588 39.5339 71.0028 39.8436C70.7597 40.1449 70.4151 40.3472 70.0336 40.4129Z" fill="var(--default-main-color)"/>
<path id="Vector_21" d="M75.5568 22.1428L79.0644 24.0505C79.0045 24.0305 78.9397 24.0305 78.8798 24.0505L75.3721 22.1428C75.4319 22.1223 75.4969 22.1223 75.5568 22.1428Z" fill="var(--default-main-color)"/>
<path id="Vector_22" d="M71.3949 38.735L67.8872 36.8273L67.9026 29.4351L71.4103 31.3427L71.3949 38.735Z" fill="var(--default-main-color)"/>
<path id="Vector_23" d="M53.6185 32.3658L50.1108 30.4581L66.5339 28.1504L70.0415 30.0581L53.6185 32.3658Z" fill="white"/>
<path id="Vector_24" d="M67.9025 29.4358C67.9075 29.253 67.8745 29.0711 67.8056 28.9016C67.7368 28.7321 67.6336 28.5787 67.5024 28.4512L71.0102 30.3588C71.1413 30.4864 71.2445 30.6398 71.3134 30.8093C71.3822 30.9787 71.4152 31.1606 71.4102 31.3435L67.9025 29.4358Z" fill="var(--default-main-color)"/>
<path id="Vector_25" d="M67.5017 28.4505C67.4334 28.3832 67.3557 28.3262 67.271 28.2812L70.7786 30.1889C70.8633 30.2339 70.9411 30.2909 71.0094 30.3581L69.2556 29.4043L68.8018 29.1505L68.3479 28.912L68.1248 28.789L67.7017 28.5582L67.5017 28.4505Z" fill="var(--default-main-color)"/>
<path id="Vector_26" d="M68.6558 37.6349L65.1558 35.7272L65.1635 31.3042L68.6711 33.2119L68.6558 37.6349Z" fill="white"/>
<path id="Vector_27" d="M67.2723 28.2809L70.7799 30.1886C70.5439 30.0643 70.2745 30.0185 70.0107 30.0579L66.5107 28.1501C66.772 28.1114 67.0389 28.1572 67.2723 28.2809Z" fill="white"/>
<path id="Vector_28" d="M53.5941 42.7129L50.0864 40.8052L66.5171 38.4976L70.0248 40.4052L53.5941 42.7129Z" fill="var(--default-main-color)"/>
<path id="Vector_29" d="M54.9735 39.5655L51.4658 37.6578L65.1581 35.7271L68.6581 37.6347L54.9735 39.5655Z" fill="white"/>
<path id="Vector_30" d="M52.8583 42.5898L49.3506 40.6821C49.586 40.808 49.856 40.8539 50.1198 40.8129L53.6198 42.7206C53.3585 42.761 53.0912 42.7151 52.8583 42.5898Z" fill="var(--default-main-color)"/>
<path id="Vector_31" d="M49.5648 48.2659L46.0571 46.3583L70.8417 42.8813L74.3493 44.789L49.5648 48.2659Z" fill="var(--default-main-color)"/>
<path id="Vector_32" d="M52.8576 42.5891L49.3499 40.6814C49.2652 40.6365 49.1875 40.5795 49.1191 40.5122L52.6268 42.4199C52.6951 42.4871 52.7729 42.5441 52.8576 42.5891Z" fill="white"/>
<path id="Vector_33" d="M49.3783 48.2431L45.8706 46.3354C45.9312 46.3508 45.9946 46.3508 46.0552 46.3354L49.5629 48.2431C49.5024 48.2591 49.4388 48.2591 49.3783 48.2431Z" fill="var(--default-main-color)"/>
<path id="Vector_34" d="M49.3804 48.2434L45.8727 46.3357C45.8014 46.2889 45.7496 46.2178 45.7266 46.1357L49.2342 48.0358C49.2548 48.121 49.3071 48.1952 49.3804 48.2434Z" fill="var(--default-main-color)"/>
<path id="Vector_35" d="M52.6271 42.4206L49.1195 40.513C48.9898 40.3843 48.8875 40.2307 48.8188 40.0615C48.75 39.8923 48.7163 39.7109 48.7194 39.5283L52.2271 41.436C52.2239 41.6186 52.2577 41.8 52.3264 41.9692C52.3952 42.1385 52.4975 42.292 52.6271 42.4206Z" fill="white"/>
<path id="Vector_36" d="M54.9735 39.5655L51.4658 37.6578L51.4735 33.2271L54.9812 35.1347L54.9735 39.5655Z" fill="#FE9025"/>
<path id="Vector_37" d="M54.9794 35.1349L51.4717 33.2273L65.1639 31.3042L68.6716 33.2119L54.9794 35.1349Z" fill="#FE9025"/>
<path id="Vector_38" d="M71.0106 30.3587C71.1417 30.4863 71.245 30.6397 71.3138 30.8092C71.3827 30.9786 71.4156 31.1605 71.4106 31.3434V38.7433C71.4078 39.1451 71.2665 39.5336 71.0106 39.8434C70.7675 40.1446 70.4229 40.347 70.0414 40.4126L53.6107 42.7203C53.437 42.7446 53.2601 42.7303 53.0925 42.6785C52.925 42.6266 52.771 42.5385 52.6414 42.4202C52.5118 42.2916 52.4095 42.1381 52.3408 41.9689C52.272 41.7997 52.2382 41.6182 52.2414 41.4356V34.0434C52.2462 33.6396 52.3871 33.2493 52.6414 32.9357C52.8888 32.6355 53.2353 32.4337 53.6184 32.3665L70.0414 30.0588C70.2151 30.0334 70.3923 30.0471 70.56 30.099C70.7277 30.1509 70.8817 30.2396 71.0106 30.3587ZM68.7029 37.6434V33.2126L55.0106 35.1357V39.5664L68.7029 37.6434Z" fill="white"/>
<path id="Vector_39" d="M68.6721 33.2119L68.6567 37.635L54.9722 39.5657L54.9799 35.135L68.6721 33.2119Z" fill="#FE9025"/>
<path id="Vector_40" d="M52.2269 41.4274L48.7192 39.5274L48.7346 32.1274L52.2423 34.0351L52.2269 41.4274Z" fill="white"/>
<path id="Vector_41" d="M52.642 32.935L49.1343 31.0272C49.3816 30.7271 49.7281 30.5252 50.1112 30.458L53.6189 32.3658C53.2358 32.4329 52.8893 32.6348 52.642 32.935Z" fill="white"/>
<path id="Vector_42" d="M52.242 34.0427L48.7344 32.1351C48.7391 31.7313 48.88 31.341 49.1343 31.0273L52.642 32.9351C52.3877 33.2487 52.2468 33.639 52.242 34.0427Z" fill="white"/>
<path id="Vector_43" d="M41.625 30.6362C41.7613 30.6202 41.8955 30.5892 42.025 30.5439L45.5327 32.4516C45.4032 32.4969 45.269 32.5279 45.1327 32.5439L41.625 30.6362Z" fill="var(--default-main-color)"/>
<path id="Vector_44" d="M49.2326 48.0346L45.7249 46.1269L42.0249 30.5347L45.5249 32.4423L49.2326 48.0346Z" fill="var(--default-main-color)"/>
<path id="Vector_45" d="M42.0249 30.5431C42.0941 30.5431 42.1711 30.4891 42.2403 30.4507L45.748 32.3584C45.6788 32.3584 45.6019 32.42 45.5326 32.4507L42.0249 30.5431Z" fill="var(--default-main-color)"/>
<path id="Vector_46" d="M42.2412 30.4508C42.7733 30.1884 43.1985 29.7505 43.4452 29.211C43.6918 28.6715 43.7448 28.0633 43.5951 27.4893L47.1027 29.3969C47.2524 29.971 47.1995 30.5791 46.9528 31.1187C46.7062 31.6582 46.281 32.0962 45.7489 32.3585L42.2412 30.4508Z" fill="var(--default-main-color)"/>
<path id="Vector_47" d="M47.1042 29.3887L43.5965 27.481L43.335 26.6118L46.8426 28.5195L47.1042 29.3887Z" fill="var(--default-main-color)"/>
<path id="Vector_48" d="M40.5254 30.4507C40.8616 30.6319 41.2483 30.6969 41.6253 30.6354L45.1331 32.5431C44.7561 32.6046 44.3693 32.5397 44.033 32.3584L40.5254 30.4507Z" fill="var(--default-main-color)"/>
<path id="Vector_49" d="M46.841 28.52L43.3333 26.6123L42.6948 24.4893L46.2025 26.3892L46.841 28.52Z" fill="var(--default-main-color)"/>
<path id="Vector_50" d="M44.0333 32.358L40.5257 30.4503C40.1088 30.2159 39.8018 29.826 39.6719 29.3657L43.1795 31.2734C43.3094 31.7336 43.6165 32.1237 44.0333 32.358Z" fill="var(--default-main-color)"/>
<path id="Vector_51" d="M43.1739 31.2653L39.6739 29.3577L39.2124 27.8423L42.7201 29.75L43.1739 31.2653Z" fill="var(--default-main-color)"/>
<g id="Union_5">
<path d="M43.988 20.7731L40.4803 18.8655C40.1455 18.6851 39.7616 18.6174 39.3853 18.6724L39.3736 18.666L35.7505 19.1814L35.7516 19.182C35.1722 19.2968 34.6505 19.6089 34.2753 20.0652C33.8993 20.5227 33.6939 21.0967 33.6943 21.6888C33.6787 22.0382 33.7593 22.3851 33.9275 22.6917C34.0958 22.9983 34.3451 23.2528 34.6481 23.4273L38.1559 25.335C37.8528 25.1605 37.6035 24.9059 37.4353 24.5994C37.267 24.2928 37.1863 23.9459 37.2019 23.5965C37.2012 23.0054 37.4055 22.4323 37.7801 21.975C38.1546 21.5177 38.6761 21.2045 39.2558 21.0888L38.3861 20.6148L39.2582 21.0891L42.8701 20.5753L42.8803 20.5808C43.2606 20.5239 43.6492 20.5914 43.988 20.7731Z" fill="var(--default-main-color)"/>
<path d="M76.6567 20.1126L80.1644 22.0202C79.7699 21.8141 79.32 21.7386 78.8798 21.8048L78.8787 21.8042L46.2025 26.3888L42.6948 24.4888L75.3716 19.8965L75.3727 19.8971C75.8127 19.8305 76.2625 19.906 76.6567 20.1126Z" fill="var(--default-main-color)"/>
<path d="M48.2717 50.265L44.7717 48.3574C44.5081 48.2096 44.2786 48.0079 44.0983 47.7653C43.918 47.5227 43.791 47.2448 43.7256 46.9497L39.2755 28.195L39.2662 28.19C39.2408 28.0785 39.2228 27.9655 39.2124 27.8516L42.7123 29.7592C42.7354 29.8669 42.7585 29.9746 42.7815 30.0899L42.5961 29.9897L42.7801 30.0898L47.234 48.8589C47.2995 49.1525 47.4251 49.4289 47.6037 49.6709C47.7825 49.9133 48.01 50.1157 48.2717 50.265Z" fill="var(--default-main-color)"/>
<path d="M42.7185 29.751L39.2108 27.8434L37.8569 23.3203L41.3646 25.228L42.7185 29.751Z" fill="var(--default-main-color)"/>
</g>
<g id="Union_6">
<path d="M43.988 20.7731L40.4803 18.8655C40.1455 18.6851 39.7616 18.6174 39.3853 18.6724L39.3736 18.666L35.7505 19.1814L35.7516 19.182C35.1722 19.2968 34.6505 19.6089 34.2753 20.0652C33.8993 20.5227 33.6939 21.0967 33.6943 21.6888C33.6787 22.0382 33.7593 22.3851 33.9275 22.6917C34.0958 22.9983 34.3451 23.2528 34.6481 23.4273L38.1559 25.335C37.8528 25.1605 37.6035 24.9059 37.4353 24.5994C37.267 24.2928 37.1863 23.9459 37.2019 23.5965C37.2012 23.0054 37.4055 22.4323 37.7801 21.975C38.1546 21.5177 38.6761 21.2045 39.2558 21.0888L38.3861 20.6148L39.2582 21.0891L42.8701 20.5753L42.8803 20.5808C43.2606 20.5239 43.6492 20.5914 43.988 20.7731Z" fill="black" fill-opacity="0.1"/>
<path d="M76.6567 20.1126L80.1644 22.0202C79.7699 21.8141 79.32 21.7386 78.8798 21.8048L78.8787 21.8042L46.2025 26.3888L42.6948 24.4888L75.3716 19.8965L75.3727 19.8971C75.8127 19.8305 76.2625 19.906 76.6567 20.1126Z" fill="black" fill-opacity="0.1"/>
<path d="M48.2717 50.265L44.7717 48.3574C44.5081 48.2096 44.2786 48.0079 44.0983 47.7653C43.918 47.5227 43.791 47.2448 43.7256 46.9497L39.2755 28.195L39.2662 28.19C39.2408 28.0785 39.2228 27.9655 39.2124 27.8516L42.7123 29.7592C42.7354 29.8669 42.7585 29.9746 42.7815 30.0899L42.5961 29.9897L42.7801 30.0898L47.234 48.8589C47.2995 49.1525 47.4251 49.4289 47.6037 49.6709C47.7825 49.9133 48.01 50.1157 48.2717 50.265Z" fill="black" fill-opacity="0.1"/>
<path d="M42.7185 29.751L39.2108 27.8434L37.8569 23.3203L41.3646 25.228L42.7185 29.751Z" fill="black" fill-opacity="0.1"/>
</g>
<g id="Vector_52">
<path d="M80.5884 22.336C80.3645 22.1211 80.0936 21.9613 79.7972 21.8692C79.5008 21.777 79.1871 21.7551 78.8808 21.8052L46.204 26.4206L44.8501 21.8822C44.7361 21.4646 44.4724 21.1035 44.1091 20.868C43.7459 20.6325 43.3086 20.539 42.8808 20.6053L39.2578 21.113C38.6775 21.2273 38.1551 21.5401 37.7803 21.9977C37.4055 22.4553 37.2017 23.0292 37.2039 23.6207C37.1845 23.8893 37.2252 24.1588 37.3229 24.4098C37.4206 24.6608 37.5729 24.8869 37.7687 25.0717C37.9646 25.2565 38.1992 25.3955 38.4554 25.4785C38.7116 25.5614 38.9831 25.5863 39.2501 25.5513L41.3655 25.2514L42.7193 29.7745C42.7193 29.8899 42.7193 29.9975 42.7808 30.1129L47.2347 48.882C47.3393 49.3966 47.6364 49.8519 48.0652 50.1549C48.4941 50.458 49.0224 50.586 49.5424 50.5128L74.3192 47.0282C74.8902 46.9176 75.415 46.6387 75.8262 46.2275C76.2374 45.8163 76.5163 45.2914 76.6269 44.7205L81.1499 24.7206C81.2012 24.5117 81.2271 24.2973 81.2269 24.0822C81.2474 23.7628 81.2013 23.4426 81.0914 23.142C80.9814 22.8414 80.8101 22.5669 80.5884 22.336ZM71.4346 38.7052C71.4318 39.1069 71.2906 39.4954 71.0347 39.8051C70.7915 40.1064 70.447 40.3087 70.0654 40.3743L53.6347 42.682C53.4611 42.7064 53.2841 42.6922 53.1166 42.6403C52.9491 42.5885 52.795 42.5002 52.6655 42.382C52.5359 42.2534 52.4336 42.0998 52.3648 41.9306C52.2961 41.7614 52.2623 41.5801 52.2655 41.3975V33.9975C52.272 33.5964 52.4128 33.2091 52.6655 32.8975C52.9128 32.5973 53.2592 32.3954 53.6423 32.3283L70.0654 30.0206C70.2391 29.9951 70.4163 30.0089 70.584 30.0608C70.7518 30.1127 70.9057 30.2015 71.0347 30.3206C71.1658 30.4482 71.269 30.6015 71.3379 30.7709C71.4067 30.9404 71.4396 31.1224 71.4346 31.3052V38.7052Z" fill="var(--default-main-color)"/>
<path d="M78.9227 22.1023L78.9227 22.1023L78.9292 22.1013C79.1895 22.0587 79.4562 22.0773 79.7082 22.1556C79.9582 22.2333 80.1868 22.3677 80.3763 22.5483C80.5671 22.7482 80.7147 22.9854 80.8096 23.245C80.9052 23.5065 80.9454 23.7851 80.9276 24.063L80.927 24.0727L80.927 24.0823C80.9271 24.2733 80.9041 24.4636 80.8586 24.6492L80.8585 24.6492L80.8573 24.6544L76.3343 44.6543L76.3341 44.6543L76.3324 44.6634C76.2331 45.1756 75.983 45.6464 75.6141 46.0154C75.2469 46.3825 74.7789 46.632 74.2695 46.7322L49.5006 50.2157L49.5005 50.2157C49.0562 50.2783 48.6048 50.1689 48.2384 49.9099C47.8719 49.651 47.618 49.262 47.5287 48.8223L47.5288 48.8222L47.5266 48.8128L43.0727 30.0436L43.0638 30.0059L43.0455 29.9717C43.0236 29.9305 43.0193 29.8947 43.0193 29.7745V29.7305L43.0067 29.6885L41.6529 25.1654L41.5789 24.9182L41.3234 24.9544L39.2097 25.2541C38.9872 25.283 38.7612 25.2622 38.5478 25.1931C38.334 25.1238 38.1381 25.0078 37.9746 24.8535C37.8111 24.6992 37.684 24.5105 37.6025 24.301C37.5209 24.0914 37.487 23.8664 37.5031 23.6423L37.504 23.6309L37.5039 23.6195C37.502 23.0978 37.6817 22.5915 38.0124 22.1878C38.3413 21.7862 38.7991 21.511 39.3079 21.4089L42.9225 20.9024L42.9225 20.9024L42.9268 20.9017C43.2817 20.8467 43.6446 20.9243 43.9459 21.1197C44.2473 21.3151 44.4661 21.6147 44.5607 21.9612L44.5606 21.9612L44.5626 21.968L45.9165 26.5063L45.9903 26.7537L46.2459 26.7176L78.9227 22.1023ZM71.7346 38.7073V38.7052V31.3091C71.7401 31.0863 71.6997 30.8647 71.6158 30.658C71.5313 30.4501 71.4047 30.262 71.2439 30.1056L71.2439 30.1055L71.2382 30.1002C71.0764 29.9508 70.8832 29.8393 70.6727 29.7742C70.4626 29.7092 70.2406 29.6919 70.023 29.7236C70.0226 29.7237 70.0223 29.7237 70.0219 29.7238L53.6006 32.0312L53.6006 32.031L53.5905 32.0328C53.1369 32.1123 52.7268 32.3513 52.434 32.7067L52.4325 32.7085C52.1375 33.0723 51.9731 33.5245 51.9655 33.9927H51.9655V33.9975V41.395C51.962 41.6171 52.0033 41.8377 52.0869 42.0435C52.1709 42.2503 52.2958 42.4378 52.4542 42.5949L52.454 42.5951L52.4633 42.6036C52.6254 42.7515 52.8181 42.862 53.0279 42.9269C53.2376 42.9918 53.4591 43.0096 53.6764 42.9791L53.6765 42.9791L70.1072 40.6714L70.1072 40.6716L70.1163 40.67C70.5691 40.5921 70.9781 40.3522 71.267 39.9949C71.5662 39.6321 71.7313 39.1775 71.7346 38.7073Z" stroke="url(#paint10_linear_1079_13058)" stroke-opacity="0.6" stroke-width="0.59998"/>
</g>
</g>
</g>
</g>
<defs>
<filter id="filter0_f_1079_13058" x="-4" y="25.5" width="115" height="106" filterUnits="userSpaceOnUse" color-interpolation-filters="sRGB">
<feFlood flood-opacity="0" result="BackgroundImageFix"/>
<feBlend mode="normal" in="SourceGraphic" in2="BackgroundImageFix" result="shape"/>
<feGaussianBlur stdDeviation="21" result="effect1_foregroundBlur_1079_13058"/>
</filter>
<linearGradient id="paint0_linear_1079_13058" x1="62.9803" y1="81.8841" x2="104.219" y2="81.8841" gradientUnits="userSpaceOnUse">
<stop stop-color="white"/>
<stop offset="1" stop-color="var(--default-main-color)"/>
</linearGradient>
<linearGradient id="paint1_linear_1079_13058" x1="16.0077" y1="81.8702" x2="57.5307" y2="81.8702" gradientUnits="userSpaceOnUse">
<stop stop-color="var(--default-main-color)"/>
<stop offset="1" stop-color="white"/>
</linearGradient>
<linearGradient id="paint2_linear_1079_13058" x1="60.2381" y1="88.4742" x2="60.2381" y2="48.4742" gradientUnits="userSpaceOnUse">
<stop stop-color="white" stop-opacity="0"/>
<stop offset="1" stop-color="var(--default-main-color)"/>
</linearGradient>
<linearGradient id="paint3_linear_1079_13058" x1="60.2381" y1="88.4742" x2="60.2381" y2="48.4742" gradientUnits="userSpaceOnUse">
<stop stop-color="white" stop-opacity="0"/>
<stop offset="1" stop-color="white" stop-opacity="0.3"/>
</linearGradient>
<linearGradient id="paint4_linear_1079_13058" x1="60.2464" y1="106.547" x2="60.2464" y2="2.91215" gradientUnits="userSpaceOnUse">
<stop stop-color="var(--default-main-color)"/>
<stop offset="1" stop-color="white" stop-opacity="0"/>
</linearGradient>
<linearGradient id="paint5_linear_1079_13058" x1="60.2464" y1="106.547" x2="60.2464" y2="2.91215" gradientUnits="userSpaceOnUse">
<stop stop-color="white" stop-opacity="0.8"/>
<stop offset="1" stop-color="white" stop-opacity="0"/>
</linearGradient>
<linearGradient id="paint6_linear_1079_13058" x1="60.1" y1="40.5918" x2="60.1" y2="79.7572" gradientUnits="userSpaceOnUse">
<stop stop-color="white" stop-opacity="0"/>
<stop offset="1" stop-color="white"/>
</linearGradient>
<linearGradient id="paint7_linear_1079_13058" x1="60.1" y1="32.8994" x2="60.1" y2="72.0648" gradientUnits="userSpaceOnUse">
<stop stop-color="white" stop-opacity="0"/>
<stop offset="1" stop-color="white"/>
</linearGradient>
<linearGradient id="paint8_linear_1079_13058" x1="49.1799" y1="53.1924" x2="49.1799" y2="60.6325" gradientUnits="userSpaceOnUse">
<stop stop-color="white"/>
<stop offset="1" stop-color="white" stop-opacity="0"/>
</linearGradient>
<linearGradient id="paint9_linear_1079_13058" x1="73.8308" y1="49.7012" x2="73.8308" y2="57.1479" gradientUnits="userSpaceOnUse">
<stop stop-color="white"/>
<stop offset="1" stop-color="white" stop-opacity="0"/>
</linearGradient>
<linearGradient id="paint10_linear_1079_13058" x1="59.2155" y1="20.5845" x2="59.2155" y2="50.5329" gradientUnits="userSpaceOnUse">
<stop stop-color="white"/>
<stop offset="1" stop-color="white" stop-opacity="0"/>
</linearGradient>
<clipPath id="clip0_1079_13058">
<rect width="120" height="120" fill="white" transform="translate(0 0.5)"/>
</clipPath>
</defs>
</svg>
