
<svg width="120" height="121" viewBox="0 0 120 121" fill="none" xmlns="http://www.w3.org/2000/svg">
<g id="Frame 1156" clip-path="url(#clip0_1079_13059)">
<g id="Ellipse 370" filter="url(#filter0_f_1079_13059)">
<ellipse cx="58.5" cy="77.5" rx="15.5" ry="11" fill="var(--default-main-color)"/>
</g>
<g id="Group 1158">
<g id="Group 1138">
<path id="Vector" d="M103.092 70.4322L62.9727 93.7475V96.8822L103.092 73.5668C103.834 73.136 104.207 72.5706 104.207 72.0052V68.8706C104.207 69.4437 103.834 70.0091 103.092 70.4322Z" fill="url(#paint0_linear_1079_13059)"/>
<path id="Vector_2" d="M103.092 70.4322L62.9727 93.7475V96.8822L103.092 73.5668C103.834 73.136 104.207 72.5706 104.207 72.0052V68.8706C104.207 69.4437 103.834 70.0091 103.092 70.4322Z" fill="white" fill-opacity="0.7"/>
<path id="Vector_3" d="M17.1538 70.4317C16.3846 69.9933 16 69.4202 16 68.8433V71.9817C16 72.5548 16.3846 73.1356 17.1346 73.5663L57.5192 96.8817V93.7433L17.1538 70.4317Z" fill="url(#paint1_linear_1079_13059)"/>
<path id="Vector_4" d="M17.1538 70.4317C16.3846 69.9933 16 69.4202 16 68.8433V71.9817C16 72.5548 16.3846 73.1356 17.1346 73.5663L57.5192 96.8817V93.7433L17.1538 70.4317Z" fill="white" fill-opacity="0.7"/>
<path id="Vector_5" d="M62.973 93.7558V96.8904C62.13 97.3191 61.1976 97.5425 60.2519 97.5425C59.3061 97.5425 58.3738 97.3191 57.5308 96.8904V93.752C58.3732 94.1821 59.3055 94.4067 60.2514 94.4074C61.1973 94.408 62.13 94.1848 62.973 93.7558Z" fill="white"/>
<path id="Vector_6" d="M103.073 67.2902C104.581 68.1595 104.589 69.571 103.092 70.4403L62.9732 93.7556C62.1304 94.1852 61.1979 94.4091 60.252 94.4091C59.3061 94.4091 58.3736 94.1852 57.5309 93.7556L17.1463 70.4441C15.6386 69.571 15.6078 68.1633 17.127 67.2941L57.2463 43.9787C58.0886 43.5501 59.0203 43.3267 59.9654 43.3267C60.9106 43.3267 61.8423 43.5501 62.6847 43.9787L103.073 67.2902Z" fill="white"/>
</g>
<path id="Vector_7" d="M93.0538 67.6549C94.2076 68.3241 94.2076 69.4048 93.0538 70.0741L62.2846 87.951C61.6379 88.2788 60.9231 88.4496 60.1981 88.4496C59.4731 88.4496 58.7582 88.2788 58.1115 87.951L27.1461 70.0741C25.9923 69.4087 25.9923 68.3279 27.1461 67.6587L57.9154 49.7818C58.5616 49.4547 59.2757 49.2842 60 49.2842C60.7243 49.2842 61.4383 49.4547 62.0845 49.7818L93.0538 67.6549Z" fill="url(#paint2_linear_1079_13059)"/>
<path id="Vector_8" d="M93.0538 67.6549C94.2076 68.3241 94.2076 69.4048 93.0538 70.0741L62.2846 87.951C61.6379 88.2788 60.9231 88.4496 60.1981 88.4496C59.4731 88.4496 58.7582 88.2788 58.1115 87.951L27.1461 70.0741C25.9923 69.4087 25.9923 68.3279 27.1461 67.6587L57.9154 49.7818C58.5616 49.4547 59.2757 49.2842 60 49.2842C60.7243 49.2842 61.4383 49.4547 62.0845 49.7818L93.0538 67.6549Z" fill="url(#paint3_linear_1079_13059)"/>
<path id="Vector_9" d="M93.9227 23.1245C93.9227 22.6745 93.6496 22.2207 93.0535 21.8745L62.0881 3.99762C61.4419 3.67049 60.7278 3.5 60.0035 3.5C59.2792 3.5 58.5651 3.67049 57.9189 3.99762L27.1497 21.8745C26.5574 22.2168 26.2766 22.6707 26.2959 23.1207C26.292 23.1449 26.292 23.1696 26.2959 23.1938C26.292 23.2193 26.292 23.2452 26.2959 23.2707C26.292 23.2962 26.292 23.3221 26.2959 23.3476C26.292 23.3731 26.292 23.3991 26.2959 23.4246C26.292 23.45 26.292 23.476 26.2959 23.5015C26.292 23.5257 26.292 23.5503 26.2959 23.5746C26.292 23.6001 26.292 23.626 26.2959 23.6515C26.292 23.677 26.292 23.7029 26.2959 23.7284C26.292 23.7539 26.292 23.7798 26.2959 23.8053C26.292 23.8308 26.292 23.8567 26.2959 23.8822C26.292 23.9064 26.292 23.9311 26.2959 23.9553C26.292 23.9808 26.292 24.0067 26.2959 24.0322C26.292 24.0577 26.292 24.0837 26.2959 24.1092C26.292 24.1347 26.292 24.1606 26.2959 24.1861C26.292 24.2116 26.292 24.2375 26.2959 24.263C26.292 24.2872 26.292 24.3119 26.2959 24.3361C26.292 24.3616 26.292 24.3875 26.2959 24.413C26.292 24.4385 26.292 24.4644 26.2959 24.4899C26.292 24.5154 26.292 24.5414 26.2959 24.5668C26.292 24.5923 26.292 24.6183 26.2959 24.6438C26.292 24.668 26.292 24.6926 26.2959 24.7169C26.292 24.7424 26.292 24.7683 26.2959 24.7938C26.292 24.8193 26.292 24.8452 26.2959 24.8707C26.292 24.8962 26.292 24.9221 26.2959 24.9476C26.292 24.9731 26.292 24.999 26.2959 25.0245C26.292 25.0487 26.292 25.0734 26.2959 25.0976C26.292 25.1231 26.292 25.149 26.2959 25.1745C26.292 25.2 26.292 25.226 26.2959 25.2515C26.292 25.277 26.292 25.3029 26.2959 25.3284C26.292 25.3539 26.292 25.3798 26.2959 25.4053C26.292 25.4295 26.292 25.4542 26.2959 25.4784C26.292 25.5039 26.292 25.5298 26.2959 25.5553C26.292 25.5808 26.292 25.6067 26.2959 25.6322C26.292 25.6577 26.292 25.6836 26.2959 25.7091C26.292 25.7346 26.292 25.7606 26.2959 25.7861C26.292 25.8103 26.292 25.8349 26.2959 25.8592C26.292 25.8846 26.292 25.9106 26.2959 25.9361C26.292 25.9616 26.292 25.9875 26.2959 26.013C26.292 26.0385 26.292 26.0644 26.2959 26.0899C26.292 26.1154 26.292 26.1414 26.2959 26.1669C26.292 26.1911 26.292 26.2157 26.2959 26.2399C26.292 26.2654 26.292 26.2914 26.2959 26.3169C26.292 26.3424 26.292 26.3683 26.2959 26.3938C26.292 26.4193 26.292 26.4452 26.2959 26.4707C26.292 26.4962 26.292 26.5221 26.2959 26.5476C26.292 26.5718 26.292 26.5965 26.2959 26.6207C26.292 26.6462 26.292 26.6721 26.2959 26.6976C26.292 26.7231 26.292 26.749 26.2959 26.7745C26.292 26.8 26.292 26.8259 26.2959 26.8514C26.292 26.8769 26.292 26.9029 26.2959 26.9284C26.292 26.9526 26.292 26.9772 26.2959 27.0014C26.292 27.0269 26.292 27.0529 26.2959 27.0784C26.292 27.1039 26.292 27.1298 26.2959 27.1553C26.292 27.1808 26.292 27.2068 26.2959 27.2323C26.292 27.2577 26.292 27.2837 26.2959 27.3092C26.292 27.3334 26.292 27.358 26.2959 27.3822C26.292 27.4077 26.292 27.4337 26.2959 27.4592C26.292 27.4847 26.292 27.5106 26.2959 27.5361C26.292 27.5616 26.292 27.5875 26.2959 27.613C26.292 27.6385 26.292 27.6644 26.2959 27.6899C26.292 27.7141 26.292 27.7388 26.2959 27.763C26.292 27.7885 26.292 27.8144 26.2959 27.8399C26.292 27.8654 26.292 27.8913 26.2959 27.9168C26.292 27.9423 26.292 27.9683 26.2959 27.9938C26.292 28.0193 26.292 28.0452 26.2959 28.0707C26.292 28.0949 26.292 28.1196 26.2959 28.1438C26.292 28.1693 26.292 28.1952 26.2959 28.2207C26.292 28.2462 26.292 28.2721 26.2959 28.2976C26.292 28.3231 26.292 28.3491 26.2959 28.3745C26.292 28.4 26.292 28.426 26.2959 28.4515C26.292 28.4757 26.292 28.5003 26.2959 28.5246C26.292 28.5501 26.292 28.576 26.2959 28.6015C26.292 28.627 26.292 28.6529 26.2959 28.6784C26.292 28.7039 26.292 28.7298 26.2959 28.7553C26.292 28.7808 26.292 28.8067 26.2959 28.8322C26.292 28.8564 26.292 28.8811 26.2959 28.9053C26.292 28.9308 26.292 28.9567 26.2959 28.9822C26.292 29.0077 26.292 29.0337 26.2959 29.0592C26.292 29.0847 26.292 29.1106 26.2959 29.1361C26.292 29.1616 26.292 29.1875 26.2959 29.213C26.292 29.2372 26.292 29.2619 26.2959 29.2861C26.292 29.3116 26.292 29.3375 26.2959 29.363C26.292 29.3885 26.292 29.4144 26.2959 29.4399C26.292 29.4654 26.292 29.4913 26.2959 29.5168C26.292 29.5423 26.292 29.5683 26.2959 29.5938C26.292 29.618 26.292 29.6426 26.2959 29.6669C26.292 29.6923 26.292 29.7183 26.2959 29.7438C26.292 29.7693 26.292 29.7952 26.2959 29.8207C26.292 29.8462 26.292 29.8721 26.2959 29.8976C26.292 29.9231 26.292 29.9491 26.2959 29.9746C26.292 29.9988 26.292 30.0234 26.2959 30.0476C26.292 30.0731 26.292 30.099 26.2959 30.1245C26.292 30.15 26.292 30.176 26.2959 30.2015C26.292 30.227 26.292 30.2529 26.2959 30.2784C26.292 30.3039 26.292 30.3298 26.2959 30.3553C26.292 30.3795 26.292 30.4042 26.2959 30.4284C26.292 30.4539 26.292 30.4798 26.2959 30.5053C26.292 30.5308 26.292 30.5567 26.2959 30.5822C26.292 30.6077 26.292 30.6336 26.2959 30.6591C26.292 30.6846 26.292 30.7106 26.2959 30.7361C26.292 30.7603 26.292 30.7849 26.2959 30.8091C26.292 30.8346 26.292 30.8606 26.2959 30.8861C26.292 30.9116 26.292 30.9375 26.2959 30.963C26.292 30.9885 26.292 31.0144 26.2959 31.0399C26.292 31.0654 26.292 31.0914 26.2959 31.1169C26.292 31.1411 26.292 31.1657 26.2959 31.1899C26.292 31.2154 26.292 31.2414 26.2959 31.2669C26.292 31.2924 26.292 31.3183 26.2959 31.3438C26.292 31.3693 26.292 31.3952 26.2959 31.4207C26.292 31.4462 26.292 31.4721 26.2959 31.4976C26.292 31.5218 26.292 31.5465 26.2959 31.5707C26.292 31.5962 26.292 31.6221 26.2959 31.6476C26.292 31.6731 26.292 31.699 26.2959 31.7245C26.292 31.75 26.292 31.776 26.2959 31.8015C26.292 31.827 26.292 31.8529 26.2959 31.8784C26.292 31.9026 26.292 31.9272 26.2959 31.9514C26.292 31.9769 26.292 32.0029 26.2959 32.0284C26.292 32.0539 26.292 32.0798 26.2959 32.1053C26.292 32.1308 26.292 32.1568 26.2959 32.1823C26.292 32.2077 26.292 32.2337 26.2959 32.2592C26.292 32.2834 26.292 32.308 26.2959 32.3322C26.292 32.3577 26.292 32.3837 26.2959 32.4092C26.292 32.4347 26.292 32.4606 26.2959 32.4861C26.292 32.5116 26.292 32.5375 26.2959 32.563C26.292 32.5885 26.292 32.6144 26.2959 32.6399C26.292 32.6641 26.292 32.6888 26.2959 32.713C26.292 32.7385 26.292 32.7644 26.2959 32.7899C26.292 32.8154 26.292 32.8413 26.2959 32.8668C26.292 32.8923 26.292 32.9183 26.2959 32.9438C26.292 32.9693 26.292 32.9952 26.2959 33.0207C26.292 33.0449 26.292 33.0696 26.2959 33.0938C26.292 33.1193 26.292 33.1452 26.2959 33.1707C26.292 33.1962 26.292 33.2221 26.2959 33.2476C26.292 33.2731 26.292 33.2991 26.2959 33.3245C26.292 33.35 26.292 33.376 26.2959 33.4015C26.292 33.4257 26.292 33.4503 26.2959 33.4746C26.292 33.5001 26.292 33.526 26.2959 33.5515C26.292 33.577 26.292 33.6029 26.2959 33.6284C26.292 33.6539 26.292 33.6798 26.2959 33.7053C26.292 33.7308 26.292 33.7567 26.2959 33.7822C26.292 33.8064 26.292 33.8311 26.2959 33.8553C26.292 33.8808 26.292 33.9067 26.2959 33.9322C26.292 33.9577 26.292 33.9837 26.2959 34.0092C26.292 34.0347 26.292 34.0606 26.2959 34.0861C26.292 34.1116 26.292 34.1375 26.2959 34.163C26.292 34.1872 26.292 34.2119 26.2959 34.2361C26.292 34.2616 26.292 34.2875 26.2959 34.313C26.292 34.3385 26.292 34.3644 26.2959 34.3899C26.292 34.4154 26.292 34.4413 26.2959 34.4668C26.292 34.4923 26.292 34.5183 26.2959 34.5437C26.292 34.568 26.292 34.5926 26.2959 34.6169C26.292 34.6423 26.292 34.6683 26.2959 34.6938C26.292 34.7193 26.292 34.7452 26.2959 34.7707C26.292 34.7962 26.292 34.8221 26.2959 34.8476C26.292 34.8731 26.292 34.8991 26.2959 34.9246C26.292 34.9488 26.292 34.9734 26.2959 34.9976C26.292 35.0231 26.292 35.049 26.2959 35.0745C26.292 35.1 26.292 35.126 26.2959 35.1515C26.292 35.177 26.292 35.2029 26.2959 35.2284C26.292 35.2539 26.292 35.2798 26.2959 35.3053C26.292 35.3295 26.292 35.3542 26.2959 35.3784C26.292 35.4039 26.292 35.4298 26.2959 35.4553C26.292 35.4808 26.292 35.5067 26.2959 35.5322C26.292 35.5577 26.292 35.5836 26.2959 35.6091C26.292 35.6346 26.292 35.6606 26.2959 35.6861C26.292 35.7103 26.292 35.7349 26.2959 35.7591C26.292 35.7846 26.292 35.8106 26.2959 35.8361C26.292 35.8616 26.292 35.8875 26.2959 35.913C26.292 35.9385 26.292 35.9644 26.2959 35.9899C26.292 36.0154 26.292 36.0414 26.2959 36.0669C26.292 36.0911 26.292 36.1157 26.2959 36.1399C26.292 36.1654 26.292 36.1914 26.2959 36.2169C26.292 36.2424 26.292 36.2683 26.2959 36.2938C26.292 36.3193 26.292 36.3452 26.2959 36.3707C26.292 36.3962 26.292 36.4221 26.2959 36.4476C26.292 36.4718 26.292 36.4965 26.2959 36.5207C26.292 36.5462 26.292 36.5721 26.2959 36.5976C26.292 36.6231 26.292 36.649 26.2959 36.6745C26.292 36.7 26.292 36.726 26.2959 36.7515C26.292 36.777 26.292 36.8029 26.2959 36.8284C26.292 36.8526 26.292 36.8772 26.2959 36.9014C26.292 36.9269 26.292 36.9529 26.2959 36.9784C26.292 37.0039 26.292 37.0298 26.2959 37.0553C26.292 37.0808 26.292 37.1068 26.2959 37.1322C26.292 37.1577 26.292 37.1837 26.2959 37.2092C26.292 37.2334 26.292 37.258 26.2959 37.2823C26.292 37.3078 26.292 37.3337 26.2959 37.3592C26.292 37.3847 26.292 37.4106 26.2959 37.4361C26.292 37.4616 26.292 37.4875 26.2959 37.513C26.292 37.5385 26.292 37.5644 26.2959 37.5899C26.292 37.6141 26.292 37.6388 26.2959 37.663C26.292 37.6885 26.292 37.7144 26.2959 37.7399C26.292 37.7654 26.292 37.7913 26.2959 37.8168C26.292 37.8423 26.292 37.8683 26.2959 37.8938C26.292 37.9193 26.292 37.9452 26.2959 37.9707C26.292 37.9949 26.292 38.0196 26.2959 38.0438C26.292 38.0693 26.292 38.0952 26.2959 38.1207C26.292 38.1462 26.292 38.1721 26.2959 38.1976C26.292 38.2231 26.292 38.249 26.2959 38.2745C26.292 38.3 26.292 38.326 26.2959 38.3515C26.292 38.3757 26.292 38.4003 26.2959 38.4246C26.292 38.45 26.292 38.476 26.2959 38.5015C26.292 38.527 26.292 38.5529 26.2959 38.5784C26.292 38.6039 26.292 38.6298 26.2959 38.6553C26.292 38.6808 26.292 38.7067 26.2959 38.7322C26.292 38.7564 26.292 38.7811 26.2959 38.8053C26.292 38.8308 26.292 38.8567 26.2959 38.8822C26.292 38.9077 26.292 38.9337 26.2959 38.9592C26.292 38.9847 26.292 39.0106 26.2959 39.0361C26.292 39.0616 26.292 39.0875 26.2959 39.113C26.292 39.1372 26.292 39.1619 26.2959 39.1861C26.292 39.2116 26.292 39.2375 26.2959 39.263C26.292 39.2885 26.292 39.3144 26.2959 39.3399C26.292 39.3654 26.292 39.3913 26.2959 39.4168C26.292 39.4423 26.292 39.4683 26.2959 39.4938C26.292 39.518 26.292 39.5426 26.2959 39.5668C26.292 39.5923 26.292 39.6183 26.2959 39.6438C26.292 39.6692 26.292 39.6952 26.2959 39.7207C26.292 39.7462 26.292 39.7721 26.2959 39.7976C26.292 39.8231 26.292 39.8491 26.2959 39.8746C26.292 39.8988 26.292 39.9234 26.2959 39.9476C26.292 39.9731 26.292 39.999 26.2959 40.0245C26.292 40.05 26.292 40.076 26.2959 40.1015C26.292 40.127 26.292 40.1529 26.2959 40.1784C26.292 40.2039 26.292 40.2298 26.2959 40.2553C26.292 40.2795 26.292 40.3042 26.2959 40.3284C26.292 40.3539 26.292 40.3798 26.2959 40.4053C26.292 40.4308 26.292 40.4567 26.2959 40.4822C26.292 40.5077 26.292 40.5336 26.2959 40.5591C26.292 40.5846 26.292 40.6106 26.2959 40.6361C26.292 40.6603 26.292 40.6849 26.2959 40.7091C26.292 40.7346 26.292 40.7606 26.2959 40.7861C26.292 40.8116 26.292 40.8375 26.2959 40.863C26.292 40.8885 26.292 40.9144 26.2959 40.9399C26.292 40.9654 26.292 40.9914 26.2959 41.0169C26.292 41.0411 26.292 41.0657 26.2959 41.0899C26.292 41.1154 26.292 41.1414 26.2959 41.1669C26.292 41.1924 26.292 41.2183 26.2959 41.2438C26.292 41.2693 26.292 41.2952 26.2959 41.3207C26.292 41.3462 26.292 41.3721 26.2959 41.3976C26.292 41.4218 26.292 41.4465 26.2959 41.4707C26.292 41.4962 26.292 41.5221 26.2959 41.5476C26.292 41.5731 26.292 41.599 26.2959 41.6245C26.292 41.65 26.292 41.676 26.2959 41.7015C26.292 41.727 26.292 41.7529 26.2959 41.7784C26.292 41.8026 26.292 41.8272 26.2959 41.8514C26.292 41.8769 26.292 41.9029 26.2959 41.9284C26.292 41.9539 26.292 41.9798 26.2959 42.0053C26.292 42.0308 26.292 42.0568 26.2959 42.0822C26.292 42.1077 26.292 42.1337 26.2959 42.1592C26.292 42.1834 26.292 42.208 26.2959 42.2323C26.292 42.2578 26.292 42.2837 26.2959 42.3092C26.292 42.3347 26.292 42.3606 26.2959 42.3861C26.292 42.4116 26.292 42.4375 26.2959 42.463C26.292 42.4885 26.292 42.5144 26.2959 42.5399C26.292 42.5641 26.292 42.5888 26.2959 42.613C26.292 42.6385 26.292 42.6644 26.2959 42.6899C26.292 42.7154 26.292 42.7413 26.2959 42.7668C26.292 42.7923 26.292 42.8183 26.2959 42.8438C26.292 42.8693 26.292 42.8952 26.2959 42.9207C26.292 42.9449 26.292 42.9696 26.2959 42.9938C26.292 43.0193 26.292 43.0452 26.2959 43.0707C26.292 43.0962 26.292 43.1221 26.2959 43.1476C26.292 43.1731 26.292 43.199 26.2959 43.2245C26.292 43.25 26.292 43.276 26.2959 43.3014C26.292 43.3257 26.292 43.3503 26.2959 43.3745C26.292 43.4 26.292 43.426 26.2959 43.4515C26.292 43.477 26.292 43.5029 26.2959 43.5284C26.292 43.5539 26.292 43.5798 26.2959 43.6053C26.292 43.6308 26.292 43.6567 26.2959 43.6822C26.292 43.7064 26.292 43.7311 26.2959 43.7553C26.292 43.7808 26.292 43.8067 26.2959 43.8322C26.292 43.8577 26.292 43.8837 26.2959 43.9092C26.292 43.9347 26.292 43.9606 26.2959 43.9861C26.292 44.0116 26.292 44.0375 26.2959 44.063C26.292 44.0872 26.292 44.1119 26.2959 44.1361C26.292 44.1616 26.292 44.1875 26.2959 44.213C26.292 44.2385 26.292 44.2644 26.2959 44.2899C26.292 44.3154 26.292 44.3413 26.2959 44.3668C26.292 44.3923 26.292 44.4183 26.2959 44.4438C26.292 44.468 26.292 44.4926 26.2959 44.5168C26.292 44.5423 26.292 44.5683 26.2959 44.5938C26.292 44.6192 26.292 44.6452 26.2959 44.6707C26.292 44.6962 26.292 44.7221 26.2959 44.7476C26.292 44.7731 26.292 44.7991 26.2959 44.8246C26.292 44.8488 26.292 44.8734 26.2959 44.8976C26.292 44.9231 26.292 44.9491 26.2959 44.9746C26.292 45.0001 26.292 45.026 26.2959 45.0515C26.292 45.077 26.292 45.1029 26.2959 45.1284C26.292 45.1539 26.292 45.1798 26.2959 45.2053C26.292 45.2295 26.292 45.2542 26.2959 45.2784C26.292 45.3039 26.292 45.3298 26.2959 45.3553C26.292 45.3808 26.292 45.4067 26.2959 45.4322C26.292 45.4577 26.292 45.4836 26.2959 45.5091C26.292 45.5346 26.292 45.5606 26.2959 45.5861C26.292 45.6103 26.292 45.6349 26.2959 45.6591C26.292 45.6846 26.292 45.7106 26.2959 45.7361C26.292 45.7616 26.292 45.7875 26.2959 45.813C26.292 45.8385 26.292 45.8644 26.2959 45.8899C26.292 45.9154 26.292 45.9414 26.2959 45.9669C26.292 45.9911 26.292 46.0157 26.2959 46.0399C26.292 46.0654 26.292 46.0914 26.2959 46.1169C26.292 46.1424 26.292 46.1683 26.2959 46.1938C26.292 46.2193 26.292 46.2452 26.2959 46.2707C26.292 46.2962 26.292 46.3221 26.2959 46.3476C26.292 46.3718 26.292 46.3965 26.2959 46.4207C26.292 46.4462 26.292 46.4721 26.2959 46.4976C26.292 46.5231 26.292 46.549 26.2959 46.5745C26.292 46.6 26.292 46.626 26.2959 46.6515C26.292 46.677 26.292 46.7029 26.2959 46.7284C26.292 46.7526 26.292 46.7773 26.2959 46.8015C26.292 46.827 26.292 46.8529 26.2959 46.8784C26.292 46.9039 26.292 46.9298 26.2959 46.9553C26.292 46.9808 26.292 47.0067 26.2959 47.0322C26.292 47.0577 26.292 47.0837 26.2959 47.1092C26.292 47.1334 26.292 47.158 26.2959 47.1823C26.292 47.2077 26.292 47.2337 26.2959 47.2592C26.292 47.2847 26.292 47.3106 26.2959 47.3361C26.292 47.3616 26.292 47.3875 26.2959 47.413C26.292 47.4385 26.292 47.4644 26.2959 47.4899C26.292 47.5141 26.292 47.5388 26.2959 47.563C26.292 47.5885 26.292 47.6144 26.2959 47.6399C26.292 47.6654 26.292 47.6913 26.2959 47.7168C26.292 47.7423 26.292 47.7683 26.2959 47.7938C26.292 47.8193 26.292 47.8452 26.2959 47.8707C26.292 47.8949 26.292 47.9196 26.2959 47.9438C26.292 47.9693 26.292 47.9952 26.2959 48.0207C26.292 48.0462 26.292 48.0721 26.2959 48.0976C26.292 48.1231 26.292 48.149 26.2959 48.1745C26.292 48.2 26.292 48.226 26.2959 48.2514C26.292 48.2757 26.292 48.3003 26.2959 48.3245C26.292 48.35 26.292 48.376 26.2959 48.4015C26.292 48.4269 26.292 48.4529 26.2959 48.4784C26.292 48.5039 26.292 48.5298 26.2959 48.5553C26.292 48.5808 26.292 48.6067 26.2959 48.6322C26.292 48.6564 26.292 48.6811 26.2959 48.7053C26.292 48.7308 26.292 48.7567 26.2959 48.7822C26.292 48.8077 26.292 48.8337 26.2959 48.8592C26.292 48.8847 26.292 48.9106 26.2959 48.9361C26.292 48.9616 26.292 48.9875 26.2959 49.013C26.292 49.0372 26.292 49.0619 26.2959 49.0861C26.292 49.1116 26.292 49.1375 26.2959 49.163C26.292 49.1885 26.292 49.2144 26.2959 49.2399C26.292 49.2654 26.292 49.2913 26.2959 49.3168C26.292 49.3423 26.292 49.3683 26.2959 49.3938C26.292 49.418 26.292 49.4426 26.2959 49.4668C26.292 49.4923 26.292 49.5183 26.2959 49.5437C26.292 49.5692 26.292 49.5952 26.2959 49.6207C26.292 49.6462 26.292 49.6721 26.2959 49.6976C26.292 49.7231 26.292 49.7491 26.2959 49.7746C26.292 49.7988 26.292 49.8234 26.2959 49.8476C26.292 49.8731 26.292 49.8991 26.2959 49.9246C26.292 49.9501 26.292 49.976 26.2959 50.0015C26.292 50.027 26.292 50.0529 26.2959 50.0784C26.292 50.1039 26.292 50.1298 26.2959 50.1553C26.292 50.1795 26.292 50.2042 26.2959 50.2284C26.292 50.2539 26.292 50.2798 26.2959 50.3053C26.292 50.3308 26.292 50.3567 26.2959 50.3822C26.292 50.4077 26.292 50.4336 26.2959 50.4591C26.292 50.4846 26.292 50.5106 26.2959 50.5361C26.292 50.5603 26.292 50.5849 26.2959 50.6091C26.292 50.6346 26.292 50.6606 26.2959 50.6861C26.292 50.7116 26.292 50.7375 26.2959 50.763C26.292 50.7885 26.292 50.8145 26.2959 50.8399C26.292 50.8654 26.292 50.8914 26.2959 50.9169C26.292 50.9411 26.292 50.9657 26.2959 50.9899C26.292 51.0154 26.292 51.0414 26.2959 51.0669C26.292 51.0924 26.292 51.1183 26.2959 51.1438C26.292 51.1693 26.292 51.1952 26.2959 51.2207C26.292 51.2462 26.292 51.2721 26.2959 51.2976C26.292 51.3218 26.292 51.3465 26.2959 51.3707C26.292 51.3962 26.292 51.4221 26.2959 51.4476C26.292 51.4731 26.292 51.499 26.2959 51.5245C26.292 51.55 26.292 51.576 26.2959 51.6015C26.292 51.627 26.292 51.6529 26.2959 51.6784C26.292 51.7026 26.292 51.7273 26.2959 51.7515C26.292 51.777 26.292 51.8029 26.2959 51.8284C26.292 51.8539 26.292 51.8798 26.2959 51.9053C26.292 51.9308 26.292 51.9567 26.2959 51.9822C26.292 52.0077 26.292 52.0337 26.2959 52.0591C26.292 52.0834 26.292 52.108 26.2959 52.1322C26.292 52.1577 26.292 52.1837 26.2959 52.2092C26.292 52.2347 26.292 52.2606 26.2959 52.2861C26.292 52.3116 26.292 52.3375 26.2959 52.363C26.292 52.3885 26.292 52.4144 26.2959 52.4399C26.292 52.4641 26.292 52.4888 26.2959 52.513C26.292 52.5385 26.292 52.5644 26.2959 52.5899C26.292 52.6154 26.292 52.6414 26.2959 52.6669C26.292 52.6924 26.292 52.7183 26.2959 52.7438C26.292 52.7693 26.292 52.7952 26.2959 52.8207C26.292 52.8449 26.292 52.8696 26.2959 52.8938C26.292 52.9193 26.292 52.9452 26.2959 52.9707C26.292 52.9962 26.292 53.0221 26.2959 53.0476C26.292 53.0731 26.292 53.099 26.2959 53.1245C26.292 53.15 26.292 53.1759 26.2959 53.2014C26.292 53.2257 26.292 53.2503 26.2959 53.2745C26.292 53.3 26.292 53.326 26.2959 53.3515C26.292 53.3769 26.292 53.4029 26.2959 53.4284C26.292 53.4539 26.292 53.4798 26.2959 53.5053C26.292 53.5308 26.292 53.5567 26.2959 53.5822C26.292 53.6064 26.292 53.6311 26.2959 53.6553C26.292 53.6808 26.292 53.7067 26.2959 53.7322C26.292 53.7577 26.292 53.7837 26.2959 53.8092C26.292 53.8347 26.292 53.8606 26.2959 53.8861C26.292 53.9116 26.292 53.9375 26.2959 53.963C26.292 53.9872 26.292 54.0119 26.2959 54.0361C26.292 54.0616 26.292 54.0875 26.2959 54.113C26.292 54.1385 26.292 54.1644 26.2959 54.1899C26.292 54.2154 26.292 54.2413 26.2959 54.2668C26.292 54.2923 26.292 54.3183 26.2959 54.3438C26.292 54.368 26.292 54.3926 26.2959 54.4168C26.292 54.4423 26.292 54.4683 26.2959 54.4938C26.292 54.5193 26.292 54.5452 26.2959 54.5707C26.292 54.5962 26.292 54.6221 26.2959 54.6476C26.292 54.6731 26.292 54.6991 26.2959 54.7246C26.292 54.7488 26.292 54.7734 26.2959 54.7976C26.292 54.8231 26.292 54.8491 26.2959 54.8746C26.292 54.9001 26.292 54.926 26.2959 54.9515C26.292 54.977 26.292 55.0029 26.2959 55.0284C26.292 55.0539 26.292 55.0798 26.2959 55.1053C26.292 55.1295 26.292 55.1542 26.2959 55.1784C26.292 55.2039 26.292 55.2298 26.2959 55.2553C26.292 55.2808 26.292 55.3067 26.2959 55.3322C26.292 55.3577 26.292 55.3836 26.2959 55.4091C26.292 55.4346 26.292 55.4606 26.2959 55.4861C26.292 55.5103 26.292 55.5349 26.2959 55.5591C26.292 55.5846 26.292 55.6106 26.2959 55.6361C26.292 55.6616 26.292 55.6875 26.2959 55.713C26.292 55.7385 26.292 55.7644 26.2959 55.7899C26.292 55.8154 26.292 55.8414 26.2959 55.8669C26.292 55.8911 26.292 55.9157 26.2959 55.9399C26.292 55.9654 26.292 55.9914 26.2959 56.0169C26.292 56.0424 26.292 56.0683 26.2959 56.0938C26.292 56.1193 26.292 56.1452 26.2959 56.1707C26.292 56.1962 26.292 56.2221 26.2959 56.2476C26.292 56.2718 26.292 56.2965 26.2959 56.3207C26.292 56.3462 26.292 56.3721 26.2959 56.3976C26.292 56.4231 26.292 56.449 26.2959 56.4745C26.292 56.5 26.292 56.526 26.2959 56.5515C26.292 56.577 26.292 56.6029 26.2959 56.6284C26.292 56.6526 26.292 56.6773 26.2959 56.7015C26.292 56.727 26.292 56.7529 26.2959 56.7784C26.292 56.8039 26.292 56.8298 26.2959 56.8553C26.292 56.8808 26.292 56.9067 26.2959 56.9322C26.292 56.9577 26.292 56.9837 26.2959 57.0091C26.292 57.0334 26.292 57.058 26.2959 57.0822C26.292 57.1077 26.292 57.1337 26.2959 57.1592C26.292 57.1846 26.292 57.2106 26.2959 57.2361C26.292 57.2616 26.292 57.2875 26.2959 57.313C26.292 57.3385 26.292 57.3644 26.2959 57.3899C26.292 57.4141 26.292 57.4388 26.2959 57.463C26.292 57.4885 26.292 57.5144 26.2959 57.5399C26.292 57.5654 26.292 57.5914 26.2959 57.6169C26.292 57.6424 26.292 57.6683 26.2959 57.6938C26.292 57.7193 26.292 57.7452 26.2959 57.7707C26.292 57.7949 26.292 57.8196 26.2959 57.8438C26.292 57.8693 26.292 57.8952 26.2959 57.9207C26.292 57.9462 26.292 57.9721 26.2959 57.9976C26.292 58.0231 26.292 58.049 26.2959 58.0745C26.292 58.1 26.292 58.1259 26.2959 58.1514C26.292 58.1757 26.292 58.2003 26.2959 58.2245C26.292 58.25 26.292 58.276 26.2959 58.3014C26.292 58.3269 26.292 58.3529 26.2959 58.3784C26.292 58.4039 26.292 58.4298 26.2959 58.4553C26.292 58.4808 26.292 58.5068 26.2959 58.5323C26.292 58.5565 26.292 58.5811 26.2959 58.6053C26.292 58.6308 26.292 58.6567 26.2959 58.6822C26.292 58.7077 26.292 58.7337 26.2959 58.7592C26.292 58.7847 26.292 58.8106 26.2959 58.8361C26.292 58.8616 26.292 58.8875 26.2959 58.913C26.292 58.9372 26.292 58.9619 26.2959 58.9861C26.292 59.0116 26.292 59.0375 26.2959 59.063C26.292 59.0885 26.292 59.1144 26.2959 59.1399C26.292 59.1654 26.292 59.1913 26.2959 59.2168C26.292 59.2423 26.292 59.2683 26.2959 59.2938C26.292 59.318 26.292 59.3426 26.2959 59.3668C26.292 59.3923 26.292 59.4183 26.2959 59.4438C26.292 59.4693 26.292 59.4952 26.2959 59.5207C26.292 59.5462 26.292 59.5721 26.2959 59.5976C26.292 59.6231 26.292 59.6491 26.2959 59.6746C26.292 59.6988 26.292 59.7234 26.2959 59.7476C26.292 59.7731 26.292 59.7991 26.2959 59.8246C26.292 59.8501 26.292 59.876 26.2959 59.9015C26.292 59.927 26.292 59.9529 26.2959 59.9784C26.292 60.0039 26.292 60.0298 26.2959 60.0553C26.292 60.0795 26.292 60.1042 26.2959 60.1284C26.292 60.1539 26.292 60.1798 26.2959 60.2053C26.292 60.2308 26.292 60.2567 26.2959 60.2822C26.292 60.3077 26.292 60.3337 26.2959 60.3592C26.292 60.3847 26.292 60.4106 26.2959 60.4361C26.292 60.4603 26.292 60.4849 26.2959 60.5091C26.292 60.5346 26.292 60.5606 26.2959 60.5861C26.292 60.6116 26.292 60.6375 26.2959 60.663C26.292 60.6885 26.292 60.7144 26.2959 60.7399C26.292 60.7654 26.292 60.7914 26.2959 60.8168C26.292 60.8411 26.292 60.8657 26.2959 60.8899C26.292 60.9154 26.292 60.9414 26.2959 60.9669C26.292 60.9924 26.292 61.0183 26.2959 61.0438C26.292 61.0693 26.292 61.0952 26.2959 61.1207C26.292 61.1462 26.292 61.1721 26.2959 61.1976C26.292 61.2218 26.292 61.2465 26.2959 61.2707C26.292 61.2962 26.292 61.3221 26.2959 61.3476C26.292 61.3731 26.292 61.399 26.2959 61.4245C26.292 61.45 26.292 61.476 26.2959 61.5015C26.292 61.527 26.292 61.5529 26.2959 61.5784C26.292 61.6026 26.292 61.6273 26.2959 61.6515C26.292 61.677 26.292 61.7029 26.2959 61.7284C26.292 61.7539 26.292 61.7798 26.2959 61.8053C26.292 61.8308 26.292 61.8567 26.2959 61.8822C26.292 61.9077 26.292 61.9336 26.2959 61.9591C26.292 61.9846 26.292 62.0106 26.2959 62.0361C26.292 62.0603 26.292 62.0849 26.2959 62.1092C26.292 62.1346 26.292 62.1606 26.2959 62.1861C26.292 62.2116 26.292 62.2375 26.2959 62.263C26.292 62.2885 26.292 62.3144 26.2959 62.3399C26.292 62.3654 26.292 62.3914 26.2959 62.4169C26.292 62.4411 26.292 62.4657 26.2959 62.4899C26.292 62.5154 26.292 62.5414 26.2959 62.5669C26.292 62.5924 26.292 62.6183 26.2959 62.6438C26.292 62.6693 26.292 62.6952 26.2959 62.7207C26.292 62.7462 26.292 62.7721 26.2959 62.7976C26.292 62.8218 26.292 62.8465 26.2959 62.8707C26.292 62.8962 26.292 62.9221 26.2959 62.9476C26.292 62.9731 26.292 62.999 26.2959 63.0245C26.292 63.05 26.292 63.0759 26.2959 63.1014C26.292 63.1269 26.292 63.1529 26.2959 63.1784C26.292 63.2026 26.292 63.2272 26.2959 63.2514C26.292 63.2769 26.292 63.3029 26.2959 63.3284C26.292 63.3539 26.292 63.3798 26.2959 63.4053C26.292 63.4308 26.292 63.4568 26.2959 63.4823C26.292 63.5078 26.292 63.5337 26.2959 63.5592C26.292 63.5834 26.292 63.608 26.2959 63.6322C26.292 63.6577 26.292 63.6837 26.2959 63.7092C26.292 63.7347 26.292 63.7606 26.2959 63.7861C26.292 63.8116 26.292 63.8375 26.2959 63.863C26.292 63.8885 26.292 63.9144 26.2959 63.9399C26.292 63.9641 26.292 63.9888 26.2959 64.013C26.292 64.0385 26.292 64.0644 26.2959 64.0899C26.292 64.1154 26.292 64.1413 26.2959 64.1668C26.292 64.1923 26.292 64.2183 26.2959 64.2438C26.292 64.2693 26.292 64.2952 26.2959 64.3207C26.292 64.3449 26.292 64.3696 26.2959 64.3938C26.292 64.4193 26.292 64.4452 26.2959 64.4707C26.292 64.4962 26.292 64.5221 26.2959 64.5476C26.292 64.5731 26.292 64.5991 26.2959 64.6246C26.292 64.65 26.292 64.676 26.2959 64.7015C26.292 64.7257 26.292 64.7503 26.2959 64.7746C26.292 64.8001 26.292 64.826 26.2959 64.8515C26.292 64.877 26.292 64.9029 26.2959 64.9284C26.292 64.9539 26.292 64.9798 26.2959 65.0053C26.292 65.0308 26.292 65.0567 26.2959 65.0822C26.292 65.1064 26.292 65.1311 26.2959 65.1553C26.292 65.1808 26.292 65.2067 26.2959 65.2322C26.292 65.2577 26.292 65.2837 26.2959 65.3092C26.292 65.3347 26.292 65.3606 26.2959 65.3861C26.292 65.4116 26.292 65.4375 26.2959 65.463C26.292 65.4872 26.292 65.5119 26.2959 65.5361C26.292 65.5616 26.292 65.5875 26.2959 65.613C26.292 65.6385 26.292 65.6644 26.2959 65.6899C26.292 65.7154 26.292 65.7414 26.2959 65.7668C26.292 65.7923 26.292 65.8183 26.2959 65.8438C26.292 65.868 26.292 65.8926 26.2959 65.9169C26.292 65.9423 26.292 65.9683 26.2959 65.9938C26.292 66.0193 26.292 66.0452 26.2959 66.0707C26.292 66.0962 26.292 66.1221 26.2959 66.1476C26.292 66.1731 26.292 66.1991 26.2959 66.2246C26.292 66.2488 26.292 66.2734 26.2959 66.2976C26.292 66.3231 26.292 66.349 26.2959 66.3745C26.292 66.4 26.292 66.426 26.2959 66.4515C26.292 66.477 26.292 66.5029 26.2959 66.5284C26.292 66.5539 26.292 66.5798 26.2959 66.6053C26.292 66.6295 26.292 66.6542 26.2959 66.6784C26.292 66.7039 26.292 66.7298 26.2959 66.7553C26.292 66.7808 26.292 66.8067 26.2959 66.8322C26.292 66.8577 26.292 66.8836 26.2959 66.9091C26.292 66.9346 26.292 66.9606 26.2959 66.9861C26.292 67.0103 26.292 67.0349 26.2959 67.0591C26.292 67.0846 26.292 67.1106 26.2959 67.1361C26.292 67.1616 26.292 67.1875 26.2959 67.213C26.292 67.2385 26.292 67.2644 26.2959 67.2899C26.292 67.3154 26.292 67.3414 26.2959 67.3669C26.292 67.3911 26.292 67.4157 26.2959 67.4399C26.292 67.4654 26.292 67.4914 26.2959 67.5169C26.292 67.5424 26.292 67.5683 26.2959 67.5938C26.292 67.6193 26.292 67.6452 26.2959 67.6707C26.292 67.6962 26.292 67.7221 26.2959 67.7476C26.292 67.7718 26.292 67.7965 26.2959 67.8207C26.292 67.8462 26.292 67.8721 26.2959 67.8976C26.292 67.9231 26.292 67.949 26.2959 67.9745C26.292 68 26.292 68.026 26.2959 68.0515C26.292 68.077 26.292 68.1029 26.2959 68.1284C26.292 68.1526 26.292 68.1772 26.2959 68.2014C26.292 68.2269 26.292 68.2529 26.2959 68.2784C26.292 68.3039 26.292 68.3298 26.2959 68.3553C26.292 68.3808 26.292 68.4068 26.2959 68.4323C26.292 68.4577 26.292 68.4837 26.2959 68.5092C26.292 68.5334 26.292 68.558 26.2959 68.5822C26.292 68.6077 26.292 68.6337 26.2959 68.6592C26.292 68.6847 26.292 68.7106 26.2959 68.7361C26.292 68.7616 26.292 68.7875 26.2959 68.813C26.2766 69.263 26.5651 69.7169 27.1612 70.0592L58.1266 87.9361C58.7733 88.2639 59.4881 88.4346 60.2131 88.4346C60.9381 88.4346 61.6529 88.2639 62.2996 87.9361L93.0689 70.0592C93.6573 69.713 93.9419 69.263 93.9227 68.813V23.1245Z" fill="url(#paint4_linear_1079_13059)"/>
<path id="Vector_10" d="M93.9227 23.1245C93.9227 22.6745 93.6496 22.2207 93.0535 21.8745L62.0881 3.99762C61.4419 3.67049 60.7278 3.5 60.0035 3.5C59.2792 3.5 58.5651 3.67049 57.9189 3.99762L27.1497 21.8745C26.5574 22.2168 26.2766 22.6707 26.2959 23.1207C26.292 23.1449 26.292 23.1696 26.2959 23.1938C26.292 23.2193 26.292 23.2452 26.2959 23.2707C26.292 23.2962 26.292 23.3221 26.2959 23.3476C26.292 23.3731 26.292 23.3991 26.2959 23.4246C26.292 23.45 26.292 23.476 26.2959 23.5015C26.292 23.5257 26.292 23.5503 26.2959 23.5746C26.292 23.6001 26.292 23.626 26.2959 23.6515C26.292 23.677 26.292 23.7029 26.2959 23.7284C26.292 23.7539 26.292 23.7798 26.2959 23.8053C26.292 23.8308 26.292 23.8567 26.2959 23.8822C26.292 23.9064 26.292 23.9311 26.2959 23.9553C26.292 23.9808 26.292 24.0067 26.2959 24.0322C26.292 24.0577 26.292 24.0837 26.2959 24.1092C26.292 24.1347 26.292 24.1606 26.2959 24.1861C26.292 24.2116 26.292 24.2375 26.2959 24.263C26.292 24.2872 26.292 24.3119 26.2959 24.3361C26.292 24.3616 26.292 24.3875 26.2959 24.413C26.292 24.4385 26.292 24.4644 26.2959 24.4899C26.292 24.5154 26.292 24.5414 26.2959 24.5668C26.292 24.5923 26.292 24.6183 26.2959 24.6438C26.292 24.668 26.292 24.6926 26.2959 24.7169C26.292 24.7424 26.292 24.7683 26.2959 24.7938C26.292 24.8193 26.292 24.8452 26.2959 24.8707C26.292 24.8962 26.292 24.9221 26.2959 24.9476C26.292 24.9731 26.292 24.999 26.2959 25.0245C26.292 25.0487 26.292 25.0734 26.2959 25.0976C26.292 25.1231 26.292 25.149 26.2959 25.1745C26.292 25.2 26.292 25.226 26.2959 25.2515C26.292 25.277 26.292 25.3029 26.2959 25.3284C26.292 25.3539 26.292 25.3798 26.2959 25.4053C26.292 25.4295 26.292 25.4542 26.2959 25.4784C26.292 25.5039 26.292 25.5298 26.2959 25.5553C26.292 25.5808 26.292 25.6067 26.2959 25.6322C26.292 25.6577 26.292 25.6836 26.2959 25.7091C26.292 25.7346 26.292 25.7606 26.2959 25.7861C26.292 25.8103 26.292 25.8349 26.2959 25.8592C26.292 25.8846 26.292 25.9106 26.2959 25.9361C26.292 25.9616 26.292 25.9875 26.2959 26.013C26.292 26.0385 26.292 26.0644 26.2959 26.0899C26.292 26.1154 26.292 26.1414 26.2959 26.1669C26.292 26.1911 26.292 26.2157 26.2959 26.2399C26.292 26.2654 26.292 26.2914 26.2959 26.3169C26.292 26.3424 26.292 26.3683 26.2959 26.3938C26.292 26.4193 26.292 26.4452 26.2959 26.4707C26.292 26.4962 26.292 26.5221 26.2959 26.5476C26.292 26.5718 26.292 26.5965 26.2959 26.6207C26.292 26.6462 26.292 26.6721 26.2959 26.6976C26.292 26.7231 26.292 26.749 26.2959 26.7745C26.292 26.8 26.292 26.8259 26.2959 26.8514C26.292 26.8769 26.292 26.9029 26.2959 26.9284C26.292 26.9526 26.292 26.9772 26.2959 27.0014C26.292 27.0269 26.292 27.0529 26.2959 27.0784C26.292 27.1039 26.292 27.1298 26.2959 27.1553C26.292 27.1808 26.292 27.2068 26.2959 27.2323C26.292 27.2577 26.292 27.2837 26.2959 27.3092C26.292 27.3334 26.292 27.358 26.2959 27.3822C26.292 27.4077 26.292 27.4337 26.2959 27.4592C26.292 27.4847 26.292 27.5106 26.2959 27.5361C26.292 27.5616 26.292 27.5875 26.2959 27.613C26.292 27.6385 26.292 27.6644 26.2959 27.6899C26.292 27.7141 26.292 27.7388 26.2959 27.763C26.292 27.7885 26.292 27.8144 26.2959 27.8399C26.292 27.8654 26.292 27.8913 26.2959 27.9168C26.292 27.9423 26.292 27.9683 26.2959 27.9938C26.292 28.0193 26.292 28.0452 26.2959 28.0707C26.292 28.0949 26.292 28.1196 26.2959 28.1438C26.292 28.1693 26.292 28.1952 26.2959 28.2207C26.292 28.2462 26.292 28.2721 26.2959 28.2976C26.292 28.3231 26.292 28.3491 26.2959 28.3745C26.292 28.4 26.292 28.426 26.2959 28.4515C26.292 28.4757 26.292 28.5003 26.2959 28.5246C26.292 28.5501 26.292 28.576 26.2959 28.6015C26.292 28.627 26.292 28.6529 26.2959 28.6784C26.292 28.7039 26.292 28.7298 26.2959 28.7553C26.292 28.7808 26.292 28.8067 26.2959 28.8322C26.292 28.8564 26.292 28.8811 26.2959 28.9053C26.292 28.9308 26.292 28.9567 26.2959 28.9822C26.292 29.0077 26.292 29.0337 26.2959 29.0592C26.292 29.0847 26.292 29.1106 26.2959 29.1361C26.292 29.1616 26.292 29.1875 26.2959 29.213C26.292 29.2372 26.292 29.2619 26.2959 29.2861C26.292 29.3116 26.292 29.3375 26.2959 29.363C26.292 29.3885 26.292 29.4144 26.2959 29.4399C26.292 29.4654 26.292 29.4913 26.2959 29.5168C26.292 29.5423 26.292 29.5683 26.2959 29.5938C26.292 29.618 26.292 29.6426 26.2959 29.6669C26.292 29.6923 26.292 29.7183 26.2959 29.7438C26.292 29.7693 26.292 29.7952 26.2959 29.8207C26.292 29.8462 26.292 29.8721 26.2959 29.8976C26.292 29.9231 26.292 29.9491 26.2959 29.9746C26.292 29.9988 26.292 30.0234 26.2959 30.0476C26.292 30.0731 26.292 30.099 26.2959 30.1245C26.292 30.15 26.292 30.176 26.2959 30.2015C26.292 30.227 26.292 30.2529 26.2959 30.2784C26.292 30.3039 26.292 30.3298 26.2959 30.3553C26.292 30.3795 26.292 30.4042 26.2959 30.4284C26.292 30.4539 26.292 30.4798 26.2959 30.5053C26.292 30.5308 26.292 30.5567 26.2959 30.5822C26.292 30.6077 26.292 30.6336 26.2959 30.6591C26.292 30.6846 26.292 30.7106 26.2959 30.7361C26.292 30.7603 26.292 30.7849 26.2959 30.8091C26.292 30.8346 26.292 30.8606 26.2959 30.8861C26.292 30.9116 26.292 30.9375 26.2959 30.963C26.292 30.9885 26.292 31.0144 26.2959 31.0399C26.292 31.0654 26.292 31.0914 26.2959 31.1169C26.292 31.1411 26.292 31.1657 26.2959 31.1899C26.292 31.2154 26.292 31.2414 26.2959 31.2669C26.292 31.2924 26.292 31.3183 26.2959 31.3438C26.292 31.3693 26.292 31.3952 26.2959 31.4207C26.292 31.4462 26.292 31.4721 26.2959 31.4976C26.292 31.5218 26.292 31.5465 26.2959 31.5707C26.292 31.5962 26.292 31.6221 26.2959 31.6476C26.292 31.6731 26.292 31.699 26.2959 31.7245C26.292 31.75 26.292 31.776 26.2959 31.8015C26.292 31.827 26.292 31.8529 26.2959 31.8784C26.292 31.9026 26.292 31.9272 26.2959 31.9514C26.292 31.9769 26.292 32.0029 26.2959 32.0284C26.292 32.0539 26.292 32.0798 26.2959 32.1053C26.292 32.1308 26.292 32.1568 26.2959 32.1823C26.292 32.2077 26.292 32.2337 26.2959 32.2592C26.292 32.2834 26.292 32.308 26.2959 32.3322C26.292 32.3577 26.292 32.3837 26.2959 32.4092C26.292 32.4347 26.292 32.4606 26.2959 32.4861C26.292 32.5116 26.292 32.5375 26.2959 32.563C26.292 32.5885 26.292 32.6144 26.2959 32.6399C26.292 32.6641 26.292 32.6888 26.2959 32.713C26.292 32.7385 26.292 32.7644 26.2959 32.7899C26.292 32.8154 26.292 32.8413 26.2959 32.8668C26.292 32.8923 26.292 32.9183 26.2959 32.9438C26.292 32.9693 26.292 32.9952 26.2959 33.0207C26.292 33.0449 26.292 33.0696 26.2959 33.0938C26.292 33.1193 26.292 33.1452 26.2959 33.1707C26.292 33.1962 26.292 33.2221 26.2959 33.2476C26.292 33.2731 26.292 33.2991 26.2959 33.3245C26.292 33.35 26.292 33.376 26.2959 33.4015C26.292 33.4257 26.292 33.4503 26.2959 33.4746C26.292 33.5001 26.292 33.526 26.2959 33.5515C26.292 33.577 26.292 33.6029 26.2959 33.6284C26.292 33.6539 26.292 33.6798 26.2959 33.7053C26.292 33.7308 26.292 33.7567 26.2959 33.7822C26.292 33.8064 26.292 33.8311 26.2959 33.8553C26.292 33.8808 26.292 33.9067 26.2959 33.9322C26.292 33.9577 26.292 33.9837 26.2959 34.0092C26.292 34.0347 26.292 34.0606 26.2959 34.0861C26.292 34.1116 26.292 34.1375 26.2959 34.163C26.292 34.1872 26.292 34.2119 26.2959 34.2361C26.292 34.2616 26.292 34.2875 26.2959 34.313C26.292 34.3385 26.292 34.3644 26.2959 34.3899C26.292 34.4154 26.292 34.4413 26.2959 34.4668C26.292 34.4923 26.292 34.5183 26.2959 34.5437C26.292 34.568 26.292 34.5926 26.2959 34.6169C26.292 34.6423 26.292 34.6683 26.2959 34.6938C26.292 34.7193 26.292 34.7452 26.2959 34.7707C26.292 34.7962 26.292 34.8221 26.2959 34.8476C26.292 34.8731 26.292 34.8991 26.2959 34.9246C26.292 34.9488 26.292 34.9734 26.2959 34.9976C26.292 35.0231 26.292 35.049 26.2959 35.0745C26.292 35.1 26.292 35.126 26.2959 35.1515C26.292 35.177 26.292 35.2029 26.2959 35.2284C26.292 35.2539 26.292 35.2798 26.2959 35.3053C26.292 35.3295 26.292 35.3542 26.2959 35.3784C26.292 35.4039 26.292 35.4298 26.2959 35.4553C26.292 35.4808 26.292 35.5067 26.2959 35.5322C26.292 35.5577 26.292 35.5836 26.2959 35.6091C26.292 35.6346 26.292 35.6606 26.2959 35.6861C26.292 35.7103 26.292 35.7349 26.2959 35.7591C26.292 35.7846 26.292 35.8106 26.2959 35.8361C26.292 35.8616 26.292 35.8875 26.2959 35.913C26.292 35.9385 26.292 35.9644 26.2959 35.9899C26.292 36.0154 26.292 36.0414 26.2959 36.0669C26.292 36.0911 26.292 36.1157 26.2959 36.1399C26.292 36.1654 26.292 36.1914 26.2959 36.2169C26.292 36.2424 26.292 36.2683 26.2959 36.2938C26.292 36.3193 26.292 36.3452 26.2959 36.3707C26.292 36.3962 26.292 36.4221 26.2959 36.4476C26.292 36.4718 26.292 36.4965 26.2959 36.5207C26.292 36.5462 26.292 36.5721 26.2959 36.5976C26.292 36.6231 26.292 36.649 26.2959 36.6745C26.292 36.7 26.292 36.726 26.2959 36.7515C26.292 36.777 26.292 36.8029 26.2959 36.8284C26.292 36.8526 26.292 36.8772 26.2959 36.9014C26.292 36.9269 26.292 36.9529 26.2959 36.9784C26.292 37.0039 26.292 37.0298 26.2959 37.0553C26.292 37.0808 26.292 37.1068 26.2959 37.1322C26.292 37.1577 26.292 37.1837 26.2959 37.2092C26.292 37.2334 26.292 37.258 26.2959 37.2823C26.292 37.3078 26.292 37.3337 26.2959 37.3592C26.292 37.3847 26.292 37.4106 26.2959 37.4361C26.292 37.4616 26.292 37.4875 26.2959 37.513C26.292 37.5385 26.292 37.5644 26.2959 37.5899C26.292 37.6141 26.292 37.6388 26.2959 37.663C26.292 37.6885 26.292 37.7144 26.2959 37.7399C26.292 37.7654 26.292 37.7913 26.2959 37.8168C26.292 37.8423 26.292 37.8683 26.2959 37.8938C26.292 37.9193 26.292 37.9452 26.2959 37.9707C26.292 37.9949 26.292 38.0196 26.2959 38.0438C26.292 38.0693 26.292 38.0952 26.2959 38.1207C26.292 38.1462 26.292 38.1721 26.2959 38.1976C26.292 38.2231 26.292 38.249 26.2959 38.2745C26.292 38.3 26.292 38.326 26.2959 38.3515C26.292 38.3757 26.292 38.4003 26.2959 38.4246C26.292 38.45 26.292 38.476 26.2959 38.5015C26.292 38.527 26.292 38.5529 26.2959 38.5784C26.292 38.6039 26.292 38.6298 26.2959 38.6553C26.292 38.6808 26.292 38.7067 26.2959 38.7322C26.292 38.7564 26.292 38.7811 26.2959 38.8053C26.292 38.8308 26.292 38.8567 26.2959 38.8822C26.292 38.9077 26.292 38.9337 26.2959 38.9592C26.292 38.9847 26.292 39.0106 26.2959 39.0361C26.292 39.0616 26.292 39.0875 26.2959 39.113C26.292 39.1372 26.292 39.1619 26.2959 39.1861C26.292 39.2116 26.292 39.2375 26.2959 39.263C26.292 39.2885 26.292 39.3144 26.2959 39.3399C26.292 39.3654 26.292 39.3913 26.2959 39.4168C26.292 39.4423 26.292 39.4683 26.2959 39.4938C26.292 39.518 26.292 39.5426 26.2959 39.5668C26.292 39.5923 26.292 39.6183 26.2959 39.6438C26.292 39.6692 26.292 39.6952 26.2959 39.7207C26.292 39.7462 26.292 39.7721 26.2959 39.7976C26.292 39.8231 26.292 39.8491 26.2959 39.8746C26.292 39.8988 26.292 39.9234 26.2959 39.9476C26.292 39.9731 26.292 39.999 26.2959 40.0245C26.292 40.05 26.292 40.076 26.2959 40.1015C26.292 40.127 26.292 40.1529 26.2959 40.1784C26.292 40.2039 26.292 40.2298 26.2959 40.2553C26.292 40.2795 26.292 40.3042 26.2959 40.3284C26.292 40.3539 26.292 40.3798 26.2959 40.4053C26.292 40.4308 26.292 40.4567 26.2959 40.4822C26.292 40.5077 26.292 40.5336 26.2959 40.5591C26.292 40.5846 26.292 40.6106 26.2959 40.6361C26.292 40.6603 26.292 40.6849 26.2959 40.7091C26.292 40.7346 26.292 40.7606 26.2959 40.7861C26.292 40.8116 26.292 40.8375 26.2959 40.863C26.292 40.8885 26.292 40.9144 26.2959 40.9399C26.292 40.9654 26.292 40.9914 26.2959 41.0169C26.292 41.0411 26.292 41.0657 26.2959 41.0899C26.292 41.1154 26.292 41.1414 26.2959 41.1669C26.292 41.1924 26.292 41.2183 26.2959 41.2438C26.292 41.2693 26.292 41.2952 26.2959 41.3207C26.292 41.3462 26.292 41.3721 26.2959 41.3976C26.292 41.4218 26.292 41.4465 26.2959 41.4707C26.292 41.4962 26.292 41.5221 26.2959 41.5476C26.292 41.5731 26.292 41.599 26.2959 41.6245C26.292 41.65 26.292 41.676 26.2959 41.7015C26.292 41.727 26.292 41.7529 26.2959 41.7784C26.292 41.8026 26.292 41.8272 26.2959 41.8514C26.292 41.8769 26.292 41.9029 26.2959 41.9284C26.292 41.9539 26.292 41.9798 26.2959 42.0053C26.292 42.0308 26.292 42.0568 26.2959 42.0822C26.292 42.1077 26.292 42.1337 26.2959 42.1592C26.292 42.1834 26.292 42.208 26.2959 42.2323C26.292 42.2578 26.292 42.2837 26.2959 42.3092C26.292 42.3347 26.292 42.3606 26.2959 42.3861C26.292 42.4116 26.292 42.4375 26.2959 42.463C26.292 42.4885 26.292 42.5144 26.2959 42.5399C26.292 42.5641 26.292 42.5888 26.2959 42.613C26.292 42.6385 26.292 42.6644 26.2959 42.6899C26.292 42.7154 26.292 42.7413 26.2959 42.7668C26.292 42.7923 26.292 42.8183 26.2959 42.8438C26.292 42.8693 26.292 42.8952 26.2959 42.9207C26.292 42.9449 26.292 42.9696 26.2959 42.9938C26.292 43.0193 26.292 43.0452 26.2959 43.0707C26.292 43.0962 26.292 43.1221 26.2959 43.1476C26.292 43.1731 26.292 43.199 26.2959 43.2245C26.292 43.25 26.292 43.276 26.2959 43.3014C26.292 43.3257 26.292 43.3503 26.2959 43.3745C26.292 43.4 26.292 43.426 26.2959 43.4515C26.292 43.477 26.292 43.5029 26.2959 43.5284C26.292 43.5539 26.292 43.5798 26.2959 43.6053C26.292 43.6308 26.292 43.6567 26.2959 43.6822C26.292 43.7064 26.292 43.7311 26.2959 43.7553C26.292 43.7808 26.292 43.8067 26.2959 43.8322C26.292 43.8577 26.292 43.8837 26.2959 43.9092C26.292 43.9347 26.292 43.9606 26.2959 43.9861C26.292 44.0116 26.292 44.0375 26.2959 44.063C26.292 44.0872 26.292 44.1119 26.2959 44.1361C26.292 44.1616 26.292 44.1875 26.2959 44.213C26.292 44.2385 26.292 44.2644 26.2959 44.2899C26.292 44.3154 26.292 44.3413 26.2959 44.3668C26.292 44.3923 26.292 44.4183 26.2959 44.4438C26.292 44.468 26.292 44.4926 26.2959 44.5168C26.292 44.5423 26.292 44.5683 26.2959 44.5938C26.292 44.6192 26.292 44.6452 26.2959 44.6707C26.292 44.6962 26.292 44.7221 26.2959 44.7476C26.292 44.7731 26.292 44.7991 26.2959 44.8246C26.292 44.8488 26.292 44.8734 26.2959 44.8976C26.292 44.9231 26.292 44.9491 26.2959 44.9746C26.292 45.0001 26.292 45.026 26.2959 45.0515C26.292 45.077 26.292 45.1029 26.2959 45.1284C26.292 45.1539 26.292 45.1798 26.2959 45.2053C26.292 45.2295 26.292 45.2542 26.2959 45.2784C26.292 45.3039 26.292 45.3298 26.2959 45.3553C26.292 45.3808 26.292 45.4067 26.2959 45.4322C26.292 45.4577 26.292 45.4836 26.2959 45.5091C26.292 45.5346 26.292 45.5606 26.2959 45.5861C26.292 45.6103 26.292 45.6349 26.2959 45.6591C26.292 45.6846 26.292 45.7106 26.2959 45.7361C26.292 45.7616 26.292 45.7875 26.2959 45.813C26.292 45.8385 26.292 45.8644 26.2959 45.8899C26.292 45.9154 26.292 45.9414 26.2959 45.9669C26.292 45.9911 26.292 46.0157 26.2959 46.0399C26.292 46.0654 26.292 46.0914 26.2959 46.1169C26.292 46.1424 26.292 46.1683 26.2959 46.1938C26.292 46.2193 26.292 46.2452 26.2959 46.2707C26.292 46.2962 26.292 46.3221 26.2959 46.3476C26.292 46.3718 26.292 46.3965 26.2959 46.4207C26.292 46.4462 26.292 46.4721 26.2959 46.4976C26.292 46.5231 26.292 46.549 26.2959 46.5745C26.292 46.6 26.292 46.626 26.2959 46.6515C26.292 46.677 26.292 46.7029 26.2959 46.7284C26.292 46.7526 26.292 46.7773 26.2959 46.8015C26.292 46.827 26.292 46.8529 26.2959 46.8784C26.292 46.9039 26.292 46.9298 26.2959 46.9553C26.292 46.9808 26.292 47.0067 26.2959 47.0322C26.292 47.0577 26.292 47.0837 26.2959 47.1092C26.292 47.1334 26.292 47.158 26.2959 47.1823C26.292 47.2077 26.292 47.2337 26.2959 47.2592C26.292 47.2847 26.292 47.3106 26.2959 47.3361C26.292 47.3616 26.292 47.3875 26.2959 47.413C26.292 47.4385 26.292 47.4644 26.2959 47.4899C26.292 47.5141 26.292 47.5388 26.2959 47.563C26.292 47.5885 26.292 47.6144 26.2959 47.6399C26.292 47.6654 26.292 47.6913 26.2959 47.7168C26.292 47.7423 26.292 47.7683 26.2959 47.7938C26.292 47.8193 26.292 47.8452 26.2959 47.8707C26.292 47.8949 26.292 47.9196 26.2959 47.9438C26.292 47.9693 26.292 47.9952 26.2959 48.0207C26.292 48.0462 26.292 48.0721 26.2959 48.0976C26.292 48.1231 26.292 48.149 26.2959 48.1745C26.292 48.2 26.292 48.226 26.2959 48.2514C26.292 48.2757 26.292 48.3003 26.2959 48.3245C26.292 48.35 26.292 48.376 26.2959 48.4015C26.292 48.4269 26.292 48.4529 26.2959 48.4784C26.292 48.5039 26.292 48.5298 26.2959 48.5553C26.292 48.5808 26.292 48.6067 26.2959 48.6322C26.292 48.6564 26.292 48.6811 26.2959 48.7053C26.292 48.7308 26.292 48.7567 26.2959 48.7822C26.292 48.8077 26.292 48.8337 26.2959 48.8592C26.292 48.8847 26.292 48.9106 26.2959 48.9361C26.292 48.9616 26.292 48.9875 26.2959 49.013C26.292 49.0372 26.292 49.0619 26.2959 49.0861C26.292 49.1116 26.292 49.1375 26.2959 49.163C26.292 49.1885 26.292 49.2144 26.2959 49.2399C26.292 49.2654 26.292 49.2913 26.2959 49.3168C26.292 49.3423 26.292 49.3683 26.2959 49.3938C26.292 49.418 26.292 49.4426 26.2959 49.4668C26.292 49.4923 26.292 49.5183 26.2959 49.5437C26.292 49.5692 26.292 49.5952 26.2959 49.6207C26.292 49.6462 26.292 49.6721 26.2959 49.6976C26.292 49.7231 26.292 49.7491 26.2959 49.7746C26.292 49.7988 26.292 49.8234 26.2959 49.8476C26.292 49.8731 26.292 49.8991 26.2959 49.9246C26.292 49.9501 26.292 49.976 26.2959 50.0015C26.292 50.027 26.292 50.0529 26.2959 50.0784C26.292 50.1039 26.292 50.1298 26.2959 50.1553C26.292 50.1795 26.292 50.2042 26.2959 50.2284C26.292 50.2539 26.292 50.2798 26.2959 50.3053C26.292 50.3308 26.292 50.3567 26.2959 50.3822C26.292 50.4077 26.292 50.4336 26.2959 50.4591C26.292 50.4846 26.292 50.5106 26.2959 50.5361C26.292 50.5603 26.292 50.5849 26.2959 50.6091C26.292 50.6346 26.292 50.6606 26.2959 50.6861C26.292 50.7116 26.292 50.7375 26.2959 50.763C26.292 50.7885 26.292 50.8145 26.2959 50.8399C26.292 50.8654 26.292 50.8914 26.2959 50.9169C26.292 50.9411 26.292 50.9657 26.2959 50.9899C26.292 51.0154 26.292 51.0414 26.2959 51.0669C26.292 51.0924 26.292 51.1183 26.2959 51.1438C26.292 51.1693 26.292 51.1952 26.2959 51.2207C26.292 51.2462 26.292 51.2721 26.2959 51.2976C26.292 51.3218 26.292 51.3465 26.2959 51.3707C26.292 51.3962 26.292 51.4221 26.2959 51.4476C26.292 51.4731 26.292 51.499 26.2959 51.5245C26.292 51.55 26.292 51.576 26.2959 51.6015C26.292 51.627 26.292 51.6529 26.2959 51.6784C26.292 51.7026 26.292 51.7273 26.2959 51.7515C26.292 51.777 26.292 51.8029 26.2959 51.8284C26.292 51.8539 26.292 51.8798 26.2959 51.9053C26.292 51.9308 26.292 51.9567 26.2959 51.9822C26.292 52.0077 26.292 52.0337 26.2959 52.0591C26.292 52.0834 26.292 52.108 26.2959 52.1322C26.292 52.1577 26.292 52.1837 26.2959 52.2092C26.292 52.2347 26.292 52.2606 26.2959 52.2861C26.292 52.3116 26.292 52.3375 26.2959 52.363C26.292 52.3885 26.292 52.4144 26.2959 52.4399C26.292 52.4641 26.292 52.4888 26.2959 52.513C26.292 52.5385 26.292 52.5644 26.2959 52.5899C26.292 52.6154 26.292 52.6414 26.2959 52.6669C26.292 52.6924 26.292 52.7183 26.2959 52.7438C26.292 52.7693 26.292 52.7952 26.2959 52.8207C26.292 52.8449 26.292 52.8696 26.2959 52.8938C26.292 52.9193 26.292 52.9452 26.2959 52.9707C26.292 52.9962 26.292 53.0221 26.2959 53.0476C26.292 53.0731 26.292 53.099 26.2959 53.1245C26.292 53.15 26.292 53.1759 26.2959 53.2014C26.292 53.2257 26.292 53.2503 26.2959 53.2745C26.292 53.3 26.292 53.326 26.2959 53.3515C26.292 53.3769 26.292 53.4029 26.2959 53.4284C26.292 53.4539 26.292 53.4798 26.2959 53.5053C26.292 53.5308 26.292 53.5567 26.2959 53.5822C26.292 53.6064 26.292 53.6311 26.2959 53.6553C26.292 53.6808 26.292 53.7067 26.2959 53.7322C26.292 53.7577 26.292 53.7837 26.2959 53.8092C26.292 53.8347 26.292 53.8606 26.2959 53.8861C26.292 53.9116 26.292 53.9375 26.2959 53.963C26.292 53.9872 26.292 54.0119 26.2959 54.0361C26.292 54.0616 26.292 54.0875 26.2959 54.113C26.292 54.1385 26.292 54.1644 26.2959 54.1899C26.292 54.2154 26.292 54.2413 26.2959 54.2668C26.292 54.2923 26.292 54.3183 26.2959 54.3438C26.292 54.368 26.292 54.3926 26.2959 54.4168C26.292 54.4423 26.292 54.4683 26.2959 54.4938C26.292 54.5193 26.292 54.5452 26.2959 54.5707C26.292 54.5962 26.292 54.6221 26.2959 54.6476C26.292 54.6731 26.292 54.6991 26.2959 54.7246C26.292 54.7488 26.292 54.7734 26.2959 54.7976C26.292 54.8231 26.292 54.8491 26.2959 54.8746C26.292 54.9001 26.292 54.926 26.2959 54.9515C26.292 54.977 26.292 55.0029 26.2959 55.0284C26.292 55.0539 26.292 55.0798 26.2959 55.1053C26.292 55.1295 26.292 55.1542 26.2959 55.1784C26.292 55.2039 26.292 55.2298 26.2959 55.2553C26.292 55.2808 26.292 55.3067 26.2959 55.3322C26.292 55.3577 26.292 55.3836 26.2959 55.4091C26.292 55.4346 26.292 55.4606 26.2959 55.4861C26.292 55.5103 26.292 55.5349 26.2959 55.5591C26.292 55.5846 26.292 55.6106 26.2959 55.6361C26.292 55.6616 26.292 55.6875 26.2959 55.713C26.292 55.7385 26.292 55.7644 26.2959 55.7899C26.292 55.8154 26.292 55.8414 26.2959 55.8669C26.292 55.8911 26.292 55.9157 26.2959 55.9399C26.292 55.9654 26.292 55.9914 26.2959 56.0169C26.292 56.0424 26.292 56.0683 26.2959 56.0938C26.292 56.1193 26.292 56.1452 26.2959 56.1707C26.292 56.1962 26.292 56.2221 26.2959 56.2476C26.292 56.2718 26.292 56.2965 26.2959 56.3207C26.292 56.3462 26.292 56.3721 26.2959 56.3976C26.292 56.4231 26.292 56.449 26.2959 56.4745C26.292 56.5 26.292 56.526 26.2959 56.5515C26.292 56.577 26.292 56.6029 26.2959 56.6284C26.292 56.6526 26.292 56.6773 26.2959 56.7015C26.292 56.727 26.292 56.7529 26.2959 56.7784C26.292 56.8039 26.292 56.8298 26.2959 56.8553C26.292 56.8808 26.292 56.9067 26.2959 56.9322C26.292 56.9577 26.292 56.9837 26.2959 57.0091C26.292 57.0334 26.292 57.058 26.2959 57.0822C26.292 57.1077 26.292 57.1337 26.2959 57.1592C26.292 57.1846 26.292 57.2106 26.2959 57.2361C26.292 57.2616 26.292 57.2875 26.2959 57.313C26.292 57.3385 26.292 57.3644 26.2959 57.3899C26.292 57.4141 26.292 57.4388 26.2959 57.463C26.292 57.4885 26.292 57.5144 26.2959 57.5399C26.292 57.5654 26.292 57.5914 26.2959 57.6169C26.292 57.6424 26.292 57.6683 26.2959 57.6938C26.292 57.7193 26.292 57.7452 26.2959 57.7707C26.292 57.7949 26.292 57.8196 26.2959 57.8438C26.292 57.8693 26.292 57.8952 26.2959 57.9207C26.292 57.9462 26.292 57.9721 26.2959 57.9976C26.292 58.0231 26.292 58.049 26.2959 58.0745C26.292 58.1 26.292 58.1259 26.2959 58.1514C26.292 58.1757 26.292 58.2003 26.2959 58.2245C26.292 58.25 26.292 58.276 26.2959 58.3014C26.292 58.3269 26.292 58.3529 26.2959 58.3784C26.292 58.4039 26.292 58.4298 26.2959 58.4553C26.292 58.4808 26.292 58.5068 26.2959 58.5323C26.292 58.5565 26.292 58.5811 26.2959 58.6053C26.292 58.6308 26.292 58.6567 26.2959 58.6822C26.292 58.7077 26.292 58.7337 26.2959 58.7592C26.292 58.7847 26.292 58.8106 26.2959 58.8361C26.292 58.8616 26.292 58.8875 26.2959 58.913C26.292 58.9372 26.292 58.9619 26.2959 58.9861C26.292 59.0116 26.292 59.0375 26.2959 59.063C26.292 59.0885 26.292 59.1144 26.2959 59.1399C26.292 59.1654 26.292 59.1913 26.2959 59.2168C26.292 59.2423 26.292 59.2683 26.2959 59.2938C26.292 59.318 26.292 59.3426 26.2959 59.3668C26.292 59.3923 26.292 59.4183 26.2959 59.4438C26.292 59.4693 26.292 59.4952 26.2959 59.5207C26.292 59.5462 26.292 59.5721 26.2959 59.5976C26.292 59.6231 26.292 59.6491 26.2959 59.6746C26.292 59.6988 26.292 59.7234 26.2959 59.7476C26.292 59.7731 26.292 59.7991 26.2959 59.8246C26.292 59.8501 26.292 59.876 26.2959 59.9015C26.292 59.927 26.292 59.9529 26.2959 59.9784C26.292 60.0039 26.292 60.0298 26.2959 60.0553C26.292 60.0795 26.292 60.1042 26.2959 60.1284C26.292 60.1539 26.292 60.1798 26.2959 60.2053C26.292 60.2308 26.292 60.2567 26.2959 60.2822C26.292 60.3077 26.292 60.3337 26.2959 60.3592C26.292 60.3847 26.292 60.4106 26.2959 60.4361C26.292 60.4603 26.292 60.4849 26.2959 60.5091C26.292 60.5346 26.292 60.5606 26.2959 60.5861C26.292 60.6116 26.292 60.6375 26.2959 60.663C26.292 60.6885 26.292 60.7144 26.2959 60.7399C26.292 60.7654 26.292 60.7914 26.2959 60.8168C26.292 60.8411 26.292 60.8657 26.2959 60.8899C26.292 60.9154 26.292 60.9414 26.2959 60.9669C26.292 60.9924 26.292 61.0183 26.2959 61.0438C26.292 61.0693 26.292 61.0952 26.2959 61.1207C26.292 61.1462 26.292 61.1721 26.2959 61.1976C26.292 61.2218 26.292 61.2465 26.2959 61.2707C26.292 61.2962 26.292 61.3221 26.2959 61.3476C26.292 61.3731 26.292 61.399 26.2959 61.4245C26.292 61.45 26.292 61.476 26.2959 61.5015C26.292 61.527 26.292 61.5529 26.2959 61.5784C26.292 61.6026 26.292 61.6273 26.2959 61.6515C26.292 61.677 26.292 61.7029 26.2959 61.7284C26.292 61.7539 26.292 61.7798 26.2959 61.8053C26.292 61.8308 26.292 61.8567 26.2959 61.8822C26.292 61.9077 26.292 61.9336 26.2959 61.9591C26.292 61.9846 26.292 62.0106 26.2959 62.0361C26.292 62.0603 26.292 62.0849 26.2959 62.1092C26.292 62.1346 26.292 62.1606 26.2959 62.1861C26.292 62.2116 26.292 62.2375 26.2959 62.263C26.292 62.2885 26.292 62.3144 26.2959 62.3399C26.292 62.3654 26.292 62.3914 26.2959 62.4169C26.292 62.4411 26.292 62.4657 26.2959 62.4899C26.292 62.5154 26.292 62.5414 26.2959 62.5669C26.292 62.5924 26.292 62.6183 26.2959 62.6438C26.292 62.6693 26.292 62.6952 26.2959 62.7207C26.292 62.7462 26.292 62.7721 26.2959 62.7976C26.292 62.8218 26.292 62.8465 26.2959 62.8707C26.292 62.8962 26.292 62.9221 26.2959 62.9476C26.292 62.9731 26.292 62.999 26.2959 63.0245C26.292 63.05 26.292 63.0759 26.2959 63.1014C26.292 63.1269 26.292 63.1529 26.2959 63.1784C26.292 63.2026 26.292 63.2272 26.2959 63.2514C26.292 63.2769 26.292 63.3029 26.2959 63.3284C26.292 63.3539 26.292 63.3798 26.2959 63.4053C26.292 63.4308 26.292 63.4568 26.2959 63.4823C26.292 63.5078 26.292 63.5337 26.2959 63.5592C26.292 63.5834 26.292 63.608 26.2959 63.6322C26.292 63.6577 26.292 63.6837 26.2959 63.7092C26.292 63.7347 26.292 63.7606 26.2959 63.7861C26.292 63.8116 26.292 63.8375 26.2959 63.863C26.292 63.8885 26.292 63.9144 26.2959 63.9399C26.292 63.9641 26.292 63.9888 26.2959 64.013C26.292 64.0385 26.292 64.0644 26.2959 64.0899C26.292 64.1154 26.292 64.1413 26.2959 64.1668C26.292 64.1923 26.292 64.2183 26.2959 64.2438C26.292 64.2693 26.292 64.2952 26.2959 64.3207C26.292 64.3449 26.292 64.3696 26.2959 64.3938C26.292 64.4193 26.292 64.4452 26.2959 64.4707C26.292 64.4962 26.292 64.5221 26.2959 64.5476C26.292 64.5731 26.292 64.5991 26.2959 64.6246C26.292 64.65 26.292 64.676 26.2959 64.7015C26.292 64.7257 26.292 64.7503 26.2959 64.7746C26.292 64.8001 26.292 64.826 26.2959 64.8515C26.292 64.877 26.292 64.9029 26.2959 64.9284C26.292 64.9539 26.292 64.9798 26.2959 65.0053C26.292 65.0308 26.292 65.0567 26.2959 65.0822C26.292 65.1064 26.292 65.1311 26.2959 65.1553C26.292 65.1808 26.292 65.2067 26.2959 65.2322C26.292 65.2577 26.292 65.2837 26.2959 65.3092C26.292 65.3347 26.292 65.3606 26.2959 65.3861C26.292 65.4116 26.292 65.4375 26.2959 65.463C26.292 65.4872 26.292 65.5119 26.2959 65.5361C26.292 65.5616 26.292 65.5875 26.2959 65.613C26.292 65.6385 26.292 65.6644 26.2959 65.6899C26.292 65.7154 26.292 65.7414 26.2959 65.7668C26.292 65.7923 26.292 65.8183 26.2959 65.8438C26.292 65.868 26.292 65.8926 26.2959 65.9169C26.292 65.9423 26.292 65.9683 26.2959 65.9938C26.292 66.0193 26.292 66.0452 26.2959 66.0707C26.292 66.0962 26.292 66.1221 26.2959 66.1476C26.292 66.1731 26.292 66.1991 26.2959 66.2246C26.292 66.2488 26.292 66.2734 26.2959 66.2976C26.292 66.3231 26.292 66.349 26.2959 66.3745C26.292 66.4 26.292 66.426 26.2959 66.4515C26.292 66.477 26.292 66.5029 26.2959 66.5284C26.292 66.5539 26.292 66.5798 26.2959 66.6053C26.292 66.6295 26.292 66.6542 26.2959 66.6784C26.292 66.7039 26.292 66.7298 26.2959 66.7553C26.292 66.7808 26.292 66.8067 26.2959 66.8322C26.292 66.8577 26.292 66.8836 26.2959 66.9091C26.292 66.9346 26.292 66.9606 26.2959 66.9861C26.292 67.0103 26.292 67.0349 26.2959 67.0591C26.292 67.0846 26.292 67.1106 26.2959 67.1361C26.292 67.1616 26.292 67.1875 26.2959 67.213C26.292 67.2385 26.292 67.2644 26.2959 67.2899C26.292 67.3154 26.292 67.3414 26.2959 67.3669C26.292 67.3911 26.292 67.4157 26.2959 67.4399C26.292 67.4654 26.292 67.4914 26.2959 67.5169C26.292 67.5424 26.292 67.5683 26.2959 67.5938C26.292 67.6193 26.292 67.6452 26.2959 67.6707C26.292 67.6962 26.292 67.7221 26.2959 67.7476C26.292 67.7718 26.292 67.7965 26.2959 67.8207C26.292 67.8462 26.292 67.8721 26.2959 67.8976C26.292 67.9231 26.292 67.949 26.2959 67.9745C26.292 68 26.292 68.026 26.2959 68.0515C26.292 68.077 26.292 68.1029 26.2959 68.1284C26.292 68.1526 26.292 68.1772 26.2959 68.2014C26.292 68.2269 26.292 68.2529 26.2959 68.2784C26.292 68.3039 26.292 68.3298 26.2959 68.3553C26.292 68.3808 26.292 68.4068 26.2959 68.4323C26.292 68.4577 26.292 68.4837 26.2959 68.5092C26.292 68.5334 26.292 68.558 26.2959 68.5822C26.292 68.6077 26.292 68.6337 26.2959 68.6592C26.292 68.6847 26.292 68.7106 26.2959 68.7361C26.292 68.7616 26.292 68.7875 26.2959 68.813C26.2766 69.263 26.5651 69.7169 27.1612 70.0592L58.1266 87.9361C58.7733 88.2639 59.4881 88.4346 60.2131 88.4346C60.9381 88.4346 61.6529 88.2639 62.2996 87.9361L93.0689 70.0592C93.6573 69.713 93.9419 69.263 93.9227 68.813V23.1245Z" fill="url(#paint5_linear_1079_13059)"/>
<path id="Vector_11" d="M92.8029 61.9492L92.8026 61.9494L62.0461 79.8189C61.4728 80.1071 60.8399 80.2572 60.1981 80.2572C59.556 80.2572 58.9229 80.107 58.3494 79.8186L27.3961 61.9487L27.3959 61.9485C26.9104 61.6685 26.7808 61.3709 26.7808 61.1755C26.7808 60.9796 26.9109 60.6808 27.397 60.3989L27.3973 60.3987L58.1537 42.5292C58.7266 42.2416 59.3588 42.0918 60 42.0918C60.6413 42.0918 61.2738 42.2417 61.8468 42.5295L92.8029 60.395C93.289 60.6769 93.4192 60.9756 93.4192 61.1721C93.4192 61.3685 93.289 61.6673 92.8029 61.9492Z" stroke="url(#paint6_linear_1079_13059)"/>
<path id="Vector_12" d="M92.8029 54.2568L92.8026 54.257L62.0461 72.1265C61.4728 72.4147 60.8399 72.5648 60.1981 72.5648C59.556 72.5648 58.9229 72.4146 58.3494 72.1262L27.3961 54.2563L27.3959 54.2562C26.9104 53.9762 26.7808 53.6785 26.7808 53.4831C26.7808 53.2872 26.9109 52.9884 27.397 52.7065L27.3973 52.7063L58.1537 34.8368C58.7266 34.5492 59.3588 34.3994 60 34.3994C60.6413 34.3994 61.2738 34.5493 61.8468 34.8371L92.8029 52.7026C93.289 52.9845 93.4192 53.2832 93.4192 53.4797C93.4192 53.6762 93.289 53.9749 92.8029 54.2568Z" stroke="url(#paint7_linear_1079_13059)"/>
<g id="Group">
<path id="Vector_13" d="M62.0487 42.1807L65.5564 44.0883C65.8583 44.2641 66.1066 44.5189 66.2747 44.8251C66.4427 45.1314 66.5242 45.4777 66.5103 45.8268C66.511 46.4179 66.3067 46.9909 65.9322 47.4482C65.5577 47.9055 65.036 48.2187 64.4564 48.3344L60.9487 46.4267C61.5284 46.311 62.0499 45.9978 62.4245 45.5405C62.799 45.0832 63.0033 44.5102 63.0025 43.9191C63.0164 43.57 62.9351 43.2237 62.767 42.9174C62.599 42.6111 62.3506 42.3565 62.0487 42.1807Z" fill="var(--default-main-color)"/>
<path id="Vector_14" d="M62.0468 42.1804L65.5546 44.0881C65.2191 43.9128 64.8367 43.8481 64.4622 43.9035L60.9546 41.9958C61.3291 41.9405 61.7114 42.0051 62.0468 42.1804Z" fill="white"/>
<path id="Vector_15" d="M61.7191 48.7185L58.2114 46.8109L60.9499 46.4263L64.4576 48.3339L61.7191 48.7185Z" fill="var(--default-main-color)"/>
<path id="Vector_16" d="M61.7103 50.1956L58.2026 48.2956L58.2103 46.811L61.718 48.7187L61.7103 50.1956Z" fill="var(--default-main-color)"/>
<path id="Vector_17" d="M56.1474 50.7954C56.7264 50.6813 57.2479 50.3696 57.6225 49.9136C57.9971 49.4576 58.2016 48.8856 58.2012 48.2954L61.7089 50.2031C61.7094 50.7932 61.5048 51.3652 61.1301 51.8212C60.7555 52.2772 60.2341 52.5889 59.6551 52.703C59.2781 52.759 58.8931 52.6944 58.5551 52.5184L55.0474 50.6108C55.3854 50.7867 55.7704 50.8513 56.1474 50.7954Z" fill="var(--default-main-color)"/>
<path id="Vector_18" d="M62.0622 37.0498L65.5623 38.9575C65.8653 39.132 66.1146 39.3865 66.2828 39.6931C66.451 39.9997 66.5317 40.3465 66.5161 40.6959C66.5169 41.287 66.3126 41.8601 65.9381 42.3174C65.5635 42.7746 65.0419 43.0879 64.4622 43.2036L60.9546 41.2959C61.5342 41.1802 62.0558 40.867 62.4303 40.4097C62.8049 39.9524 63.0091 39.3793 63.0084 38.7883C63.0239 38.4398 62.944 38.0937 62.7773 37.7874C62.6105 37.481 62.3633 37.226 62.0622 37.0498Z" fill="var(--default-main-color)"/>
<path id="Vector_19" d="M61.7191 48.7188L58.2114 46.8111L58.2191 42.3804L61.7268 44.288L61.7191 48.7188Z" fill="white"/>
<path id="Vector_20" d="M61.725 44.2884L58.2173 42.3807L60.9557 41.9961L64.4634 43.9038L61.725 44.2884Z" fill="white"/>
<path id="Vector_21" d="M64.4628 43.9036C64.7294 43.8674 65.0007 43.8912 65.257 43.9732C65.5133 44.0552 65.748 44.1934 65.9441 44.3776C66.1401 44.5619 66.2927 44.7876 66.3904 45.0383C66.4881 45.289 66.5286 45.5584 66.509 45.8267C66.5097 46.4178 66.3055 46.9909 65.9309 47.4482C65.5564 47.9054 65.0348 48.2186 64.4551 48.3344L61.709 48.719V44.2883L64.4628 43.9036Z" fill="white"/>
<path id="Vector_22" d="M62.0638 37.0503L65.5639 38.958C65.2305 38.7763 64.8468 38.7088 64.4715 38.7657L60.9639 36.858C61.3417 36.8011 61.7277 36.8686 62.0638 37.0503Z" fill="white"/>
<path id="Vector_23" d="M61.725 44.2892L58.2173 42.3815V41.6431L61.725 43.5507V44.2892Z" fill="var(--default-main-color)"/>
<path id="Vector_24" d="M61.725 43.5506L58.2173 41.6429L60.9557 41.2583L64.4634 43.166L61.725 43.5506Z" fill="var(--default-main-color)"/>
<path id="Vector_25" d="M58.5546 52.5182L55.0468 50.6105C54.7461 50.4335 54.4987 50.1785 54.3308 49.8725C54.163 49.5665 54.0807 49.2209 54.093 48.8721L57.6007 50.7797C57.5868 51.1288 57.6682 51.4751 57.8362 51.7813C58.0043 52.0876 58.2527 52.3424 58.5546 52.5182Z" fill="white"/>
<path id="Vector_26" d="M64.078 38.7804L60.5703 36.8727L60.9626 36.8188L64.4703 38.7265L64.078 38.7804Z" fill="white"/>
<path id="Vector_27" d="M64.078 38.7806L60.5703 36.8729L62.4703 34.4268L65.9703 36.3344L64.078 38.7806Z" fill="var(--default-main-color)"/>
<path id="Vector_28" d="M65.8706 25.9502C66.5398 25.5217 67.1681 25.0325 67.7475 24.4888L71.2552 26.3964C70.6758 26.9402 70.0474 27.4295 69.3783 27.858L65.8706 25.9502Z" fill="var(--default-main-color)"/>
<path id="Vector_29" d="M61.725 41.8187L58.2173 39.9033L60.5711 36.8726L64.0788 38.7802L61.725 41.8187Z" fill="white"/>
<path id="Vector_30" d="M64.4721 38.7273C64.7391 38.6923 65.0106 38.7172 65.2669 38.8001C65.5231 38.8831 65.7576 39.0221 65.9534 39.2069C66.1493 39.3917 66.3017 39.6178 66.3994 39.8688C66.4971 40.1198 66.5377 40.3893 66.5183 40.6579C66.519 41.249 66.3147 41.8221 65.9402 42.2794C65.5657 42.7367 65.044 43.0499 64.4644 43.1656L61.7183 43.5502V41.8195L64.026 38.7888L64.4721 38.7273Z" fill="white"/>
<path id="Vector_31" d="M61.725 43.5489L58.2173 41.6413V39.9028L61.725 41.8182V43.5489Z" fill="white"/>
<path id="Vector_32" d="M57.6088 50.7728L54.1011 48.8728V47.3882L57.6088 49.2959V50.7728Z" fill="white"/>
<path id="Vector_33" d="M60.8329 42.972L57.3252 41.0644L58.2175 39.9028L61.7252 41.8182L60.8329 42.972Z" fill="white"/>
<path id="Vector_34" d="M62.0728 31.0962L65.5805 33.0038C65.6895 33.0659 65.7924 33.1381 65.8881 33.2193C66.2784 33.6318 66.5028 34.1739 66.5184 34.7415C66.534 35.3092 66.3398 35.8627 65.9728 36.2961L62.4651 34.3885C62.832 33.9551 63.0263 33.4015 63.0107 32.8338C62.9951 32.2661 62.7707 31.7242 62.3805 31.3116C62.2848 31.2304 62.1818 31.1583 62.0728 31.0962Z" fill="var(--default-main-color)"/>
<path id="Vector_35" d="M70.6644 22.7108L67.1567 20.8031L68.526 20.6108L72.0337 22.5185L70.6644 22.7108Z" fill="#FE9025"/>
<path id="Vector_36" d="M62.0726 31.0967L65.5803 33.0044C65.2435 32.8248 64.8573 32.76 64.4803 32.8198L60.9727 30.9121C61.3496 30.8517 61.736 30.9166 62.0726 31.0967Z" fill="white"/>
<path id="Vector_37" d="M57.6088 49.2959L54.1011 47.3882L54.1088 42.9575L57.6165 44.8652L57.6088 49.2959Z" fill="white"/>
<path id="Vector_38" d="M58.226 43.6952L54.7261 41.7876C55.0602 41.9671 55.443 42.0345 55.8183 41.9799C56.4311 41.8877 56.9834 41.559 57.3568 41.0645L60.8568 42.9721C60.4971 43.4631 59.9579 43.7922 59.3568 43.8875C58.969 43.949 58.5717 43.8815 58.226 43.6952Z" fill="white"/>
<path id="Vector_39" d="M57.6176 44.8658L54.1099 42.9582V42.2197L57.6176 44.1274V44.8658Z" fill="white"/>
<path id="Vector_40" d="M57.8341 43.3888L54.3264 41.4888L54.1187 41.2734L57.6264 43.1811L57.8341 43.3888Z" fill="white"/>
<path id="Vector_41" d="M57.6176 44.1272L54.1099 42.2196L54.1175 41.2734L57.6253 43.1811L57.6176 44.1272Z" fill="white"/>
<path id="Vector_42" d="M58.225 43.6959L54.7251 41.7883C54.5783 41.7041 54.4415 41.6034 54.3174 41.4883L57.825 43.3959C57.9464 43.511 58.0806 43.6116 58.225 43.6959Z" fill="white"/>
<path id="Vector_43" d="M62.9872 33.7265L59.4795 31.8188C59.8388 31.3324 60.3747 31.0065 60.9719 30.9111L64.4795 32.8188C63.8823 32.9141 63.3465 33.2401 62.9872 33.7265Z" fill="white"/>
<path id="Vector_44" d="M54.1859 49.7728L50.6782 47.8651L54.1013 47.3882L57.609 49.2959L54.1859 49.7728Z" fill="var(--default-main-color)"/>
<path id="Vector_45" d="M61.7019 41.8188V50.2034C61.7024 50.7935 61.4977 51.3655 61.1231 51.8215C60.7485 52.2776 60.2271 52.5892 59.648 52.7034C59.3808 52.7408 59.1086 52.718 58.8514 52.6366C58.5942 52.5552 58.3585 52.4171 58.1615 52.2327C57.9645 52.0483 57.8114 51.8222 57.7132 51.5708C57.6151 51.3195 57.5744 51.0494 57.5942 50.7803V43.2035L57.802 43.4189C58.0016 43.6161 58.2449 43.7635 58.5122 43.849C58.7795 43.9346 59.0633 43.9559 59.3404 43.9112C59.9416 43.8158 60.4807 43.4868 60.8404 42.9958L61.7019 41.8188Z" fill="white"/>
<path id="Vector_46" d="M65.7026 19.2964L69.2104 21.204C69.6016 21.4045 69.9596 21.6639 70.2719 21.9733C70.4807 22.1598 70.6192 22.4123 70.6642 22.6886C70.615 22.9971 70.4789 23.2853 70.2719 23.5194L66.7642 21.6118C66.9711 21.3777 67.1072 21.0895 67.1565 20.7809C67.1124 20.506 66.9769 20.2541 66.7719 20.0656C66.4566 19.7564 66.0961 19.497 65.7026 19.2964Z" fill="white"/>
<path id="Vector_47" d="M59.3316 38.4265L55.8315 36.5188L59.4777 31.8188L62.9854 33.7265L59.3316 38.4265Z" fill="white"/>
<path id="Vector_48" d="M49.5786 47.6812C49.9128 47.8602 50.2965 47.9251 50.671 47.8659L54.1786 49.7735C53.8041 49.8327 53.4206 49.7679 53.0864 49.5889L49.5786 47.6812Z" fill="var(--default-main-color)"/>
<path id="Vector_49" d="M64.7109 18.8574L66.9263 20.0575L67.3724 20.3036L67.8109 20.5421C67.9508 20.6088 68.0869 20.6832 68.2186 20.7651L64.7109 18.8574Z" fill="#FE9025"/>
<path id="Vector_50" d="M54.1952 45.3421L50.6875 43.4421L54.1106 42.9575L57.6183 44.8652L54.1952 45.3421Z" fill="white"/>
<path id="Vector_51" d="M54.1952 44.612L50.6875 42.6966L54.1106 42.2197L57.6183 44.1274L54.1952 44.612Z" fill="var(--default-main-color)"/>
<path id="Vector_52" d="M53.0862 49.589L49.5784 47.6812C49.2765 47.5054 49.0282 47.2508 48.8602 46.9445C48.6921 46.6382 48.6107 46.292 48.6246 45.9429L52.1323 47.8505C52.1184 48.1996 52.1998 48.5459 52.3678 48.8521C52.5359 49.1584 52.7842 49.4132 53.0862 49.589Z" fill="white"/>
<path id="Vector_53" d="M52.1314 47.8186C52.1294 47.228 52.3335 46.6553 52.7084 46.199C53.0833 45.7427 53.6054 45.4313 54.1851 45.3186L57.6159 44.834V49.2647L54.1851 49.7416C53.9179 49.7791 53.6457 49.7563 53.3885 49.6749C53.1313 49.5934 52.8956 49.4554 52.6986 49.271C52.5017 49.0866 52.3485 48.8604 52.2503 48.6091C52.1522 48.3578 52.1115 48.0877 52.1314 47.8186Z" fill="white"/>
<path id="Vector_54" d="M52.1337 47.8188L48.626 45.9111C48.6259 45.3199 48.8315 44.747 49.2077 44.2909C49.5838 43.8347 50.1071 43.5237 50.6876 43.4111L54.1875 45.3188C53.6078 45.4315 53.0856 45.7429 52.7107 46.1992C52.3359 46.6555 52.1318 47.2282 52.1337 47.8188Z" fill="white"/>
<path id="Vector_55" d="M53.1014 44.4189L49.5938 42.5112C49.9269 42.6934 50.3108 42.761 50.6861 42.7035L54.1937 44.6112C53.8184 44.6686 53.4345 44.6011 53.1014 44.4189Z" fill="var(--default-main-color)"/>
<path id="Vector_56" d="M56.186 29.3582C59.6205 28.9217 62.9223 27.7574 65.8707 25.9429L69.3784 27.8505C66.4299 29.665 63.1282 30.8294 59.6938 31.2658L58.8476 30.812L57.9399 30.312L57.0323 29.8197L56.186 29.3582Z" fill="var(--default-main-color)"/>
<path id="Vector_57" d="M57.627 43.1806L54.1193 41.2729L51.0962 38.2114L54.6039 40.1191L57.627 43.1806Z" fill="white"/>
<path id="Vector_58" d="M54.2011 40.1729L50.6934 38.2653L51.0934 38.2114L54.601 40.1191L54.2011 40.1729Z" fill="white"/>
<path id="Vector_59" d="M53.1027 44.4194L49.595 42.5117C49.2905 42.3363 49.0398 42.0809 48.8703 41.773C48.7008 41.4652 48.6189 41.1167 48.6335 40.7656C48.6349 40.1747 48.8411 39.6027 49.217 39.1469C49.5929 38.691 50.1152 38.3795 50.695 38.2656L54.2027 40.1734C53.6229 40.2873 53.1005 40.5987 52.7246 41.0545C52.3487 41.5104 52.1425 42.0825 52.1411 42.6733C52.1283 43.0242 52.211 43.3719 52.3803 43.6795C52.5497 43.987 52.7993 44.2427 53.1027 44.4194Z" fill="white"/>
<path id="Vector_60" d="M54.202 40.1735L54.5943 40.1196L57.6174 43.1965V44.1426L54.1943 44.6273C53.9263 44.6622 53.6538 44.6371 53.3966 44.5537C53.1395 44.4704 52.9041 44.3308 52.7075 44.1453C52.5109 43.9597 52.358 43.7328 52.26 43.4809C52.1619 43.229 52.1211 42.9584 52.1404 42.6888C52.1382 42.0953 52.3428 41.5196 52.719 41.0606C53.0953 40.6016 53.6196 40.2879 54.202 40.1735Z" fill="white"/>
<path id="Vector_61" d="M59.3325 38.4263L55.8324 36.5187L52.2017 32.8418L55.7094 34.7495L59.3325 38.4263Z" fill="var(--default-main-color)"/>
<path id="Vector_62" d="M52.2023 32.843C52.0849 32.7233 51.95 32.6221 51.8022 32.543L55.3099 34.4506C55.4564 34.5317 55.5911 34.6327 55.7099 34.7506C54.5014 34.1898 53.3298 33.5526 52.2023 32.843Z" fill="var(--default-main-color)"/>
<path id="Vector_63" d="M54.6031 40.1189L51.0954 38.2113L49.2031 36.2959L52.7108 38.2036L54.6031 40.1189Z" fill="white"/>
<path id="Vector_64" d="M51.8027 32.5421L55.3103 34.4498C54.9744 34.2676 54.5882 34.2 54.2104 34.2575C53.6643 34.3373 53.1649 34.6102 52.8027 35.0267C52.4053 35.4487 52.1757 36.0014 52.1573 36.5808C52.1388 37.1602 52.3329 37.7264 52.7027 38.1728L49.2027 36.2651C48.8302 35.8204 48.6339 35.2545 48.6509 34.6746C48.6679 34.0947 48.8971 33.5412 49.295 33.1191C49.6571 32.7026 50.1565 32.4297 50.7026 32.3498C51.0805 32.2918 51.467 32.3594 51.8027 32.5421Z" fill="white"/>
<path id="Vector_65" d="M64.4803 32.8198C64.7299 32.7786 64.9856 32.793 65.229 32.8622C65.4723 32.9313 65.6973 33.0535 65.888 33.2199C66.2782 33.6324 66.5026 34.1745 66.5182 34.7421C66.5338 35.3098 66.3396 35.8633 65.9727 36.2967L64.0726 38.7505L61.7649 41.7813L60.8649 42.9351C60.5052 43.4261 59.966 43.7551 59.3649 43.8505C59.0878 43.8952 58.8041 43.8739 58.5368 43.7884C58.2695 43.7029 58.0261 43.5554 57.8264 43.3581L57.6187 43.1428L54.5957 40.0659L52.7034 38.1506C52.3335 37.7042 52.1395 37.1379 52.1579 36.5585C52.1764 35.9791 52.4059 35.4264 52.8034 35.0044C53.1656 34.5879 53.6649 34.315 54.2111 34.2352C54.4882 34.1873 54.7728 34.207 55.0407 34.2927C55.3085 34.3785 55.5517 34.5276 55.7495 34.7275L59.3726 38.4044L63.0264 33.7045C63.3807 33.2352 63.9007 32.9187 64.4803 32.8198Z" fill="white"/>
<path id="Vector_66" d="M64.7112 18.8581C65.0525 18.979 65.3842 19.1257 65.7034 19.2966L69.2112 21.2043C68.8919 21.0333 68.5602 20.8867 68.2188 20.7658L67.3727 20.3042L66.6958 19.935L64.7112 18.8581L68.2188 20.7658C65.4667 19.8986 62.5474 19.7008 59.7035 20.1888H59.665L56.165 18.2812C59.019 17.7897 61.9492 17.9875 64.7112 18.8581Z" fill="#FE9025"/>
<path id="Vector_67" d="M56.0479 18.3032H56.1633L59.6632 20.2109H59.5555L56.0479 18.3032Z" fill="#FE9025"/>
<path id="Vector_68" d="M46.5107 28.6729C49.6341 29.6766 52.9532 29.9141 56.1876 29.3652L59.6954 31.2728C56.4609 31.8221 53.1418 31.5846 50.0185 30.5805L46.5107 28.6729Z" fill="var(--default-main-color)"/>
<path id="Vector_69" d="M45.2246 28.0957C45.6387 28.318 46.068 28.5107 46.5093 28.6726L50.017 30.5803C49.5758 30.4184 49.1465 30.2256 48.7324 30.0034L45.2246 28.0957Z" fill="var(--default-main-color)"/>
<path id="Vector_70" d="M50.2016 27.2957L46.6938 25.3881C47.0121 25.5632 47.344 25.7125 47.6862 25.8343C50.4204 26.6981 53.3215 26.8959 56.1477 26.4112C59.1772 26.0387 62.0929 25.0267 64.7016 23.442C65.4894 22.9649 66.1871 22.3529 66.7631 21.6343L70.2708 23.5419C69.6948 24.2606 68.997 24.8725 68.2092 25.3497C65.5982 26.9353 62.6798 27.9475 59.6477 28.3189C56.8215 28.8045 53.9202 28.6066 51.1861 27.7419C50.8465 27.6197 50.5174 27.4705 50.2016 27.2957Z" fill="white"/>
<path id="Vector_71" d="M56.0475 18.3033C56.0704 18.2993 56.0938 18.2993 56.1167 18.3033H56.1859L59.5551 20.1418C56.5948 20.5275 53.7487 21.5312 51.2013 23.0878C50.4152 23.5673 49.7178 24.1788 49.1398 24.8955C48.9328 25.1296 48.7968 25.4178 48.7475 25.7263C48.7916 26.0012 48.9271 26.2532 49.1321 26.4416C49.4455 26.7531 49.8064 27.0127 50.2013 27.2109L46.6936 25.3032C46.3021 25.1033 45.944 24.8438 45.6321 24.534C45.4233 24.3475 45.2848 24.095 45.2397 23.8187C45.289 23.5101 45.4251 23.2219 45.6321 22.9878C46.2101 22.2711 46.9076 21.6596 47.6936 21.1802C50.2466 19.6479 53.0924 18.6679 56.0475 18.3033ZM51.0244 23.0571L50.8398 22.9571L50.6552 22.8571L50.4629 22.7571L50.2706 22.6494L50.0782 22.5417L49.8782 22.434L49.6782 22.3263L49.4782 22.2186L49.2705 22.1032L49.4705 22.2186L49.6782 22.3263L49.8782 22.434L50.0782 22.5417L50.2706 22.6494L50.4629 22.7571L50.6552 22.8571L50.8398 22.9571L51.0244 23.0571Z" fill="#FE9025"/>
<path id="Vector_72" d="M48.7343 30.0038L45.2265 28.0961C44.8715 27.9063 44.5343 27.6849 44.2189 27.4346C43.9876 27.2553 43.7715 27.0571 43.5728 26.8423C42.8998 26.1555 42.5193 25.2346 42.5112 24.2731C42.5531 23.2213 42.9304 22.2104 43.5881 21.3885C44.4021 20.3385 45.3973 19.4423 46.5266 18.7423C49.4751 16.9279 52.7768 15.7635 56.2112 15.3271C59.4461 14.7763 62.7662 15.0165 65.8881 16.0271C66.3342 16.1891 66.7687 16.3819 67.1882 16.604L70.6958 18.5116C70.2778 18.2864 69.8433 18.0935 69.3958 17.9347C66.2739 16.9242 62.9538 16.684 59.7189 17.2347C56.2845 17.6712 52.9827 18.8356 50.0342 20.6501C48.905 21.3501 47.9099 22.2462 47.0958 23.2962C46.4396 24.1195 46.06 25.129 46.0112 26.1808C46.0253 27.1425 46.408 28.0621 47.0804 28.7499C47.2792 28.9648 47.4952 29.1629 47.7266 29.3422C48.0419 29.5925 48.3792 29.8139 48.7343 30.0038Z" fill="#D4D4D4"/>
<g id="Vector_73">
<mask id="path-74-inside-1_1079_13059" fill="white">
<path d="M78.9857 42.1347C81.1704 48.4577 76.3088 55.5346 69.755 56.4576L48.878 59.3961C42.3165 60.3191 37.478 54.6269 39.6472 47.7039C41.6113 41.2896 44.3195 35.1272 47.7165 29.3426C48.4145 29.8761 49.1936 30.2942 50.0242 30.581C53.1475 31.5851 56.4667 31.8226 59.7011 31.2733C63.1356 30.8369 66.4373 29.6725 69.3858 27.858C70.0549 27.4295 70.6833 26.9403 71.2627 26.3965C74.6935 31.2118 77.2165 37.0502 78.9857 42.1347ZM64.4703 38.7271L64.0703 38.7886L65.9704 36.3348C66.3374 35.9014 66.5316 35.3479 66.516 34.7802C66.5004 34.2125 66.2759 33.6705 65.8857 33.2579C65.6951 33.0915 65.4701 32.9695 65.2267 32.9003C64.9833 32.8312 64.7277 32.8167 64.478 32.858C63.8809 32.9533 63.3451 33.2792 62.9858 33.7656L59.3319 38.4655L55.7088 34.7887C55.511 34.5888 55.2678 34.4397 54.9999 34.354C54.7321 34.2683 54.4475 34.2485 54.1703 34.2964C53.6242 34.3762 53.1248 34.6491 52.7627 35.0656C52.3652 35.4876 52.1357 36.0403 52.1173 36.6198C52.0989 37.1992 52.2928 37.7653 52.6627 38.2117L54.5549 40.1271L54.1626 40.1809C53.5828 40.2948 53.0605 40.6063 52.6846 41.0621C52.3087 41.518 52.1025 42.09 52.1011 42.6808C52.0818 42.9505 52.1226 43.2211 52.2207 43.473C52.3187 43.7249 52.4716 43.9518 52.6682 44.1373C52.8648 44.3229 53.1002 44.4624 53.3573 44.5458C53.6145 44.6291 53.8869 44.6542 54.1549 44.6193L57.5781 44.1347V44.9039L54.1473 45.3885C53.5676 45.5013 53.0453 45.8126 52.6705 46.2689C52.2956 46.7252 52.0915 47.2979 52.0934 47.8885C52.0738 48.1568 52.1143 48.4262 52.212 48.6769C52.3098 48.9276 52.4623 49.1533 52.6583 49.3375C52.8544 49.5218 53.0891 49.66 53.3453 49.742C53.6016 49.824 53.873 49.8478 54.1396 49.8115L57.5704 49.3346V50.8193C57.5505 51.0884 57.5912 51.3585 57.6893 51.6098C57.7875 51.8611 57.9407 52.0873 58.1376 52.2717C58.3346 52.4561 58.5704 52.5941 58.8276 52.6756C59.0848 52.757 59.357 52.7798 59.6242 52.7423C60.2033 52.6282 60.7246 52.3165 61.0992 51.8605C61.4739 51.4045 61.6785 50.8325 61.678 50.2424V48.7577L64.4242 48.3731C65.0039 48.2574 65.5254 47.9442 65.9 47.4869C66.2745 47.0296 66.4788 46.4565 66.478 45.8654C66.4977 45.5971 66.4572 45.3277 66.3594 45.0771C66.2617 44.8264 66.1093 44.6007 65.9132 44.4164C65.7172 44.2321 65.4824 44.094 65.2262 44.012C64.9699 43.93 64.6986 43.9062 64.4319 43.9424L61.6857 44.327V43.5578L64.4319 43.1732C65.0116 43.0574 65.5331 42.7442 65.9077 42.2869C66.2822 41.8296 66.4865 41.2566 66.4857 40.6655C66.5051 40.3969 66.4645 40.1273 66.3669 39.8764C66.2692 39.6254 66.1169 39.3993 65.921 39.2145C65.7251 39.0296 65.4905 38.8907 65.2343 38.8077C64.9781 38.7247 64.7067 38.6998 64.4396 38.7347"/>
</mask>
<path d="M78.9857 42.1347C81.1704 48.4577 76.3088 55.5346 69.755 56.4576L48.878 59.3961C42.3165 60.3191 37.478 54.6269 39.6472 47.7039C41.6113 41.2896 44.3195 35.1272 47.7165 29.3426C48.4145 29.8761 49.1936 30.2942 50.0242 30.581C53.1475 31.5851 56.4667 31.8226 59.7011 31.2733C63.1356 30.8369 66.4373 29.6725 69.3858 27.858C70.0549 27.4295 70.6833 26.9403 71.2627 26.3965C74.6935 31.2118 77.2165 37.0502 78.9857 42.1347ZM64.4703 38.7271L64.0703 38.7886L65.9704 36.3348C66.3374 35.9014 66.5316 35.3479 66.516 34.7802C66.5004 34.2125 66.2759 33.6705 65.8857 33.2579C65.6951 33.0915 65.4701 32.9695 65.2267 32.9003C64.9833 32.8312 64.7277 32.8167 64.478 32.858C63.8809 32.9533 63.3451 33.2792 62.9858 33.7656L59.3319 38.4655L55.7088 34.7887C55.511 34.5888 55.2678 34.4397 54.9999 34.354C54.7321 34.2683 54.4475 34.2485 54.1703 34.2964C53.6242 34.3762 53.1248 34.6491 52.7627 35.0656C52.3652 35.4876 52.1357 36.0403 52.1173 36.6198C52.0989 37.1992 52.2928 37.7653 52.6627 38.2117L54.5549 40.1271L54.1626 40.1809C53.5828 40.2948 53.0605 40.6063 52.6846 41.0621C52.3087 41.518 52.1025 42.09 52.1011 42.6808C52.0818 42.9505 52.1226 43.2211 52.2207 43.473C52.3187 43.7249 52.4716 43.9518 52.6682 44.1373C52.8648 44.3229 53.1002 44.4624 53.3573 44.5458C53.6145 44.6291 53.8869 44.6542 54.1549 44.6193L57.5781 44.1347V44.9039L54.1473 45.3885C53.5676 45.5013 53.0453 45.8126 52.6705 46.2689C52.2956 46.7252 52.0915 47.2979 52.0934 47.8885C52.0738 48.1568 52.1143 48.4262 52.212 48.6769C52.3098 48.9276 52.4623 49.1533 52.6583 49.3375C52.8544 49.5218 53.0891 49.66 53.3453 49.742C53.6016 49.824 53.873 49.8478 54.1396 49.8115L57.5704 49.3346V50.8193C57.5505 51.0884 57.5912 51.3585 57.6893 51.6098C57.7875 51.8611 57.9407 52.0873 58.1376 52.2717C58.3346 52.4561 58.5704 52.5941 58.8276 52.6756C59.0848 52.757 59.357 52.7798 59.6242 52.7423C60.2033 52.6282 60.7246 52.3165 61.0992 51.8605C61.4739 51.4045 61.6785 50.8325 61.678 50.2424V48.7577L64.4242 48.3731C65.0039 48.2574 65.5254 47.9442 65.9 47.4869C66.2745 47.0296 66.4788 46.4565 66.478 45.8654C66.4977 45.5971 66.4572 45.3277 66.3594 45.0771C66.2617 44.8264 66.1093 44.6007 65.9132 44.4164C65.7172 44.2321 65.4824 44.094 65.2262 44.012C64.9699 43.93 64.6986 43.9062 64.4319 43.9424L61.6857 44.327V43.5578L64.4319 43.1732C65.0116 43.0574 65.5331 42.7442 65.9077 42.2869C66.2822 41.8296 66.4865 41.2566 66.4857 40.6655C66.5051 40.3969 66.4645 40.1273 66.3669 39.8764C66.2692 39.6254 66.1169 39.3993 65.921 39.2145C65.7251 39.0296 65.4905 38.8907 65.2343 38.8077C64.9781 38.7247 64.7067 38.6998 64.4396 38.7347" fill="var(--default-main-color)"/>
<path d="M78.9857 42.1347L79.5528 41.9388L79.5524 41.9376L78.9857 42.1347ZM69.755 56.4576L69.8386 57.0518L69.8386 57.0517L69.755 56.4576ZM48.878 59.3961L48.9616 59.9902L48.9616 59.9902L48.878 59.3961ZM39.6472 47.7039L40.2198 47.8833L40.2209 47.8795L39.6472 47.7039ZM47.7165 29.3426L48.0808 28.8659L47.5423 28.4543L47.1991 29.0387L47.7165 29.3426ZM50.0242 30.581L49.8283 31.1483L49.8405 31.1522L50.0242 30.581ZM59.7011 31.2733L59.6255 30.6781L59.6131 30.6797L59.6007 30.6818L59.7011 31.2733ZM69.3858 27.858L69.7003 28.3691L69.7093 28.3633L69.3858 27.858ZM71.2627 26.3965L71.7514 26.0483L71.3529 25.4891L70.8521 25.959L71.2627 26.3965ZM64.0703 38.7886L63.5959 38.4213L62.6754 39.6101L64.1615 39.3816L64.0703 38.7886ZM65.9704 36.3348L65.5125 35.9471L65.504 35.9571L65.496 35.9674L65.9704 36.3348ZM65.8857 33.2579L66.3216 32.8456L66.3019 32.8247L66.2802 32.8058L65.8857 33.2579ZM64.478 32.858L64.5727 33.4504L64.5759 33.4499L64.478 32.858ZM62.9858 33.7656L63.4595 34.1338L63.464 34.128L63.4684 34.1221L62.9858 33.7656ZM59.3319 38.4655L58.9046 38.8866L59.3853 39.3745L59.8056 38.8338L59.3319 38.4655ZM55.7088 34.7887L56.1361 34.3676L56.1352 34.3667L55.7088 34.7887ZM54.9999 34.354L55.1828 33.7825L54.9999 34.354ZM54.1703 34.2964L54.2571 34.8901L54.2648 34.8889L54.2725 34.8876L54.1703 34.2964ZM52.7627 35.0656L53.1994 35.477L53.2076 35.4683L53.2154 35.4593L52.7627 35.0656ZM52.6627 38.2117L52.2007 38.5945L52.2174 38.6147L52.2358 38.6334L52.6627 38.2117ZM54.5549 40.1271L54.6365 40.7215L55.8246 40.5585L54.9818 39.7054L54.5549 40.1271ZM54.1626 40.1809L54.0811 39.5865L54.064 39.5888L54.047 39.5921L54.1626 40.1809ZM52.1011 42.6808L52.6996 42.7238L52.7011 42.7031L52.7011 42.6822L52.1011 42.6808ZM54.1549 44.6193L54.2324 45.2143L54.239 45.2134L54.1549 44.6193ZM57.5781 44.1347H58.178V43.4438L57.494 43.5406L57.5781 44.1347ZM57.5781 44.9039L57.662 45.498L58.178 45.4251V44.9039H57.5781ZM54.1473 45.3885L54.0634 44.7944L54.048 44.7966L54.0328 44.7996L54.1473 45.3885ZM52.0934 47.8885L52.6918 47.9322L52.6935 47.9094L52.6934 47.8865L52.0934 47.8885ZM54.1396 49.8115L54.2204 50.4061L54.2222 50.4058L54.1396 49.8115ZM57.5704 49.3346H58.1703V48.6455L57.4878 48.7404L57.5704 49.3346ZM57.5704 50.8193L58.1687 50.8634L58.1703 50.8414V50.8193H57.5704ZM59.6242 52.7423L59.7076 53.3365L59.724 53.3342L59.7403 53.331L59.6242 52.7423ZM61.678 50.2424H61.0781L61.0781 50.2428L61.678 50.2424ZM61.678 48.7577L61.5948 48.1635L61.0781 48.2359V48.7577H61.678ZM64.4242 48.3731L64.5075 48.9673L64.5247 48.9649L64.5417 48.9615L64.4242 48.3731ZM66.478 45.8654L65.8797 45.8217L65.878 45.8439L65.8781 45.8662L66.478 45.8654ZM64.4319 43.9424L64.3512 43.3479L64.3487 43.3482L64.4319 43.9424ZM61.6857 44.327H61.0858V45.0169L61.7689 44.9212L61.6857 44.327ZM61.6857 43.5578L61.6025 42.9636L61.0858 43.036V43.5578H61.6857ZM64.4319 43.1732L64.5152 43.7673L64.5324 43.7649L64.5494 43.7615L64.4319 43.1732ZM66.4857 40.6655L65.8873 40.6223L65.8857 40.6442L65.8858 40.6663L66.4857 40.6655ZM78.4187 42.3307C80.4665 48.2579 75.8933 54.9872 69.6713 55.8635L69.8386 57.0517C76.7243 56.0819 81.8742 48.6576 79.5528 41.9388L78.4187 42.3307ZM69.6713 55.8635L48.7944 58.8019L48.9616 59.9902L69.8386 57.0518L69.6713 55.8635ZM48.7944 58.8019C45.7122 59.2355 43.0748 58.1163 41.455 56.1148C39.8348 54.1129 39.1892 51.1723 40.2198 47.8833L39.0747 47.5245C37.936 51.1585 38.625 54.5255 40.5222 56.8697C42.4197 59.2143 45.4822 60.4797 48.9616 59.9902L48.7944 58.8019ZM40.2209 47.8795C42.1713 41.51 44.8605 35.3906 48.2338 29.6464L47.1991 29.0387C43.7784 34.8637 41.0513 41.0691 39.0735 47.5282L40.2209 47.8795ZM47.3521 29.8193C48.1011 30.3918 48.9372 30.8404 49.8283 31.1481L50.22 30.0139C49.4501 29.7481 48.7279 29.3605 48.0808 28.8659L47.3521 29.8193ZM49.8405 31.1522C53.0555 32.1857 56.4722 32.4302 59.8016 31.8648L59.6007 30.6818C56.4612 31.2149 53.2394 30.9844 50.2078 30.0098L49.8405 31.1522ZM59.7768 31.8685C63.2959 31.4213 66.679 30.2282 69.7002 28.369L69.0713 27.3471C66.1956 29.1168 62.9753 30.2524 59.6255 30.6781L59.7768 31.8685ZM69.7093 28.3633C70.4095 27.9149 71.067 27.403 71.6733 26.834L70.8521 25.959C70.2996 26.4775 69.7004 26.9441 69.0622 27.3528L69.7093 28.3633ZM70.7741 26.7446C74.1579 31.4941 76.6586 37.2725 78.4191 42.3319L79.5524 41.9376C77.7744 36.8279 75.2291 30.9296 71.7514 26.0483L70.7741 26.7446ZM64.3792 38.1341L63.9792 38.1956L64.1615 39.3816L64.5615 39.3201L64.3792 38.1341ZM64.5447 39.156L66.4448 36.7021L65.496 35.9674L63.5959 38.4213L64.5447 39.156ZM66.4283 36.7225C66.8907 36.1763 67.1354 35.4789 67.1157 34.7637L65.9162 34.7967C65.9278 35.2168 65.784 35.6264 65.5125 35.9471L66.4283 36.7225ZM67.1157 34.7637C67.0961 34.0484 66.8133 33.3655 66.3216 32.8456L65.4498 33.6702C65.7386 33.9755 65.9047 34.3766 65.9162 34.7967L67.1157 34.7637ZM66.2802 32.8058C66.0229 32.5813 65.7191 32.4165 65.3907 32.3232L65.0627 33.4774C65.221 33.5224 65.3673 33.6018 65.4912 33.7099L66.2802 32.8058ZM65.3907 32.3232C65.0622 32.2298 64.7171 32.2103 64.3802 32.266L64.5759 33.4499C64.7382 33.4231 64.9045 33.4325 65.0627 33.4774L65.3907 32.3232ZM64.3834 32.2655C63.6311 32.3856 62.9559 32.7962 62.5032 33.4091L63.4684 34.1221C63.7342 33.7622 64.1307 33.521 64.5727 33.4504L64.3834 32.2655ZM62.5121 33.3973L58.8583 38.0973L59.8056 38.8338L63.4595 34.1338L62.5121 33.3973ZM59.7593 38.0444L56.1361 34.3676L55.2814 35.2098L58.9046 38.8866L59.7593 38.0444ZM56.1352 34.3667C55.8694 34.0981 55.5427 33.8977 55.1828 33.7825L54.8171 34.9254C54.9929 34.9817 55.1525 35.0795 55.2824 35.2108L56.1352 34.3667ZM55.1828 33.7825C54.8229 33.6674 54.4405 33.6408 54.0681 33.7052L54.2725 34.8876C54.4544 34.8562 54.6413 34.8691 54.8171 34.9254L55.1828 33.7825ZM54.0836 33.7027C53.3954 33.8033 52.7662 34.1472 52.3099 34.6719L53.2154 35.4593C53.4834 35.1511 53.853 34.9491 54.2571 34.8901L54.0836 33.7027ZM52.3259 34.6543C51.8281 35.1828 51.5407 35.875 51.5176 36.6007L52.717 36.6388C52.7307 36.2056 52.9023 35.7925 53.1994 35.477L52.3259 34.6543ZM51.5176 36.6007C51.4945 37.3263 51.7374 38.0354 52.2007 38.5945L53.1247 37.8289C52.8482 37.4952 52.7032 37.072 52.717 36.6388L51.5176 36.6007ZM52.2358 38.6334L54.1281 40.5487L54.9818 39.7054L53.0895 37.79L52.2358 38.6334ZM54.4734 39.5327L54.0811 39.5865L54.2441 40.7753L54.6365 40.7215L54.4734 39.5327ZM54.047 39.5921C53.3309 39.7328 52.6859 40.1175 52.2217 40.6804L53.1475 41.4438C53.4352 41.095 53.8348 40.8567 54.2783 40.7696L54.047 39.5921ZM52.2217 40.6804C51.7575 41.2433 51.5029 41.9498 51.5012 42.6794L52.7011 42.6822C52.7022 42.2302 52.8599 41.7926 53.1475 41.4438L52.2217 40.6804ZM51.5027 42.6378C51.477 42.9962 51.5312 43.3559 51.6616 43.6907L52.7798 43.2553C52.714 43.0863 52.6866 42.9047 52.6996 42.7238L51.5027 42.6378ZM51.6616 43.6907C51.7919 44.0255 51.9951 44.3271 52.2564 44.5736L53.08 43.701C52.9481 43.5765 52.8456 43.4243 52.7798 43.2553L51.6616 43.6907ZM52.2564 44.5736C52.5176 44.8202 52.8305 45.0057 53.1723 45.1165L53.5424 43.975C53.3699 43.9191 53.212 43.8255 53.08 43.701L52.2564 44.5736ZM53.1723 45.1165C53.5142 45.2273 53.8762 45.2606 54.2324 45.2143L54.0774 44.0243C53.8975 44.0478 53.7148 44.0309 53.5424 43.975L53.1723 45.1165ZM54.239 45.2134L57.6622 44.7287L57.494 43.5406L54.0708 44.0252L54.239 45.2134ZM56.9781 44.1347V44.9039H58.178V44.1347H56.9781ZM57.4941 44.3098L54.0634 44.7944L54.2312 45.9826L57.662 45.498L57.4941 44.3098ZM54.0328 44.7996C53.3161 44.939 52.6703 45.3239 52.2069 45.8881L53.134 46.6498C53.4203 46.3013 53.8192 46.0636 54.2619 45.9775L54.0328 44.7996ZM52.2069 45.8881C51.7434 46.4522 51.4911 47.1603 51.4935 47.8904L52.6934 47.8865C52.692 47.4356 52.8478 46.9982 53.134 46.6498L52.2069 45.8881ZM51.4951 47.8447C51.4689 48.2021 51.5228 48.5608 51.653 48.8948L52.771 48.459C52.7058 48.2915 52.6787 48.1116 52.6918 47.9322L51.4951 47.8447ZM51.653 48.8948C51.7832 49.2288 51.9864 49.5294 52.2474 49.7747L53.0692 48.9003C52.9382 48.7772 52.8363 48.6264 52.771 48.459L51.653 48.8948ZM52.2474 49.7747C52.5086 50.0201 52.8211 50.2042 53.1625 50.3134L53.5282 49.1705C53.357 49.1158 53.2002 49.0235 53.0692 48.9003L52.2474 49.7747ZM53.1625 50.3134C53.5038 50.4226 53.8652 50.4543 54.2204 50.4061L54.0589 49.217C53.8808 49.2412 53.6994 49.2253 53.5282 49.1705L53.1625 50.3134ZM54.2222 50.4058L57.653 49.9289L57.4878 48.7404L54.057 49.2173L54.2222 50.4058ZM56.9704 49.3346V50.8193H58.1703V49.3346H56.9704ZM56.972 50.7752C56.9456 51.1336 56.9997 51.4933 57.1305 51.8281L58.2482 51.3915C58.1826 51.2236 58.1555 51.0432 58.1687 50.8634L56.972 50.7752ZM57.1305 51.8281C57.2612 52.1628 57.4652 52.464 57.7275 52.7097L58.5477 51.8337C58.4161 51.7105 58.3138 51.5594 58.2482 51.3915L57.1305 51.8281ZM57.7275 52.7097C57.9899 52.9553 58.3039 53.1391 58.6465 53.2476L59.0087 52.1036C58.8368 52.0492 58.6793 51.9569 58.5477 51.8337L57.7275 52.7097ZM58.6465 53.2476C58.9892 53.356 59.3517 53.3864 59.7076 53.3365L59.5409 52.1482C59.3624 52.1732 59.1805 52.158 59.0087 52.1036L58.6465 53.2476ZM59.7403 53.331C60.4557 53.19 61.0999 52.8048 61.5628 52.2414L60.6356 51.4797C60.3493 51.8282 59.9508 52.0664 59.5082 52.1537L59.7403 53.331ZM61.5628 52.2414C62.0257 51.6779 62.2786 50.9711 62.278 50.2419L61.0781 50.2428C61.0784 50.6939 60.922 51.1311 60.6356 51.4797L61.5628 52.2414ZM62.278 50.2424V48.7577H61.0781V50.2424H62.278ZM61.7612 49.3519L64.5075 48.9673L64.341 47.7789L61.5948 48.1635L61.7612 49.3519ZM64.5417 48.9615C65.2575 48.8186 65.9016 48.4318 66.3641 47.8671L65.4358 47.1067C65.1493 47.4566 64.7503 47.6962 64.3068 47.7847L64.5417 48.9615ZM66.3641 47.8671C66.8267 47.3023 67.0789 46.5946 67.078 45.8647L65.8781 45.8662C65.8786 46.3185 65.7223 46.7569 65.4358 47.1067L66.3641 47.8671ZM67.0764 45.9092C67.1025 45.5518 67.0486 45.1931 66.9184 44.8591L65.8004 45.295C65.8657 45.4624 65.8928 45.6423 65.8797 45.8217L67.0764 45.9092ZM66.9184 44.8591C66.7883 44.5253 66.5853 44.2246 66.3241 43.9792L65.5023 44.8536C65.6333 44.9767 65.7351 45.1275 65.8004 45.295L66.9184 44.8591ZM66.3241 43.9792C66.0629 43.7337 65.7503 43.5497 65.409 43.4405L65.0433 44.5834C65.2145 44.6382 65.3714 44.7305 65.5023 44.8536L66.3241 43.9792ZM65.409 43.4405C65.0677 43.3313 64.7063 43.2996 64.3512 43.3479L64.5127 44.5369C64.6908 44.5127 64.8721 44.5286 65.0433 44.5834L65.409 43.4405ZM64.3487 43.3482L61.6025 43.7328L61.7689 44.9212L64.5152 44.5366L64.3487 43.3482ZM62.2857 44.327V43.5578H61.0858V44.327H62.2857ZM61.7689 44.152L64.5152 43.7673L64.3487 42.579L61.6025 42.9636L61.7689 44.152ZM64.5494 43.7615C65.2652 43.6186 65.9093 43.2318 66.3718 42.6671L65.4435 41.9068C65.157 42.2566 64.758 42.4963 64.3145 42.5848L64.5494 43.7615ZM66.3718 42.6671C66.8344 42.1024 67.0866 41.3947 67.0857 40.6647L65.8858 40.6663C65.8863 41.1185 65.73 41.5569 65.4435 41.9068L66.3718 42.6671ZM67.0842 40.7087C67.11 40.3513 67.056 39.9927 66.926 39.6587L65.8077 40.094C65.8731 40.262 65.9003 40.4424 65.8873 40.6223L67.0842 40.7087ZM66.926 39.6587C66.796 39.3248 66.5934 39.024 66.3328 38.7781L65.5093 39.6508C65.6404 39.7746 65.7423 39.9259 65.8077 40.094L66.926 39.6587ZM66.3328 38.7781C66.0722 38.5322 65.7601 38.3473 65.4192 38.2369L65.0495 39.3785C65.221 39.434 65.3781 39.5271 65.5093 39.6508L66.3328 38.7781ZM65.4192 38.2369C65.0783 38.1265 64.7171 38.0933 64.3618 38.1398L64.5175 39.3296C64.6962 39.3063 64.8779 39.3229 65.0495 39.3785L65.4192 38.2369Z" fill="url(#paint8_linear_1079_13059)" fill-opacity="0.6" mask="url(#path-74-inside-1_1079_13059)"/>
</g>
<path id="Vector_74" d="M36.1561 45.7959C38.114 39.3805 40.8198 33.2177 44.2177 27.4346L47.7253 29.3422C44.3283 35.1268 41.6201 41.2892 39.6561 47.7035C38.1176 52.4573 39.9561 56.6265 43.3561 58.4726L39.8484 56.565C36.4484 54.7419 34.6407 50.5497 36.1561 45.7959Z" fill="var(--default-main-color)"/>
<path id="Vector_75" d="M36.1561 45.7959C38.114 39.3805 40.8198 33.2177 44.2177 27.4346L47.7253 29.3422C44.3283 35.1268 41.6201 41.2892 39.6561 47.7035C38.1176 52.4573 39.9561 56.6265 43.3561 58.4726L39.8484 56.565C36.4484 54.7419 34.6407 50.5497 36.1561 45.7959Z" fill="black" fill-opacity="0.1"/>
<path id="Vector_76" d="M59.663 20.1968C62.5189 19.7024 65.4516 19.8976 68.2169 20.766C68.9884 21.0098 69.6919 21.4315 70.2708 21.9968C70.4796 22.1833 70.618 22.4358 70.6631 22.7121C70.6138 23.0207 70.4777 23.3088 70.2708 23.5429C69.6948 24.2615 68.9969 24.8735 68.2092 25.3506C65.6285 26.9222 62.7451 27.9313 59.7476 28.3121C56.8943 28.8061 53.9641 28.6109 51.2015 27.7429C50.4311 27.4916 49.7267 27.071 49.14 26.5121C48.935 26.3237 48.7995 26.0716 48.7554 25.7967C48.8046 25.4882 48.9407 25.2001 49.1477 24.966C49.7257 24.2493 50.4231 23.6377 51.2092 23.1582C53.7876 21.5877 56.6682 20.5785 59.663 20.1968Z" fill="#FE9025"/>
<path id="Vector_77" d="M72.3321 19.7506C73.0056 20.4402 73.386 21.3637 73.3937 22.3275C73.3513 23.3769 72.9739 24.3851 72.3168 25.2044C72.004 25.6365 71.6483 26.036 71.2553 26.3967C70.6759 26.9405 70.0475 27.4297 69.3783 27.8583C66.4299 29.6727 63.1281 30.8371 59.6937 31.2735C56.4593 31.8228 53.1401 31.5853 50.0168 30.5812C49.1863 30.2945 48.4072 29.8764 47.7091 29.3428C47.4778 29.1635 47.2616 28.9653 47.0629 28.7505C46.3905 28.0627 46.0077 27.1431 45.9937 26.1813C46.0425 25.1296 46.4221 24.1201 47.0783 23.2967C47.8924 22.2467 48.8875 21.3506 50.0168 20.6506C52.9653 18.8362 56.267 17.6717 59.7014 17.2353C62.9363 16.6845 66.2564 16.9247 69.3783 17.9353C70.4942 18.295 71.5072 18.9175 72.3321 19.7506ZM70.2707 23.5428C70.4776 23.3088 70.6137 23.0206 70.663 22.7121C70.6179 22.4358 70.4794 22.1833 70.2707 21.9968C69.6918 21.4314 68.9883 21.0098 68.2168 20.766C65.4825 19.9028 62.5822 19.7024 59.7552 20.1813C56.7259 20.5594 53.8108 21.5739 51.2014 23.1582C50.4153 23.6377 49.7179 24.2493 49.1399 24.966C48.9329 25.2 48.7968 25.4882 48.7476 25.7967C48.7917 26.0716 48.9272 26.3237 49.1322 26.5121C49.7189 27.071 50.4233 27.4915 51.1937 27.7428C53.9277 28.6075 56.8291 28.8054 59.6552 28.3198C62.6873 27.9484 65.6058 26.9362 68.2168 25.3506C69.0045 24.8734 69.7024 24.2615 70.2784 23.5428" fill="white"/>
</g>
</g>
</g>
<defs>
<filter id="filter0_f_1079_13059" x="1" y="24.5" width="115" height="106" filterUnits="userSpaceOnUse" color-interpolation-filters="sRGB">
<feFlood flood-opacity="0" result="BackgroundImageFix"/>
<feBlend mode="normal" in="SourceGraphic" in2="BackgroundImageFix" result="shape"/>
<feGaussianBlur stdDeviation="21" result="effect1_foregroundBlur_1079_13059"/>
</filter>
<linearGradient id="paint0_linear_1079_13059" x1="62.9803" y1="82.8841" x2="104.219" y2="82.8841" gradientUnits="userSpaceOnUse">
<stop stop-color="white"/>
<stop offset="1" stop-color="var(--default-main-color)"/>
</linearGradient>
<linearGradient id="paint1_linear_1079_13059" x1="16.0077" y1="82.8702" x2="57.5307" y2="82.8702" gradientUnits="userSpaceOnUse">
<stop stop-color="var(--default-main-color)"/>
<stop offset="1" stop-color="white"/>
</linearGradient>
<linearGradient id="paint2_linear_1079_13059" x1="60.2381" y1="89.4742" x2="60.2381" y2="49.4742" gradientUnits="userSpaceOnUse">
<stop stop-color="white" stop-opacity="0"/>
<stop offset="1" stop-color="var(--default-main-color)"/>
</linearGradient>
<linearGradient id="paint3_linear_1079_13059" x1="60.2381" y1="89.4742" x2="60.2381" y2="49.4742" gradientUnits="userSpaceOnUse">
<stop stop-color="white" stop-opacity="0"/>
<stop offset="1" stop-color="white" stop-opacity="0.3"/>
</linearGradient>
<linearGradient id="paint4_linear_1079_13059" x1="60.2464" y1="107.547" x2="60.2464" y2="3.91215" gradientUnits="userSpaceOnUse">
<stop stop-color="var(--default-main-color)"/>
<stop offset="1" stop-color="white" stop-opacity="0"/>
</linearGradient>
<linearGradient id="paint5_linear_1079_13059" x1="60.2464" y1="107.547" x2="60.2464" y2="3.91215" gradientUnits="userSpaceOnUse">
<stop stop-color="white" stop-opacity="0.8"/>
<stop offset="1" stop-color="white" stop-opacity="0"/>
</linearGradient>
<linearGradient id="paint6_linear_1079_13059" x1="60.1" y1="41.5918" x2="60.1" y2="80.7572" gradientUnits="userSpaceOnUse">
<stop stop-color="white" stop-opacity="0"/>
<stop offset="1" stop-color="white"/>
</linearGradient>
<linearGradient id="paint7_linear_1079_13059" x1="60.1" y1="33.8994" x2="60.1" y2="73.0648" gradientUnits="userSpaceOnUse">
<stop stop-color="white" stop-opacity="0"/>
<stop offset="1" stop-color="white"/>
</linearGradient>
<linearGradient id="paint8_linear_1079_13059" x1="59.3189" y1="26.3965" x2="59.3189" y2="59.4946" gradientUnits="userSpaceOnUse">
<stop stop-color="white"/>
<stop offset="1" stop-color="white" stop-opacity="0"/>
</linearGradient>
<clipPath id="clip0_1079_13059">
<rect width="120" height="120" fill="white" transform="translate(0 0.5)"/>
</clipPath>
</defs>
</svg>
