<svg width="22" height="22" viewBox="0 0 22 22" fill="none" xmlns="http://www.w3.org/2000/svg">
<g id="Frame">
<path id="Vector 25" d="M5.31818 6.63637H10.7273" stroke="#333333" stroke-width="1.8" stroke-linecap="round"/>
<path id="Vector 26" d="M5.31819 9.72725H10.7273" stroke="#333333" stroke-width="1.8" stroke-linecap="round"/>
<path id="Vector 27" d="M5.31819 12.8182H10.7273" stroke="#333333" stroke-width="1.8" stroke-linecap="round"/>
<path id="Vector 116" d="M3 18.8V2.2C3 2.08954 3.08954 2 3.2 2H12.8C12.9105 2 13 2.08954 13 2.2V8.8C13 8.91046 13.0895 9 13.2 9H19.8C19.9105 9 20 9.08954 20 9.2V18.8C20 18.9105 19.9105 19 19.8 19H3.2C3.08954 19 3 18.9105 3 18.8Z" stroke="#333333" stroke-width="1.8"/>
<path id="Vector 117" d="M12.1817 15.6971L14.8285 11.2858C14.9062 11.1564 15.0938 11.1564 15.1715 11.2858L17.8183 15.6971C17.8982 15.8304 17.8022 16 17.6468 16H12.3532C12.1978 16 12.1018 15.8304 12.1817 15.6971Z" stroke="#333333" stroke-width="1.8"/>
<g id="Group 579">
<path id="Vector 118" d="M13.8 16V19" stroke="#333333" stroke-width="1.8"/>
<path id="Vector 119" d="M16.3 16V19" stroke="#333333" stroke-width="1.8"/>
</g>
</g>
</svg>