
<svg width="110" height="110" viewBox="0 0 110 110" fill="none" xmlns="http://www.w3.org/2000/svg">
<path d="M68 44.5001C96.5 25.0002 115.5 70 83 77.0001C62 80 58.5 55.0002 38.5 44.5001" stroke="var(--default-main-color)" stroke-width="12" stroke-linecap="round"/>
<circle cx="31" cy="64" r="14" fill="white" stroke="var(--default-main-color)" stroke-width="28"/>
<path d="M56.1246 19.25C65.6984 19.25 75.0441 25.7028 81.622 37.5431C82.4267 38.9915 81.9048 40.8179 80.4565 41.6225C79.0081 42.4272 77.1817 41.9053 76.3771 40.457C70.4447 29.7786 62.7847 25.25 56.1245 25.25C49.546 25.25 42.6773 29.6783 38.2436 39.7124C37.574 41.228 35.8026 41.9137 34.2871 41.244C32.7716 40.5744 32.0859 38.803 32.7555 37.2875C37.8336 25.7949 46.4763 19.25 56.1246 19.25Z" fill="#338F7A" stroke="#338F7A" stroke-width="6" stroke-linecap="round"/>
<path fill-rule="evenodd" clip-rule="evenodd" d="M34.0586 41.4253C34.324 41.6336 34.5247 41.9131 34.6373 42.2311C34.9876 43.2317 35.3016 44.2446 35.5786 45.2678C35.6547 45.5545 35.8014 45.8176 36.0053 46.0331C36.2092 46.2486 36.4638 46.4095 36.7459 46.5013C37.5773 46.7769 38.3873 47.1133 39.1694 47.5079C39.4341 47.6427 39.7285 47.7091 40.0255 47.7009C40.3225 47.6927 40.6127 47.6102 40.8696 47.4611C41.7877 46.9312 42.7259 46.4369 43.6821 45.9795C43.9862 45.8344 44.3253 45.7787 44.6598 45.819C44.9944 45.8594 45.3105 45.994 45.5714 46.2073C46.6654 47.1146 47.6732 48.1211 48.5819 49.214C48.7955 49.4753 48.9303 49.7919 48.9707 50.1269C49.0111 50.4619 48.9554 50.8015 48.8101 51.1061C48.3503 52.0613 47.8561 52.9995 47.3284 53.919C47.1794 54.1755 47.0971 54.4653 47.0889 54.7619C47.0808 55.0584 47.147 55.3523 47.2815 55.6167C47.6746 56.3995 48.0095 57.2101 48.2836 58.0421C48.3754 58.3247 48.5366 58.5797 48.7524 58.7839C48.9682 58.9881 49.2317 59.135 49.5188 59.2112C50.5427 59.4857 51.5556 59.7996 52.5553 60.1523C52.8729 60.2648 53.152 60.4652 53.36 60.7303C53.568 60.9954 53.6963 61.3141 53.73 61.6494C53.8625 63.0644 53.8625 64.489 53.7326 65.9044C53.6988 66.2401 53.5703 66.5593 53.362 66.8247C53.1537 67.0901 52.8741 67.2908 52.5561 67.4034C51.5555 67.7537 50.5427 68.0677 49.5194 68.3447C49.2327 68.4208 48.9696 68.5675 48.7541 68.7714C48.5387 68.9753 48.3777 69.2299 48.286 69.512C48.0103 70.3434 47.6739 71.1535 47.2793 71.9355C47.1445 72.2003 47.0782 72.4946 47.0864 72.7916C47.0945 73.0886 47.177 73.3788 47.3262 73.6358C47.8561 74.5538 48.3503 75.492 48.8077 76.4482C48.9529 76.7523 49.0085 77.0914 48.9682 77.426C48.9278 77.7605 48.7932 78.0766 48.5799 78.3375C47.6726 79.4315 46.6661 80.4393 45.5732 81.348C45.3119 81.5616 44.9953 81.6964 44.6603 81.7368C44.3253 81.7773 43.9857 81.7215 43.6811 81.5762C42.7259 81.1164 41.7877 80.6222 40.8682 80.0945C40.6117 79.9456 40.3219 79.8632 40.0254 79.8551C39.7288 79.8469 39.435 79.9131 39.1706 80.0476C38.3878 80.4407 37.5771 80.7756 36.7451 81.0497C36.4626 81.1415 36.2075 81.3027 36.0033 81.5185C35.7991 81.7343 35.6522 81.9978 35.576 82.2849C35.3015 83.3088 34.9876 84.3217 34.6349 85.3214C34.5224 85.639 34.322 85.9181 34.0569 86.1261C33.7919 86.3341 33.4731 86.4624 33.1379 86.4961C31.7229 86.6286 30.2982 86.6286 28.8828 86.4987C28.5471 86.465 28.2279 86.3364 27.9625 86.1281C27.6971 85.9198 27.4964 85.6403 27.3838 85.3222C27.0335 84.3217 26.7195 83.3088 26.4425 82.2855C26.3664 81.9988 26.2197 81.7357 26.0158 81.5202C25.8119 81.3048 25.5573 81.1438 25.2752 81.0521C24.4438 80.7765 23.6338 80.44 22.8517 80.0454C22.587 79.9106 22.2927 79.8443 21.9956 79.8525C21.6986 79.8607 21.4084 79.9431 21.1515 80.0923C20.2334 80.6222 19.2952 81.1164 18.339 81.5738C18.0349 81.719 17.6958 81.7746 17.3613 81.7343C17.0267 81.694 16.7106 81.5593 16.4497 81.346C15.3557 80.4387 14.3479 79.4322 13.4392 78.3393C13.2256 78.078 13.0908 77.7614 13.0504 77.4264C13.01 77.0914 13.0657 76.7518 13.211 76.4472C13.6708 75.492 14.1651 74.5538 14.6927 73.6343C14.8417 73.3778 14.924 73.088 14.9322 72.7915C14.9404 72.4949 14.8741 72.2011 14.7396 71.9367C14.3465 71.1539 14.0116 70.3432 13.7375 69.5112C13.6457 69.2287 13.4845 68.9737 13.2687 68.7694C13.053 68.5652 12.7895 68.4183 12.5023 68.3421C11.4784 68.0676 10.4655 67.7537 9.46584 67.401C9.14822 67.2886 8.86913 67.0881 8.66113 66.823C8.45312 66.558 8.32479 66.2392 8.2911 65.904C8.15861 64.489 8.15861 63.0644 8.28849 61.649C8.32227 61.3132 8.45082 60.9941 8.65914 60.7286C8.86746 60.4632 9.14696 60.2625 9.46503 60.1499C10.4656 59.7996 11.4785 59.4857 12.5017 59.2086C12.7884 59.1325 13.0515 58.9859 13.267 58.782C13.4824 58.5781 13.6434 58.3234 13.7351 58.0413C14.0108 57.2099 14.3472 56.3999 14.7418 55.6179C14.8766 55.3531 14.9429 55.0588 14.9348 54.7618C14.9266 54.4648 14.8441 54.1745 14.6949 53.9176C14.165 52.9995 13.6708 52.0613 13.2134 51.1051C13.0683 50.801 13.0126 50.4619 13.0529 50.1274C13.0933 49.7928 13.2279 49.4767 13.4412 49.2158C14.3485 48.1218 15.355 47.114 16.4479 46.2053C16.7092 45.9917 17.0258 45.8569 17.3608 45.8165C17.6958 45.7761 18.0354 45.8318 18.34 45.9771C19.2952 46.4369 20.2334 46.9312 21.1529 47.4589C21.4094 47.6078 21.6992 47.6901 21.9957 47.6983C22.2923 47.7065 22.5862 47.6403 22.8505 47.5057C23.6333 47.1126 24.444 46.7777 25.276 46.5037C25.5585 46.4118 25.8136 46.2506 26.0178 46.0348C26.222 45.8191 26.3689 45.5556 26.4451 45.2684C26.7196 44.2445 27.0335 43.2316 27.3862 42.232C27.4987 41.9143 27.6991 41.6352 27.9642 41.4272C28.2292 41.2192 28.548 41.0909 28.8832 41.0572C30.2985 40.9252 31.7229 40.9243 33.1383 41.0546C33.474 41.0884 33.7932 41.2169 34.0586 41.4253ZM18.0085 69.1626C17.3013 67.4551 16.9373 65.625 16.9373 63.7769C16.9373 61.9287 17.3013 60.0987 18.0085 58.3912C18.7158 56.6837 19.7524 55.1323 21.0593 53.8254C22.3661 52.5186 23.9176 51.4819 25.6251 50.7747C27.3325 50.0674 29.1626 49.7034 31.0108 49.7034C32.8589 49.7034 34.689 50.0674 36.3965 50.7747C38.1039 51.4819 39.6554 52.5186 40.9622 53.8254C42.2691 55.1323 43.3057 56.6837 44.013 58.3912C44.7202 60.0987 45.0843 61.9287 45.0843 63.7769C45.0843 65.625 44.7202 67.4551 44.013 69.1626C43.3057 70.87 42.2691 72.4215 40.9622 73.7283C39.6554 75.0352 38.1039 76.0718 36.3965 76.7791C34.689 77.4863 32.8589 77.8504 31.0108 77.8504C29.1626 77.8504 27.3325 77.4863 25.6251 76.7791C23.9176 76.0718 22.3661 75.0352 21.0593 73.7283C19.7524 72.4215 18.7158 70.87 18.0085 69.1626Z" fill="white"/>
<path fill-rule="evenodd" clip-rule="evenodd" d="M23.3335 71.4533C21.2975 69.4173 20.1536 66.6558 20.1536 63.7764C20.1536 60.8971 21.2975 58.1356 23.3335 56.0996C25.3695 54.0636 28.131 52.9197 31.0103 52.9197C33.8897 52.9197 36.6511 54.0636 38.6872 56.0996C40.7232 58.1356 41.867 60.8971 41.867 63.7764C41.867 66.6558 40.7232 69.4173 38.6872 71.4533C36.6511 73.4893 33.8897 74.6331 31.0103 74.6331C28.131 74.6331 25.3695 73.4893 23.3335 71.4533ZM24.4713 70.3165C22.7369 68.5821 21.7626 66.2298 21.7626 63.777C21.7626 61.3242 22.7369 58.9718 24.4713 57.2374C26.2057 55.503 28.5581 54.5287 31.0109 54.5287C33.4637 54.5287 35.816 55.503 37.5504 57.2374C39.2848 58.9718 40.2592 61.3242 40.2592 63.777C40.2592 66.2298 39.2848 68.5821 37.5504 70.3165C35.816 72.0509 33.4637 73.0253 31.0109 73.0253C28.5581 73.0253 26.2057 72.0509 24.4713 70.3165Z" fill="white"/>
<path fill-rule="evenodd" clip-rule="evenodd" d="M24.6525 57.0631C23.1247 58.5105 22.0901 60.4732 21.8279 62.6714C25.9864 62.7066 29.3518 66.0937 29.3518 70.2607C29.3527 71.1213 29.2068 71.9757 28.9204 72.7873C29.6059 72.9456 30.3073 73.0257 31.0109 73.0253C31.8579 73.026 32.7009 72.9099 33.5164 72.6809C33.2604 71.9205 33.1217 71.1067 33.1217 70.2607C33.1217 66.2451 36.2468 62.9539 40.1955 62.6883C39.9365 60.4832 38.9005 58.5143 37.3689 57.0631C36.0138 59.1376 33.6712 60.5093 31.0107 60.5093C28.3502 60.5093 26.0076 59.1376 24.6525 57.0631ZM29.6609 65.3272C29.3028 64.9691 29.1015 64.4832 29.1015 63.9767C29.1015 63.4701 29.3028 62.9843 29.6609 62.6261C30.0191 62.2679 30.505 62.0667 31.0115 62.0667C31.5181 62.0667 32.0039 62.2679 32.3621 62.6261C32.7203 62.9843 32.9215 63.4701 32.9215 63.9767C32.9215 64.4832 32.7203 64.9691 32.3621 65.3272C32.0039 65.6854 31.5181 65.8867 31.0115 65.8867C30.505 65.8867 30.0191 65.6854 29.6609 65.3272Z" fill="white"/>
</svg>


