<svg width="22" height="22" viewBox="0 0 22 22" fill="none" xmlns="http://www.w3.org/2000/svg">
<g id="Frame">
<path id="Vector" d="M20.1667 14.2083C20.1667 16.7396 18.1146 18.7917 15.5833 18.7917C14.7625 18.7917 13.992 18.5759 13.3256 18.1979C12.1524 17.5326 11.3015 16.3646 11.0658 14.9867C11.0226 14.7337 11 14.4737 11 14.2083C11 13.0315 11.4436 11.9582 12.1726 11.1466C13.0117 10.2125 14.2289 9.625 15.5833 9.625C18.1146 9.625 20.1667 11.6771 20.1667 14.2083Z" stroke="#333333" stroke-width="1.8" stroke-linejoin="round"/>
<path id="Vector_2" d="M15.5833 5.5V9.16667V9.625C14.2289 9.625 13.0117 10.2125 12.1727 11.1466C11.4436 11.9582 11 13.0315 11 14.2083C11 14.4737 11.0226 14.7337 11.0658 14.9867C11.3015 16.3646 12.1524 17.5326 13.3256 18.1979C12.1053 18.5669 10.4856 18.7917 8.70834 18.7917C4.91137 18.7917 1.83334 17.7656 1.83334 16.5V12.8333V9.16667V5.5" stroke="#333333" stroke-width="1.8" stroke-linejoin="round"/>
<path id="Vector_3" d="M15.5833 5.49999C15.5833 6.76564 12.5053 7.79166 8.70834 7.79166C4.91137 7.79166 1.83334 6.76564 1.83334 5.49999C1.83334 4.23434 4.91137 3.20833 8.70834 3.20833C12.5053 3.20833 15.5833 4.23434 15.5833 5.49999Z" stroke="#333333" stroke-width="1.8" stroke-linejoin="round"/>
<path id="Vector_4" d="M1.83334 12.8333C1.83334 14.099 4.91137 15.125 8.70834 15.125C9.53655 15.125 10.3305 15.0762 11.0658 14.9867" stroke="#333333" stroke-width="1.8" stroke-linejoin="round"/>
<path id="Vector_5" d="M1.83334 9.16667C1.83334 10.4323 4.91137 11.4583 8.70834 11.4583C9.97165 11.4583 11.1554 11.3448 12.1727 11.1466" stroke="#333333" stroke-width="1.8" stroke-linejoin="round"/>
<path id="Vector_6" d="M14.1527 11.25L15.7499 13.1667L17.3472 11.25" stroke="#333333" stroke-width="1.04545" stroke-linejoin="round"/>
<path id="Vector_7" d="M13.8333 15.0833H17.6667" stroke="#333333" stroke-width="1.04545" stroke-linejoin="round"/>
<path id="Vector_8" d="M13.8333 13.1667H17.6667" stroke="#333333" stroke-width="1.04545" stroke-linejoin="round"/>
<path id="Vector_9" d="M15.75 13.1667V17" stroke="#333333" stroke-width="1.04545" stroke-linejoin="round"/>
</g>
</svg>
