
<svg width="120" height="120" viewBox="0 0 120 120" fill="none" xmlns="http://www.w3.org/2000/svg">
<g id="Frame 1158" clip-path="url(#clip0_1218_14534)">
<g id="Group 1160">
<g id="Ellipse 371" filter="url(#filter0_f_1218_14534)">
<ellipse cx="52.5" cy="76" rx="15.5" ry="11" fill="black"/>
</g>
<g id="Group 1151">
<path id="Vector" d="M102.861 73.0081L62.7422 96.3235V99.4581L102.861 76.1427C103.604 75.7119 103.977 75.1465 103.977 74.5812V71.4465C103.977 72.0196 103.604 72.585 102.861 73.0081Z" fill="url(#paint0_linear_1218_14534)"/>
<path id="Vector_2" d="M16.9234 73.0079C16.1541 72.5694 15.7695 71.9964 15.7695 71.4194V74.5579C15.7695 75.131 16.1541 75.7118 16.9041 76.1425L57.2887 99.4579V96.3194L16.9234 73.0079Z" fill="url(#paint1_linear_1218_14534)"/>
<path id="Vector_3" d="M62.7427 96.3317V99.4664C61.8997 99.895 60.9674 100.118 60.0216 100.118C59.0759 100.118 58.1435 99.895 57.3005 99.4664V96.3279C58.1429 96.758 59.0752 96.9826 60.0211 96.9833C60.9671 96.984 61.8997 96.7607 62.7427 96.3317Z" fill="white"/>
<path id="Vector_4" d="M102.843 69.8662C104.35 70.7354 104.358 72.147 102.862 73.0162L62.7427 96.3316C61.9 96.7611 60.9675 96.985 60.0216 96.985C59.0757 96.985 58.1432 96.7611 57.3005 96.3316L16.9159 73.02C15.4082 72.147 15.3774 70.7392 16.8966 69.87L57.0159 46.5546C57.8582 46.126 58.7899 45.9026 59.735 45.9026C60.6802 45.9026 61.6119 46.126 62.4543 46.5546L102.843 69.8662Z" fill="white"/>
</g>
<path id="Vector_5" d="M92.8235 70.231C93.9773 70.9003 93.9773 71.981 92.8235 72.6502L62.0543 90.5272C61.4076 90.855 60.6928 91.0258 59.9678 91.0258C59.2428 91.0258 58.5279 90.855 57.8812 90.5272L26.9159 72.6502C25.762 71.9849 25.762 70.9041 26.9159 70.2349L57.6851 52.358C58.3313 52.0308 59.0454 51.8604 59.7697 51.8604C60.494 51.8604 61.2081 52.0308 61.8543 52.358L92.8235 70.231Z" fill="url(#paint2_linear_1218_14534)"/>
<path id="Vector_6" d="M93.6922 25.7007C93.6922 25.2507 93.4192 24.7969 92.823 24.4507L61.8576 6.5738C61.2114 6.24666 60.4973 6.07617 59.773 6.07617C59.0487 6.07617 58.3347 6.24666 57.6885 6.5738L26.9192 24.4507C26.3269 24.793 26.0462 25.2469 26.0654 25.6969C26.0616 25.7211 26.0616 25.7458 26.0654 25.77C26.0615 25.7955 26.0615 25.8214 26.0654 25.8469C26.0615 25.8724 26.0615 25.8983 26.0654 25.9238C26.0615 25.9493 26.0615 25.9752 26.0654 26.0007C26.0615 26.0262 26.0615 26.0521 26.0654 26.0776C26.0616 26.1018 26.0616 26.1265 26.0654 26.1507C26.0615 26.1762 26.0615 26.2021 26.0654 26.2276C26.0615 26.2531 26.0615 26.279 26.0654 26.3045C26.0615 26.33 26.0615 26.356 26.0654 26.3815C26.0615 26.407 26.0615 26.4329 26.0654 26.4584C26.0616 26.4826 26.0616 26.5073 26.0654 26.5315C26.0615 26.557 26.0615 26.5829 26.0654 26.6084C26.0615 26.6339 26.0615 26.6599 26.0654 26.6854C26.0615 26.7108 26.0615 26.7368 26.0654 26.7623C26.0615 26.7878 26.0615 26.8137 26.0654 26.8392C26.0616 26.8634 26.0616 26.8881 26.0654 26.9123C26.0615 26.9378 26.0615 26.9637 26.0654 26.9892C26.0615 27.0147 26.0615 27.0406 26.0654 27.0661C26.0615 27.0916 26.0615 27.1175 26.0654 27.143C26.0615 27.1685 26.0615 27.1944 26.0654 27.2199C26.0616 27.2441 26.0616 27.2688 26.0654 27.293C26.0615 27.3185 26.0615 27.3444 26.0654 27.3699C26.0615 27.3954 26.0615 27.4214 26.0654 27.4469C26.0615 27.4724 26.0615 27.4983 26.0654 27.5238C26.0615 27.5493 26.0615 27.5752 26.0654 27.6007C26.0616 27.6249 26.0616 27.6496 26.0654 27.6738C26.0615 27.6993 26.0615 27.7252 26.0654 27.7507C26.0615 27.7762 26.0615 27.8021 26.0654 27.8276C26.0615 27.8531 26.0615 27.8791 26.0654 27.9046C26.0615 27.93 26.0615 27.956 26.0654 27.9815C26.0616 28.0057 26.0616 28.0303 26.0654 28.0546C26.0615 28.0801 26.0615 28.106 26.0654 28.1315C26.0615 28.157 26.0615 28.1829 26.0654 28.2084C26.0615 28.2339 26.0615 28.2598 26.0654 28.2853C26.0615 28.3108 26.0615 28.3368 26.0654 28.3623C26.0616 28.3865 26.0616 28.4111 26.0654 28.4353C26.0615 28.4608 26.0615 28.4868 26.0654 28.5123C26.0615 28.5378 26.0615 28.5637 26.0654 28.5892C26.0615 28.6147 26.0615 28.6406 26.0654 28.6661C26.0615 28.6916 26.0615 28.7175 26.0654 28.743C26.0616 28.7672 26.0616 28.7919 26.0654 28.8161C26.0615 28.8416 26.0615 28.8675 26.0654 28.893C26.0615 28.9185 26.0615 28.9444 26.0654 28.9699C26.0615 28.9954 26.0615 29.0214 26.0654 29.0468C26.0615 29.0723 26.0615 29.0983 26.0654 29.1238C26.0616 29.148 26.0616 29.1726 26.0654 29.1969C26.0615 29.2223 26.0615 29.2483 26.0654 29.2738C26.0615 29.2993 26.0615 29.3252 26.0654 29.3507C26.0615 29.3762 26.0615 29.4021 26.0654 29.4276C26.0615 29.4531 26.0615 29.4791 26.0654 29.5046C26.0616 29.5288 26.0616 29.5534 26.0654 29.5776C26.0615 29.6031 26.0615 29.6291 26.0654 29.6546C26.0615 29.6801 26.0615 29.706 26.0654 29.7315C26.0615 29.757 26.0615 29.7829 26.0654 29.8084C26.0615 29.8339 26.0615 29.8598 26.0654 29.8853C26.0616 29.9095 26.0616 29.9342 26.0654 29.9584C26.0615 29.9839 26.0615 30.0098 26.0654 30.0353C26.0615 30.0608 26.0615 30.0867 26.0654 30.1122C26.0615 30.1377 26.0615 30.1637 26.0654 30.1892C26.0615 30.2147 26.0615 30.2406 26.0654 30.2661C26.0616 30.2903 26.0616 30.315 26.0654 30.3392C26.0615 30.3647 26.0615 30.3906 26.0654 30.4161C26.0615 30.4416 26.0615 30.4675 26.0654 30.493C26.0615 30.5185 26.0615 30.5445 26.0654 30.57C26.0615 30.5955 26.0615 30.6214 26.0654 30.6469C26.0616 30.6711 26.0616 30.6958 26.0654 30.72C26.0615 30.7455 26.0615 30.7714 26.0654 30.7969C26.0615 30.8224 26.0615 30.8483 26.0654 30.8738C26.0615 30.8993 26.0615 30.9252 26.0654 30.9507C26.0615 30.9762 26.0615 31.0021 26.0654 31.0276C26.0616 31.0518 26.0616 31.0765 26.0654 31.1007C26.0615 31.1262 26.0615 31.1521 26.0654 31.1776C26.0615 31.2031 26.0615 31.229 26.0654 31.2545C26.0615 31.28 26.0615 31.306 26.0654 31.3315C26.0615 31.357 26.0615 31.3829 26.0654 31.4084C26.0616 31.4326 26.0616 31.4573 26.0654 31.4815C26.0615 31.507 26.0615 31.5329 26.0654 31.5584C26.0615 31.5839 26.0615 31.6099 26.0654 31.6353C26.0615 31.6608 26.0615 31.6868 26.0654 31.7123C26.0615 31.7377 26.0615 31.7637 26.0654 31.7892C26.0616 31.8134 26.0616 31.838 26.0654 31.8623C26.0615 31.8878 26.0615 31.9137 26.0654 31.9392C26.0615 31.9647 26.0615 31.9906 26.0654 32.0161C26.0615 32.0416 26.0615 32.0675 26.0654 32.093C26.0615 32.1185 26.0615 32.1444 26.0654 32.1699C26.0616 32.1941 26.0616 32.2188 26.0654 32.243C26.0615 32.2685 26.0615 32.2944 26.0654 32.3199C26.0615 32.3454 26.0615 32.3714 26.0654 32.3969C26.0615 32.4224 26.0615 32.4483 26.0654 32.4738C26.0615 32.4993 26.0615 32.5252 26.0654 32.5507C26.0616 32.5749 26.0616 32.5996 26.0654 32.6238C26.0615 32.6493 26.0615 32.6752 26.0654 32.7007C26.0615 32.7262 26.0615 32.7521 26.0654 32.7776C26.0615 32.8031 26.0615 32.8291 26.0654 32.8545C26.0615 32.88 26.0615 32.906 26.0654 32.9315C26.0616 32.9557 26.0616 32.9803 26.0654 33.0046C26.0615 33.0301 26.0615 33.056 26.0654 33.0815C26.0615 33.107 26.0615 33.1329 26.0654 33.1584C26.0615 33.1839 26.0615 33.2098 26.0654 33.2353C26.0615 33.2608 26.0615 33.2868 26.0654 33.3123C26.0616 33.3365 26.0616 33.3611 26.0654 33.3853C26.0615 33.4108 26.0615 33.4368 26.0654 33.4623C26.0615 33.4878 26.0615 33.5137 26.0654 33.5392C26.0615 33.5647 26.0615 33.5906 26.0654 33.6161C26.0615 33.6416 26.0615 33.6675 26.0654 33.693C26.0616 33.7172 26.0616 33.7419 26.0654 33.7661C26.0615 33.7916 26.0615 33.8175 26.0654 33.843C26.0615 33.8685 26.0615 33.8944 26.0654 33.9199C26.0615 33.9454 26.0615 33.9713 26.0654 33.9968C26.0615 34.0223 26.0615 34.0483 26.0654 34.0738C26.0616 34.098 26.0616 34.1226 26.0654 34.1469C26.0615 34.1723 26.0615 34.1983 26.0654 34.2238C26.0615 34.2493 26.0615 34.2752 26.0654 34.3007C26.0615 34.3262 26.0615 34.3522 26.0654 34.3777C26.0615 34.4032 26.0615 34.4291 26.0654 34.4546C26.0616 34.4788 26.0616 34.5034 26.0654 34.5276C26.0615 34.5531 26.0615 34.5791 26.0654 34.6046C26.0615 34.6301 26.0615 34.656 26.0654 34.6815C26.0615 34.707 26.0615 34.7329 26.0654 34.7584C26.0615 34.7839 26.0615 34.8098 26.0654 34.8353C26.0616 34.8595 26.0616 34.8842 26.0654 34.9084C26.0615 34.9339 26.0615 34.9598 26.0654 34.9853C26.0615 35.0108 26.0615 35.0367 26.0654 35.0622C26.0615 35.0877 26.0615 35.1137 26.0654 35.1392C26.0615 35.1647 26.0615 35.1906 26.0654 35.2161C26.0616 35.2403 26.0616 35.265 26.0654 35.2892C26.0615 35.3147 26.0615 35.3406 26.0654 35.3661C26.0615 35.3916 26.0615 35.4175 26.0654 35.443C26.0615 35.4685 26.0615 35.4945 26.0654 35.52C26.0615 35.5455 26.0615 35.5714 26.0654 35.5969C26.0616 35.6211 26.0616 35.6458 26.0654 35.67C26.0615 35.6955 26.0615 35.7214 26.0654 35.7469C26.0615 35.7724 26.0615 35.7983 26.0654 35.8238C26.0615 35.8493 26.0615 35.8752 26.0654 35.9007C26.0615 35.9262 26.0615 35.9521 26.0654 35.9776C26.0616 36.0018 26.0616 36.0265 26.0654 36.0507C26.0615 36.0762 26.0615 36.1021 26.0654 36.1276C26.0615 36.1531 26.0615 36.1791 26.0654 36.2046C26.0615 36.2301 26.0615 36.256 26.0654 36.2815C26.0615 36.307 26.0615 36.3329 26.0654 36.3584C26.0616 36.3826 26.0616 36.4073 26.0654 36.4315C26.0615 36.457 26.0615 36.4829 26.0654 36.5084C26.0615 36.5339 26.0615 36.5598 26.0654 36.5853C26.0615 36.6108 26.0615 36.6368 26.0654 36.6623C26.0615 36.6877 26.0615 36.7137 26.0654 36.7392C26.0616 36.7634 26.0616 36.788 26.0654 36.8123C26.0615 36.8378 26.0615 36.8637 26.0654 36.8892C26.0615 36.9147 26.0615 36.9406 26.0654 36.9661C26.0615 36.9916 26.0615 37.0175 26.0654 37.043C26.0615 37.0685 26.0615 37.0944 26.0654 37.1199C26.0616 37.1441 26.0616 37.1688 26.0654 37.193C26.0615 37.2185 26.0615 37.2444 26.0654 37.2699C26.0615 37.2954 26.0615 37.3214 26.0654 37.3469C26.0615 37.3724 26.0615 37.3983 26.0654 37.4238C26.0615 37.4493 26.0615 37.4752 26.0654 37.5007C26.0616 37.5249 26.0616 37.5496 26.0654 37.5738C26.0615 37.5993 26.0615 37.6252 26.0654 37.6507C26.0615 37.6762 26.0615 37.7021 26.0654 37.7276C26.0615 37.7531 26.0615 37.7791 26.0654 37.8045C26.0615 37.83 26.0615 37.856 26.0654 37.8815C26.0616 37.9057 26.0616 37.9303 26.0654 37.9546C26.0615 37.98 26.0615 38.006 26.0654 38.0315C26.0615 38.057 26.0615 38.0829 26.0654 38.1084C26.0615 38.1339 26.0615 38.1598 26.0654 38.1853C26.0615 38.2108 26.0615 38.2368 26.0654 38.2623C26.0616 38.2865 26.0616 38.3111 26.0654 38.3353C26.0615 38.3608 26.0615 38.3868 26.0654 38.4123C26.0615 38.4378 26.0615 38.4637 26.0654 38.4892C26.0615 38.5147 26.0615 38.5406 26.0654 38.5661C26.0615 38.5916 26.0615 38.6175 26.0654 38.643C26.0616 38.6672 26.0616 38.6919 26.0654 38.7161C26.0615 38.7416 26.0615 38.7675 26.0654 38.793C26.0615 38.8185 26.0615 38.8444 26.0654 38.8699C26.0615 38.8954 26.0615 38.9213 26.0654 38.9468C26.0615 38.9723 26.0615 38.9983 26.0654 39.0238C26.0616 39.048 26.0616 39.0726 26.0654 39.0968C26.0615 39.1223 26.0615 39.1483 26.0654 39.1738C26.0615 39.1993 26.0615 39.2252 26.0654 39.2507C26.0615 39.2762 26.0615 39.3022 26.0654 39.3277C26.0615 39.3532 26.0615 39.3791 26.0654 39.4046C26.0616 39.4288 26.0616 39.4534 26.0654 39.4776C26.0615 39.5031 26.0615 39.5291 26.0654 39.5546C26.0615 39.5801 26.0615 39.606 26.0654 39.6315C26.0615 39.657 26.0615 39.6829 26.0654 39.7084C26.0615 39.7339 26.0615 39.7598 26.0654 39.7853C26.0616 39.8095 26.0616 39.8342 26.0654 39.8584C26.0615 39.8839 26.0615 39.9098 26.0654 39.9353C26.0615 39.9608 26.0615 39.9867 26.0654 40.0122C26.0615 40.0377 26.0615 40.0637 26.0654 40.0892C26.0615 40.1147 26.0615 40.1406 26.0654 40.1661C26.0616 40.1903 26.0616 40.215 26.0654 40.2392C26.0615 40.2647 26.0615 40.2906 26.0654 40.3161C26.0615 40.3416 26.0615 40.3675 26.0654 40.393C26.0615 40.4185 26.0615 40.4445 26.0654 40.47C26.0615 40.4954 26.0615 40.5214 26.0654 40.5469C26.0616 40.5711 26.0616 40.5957 26.0654 40.62C26.0615 40.6455 26.0615 40.6714 26.0654 40.6969C26.0615 40.7224 26.0615 40.7483 26.0654 40.7738C26.0615 40.7993 26.0615 40.8252 26.0654 40.8507C26.0615 40.8762 26.0615 40.9021 26.0654 40.9276C26.0616 40.9518 26.0616 40.9765 26.0654 41.0007C26.0615 41.0262 26.0615 41.0521 26.0654 41.0776C26.0615 41.1031 26.0615 41.1291 26.0654 41.1546C26.0615 41.1801 26.0615 41.206 26.0654 41.2315C26.0615 41.257 26.0615 41.2829 26.0654 41.3084C26.0616 41.3326 26.0616 41.3573 26.0654 41.3815C26.0615 41.407 26.0615 41.4329 26.0654 41.4584C26.0615 41.4839 26.0615 41.5098 26.0654 41.5353C26.0615 41.5608 26.0615 41.5868 26.0654 41.6122C26.0615 41.6377 26.0615 41.6637 26.0654 41.6892C26.0616 41.7134 26.0616 41.738 26.0654 41.7623C26.0615 41.7878 26.0615 41.8137 26.0654 41.8392C26.0615 41.8647 26.0615 41.8906 26.0654 41.9161C26.0615 41.9416 26.0615 41.9675 26.0654 41.993C26.0615 42.0185 26.0615 42.0445 26.0654 42.07C26.0616 42.0942 26.0616 42.1188 26.0654 42.143C26.0615 42.1685 26.0615 42.1944 26.0654 42.2199C26.0615 42.2454 26.0615 42.2714 26.0654 42.2969C26.0615 42.3224 26.0615 42.3483 26.0654 42.3738C26.0615 42.3993 26.0615 42.4252 26.0654 42.4507C26.0616 42.4749 26.0616 42.4996 26.0654 42.5238C26.0615 42.5493 26.0615 42.5752 26.0654 42.6007C26.0615 42.6262 26.0615 42.6521 26.0654 42.6776C26.0615 42.7031 26.0615 42.729 26.0654 42.7545C26.0615 42.78 26.0615 42.806 26.0654 42.8315C26.0616 42.8557 26.0616 42.8803 26.0654 42.9046C26.0615 42.93 26.0615 42.956 26.0654 42.9815C26.0615 43.007 26.0615 43.0329 26.0654 43.0584C26.0615 43.0839 26.0615 43.1098 26.0654 43.1353C26.0615 43.1608 26.0615 43.1868 26.0654 43.2123C26.0616 43.2365 26.0616 43.2611 26.0654 43.2853C26.0615 43.3108 26.0615 43.3368 26.0654 43.3623C26.0615 43.3878 26.0615 43.4137 26.0654 43.4392C26.0615 43.4647 26.0615 43.4906 26.0654 43.5161C26.0615 43.5416 26.0615 43.5675 26.0654 43.593C26.0616 43.6172 26.0616 43.6419 26.0654 43.6661C26.0615 43.6916 26.0615 43.7175 26.0654 43.743C26.0615 43.7685 26.0615 43.7944 26.0654 43.8199C26.0615 43.8454 26.0615 43.8714 26.0654 43.8969C26.0615 43.9224 26.0615 43.9483 26.0654 43.9738C26.0616 43.998 26.0616 44.0226 26.0654 44.0468C26.0615 44.0723 26.0615 44.0983 26.0654 44.1238C26.0615 44.1493 26.0615 44.1752 26.0654 44.2007C26.0615 44.2262 26.0615 44.2522 26.0654 44.2777C26.0615 44.3032 26.0615 44.3291 26.0654 44.3546C26.0616 44.3788 26.0616 44.4034 26.0654 44.4276C26.0615 44.4531 26.0615 44.4791 26.0654 44.5046C26.0615 44.5301 26.0615 44.556 26.0654 44.5815C26.0615 44.607 26.0615 44.6329 26.0654 44.6584C26.0615 44.6839 26.0615 44.7098 26.0654 44.7353C26.0616 44.7595 26.0616 44.7842 26.0654 44.8084C26.0615 44.8339 26.0615 44.8598 26.0654 44.8853C26.0615 44.9108 26.0615 44.9367 26.0654 44.9622C26.0615 44.9877 26.0615 45.0137 26.0654 45.0392C26.0615 45.0647 26.0615 45.0906 26.0654 45.1161C26.0616 45.1403 26.0616 45.165 26.0654 45.1892C26.0615 45.2147 26.0615 45.2406 26.0654 45.2661C26.0615 45.2916 26.0615 45.3175 26.0654 45.343C26.0615 45.3685 26.0615 45.3945 26.0654 45.42C26.0615 45.4454 26.0615 45.4714 26.0654 45.4969C26.0616 45.5211 26.0616 45.5457 26.0654 45.57C26.0615 45.5955 26.0615 45.6214 26.0654 45.6469C26.0615 45.6724 26.0615 45.6983 26.0654 45.7238C26.0615 45.7493 26.0615 45.7752 26.0654 45.8007C26.0615 45.8262 26.0615 45.8521 26.0654 45.8776C26.0616 45.9018 26.0616 45.9265 26.0654 45.9507C26.0615 45.9762 26.0615 46.0021 26.0654 46.0276C26.0615 46.0531 26.0615 46.0791 26.0654 46.1046C26.0615 46.1301 26.0615 46.156 26.0654 46.1815C26.0615 46.207 26.0615 46.2329 26.0654 46.2584C26.0616 46.2826 26.0616 46.3073 26.0654 46.3315C26.0615 46.357 26.0615 46.3829 26.0654 46.4084C26.0615 46.4339 26.0615 46.4598 26.0654 46.4853C26.0615 46.5108 26.0615 46.5368 26.0654 46.5622C26.0615 46.5877 26.0615 46.6137 26.0654 46.6392C26.0616 46.6634 26.0616 46.688 26.0654 46.7123C26.0615 46.7377 26.0615 46.7637 26.0654 46.7892C26.0615 46.8147 26.0615 46.8406 26.0654 46.8661C26.0615 46.8916 26.0615 46.9175 26.0654 46.943C26.0615 46.9685 26.0615 46.9945 26.0654 47.02C26.0616 47.0442 26.0616 47.0688 26.0654 47.093C26.0615 47.1185 26.0615 47.1444 26.0654 47.1699C26.0615 47.1954 26.0615 47.2214 26.0654 47.2469C26.0615 47.2724 26.0615 47.2983 26.0654 47.3238C26.0615 47.3493 26.0615 47.3752 26.0654 47.4007C26.0616 47.4249 26.0616 47.4496 26.0654 47.4738C26.0615 47.4993 26.0615 47.5252 26.0654 47.5507C26.0615 47.5762 26.0615 47.6021 26.0654 47.6276C26.0615 47.6531 26.0615 47.679 26.0654 47.7045C26.0615 47.73 26.0615 47.756 26.0654 47.7815C26.0616 47.8057 26.0616 47.8303 26.0654 47.8545C26.0615 47.88 26.0615 47.906 26.0654 47.9315C26.0615 47.957 26.0615 47.9829 26.0654 48.0084C26.0615 48.0339 26.0615 48.0598 26.0654 48.0853C26.0615 48.1108 26.0615 48.1368 26.0654 48.1623C26.0616 48.1865 26.0616 48.2111 26.0654 48.2353C26.0615 48.2608 26.0615 48.2868 26.0654 48.3123C26.0615 48.3378 26.0615 48.3637 26.0654 48.3892C26.0615 48.4147 26.0615 48.4406 26.0654 48.4661C26.0615 48.4916 26.0615 48.5175 26.0654 48.543C26.0616 48.5672 26.0616 48.5919 26.0654 48.6161C26.0615 48.6416 26.0615 48.6675 26.0654 48.693C26.0615 48.7185 26.0615 48.7444 26.0654 48.7699C26.0615 48.7954 26.0615 48.8214 26.0654 48.8469C26.0615 48.8724 26.0615 48.8983 26.0654 48.9238C26.0616 48.948 26.0616 48.9726 26.0654 48.9968C26.0615 49.0223 26.0615 49.0483 26.0654 49.0738C26.0615 49.0993 26.0615 49.1252 26.0654 49.1507C26.0615 49.1762 26.0615 49.2022 26.0654 49.2277C26.0615 49.2531 26.0615 49.2791 26.0654 49.3046C26.0616 49.3288 26.0616 49.3534 26.0654 49.3777C26.0615 49.4032 26.0615 49.4291 26.0654 49.4546C26.0615 49.4801 26.0615 49.506 26.0654 49.5315C26.0615 49.557 26.0615 49.5829 26.0654 49.6084C26.0615 49.6339 26.0615 49.6598 26.0654 49.6853C26.0616 49.7095 26.0616 49.7342 26.0654 49.7584C26.0615 49.7839 26.0615 49.8098 26.0654 49.8353C26.0615 49.8608 26.0615 49.8867 26.0654 49.9122C26.0615 49.9377 26.0615 49.9637 26.0654 49.9892C26.0615 50.0147 26.0615 50.0406 26.0654 50.0661C26.0616 50.0903 26.0616 50.115 26.0654 50.1392C26.0615 50.1647 26.0615 50.1906 26.0654 50.2161C26.0615 50.2416 26.0615 50.2675 26.0654 50.293C26.0615 50.3185 26.0615 50.3445 26.0654 50.3699C26.0615 50.3954 26.0615 50.4214 26.0654 50.4469C26.0616 50.4711 26.0616 50.4957 26.0654 50.52C26.0615 50.5455 26.0615 50.5714 26.0654 50.5969C26.0615 50.6224 26.0615 50.6483 26.0654 50.6738C26.0615 50.6993 26.0615 50.7252 26.0654 50.7507C26.0615 50.7762 26.0615 50.8021 26.0654 50.8276C26.0616 50.8518 26.0616 50.8765 26.0654 50.9007C26.0615 50.9262 26.0615 50.9521 26.0654 50.9776C26.0615 51.0031 26.0615 51.0291 26.0654 51.0546C26.0615 51.0801 26.0615 51.106 26.0654 51.1315C26.0615 51.157 26.0615 51.1829 26.0654 51.2084C26.0616 51.2326 26.0616 51.2573 26.0654 51.2815C26.0615 51.307 26.0615 51.3329 26.0654 51.3584C26.0615 51.3839 26.0615 51.4098 26.0654 51.4353C26.0615 51.4608 26.0615 51.4867 26.0654 51.5122C26.0615 51.5377 26.0615 51.5637 26.0654 51.5892C26.0616 51.6134 26.0616 51.638 26.0654 51.6623C26.0615 51.6877 26.0615 51.7137 26.0654 51.7392C26.0615 51.7647 26.0615 51.7906 26.0654 51.8161C26.0615 51.8416 26.0615 51.8675 26.0654 51.893C26.0615 51.9185 26.0615 51.9445 26.0654 51.97C26.0616 51.9942 26.0616 52.0188 26.0654 52.043C26.0615 52.0685 26.0615 52.0944 26.0654 52.1199C26.0615 52.1454 26.0615 52.1714 26.0654 52.1969C26.0615 52.2224 26.0615 52.2483 26.0654 52.2738C26.0615 52.2993 26.0615 52.3252 26.0654 52.3507C26.0616 52.3749 26.0616 52.3996 26.0654 52.4238C26.0615 52.4493 26.0615 52.4752 26.0654 52.5007C26.0615 52.5262 26.0615 52.5521 26.0654 52.5776C26.0615 52.6031 26.0615 52.629 26.0654 52.6545C26.0615 52.68 26.0615 52.706 26.0654 52.7315C26.0616 52.7557 26.0616 52.7803 26.0654 52.8045C26.0615 52.83 26.0615 52.856 26.0654 52.8815C26.0615 52.907 26.0615 52.9329 26.0654 52.9584C26.0615 52.9839 26.0615 53.0098 26.0654 53.0353C26.0615 53.0608 26.0615 53.0868 26.0654 53.1123C26.0616 53.1365 26.0616 53.1611 26.0654 53.1853C26.0615 53.2108 26.0615 53.2368 26.0654 53.2623C26.0615 53.2878 26.0615 53.3137 26.0654 53.3392C26.0615 53.3647 26.0615 53.3906 26.0654 53.4161C26.0615 53.4416 26.0615 53.4675 26.0654 53.493C26.0616 53.5172 26.0616 53.5419 26.0654 53.5661C26.0615 53.5916 26.0615 53.6175 26.0654 53.643C26.0615 53.6685 26.0615 53.6944 26.0654 53.7199C26.0615 53.7454 26.0615 53.7714 26.0654 53.7969C26.0615 53.8224 26.0615 53.8483 26.0654 53.8738C26.0616 53.898 26.0616 53.9226 26.0654 53.9468C26.0615 53.9723 26.0615 53.9983 26.0654 54.0238C26.0615 54.0493 26.0615 54.0752 26.0654 54.1007C26.0615 54.1262 26.0615 54.1522 26.0654 54.1777C26.0615 54.2031 26.0615 54.2291 26.0654 54.2546C26.0616 54.2788 26.0616 54.3034 26.0654 54.3277C26.0615 54.3532 26.0615 54.3791 26.0654 54.4046C26.0615 54.4301 26.0615 54.456 26.0654 54.4815C26.0615 54.507 26.0615 54.5329 26.0654 54.5584C26.0615 54.5839 26.0615 54.6098 26.0654 54.6353C26.0616 54.6595 26.0616 54.6842 26.0654 54.7084C26.0615 54.7339 26.0615 54.7598 26.0654 54.7853C26.0615 54.8108 26.0615 54.8367 26.0654 54.8622C26.0615 54.8877 26.0615 54.9137 26.0654 54.9392C26.0615 54.9647 26.0615 54.9906 26.0654 55.0161C26.0616 55.0403 26.0616 55.065 26.0654 55.0892C26.0615 55.1147 26.0615 55.1406 26.0654 55.1661C26.0615 55.1916 26.0615 55.2175 26.0654 55.243C26.0615 55.2685 26.0615 55.2945 26.0654 55.3199C26.0615 55.3454 26.0615 55.3714 26.0654 55.3969C26.0616 55.4211 26.0616 55.4457 26.0654 55.47C26.0615 55.4954 26.0615 55.5214 26.0654 55.5469C26.0615 55.5724 26.0615 55.5983 26.0654 55.6238C26.0615 55.6493 26.0615 55.6752 26.0654 55.7007C26.0615 55.7262 26.0615 55.7521 26.0654 55.7776C26.0616 55.8018 26.0616 55.8265 26.0654 55.8507C26.0615 55.8762 26.0615 55.9021 26.0654 55.9276C26.0615 55.9531 26.0615 55.9791 26.0654 56.0046C26.0615 56.0301 26.0615 56.056 26.0654 56.0815C26.0615 56.107 26.0615 56.1329 26.0654 56.1584C26.0616 56.1826 26.0616 56.2073 26.0654 56.2315C26.0615 56.257 26.0615 56.2829 26.0654 56.3084C26.0615 56.3339 26.0615 56.3598 26.0654 56.3853C26.0615 56.4108 26.0615 56.4367 26.0654 56.4622C26.0615 56.4877 26.0615 56.5137 26.0654 56.5392C26.0616 56.5634 26.0616 56.588 26.0654 56.6122C26.0615 56.6377 26.0615 56.6637 26.0654 56.6892C26.0615 56.7147 26.0615 56.7406 26.0654 56.7661C26.0615 56.7916 26.0615 56.8175 26.0654 56.843C26.0615 56.8685 26.0615 56.8945 26.0654 56.92C26.0616 56.9442 26.0616 56.9688 26.0654 56.993C26.0615 57.0185 26.0615 57.0445 26.0654 57.07C26.0615 57.0955 26.0615 57.1214 26.0654 57.1469C26.0615 57.1724 26.0615 57.1983 26.0654 57.2238C26.0615 57.2493 26.0615 57.2752 26.0654 57.3007C26.0616 57.3249 26.0616 57.3496 26.0654 57.3738C26.0615 57.3993 26.0615 57.4252 26.0654 57.4507C26.0615 57.4762 26.0615 57.5021 26.0654 57.5276C26.0615 57.5531 26.0615 57.579 26.0654 57.6045C26.0615 57.63 26.0615 57.656 26.0654 57.6815C26.0616 57.7057 26.0616 57.7303 26.0654 57.7545C26.0615 57.78 26.0615 57.806 26.0654 57.8315C26.0615 57.857 26.0615 57.8829 26.0654 57.9084C26.0615 57.9339 26.0615 57.9598 26.0654 57.9853C26.0615 58.0108 26.0615 58.0368 26.0654 58.0623C26.0616 58.0865 26.0616 58.1111 26.0654 58.1353C26.0615 58.1608 26.0615 58.1868 26.0654 58.2123C26.0615 58.2378 26.0615 58.2637 26.0654 58.2892C26.0615 58.3147 26.0615 58.3406 26.0654 58.3661C26.0615 58.3916 26.0615 58.4175 26.0654 58.443C26.0616 58.4672 26.0616 58.4919 26.0654 58.5161C26.0615 58.5416 26.0615 58.5675 26.0654 58.593C26.0615 58.6185 26.0615 58.6444 26.0654 58.6699C26.0615 58.6954 26.0615 58.7214 26.0654 58.7469C26.0615 58.7724 26.0615 58.7983 26.0654 58.8238C26.0616 58.848 26.0616 58.8727 26.0654 58.8969C26.0615 58.9224 26.0615 58.9483 26.0654 58.9738C26.0615 58.9993 26.0615 59.0252 26.0654 59.0507C26.0615 59.0762 26.0615 59.1022 26.0654 59.1276C26.0615 59.1531 26.0615 59.1791 26.0654 59.2046C26.0616 59.2288 26.0616 59.2534 26.0654 59.2777C26.0615 59.3032 26.0615 59.3291 26.0654 59.3546C26.0615 59.3801 26.0615 59.406 26.0654 59.4315C26.0615 59.457 26.0615 59.4829 26.0654 59.5084C26.0615 59.5339 26.0615 59.5598 26.0654 59.5853C26.0616 59.6095 26.0616 59.6342 26.0654 59.6584C26.0615 59.6839 26.0615 59.7098 26.0654 59.7353C26.0615 59.7608 26.0615 59.7867 26.0654 59.8122C26.0615 59.8377 26.0615 59.8637 26.0654 59.8892C26.0615 59.9147 26.0615 59.9406 26.0654 59.9661C26.0616 59.9903 26.0616 60.015 26.0654 60.0392C26.0615 60.0647 26.0615 60.0906 26.0654 60.1161C26.0615 60.1416 26.0615 60.1675 26.0654 60.193C26.0615 60.2185 26.0615 60.2444 26.0654 60.2699C26.0615 60.2954 26.0615 60.3214 26.0654 60.3468C26.0616 60.3711 26.0616 60.3957 26.0654 60.42C26.0615 60.4454 26.0615 60.4714 26.0654 60.4969C26.0615 60.5224 26.0615 60.5483 26.0654 60.5738C26.0615 60.5993 26.0615 60.6252 26.0654 60.6507C26.0615 60.6762 26.0615 60.7021 26.0654 60.7276C26.0616 60.7518 26.0616 60.7765 26.0654 60.8007C26.0615 60.8262 26.0615 60.8521 26.0654 60.8776C26.0615 60.9031 26.0615 60.9291 26.0654 60.9546C26.0615 60.9801 26.0615 61.006 26.0654 61.0315C26.0615 61.057 26.0615 61.0829 26.0654 61.1084C26.0616 61.1326 26.0616 61.1573 26.0654 61.1815C26.0615 61.207 26.0615 61.2329 26.0654 61.2584C26.0615 61.2839 26.0615 61.3098 26.0654 61.3353C26.0615 61.3608 26.0615 61.3867 26.0654 61.4122C26.0615 61.4377 26.0615 61.4637 26.0654 61.4892C26.0616 61.5134 26.0616 61.538 26.0654 61.5622C26.0615 61.5877 26.0615 61.6137 26.0654 61.6392C26.0615 61.6646 26.0615 61.6906 26.0654 61.7161C26.0615 61.7416 26.0615 61.7675 26.0654 61.793C26.0615 61.8185 26.0615 61.8445 26.0654 61.87C26.0616 61.8942 26.0616 61.9188 26.0654 61.943C26.0615 61.9685 26.0615 61.9945 26.0654 62.02C26.0615 62.0455 26.0615 62.0714 26.0654 62.0969C26.0615 62.1224 26.0615 62.1483 26.0654 62.1738C26.0615 62.1993 26.0615 62.2252 26.0654 62.2507C26.0616 62.2749 26.0616 62.2996 26.0654 62.3238C26.0615 62.3493 26.0615 62.3752 26.0654 62.4007C26.0615 62.4262 26.0615 62.4521 26.0654 62.4776C26.0615 62.5031 26.0615 62.529 26.0654 62.5545C26.0615 62.58 26.0615 62.606 26.0654 62.6315C26.0616 62.6557 26.0616 62.6803 26.0654 62.7045C26.0615 62.73 26.0615 62.756 26.0654 62.7815C26.0615 62.807 26.0615 62.8329 26.0654 62.8584C26.0615 62.8839 26.0615 62.9099 26.0654 62.9354C26.0615 62.9608 26.0615 62.9868 26.0654 63.0123C26.0616 63.0365 26.0616 63.0611 26.0654 63.0853C26.0615 63.1108 26.0615 63.1368 26.0654 63.1623C26.0615 63.1878 26.0615 63.2137 26.0654 63.2392C26.0615 63.2647 26.0615 63.2906 26.0654 63.3161C26.0615 63.3416 26.0615 63.3675 26.0654 63.393C26.0616 63.4172 26.0616 63.4419 26.0654 63.4661C26.0615 63.4916 26.0615 63.5175 26.0654 63.543C26.0615 63.5685 26.0615 63.5944 26.0654 63.6199C26.0615 63.6454 26.0615 63.6714 26.0654 63.6969C26.0615 63.7224 26.0615 63.7483 26.0654 63.7738C26.0616 63.798 26.0616 63.8227 26.0654 63.8469C26.0615 63.8724 26.0615 63.8983 26.0654 63.9238C26.0615 63.9493 26.0615 63.9752 26.0654 64.0007C26.0615 64.0262 26.0615 64.0522 26.0654 64.0776C26.0615 64.1031 26.0615 64.1291 26.0654 64.1546C26.0616 64.1788 26.0616 64.2034 26.0654 64.2277C26.0615 64.2531 26.0615 64.2791 26.0654 64.3046C26.0615 64.3301 26.0615 64.356 26.0654 64.3815C26.0615 64.407 26.0615 64.4329 26.0654 64.4584C26.0615 64.4839 26.0615 64.5098 26.0654 64.5353C26.0615 64.5608 26.0615 64.5868 26.0654 64.6123C26.0616 64.6365 26.0616 64.6611 26.0654 64.6853C26.0615 64.7108 26.0615 64.7368 26.0654 64.7623C26.0615 64.7878 26.0615 64.8137 26.0654 64.8392C26.0615 64.8647 26.0615 64.8906 26.0654 64.9161C26.0615 64.9416 26.0615 64.9675 26.0654 64.993C26.0616 65.0172 26.0616 65.0419 26.0654 65.0661C26.0615 65.0916 26.0615 65.1175 26.0654 65.143C26.0615 65.1685 26.0615 65.1944 26.0654 65.2199C26.0615 65.2454 26.0615 65.2714 26.0654 65.2968C26.0615 65.3223 26.0615 65.3483 26.0654 65.3738C26.0616 65.398 26.0616 65.4226 26.0654 65.4469C26.0615 65.4724 26.0615 65.4983 26.0654 65.5238C26.0615 65.5493 26.0615 65.5752 26.0654 65.6007C26.0615 65.6262 26.0615 65.6521 26.0654 65.6776C26.0615 65.7031 26.0615 65.7291 26.0654 65.7546C26.0616 65.7788 26.0616 65.8034 26.0654 65.8276C26.0615 65.8531 26.0615 65.8791 26.0654 65.9046C26.0615 65.9301 26.0615 65.956 26.0654 65.9815C26.0615 66.007 26.0615 66.0329 26.0654 66.0584C26.0615 66.0839 26.0615 66.1098 26.0654 66.1353C26.0616 66.1595 26.0616 66.1842 26.0654 66.2084C26.0615 66.2339 26.0615 66.2598 26.0654 66.2853C26.0615 66.3108 26.0615 66.3367 26.0654 66.3622C26.0615 66.3877 26.0615 66.4137 26.0654 66.4392C26.0615 66.4647 26.0615 66.4906 26.0654 66.5161C26.0616 66.5403 26.0616 66.565 26.0654 66.5892C26.0615 66.6147 26.0615 66.6406 26.0654 66.6661C26.0615 66.6916 26.0615 66.7175 26.0654 66.743C26.0615 66.7685 26.0615 66.7945 26.0654 66.82C26.0615 66.8455 26.0615 66.8714 26.0654 66.8969C26.0616 66.9211 26.0616 66.9458 26.0654 66.97C26.0615 66.9955 26.0615 67.0214 26.0654 67.0469C26.0615 67.0724 26.0615 67.0983 26.0654 67.1238C26.0615 67.1493 26.0615 67.1752 26.0654 67.2007C26.0615 67.2262 26.0615 67.2521 26.0654 67.2776C26.0616 67.3018 26.0616 67.3265 26.0654 67.3507C26.0615 67.3762 26.0615 67.4021 26.0654 67.4276C26.0615 67.4531 26.0615 67.479 26.0654 67.5045C26.0615 67.53 26.0615 67.556 26.0654 67.5815C26.0615 67.607 26.0615 67.6329 26.0654 67.6584C26.0616 67.6826 26.0616 67.7073 26.0654 67.7315C26.0615 67.757 26.0615 67.7829 26.0654 67.8084C26.0615 67.8339 26.0615 67.8599 26.0654 67.8853C26.0615 67.9108 26.0615 67.9368 26.0654 67.9623C26.0615 67.9877 26.0615 68.0137 26.0654 68.0392C26.0616 68.0634 26.0616 68.088 26.0654 68.1123C26.0615 68.1378 26.0615 68.1637 26.0654 68.1892C26.0615 68.2147 26.0615 68.2406 26.0654 68.2661C26.0615 68.2916 26.0615 68.3175 26.0654 68.343C26.0615 68.3685 26.0615 68.3944 26.0654 68.4199C26.0616 68.4441 26.0616 68.4688 26.0654 68.493C26.0615 68.5185 26.0615 68.5444 26.0654 68.5699C26.0615 68.5954 26.0615 68.6214 26.0654 68.6469C26.0615 68.6724 26.0615 68.6983 26.0654 68.7238C26.0615 68.7493 26.0615 68.7752 26.0654 68.8007C26.0616 68.8249 26.0616 68.8496 26.0654 68.8738C26.0615 68.8993 26.0615 68.9252 26.0654 68.9507C26.0615 68.9762 26.0615 69.0021 26.0654 69.0276C26.0615 69.0531 26.0615 69.0791 26.0654 69.1045C26.0615 69.13 26.0615 69.156 26.0654 69.1815C26.0616 69.2057 26.0616 69.2303 26.0654 69.2546C26.0615 69.2801 26.0615 69.306 26.0654 69.3315C26.0615 69.357 26.0615 69.3829 26.0654 69.4084C26.0615 69.4339 26.0615 69.4598 26.0654 69.4853C26.0615 69.5108 26.0615 69.5368 26.0654 69.5623C26.0616 69.5865 26.0616 69.6111 26.0654 69.6353C26.0615 69.6608 26.0615 69.6868 26.0654 69.7123C26.0615 69.7378 26.0615 69.7637 26.0654 69.7892C26.0615 69.8147 26.0615 69.8406 26.0654 69.8661C26.0615 69.8916 26.0615 69.9175 26.0654 69.943C26.0616 69.9672 26.0616 69.9919 26.0654 70.0161C26.0615 70.0416 26.0615 70.0675 26.0654 70.093C26.0615 70.1185 26.0615 70.1444 26.0654 70.1699C26.0615 70.1954 26.0615 70.2213 26.0654 70.2468C26.0615 70.2723 26.0615 70.2983 26.0654 70.3238C26.0616 70.348 26.0616 70.3726 26.0654 70.3969C26.0615 70.4223 26.0615 70.4483 26.0654 70.4738C26.0615 70.4993 26.0615 70.5252 26.0654 70.5507C26.0615 70.5762 26.0615 70.6022 26.0654 70.6277C26.0615 70.6532 26.0615 70.6791 26.0654 70.7046C26.0616 70.7288 26.0616 70.7534 26.0654 70.7776C26.0615 70.8031 26.0615 70.8291 26.0654 70.8546C26.0615 70.8801 26.0615 70.906 26.0654 70.9315C26.0615 70.957 26.0615 70.9829 26.0654 71.0084C26.0615 71.0339 26.0615 71.0598 26.0654 71.0853C26.0616 71.1095 26.0616 71.1342 26.0654 71.1584C26.0615 71.1839 26.0615 71.2098 26.0654 71.2353C26.0615 71.2608 26.0615 71.2867 26.0654 71.3122C26.0615 71.3377 26.0615 71.3637 26.0654 71.3892C26.0462 71.8392 26.3346 72.293 26.9308 72.6353L57.8962 90.5123C58.5429 90.84 59.2576 91.0108 59.9826 91.0108C60.7076 91.0108 61.4225 90.84 62.0692 90.5123L92.8384 72.6353C93.4269 72.2892 93.7115 71.8392 93.6922 71.3892V25.7007Z" fill="url(#paint3_linear_1218_14534)"/>
<path id="Vector_7" d="M92.5726 64.5256L92.5723 64.5258L61.8158 82.3953C61.2425 82.6835 60.6096 82.8336 59.9678 82.8336C59.3257 82.8336 58.6926 82.6834 58.1191 82.395L27.1659 64.5251L27.1656 64.525C26.6801 64.245 26.5505 63.9473 26.5505 63.7519C26.5505 63.556 26.6806 63.2572 27.1667 62.9753L27.167 62.9751L57.9234 45.1056C58.4963 44.818 59.1285 44.6682 59.7697 44.6682C60.411 44.6682 61.0435 44.8181 61.6165 45.1059L92.5726 62.9714C93.0587 63.2533 93.1889 63.552 93.1889 63.7485C93.1889 63.945 93.0587 64.2437 92.5726 64.5256Z" stroke="url(#paint4_linear_1218_14534)"/>
<path id="Vector_8" d="M92.5726 56.8332L92.5723 56.8334L61.8158 74.7029C61.2425 74.9911 60.6096 75.1412 59.9678 75.1412C59.3257 75.1412 58.6926 74.991 58.1191 74.7027L27.1659 56.8327L27.1656 56.8326C26.6801 56.5526 26.5505 56.255 26.5505 56.0595C26.5505 55.8636 26.6806 55.5648 27.1667 55.2829L27.167 55.2827L57.9234 37.4132C58.4963 37.1257 59.1285 36.9758 59.7697 36.9758C60.411 36.9758 61.0435 37.1258 61.6165 37.4136L92.5726 55.279C93.0587 55.5609 93.1889 55.8597 93.1889 56.0561C93.1889 56.2526 93.0587 56.5513 92.5726 56.8332Z" stroke="url(#paint5_linear_1218_14534)"/>
<g id="Group 1153">
<g id="Group">
<path id="Vector_9" d="M71.5399 35.1871L68.0322 33.2794L68.0399 30.541L71.5476 32.4487L71.5399 35.1871Z" fill="#338F7A"/>
<path id="Vector_10" d="M54.9383 53.2241L51.4306 51.3165C52.1213 51.6906 52.8417 52.0071 53.5845 52.2626C54.2567 52.4924 54.974 52.5583 55.6768 52.4549C56.4229 52.3483 57.1383 52.0862 57.7768 51.6857C60.8692 49.7006 63.4235 46.9822 65.2124 43.7723C67.0012 40.5623 67.9693 36.9601 68.0307 33.2859L71.5385 35.1936C71.4771 38.8679 70.5088 42.47 68.7199 45.68C66.9311 48.89 64.377 51.6082 61.2845 53.5933C60.6441 53.9899 59.9296 54.2516 59.1845 54.3626C58.4792 54.4654 57.7595 54.3995 57.0845 54.1703C56.3448 53.9133 55.6271 53.5969 54.9383 53.2241Z" fill="#338F7A"/>
<path id="Vector_11" d="M69.486 35.4787L65.986 33.5711V30.825L69.4937 32.7326L69.486 35.4787Z" fill="white"/>
<path id="Vector_12" d="M58.6461 39.9641L62.1537 41.8718C62.3035 41.9609 62.4268 42.0885 62.5107 42.2414C62.5945 42.3942 62.636 42.5667 62.6307 42.741C62.6294 43.0367 62.5263 43.3229 62.3385 43.5513C62.1507 43.7798 61.8897 43.9364 61.5998 43.9948L58.0923 42.0872C58.3828 42.0301 58.6444 41.8738 58.8324 41.6451C59.0204 41.4164 59.1231 41.1294 59.1229 40.8333C59.1282 40.6591 59.0868 40.4865 59.0029 40.3337C58.9191 40.1809 58.7959 40.0533 58.6461 39.9641Z" fill="#FE9025"/>
<path id="Vector_13" d="M58.6461 39.9636L62.1537 41.8713C61.9836 41.7823 61.7896 41.7499 61.5998 41.779L58.0923 39.8713C58.282 39.8412 58.4764 39.8736 58.6461 39.9636Z" fill="white"/>
<path id="Vector_14" d="M56.0321 51.1942L52.5244 49.2865C53.1373 49.6156 53.7753 49.8959 54.4322 50.1249C54.8322 50.2634 55.2597 50.303 55.6783 50.2403C56.1249 50.1752 56.5526 50.0153 56.9322 49.7711C59.6608 48.0281 61.9151 45.6363 63.4936 42.8095C65.0722 39.9826 65.926 36.8086 65.9784 33.5713L69.486 35.479C69.4335 38.7164 68.5799 41.8902 67.0014 44.7171C65.4228 47.544 63.1684 49.9358 60.4398 51.6788C60.0601 51.9229 59.6327 52.0829 59.186 52.148C58.7674 52.2106 58.3398 52.171 57.9398 52.0326C57.2829 51.8036 56.645 51.5232 56.0321 51.1942Z" fill="white"/>
<path id="Vector_15" d="M65.0094 25.0332L68.517 26.9409C69.4706 27.5017 70.2554 28.3092 70.7888 29.2785C71.3221 30.2477 71.5844 31.3428 71.5479 32.4485L68.0401 30.5409C68.0767 29.4352 67.8144 28.3401 67.281 27.3708C66.7477 26.4016 65.963 25.594 65.0094 25.0332Z" fill="#338F7A"/>
<path id="Vector_16" d="M63.9066 27.063L67.4144 28.9706C68.0695 29.3519 68.6086 29.9039 68.9744 30.5678C69.3402 31.2316 69.5189 31.9824 69.4913 32.7398L65.9835 30.8322C66.0111 30.0747 65.8327 29.324 65.4669 28.6601C65.1011 27.9963 64.5617 27.4443 63.9066 27.063Z" fill="white"/>
<path id="Vector_17" d="M63.9093 27.0633L67.417 28.971C67.0614 28.7775 66.677 28.6424 66.2786 28.571L62.7708 26.6633C63.1693 26.7348 63.5537 26.8699 63.9093 27.0633Z" fill="#FE9025"/>
<path id="Vector_18" d="M57.4924 44.5715L53.9847 42.6638L58.0925 42.0869L61.6002 43.9946L57.4924 44.5715Z" fill="#FE9025"/>
<path id="Vector_19" d="M59.3476 32.4792L62.8553 34.3869C63.008 34.4728 63.1337 34.5998 63.218 34.7534C63.3023 34.907 63.3417 35.0812 63.3322 35.2561C63.3324 35.5522 63.2297 35.8392 63.0416 36.0679C62.8536 36.2966 62.592 36.4529 62.3015 36.51L58.8015 34.6023C59.0907 34.5426 59.3506 34.3855 59.5382 34.1574C59.7257 33.9293 59.8294 33.6438 59.8321 33.3485C59.8392 33.173 59.7978 32.999 59.7123 32.8456C59.6268 32.6923 59.5005 32.5655 59.3476 32.4792Z" fill="#FE9025"/>
<path id="Vector_20" d="M65.008 25.0332L68.5156 26.9409C67.9939 26.66 67.4303 26.4652 66.8464 26.364L63.3387 24.4563C63.9225 24.5576 64.4863 24.7524 65.008 25.0332Z" fill="white"/>
<path id="Vector_21" d="M53.4318 42.5706C53.6015 42.6607 53.7959 42.6931 53.9856 42.6629L57.0626 44.3474L57.4703 44.5705C57.283 44.6001 57.0913 44.5677 56.9242 44.4782L53.4318 42.5706Z" fill="#FE9025"/>
<path id="Vector_22" d="M59.3476 32.4788L62.8553 34.3864C62.6884 34.2964 62.4964 34.2639 62.3092 34.2941L58.8015 32.3865C58.9887 32.3563 59.1806 32.3887 59.3476 32.4788Z" fill="white"/>
<path id="Vector_23" d="M57.4924 42.3554L53.9847 40.4478L58.1001 39.8708L61.6002 41.7785L57.4924 42.3554Z" fill="white"/>
<path id="Vector_24" d="M56.9381 44.4785L53.4303 42.5708C53.2808 42.4819 53.1582 42.3541 53.0756 42.201C52.993 42.048 52.9533 41.8754 52.961 41.7016C52.959 41.4062 53.0601 41.1194 53.2469 40.8905C53.4336 40.6616 53.6944 40.505 53.9842 40.4478L57.4919 42.3554C57.2014 42.4113 56.9397 42.5675 56.7527 42.7966C56.5657 43.0258 56.4653 43.3135 56.4688 43.6092C56.461 43.783 56.5005 43.9556 56.5831 44.1087C56.6658 44.2618 56.7886 44.3896 56.9381 44.4785Z" fill="white"/>
<path id="Vector_25" d="M61.6001 41.7785C61.7338 41.7598 61.8702 41.7713 61.999 41.812C62.1277 41.8527 62.2458 41.9216 62.3445 42.0138C62.4433 42.1059 62.5201 42.2188 62.5697 42.3445C62.6192 42.4701 62.6402 42.6052 62.6309 42.74C62.6297 43.0357 62.5265 43.3219 62.3387 43.5503C62.1509 43.7788 61.8899 43.9354 61.6001 43.9938L57.4848 44.5707C57.3519 44.5883 57.2168 44.576 57.0893 44.5347C56.9618 44.4934 56.8452 44.4242 56.7479 44.332C56.6506 44.2399 56.575 44.1271 56.5268 44.0021C56.4786 43.877 56.459 43.7428 56.4694 43.6092C56.4658 43.3134 56.5663 43.0258 56.7533 42.7966C56.9403 42.5674 57.202 42.4113 57.4925 42.3554L61.6001 41.7785Z" fill="white"/>
<path id="Vector_26" d="M56.8223 37.2789L53.3146 35.3713L58.7916 34.6021L62.2993 36.5097L56.8223 37.2789Z" fill="#FE9025"/>
<path id="Vector_27" d="M52.7618 35.2705C52.9265 35.3667 53.1198 35.4021 53.3079 35.3705L56.3848 37.0551L56.7926 37.2782C56.6019 37.309 56.4065 37.2737 56.2387 37.1782L52.7618 35.2705Z" fill="#FE9025"/>
<path id="Vector_28" d="M56.8223 35.0629L53.3146 33.1552L58.7916 32.386L62.2993 34.2937L56.8223 35.0629Z" fill="white"/>
<path id="Vector_29" d="M60.4702 27.5871L56.9625 25.6794L62.7702 26.664L66.2779 28.5717L60.4702 27.5871Z" fill="#FE9025"/>
<path id="Vector_30" d="M56.2709 37.1783L52.7709 35.2706C52.6194 35.1853 52.4945 35.0596 52.4103 34.9074C52.3261 34.7553 52.2859 34.5828 52.2941 34.4091C52.2939 34.113 52.3966 33.8261 52.5846 33.5974C52.7726 33.3686 53.0342 33.2124 53.3247 33.1553L56.8325 35.0629C56.5419 35.12 56.2802 35.2763 56.0921 35.505C55.9041 35.7337 55.8014 36.0207 55.8016 36.3168C55.7936 36.4895 55.8333 36.6612 55.916 36.8131C55.9987 36.965 56.1214 37.0913 56.2709 37.1783Z" fill="white"/>
<path id="Vector_31" d="M56.0314 51.1944L52.5237 49.2867C48.1545 46.9022 45.4237 42.0792 45.4391 36.4485L48.9468 38.3561C48.9315 43.9868 51.6545 48.8098 56.0314 51.1944Z" fill="#FE9025"/>
<path id="Vector_32" d="M58.0093 27.9327L54.5015 26.0251C54.8918 25.8463 55.3068 25.7271 55.7324 25.6712C56.1375 25.606 56.5502 25.606 56.9553 25.6712L60.4631 27.5789C60.058 27.5137 59.6452 27.5137 59.2401 27.5789C58.8145 27.6347 58.3996 27.754 58.0093 27.9327Z" fill="#FE9025"/>
<path id="Vector_33" d="M52.1859 30.5556L48.6782 28.6479L54.5013 26.0249L58.009 27.9326L52.1859 30.5556Z" fill="#FE9025"/>
<path id="Vector_34" d="M48.9467 38.3553L45.439 36.4477L45.4467 33.7246L48.9544 35.6323L48.9467 38.3553Z" fill="#FE9025"/>
<path id="Vector_35" d="M48.9468 35.6324L45.439 33.7248C45.4539 32.6622 45.7639 31.6247 46.3345 30.7282C46.905 29.8317 47.7137 29.1114 48.67 28.6479L52.1775 30.5556C51.2201 31.0177 50.4107 31.7376 49.84 32.6344C49.2692 33.5313 48.9599 34.5695 48.9468 35.6324Z" fill="#FE9025"/>
<path id="Vector_36" d="M66.8455 26.363C69.6225 26.8322 71.5456 29.3322 71.5456 32.4476V35.1861C71.4843 38.8603 70.516 42.4625 68.7271 45.6724C66.9383 48.8824 64.3842 51.6007 61.2917 53.5858C60.6513 53.9823 59.9367 54.2441 59.1917 54.355C58.4864 54.4578 57.7667 54.3919 57.0917 54.1627C50.8917 52.0089 46.884 45.9167 46.8994 38.6399V35.9091C46.9192 34.3571 47.3717 32.8415 48.2061 31.5328C49.0405 30.2241 50.2237 29.1743 51.6224 28.5015L57.4455 25.8708C58.016 25.6147 58.6192 25.4386 59.2379 25.3477C59.8369 25.2552 60.4465 25.2552 61.0455 25.3477L66.8455 26.363ZM69.484 35.4784V32.7399C69.5368 31.7749 69.2413 30.823 68.6511 30.0578C68.0609 29.2925 67.2154 28.7647 66.2686 28.5707L60.4532 27.5861C60.0481 27.5209 59.6353 27.5209 59.2302 27.5861C58.8046 27.642 58.3897 27.7612 57.9994 27.94L52.1685 30.563C51.2111 31.0251 50.4017 31.7449 49.831 32.6418C49.2602 33.5386 48.9509 34.5769 48.9378 35.6399V38.3629C48.9378 44.7706 52.4531 50.1397 57.9301 52.0396C58.3301 52.1781 58.7577 52.2177 59.1763 52.155C59.623 52.0899 60.0504 51.9299 60.4301 51.6858C63.1587 49.9428 65.4131 47.551 66.9917 44.7241C68.5702 41.8973 69.4238 38.7234 69.4763 35.4861" fill="white"/>
<path id="Vector_37" d="M61.0471 25.3786L57.5394 23.4709L63.3471 24.4556L66.8548 26.3632L61.0471 25.3786Z" fill="white"/>
<path id="Vector_38" d="M57.4397 25.8791L53.9396 23.9715C54.5107 23.717 55.1137 23.5411 55.732 23.4485C56.3285 23.356 56.9355 23.356 57.5319 23.4485L61.0396 25.3561C60.4406 25.2636 59.8311 25.2636 59.2321 25.3561C58.6134 25.4471 58.0102 25.623 57.4397 25.8791Z" fill="white"/>
<path id="Vector_39" d="M54.9377 53.2252L51.4299 51.3176C46.4607 48.6176 43.3684 43.1331 43.3838 36.7024L46.8915 38.61C46.8761 45.0407 49.9684 50.5253 54.9377 53.2252Z" fill="white"/>
<path id="Vector_40" d="M51.6163 28.5096L48.1163 26.6019L53.9394 23.9712L57.4471 25.8789L51.6163 28.5096Z" fill="white"/>
<path id="Vector_41" d="M46.8915 38.6484L43.3837 36.7407L43.3914 34.01L46.8991 35.9177L46.8915 38.6484Z" fill="white"/>
<path id="Vector_42" d="M46.8928 35.9171L43.3928 34.0094C43.411 32.4581 43.862 30.9427 44.6952 29.6339C45.5283 28.3251 46.7103 27.275 48.1081 26.6018L51.6158 28.5095C50.2171 29.1823 49.034 30.2321 48.1995 31.5408C47.3651 32.8495 46.9126 34.3651 46.8928 35.9171Z" fill="white"/>
<g id="Vector_43">
<mask id="path-44-inside-1_1218_14534" fill="white">
<path d="M73.647 19.456C76.5701 19.9637 78.5777 22.5714 78.57 25.856V32.6944C78.4925 38.7747 76.8759 44.7362 73.8708 50.0225C70.8658 55.3089 66.5702 59.7477 61.3853 62.9247C60.737 63.3224 60.0147 63.5841 59.2622 63.6939C58.5513 63.7992 57.8258 63.744 57.1391 63.5324C46.8314 60.2709 40.0314 50.3095 40.0544 38.1096V31.2789C40.0673 29.6484 40.5378 28.0543 41.4122 26.6781C42.2867 25.3018 43.5301 24.1987 45.0007 23.4944L57.4238 17.8484C58.0301 17.5739 58.6724 17.3874 59.3315 17.2946C59.9663 17.1984 60.612 17.1984 61.2468 17.2946L73.647 19.456ZM71.5393 35.1867V32.4482C71.5393 29.3713 69.6161 26.8328 66.8392 26.3636L61.0314 25.3791C60.4324 25.2866 59.8229 25.2866 59.2239 25.3791C58.6052 25.47 58.002 25.646 57.4315 25.9021L51.6083 28.5329C50.2097 29.2057 49.0267 30.2555 48.1922 31.5642C47.3578 32.8729 46.9052 34.3885 46.8853 35.9405V38.6712C46.8853 45.948 50.8776 52.0403 57.0777 54.1941C57.7526 54.4233 58.4723 54.4892 59.1777 54.3864C59.9227 54.2754 60.6372 54.0137 61.2776 53.6172C64.3701 51.632 66.9242 48.9137 68.7131 45.7037C70.5019 42.4938 71.4702 38.8916 71.5316 35.2174"/>
</mask>
<path d="M73.647 19.456C76.5701 19.9637 78.5777 22.5714 78.57 25.856V32.6944C78.4925 38.7747 76.8759 44.7362 73.8708 50.0225C70.8658 55.3089 66.5702 59.7477 61.3853 62.9247C60.737 63.3224 60.0147 63.5841 59.2622 63.6939C58.5513 63.7992 57.8258 63.744 57.1391 63.5324C46.8314 60.2709 40.0314 50.3095 40.0544 38.1096V31.2789C40.0673 29.6484 40.5378 28.0543 41.4122 26.6781C42.2867 25.3018 43.5301 24.1987 45.0007 23.4944L57.4238 17.8484C58.0301 17.5739 58.6724 17.3874 59.3315 17.2946C59.9663 17.1984 60.612 17.1984 61.2468 17.2946L73.647 19.456ZM71.5393 35.1867V32.4482C71.5393 29.3713 69.6161 26.8328 66.8392 26.3636L61.0314 25.3791C60.4324 25.2866 59.8229 25.2866 59.2239 25.3791C58.6052 25.47 58.002 25.646 57.4315 25.9021L51.6083 28.5329C50.2097 29.2057 49.0267 30.2555 48.1922 31.5642C47.3578 32.8729 46.9052 34.3885 46.8853 35.9405V38.6712C46.8853 45.948 50.8776 52.0403 57.0777 54.1941C57.7526 54.4233 58.4723 54.4892 59.1777 54.3864C59.9227 54.2754 60.6372 54.0137 61.2776 53.6172C64.3701 51.632 66.9242 48.9137 68.7131 45.7037C70.5019 42.4938 71.4702 38.8916 71.5316 35.2174" fill="#ABABAB"/>
<path d="M73.647 19.456L73.5439 20.0471L73.5443 20.0472L73.647 19.456ZM78.57 25.856L77.97 25.8546V25.856H78.57ZM78.57 32.6944L79.17 32.702V32.6944H78.57ZM61.3853 62.9247L61.0718 62.4131L61.0715 62.4133L61.3853 62.9247ZM59.2622 63.6939L59.1755 63.1002L59.1743 63.1004L59.2622 63.6939ZM57.1391 63.5324L56.9581 64.1045L56.9624 64.1058L57.1391 63.5324ZM40.0544 38.1096L40.6544 38.1108V38.1096H40.0544ZM40.0544 31.2789L39.4545 31.2742V31.2789H40.0544ZM45.0007 23.4944L44.7524 22.9481L44.7416 22.9533L45.0007 23.4944ZM57.4238 17.8484L57.1764 17.3018L57.1755 17.3022L57.4238 17.8484ZM59.3315 17.2946L59.4152 17.8887L59.4213 17.8878L59.3315 17.2946ZM61.2468 17.2946L61.3499 16.7033L61.3367 16.7013L61.2468 17.2946ZM66.8392 26.3636L66.7389 26.9552L66.7392 26.9552L66.8392 26.3636ZM61.0314 25.3791L61.1317 24.7875L61.123 24.7861L61.0314 25.3791ZM59.2239 25.3791L59.3111 25.9727L59.3154 25.972L59.2239 25.3791ZM57.4315 25.9021L57.1857 25.3547L57.1845 25.3553L57.4315 25.9021ZM51.6083 28.5329L51.3613 27.9861L51.3547 27.9891L51.3482 27.9922L51.6083 28.5329ZM46.8853 35.9405L46.2853 35.9328V35.9405H46.8853ZM57.0777 54.1941L56.8808 54.7608L56.8847 54.7622L57.0777 54.1941ZM59.1777 54.3864L59.2642 54.9801L59.266 54.9798L59.1777 54.3864ZM61.2776 53.6172L61.5935 54.1273L61.6018 54.1221L61.2776 53.6172ZM73.5443 20.0472C76.1368 20.4974 77.9771 22.8168 77.97 25.8546L79.17 25.8574C79.1782 22.3261 77.0033 19.43 73.7496 18.8649L73.5443 20.0472ZM77.97 25.856V32.6944H79.17V25.856H77.97ZM77.97 32.6867C77.8939 38.6657 76.3042 44.5278 73.3492 49.726L74.3924 50.319C77.4476 44.9445 79.0912 38.8837 79.1699 32.702L77.97 32.6867ZM73.3492 49.726C70.3943 54.9242 66.1703 59.2891 61.0718 62.4131L61.6987 63.4363C66.9701 60.2063 71.3373 55.6935 74.3924 50.319L73.3492 49.726ZM61.0715 62.4133C60.4926 62.7685 59.8476 63.0022 59.1755 63.1002L59.3488 64.2876C60.1818 64.1661 60.9815 63.8764 61.699 63.4361L61.0715 62.4133ZM59.1743 63.1004C58.552 63.1926 57.9169 63.1443 57.3157 62.959L56.9624 64.1058C57.7348 64.3438 58.5506 64.4058 59.35 64.2875L59.1743 63.1004ZM57.3201 62.9604C47.2967 59.7889 40.6318 50.0867 40.6544 38.1108L39.4545 38.1085C39.431 50.5323 46.366 60.753 56.9581 64.1045L57.3201 62.9604ZM40.6544 38.1096V31.2789H39.4545V38.1096H40.6544ZM40.6544 31.2837C40.6664 29.7655 41.1044 28.2813 41.9186 26.9998L40.9058 26.3563C39.9711 27.8274 39.4683 29.5313 39.4545 31.2742L40.6544 31.2837ZM41.9186 26.9998C42.7328 25.7184 43.8906 24.6913 45.2599 24.0356L44.7416 22.9533C43.1697 23.7061 41.8405 24.8852 40.9058 26.3563L41.9186 26.9998ZM45.249 24.0406L57.672 18.3946L57.1755 17.3022L44.7525 22.9482L45.249 24.0406ZM57.6712 18.395C58.2255 18.1441 58.8127 17.9736 59.4152 17.8887L59.2477 16.7005C58.5322 16.8013 57.8347 17.0038 57.1764 17.3018L57.6712 18.395ZM59.4213 17.8878C59.9966 17.8006 60.5817 17.8006 61.157 17.8878L61.3367 16.7013C60.6423 16.5961 59.936 16.5961 59.2416 16.7013L59.4213 17.8878ZM61.1438 17.8856L73.5439 20.0471L73.75 18.865L61.3499 16.7035L61.1438 17.8856ZM72.1393 35.1867V32.4482H70.9393V35.1867H72.1393ZM72.1393 32.4482C72.1393 29.1288 70.0517 26.298 66.9391 25.772L66.7392 26.9552C69.1805 27.3677 70.9393 29.6138 70.9393 32.4482H72.1393ZM66.9395 25.7721L61.1317 24.7875L60.9312 25.9706L66.7389 26.9552L66.9395 25.7721ZM61.123 24.7861C60.4633 24.6843 59.792 24.6843 59.1323 24.7861L59.3154 25.972C59.8537 25.8889 60.4015 25.8889 60.9399 25.972L61.123 24.7861ZM59.1366 24.7855C58.4633 24.8844 57.8067 25.076 57.1857 25.3548L57.6772 26.4494C58.1972 26.216 58.7471 26.0556 59.3111 25.9727L59.1366 24.7855ZM57.1845 25.3553L51.3613 27.9861L51.8554 29.0796L57.6785 26.4489L57.1845 25.3553ZM51.3482 27.9922C49.8489 28.7134 48.5808 29.8388 47.6863 31.2417L48.6981 31.8868C49.4725 30.6722 50.5704 29.6979 51.8684 29.0735L51.3482 27.9922ZM47.6863 31.2417C46.7919 32.6445 46.3067 34.2692 46.2854 35.9328L47.4853 35.9481C47.5037 34.5079 47.9237 33.1013 48.6981 31.8868L47.6863 31.2417ZM46.2853 35.9405V38.6712H47.4853V35.9405H46.2853ZM46.2853 38.6712C46.2853 46.1657 50.4056 52.5114 56.8808 54.7608L57.2745 53.6273C51.3497 51.5691 47.4853 45.7303 47.4853 38.6712H46.2853ZM56.8847 54.7622C57.6495 55.0219 58.465 55.0966 59.2642 54.9801L59.0911 53.7927C58.4796 53.8818 57.8557 53.8247 57.2706 53.626L56.8847 54.7622ZM59.266 54.9798C60.0918 54.8569 60.8837 54.5668 61.5935 54.1273L60.9618 53.1071C60.3907 53.4606 59.7536 53.694 59.0893 53.7929L59.266 54.9798ZM61.6018 54.1221C64.7774 52.0836 67.4002 49.2921 69.2372 45.9958L68.189 45.4117C66.4482 48.5353 63.9628 51.1805 60.9535 53.1123L61.6018 54.1221ZM69.2372 45.9958C71.0741 42.6995 72.0684 39.0005 72.1315 35.2274L70.9317 35.2073C70.8719 38.7827 69.9297 42.288 68.189 45.4117L69.2372 45.9958Z" fill="white" mask="url(#path-44-inside-1_1218_14534)"/>
</g>
<path id="Vector_44" d="M66.2688 28.5714C67.2156 28.7655 68.061 29.2932 68.6512 30.0585C69.2415 30.8238 69.537 31.7757 69.4841 32.7406V35.4791C69.4317 38.7165 68.5781 41.8903 66.9995 44.7172C65.421 47.5441 63.1666 49.9359 60.438 51.6789C60.0583 51.923 59.6309 52.083 59.1842 52.1481C58.7656 52.2107 58.3379 52.1711 57.938 52.0327C52.461 50.1327 48.9303 44.7636 48.9457 38.356V35.6329C48.9588 34.57 49.2681 33.5318 49.8388 32.6349C50.4096 31.7381 51.219 31.0181 52.1764 30.5561L58.0073 27.933C58.3975 27.7543 58.8125 27.6351 59.2381 27.5792C59.6432 27.514 60.056 27.514 60.4611 27.5792L66.2688 28.5714ZM62.2842 36.5098C62.5748 36.4528 62.8363 36.2965 63.0244 36.0678C63.2124 35.8391 63.3151 35.5521 63.3149 35.256C63.3254 35.1217 63.3057 34.9867 63.257 34.861C63.2084 34.7353 63.1323 34.6221 63.0341 34.5298C62.9359 34.4375 62.8182 34.3685 62.6897 34.3277C62.5612 34.287 62.4254 34.2756 62.2919 34.2945L56.8149 35.0637C56.5244 35.1208 56.2628 35.2771 56.0748 35.5058C55.8867 35.7345 55.784 36.0215 55.7843 36.3175C55.7752 36.4515 55.7958 36.5859 55.8449 36.7109C55.894 36.8359 55.9703 36.9485 56.0682 37.0405C56.1661 37.1325 56.2831 37.2016 56.4109 37.2428C56.5388 37.2841 56.674 37.2965 56.8072 37.2791L62.2842 36.5098ZM61.5918 43.9944C61.8817 43.9359 62.1426 43.7793 62.3304 43.5509C62.5182 43.3224 62.6214 43.0362 62.6226 42.7405C62.632 42.6058 62.6112 42.4707 62.5616 42.345C62.5121 42.2194 62.435 42.1064 62.3363 42.0143C62.2375 41.9222 62.1195 41.8532 61.9907 41.8125C61.8619 41.7718 61.7256 41.7604 61.5918 41.779L57.4842 42.3559C57.1938 42.4118 56.932 42.568 56.745 42.7971C56.558 43.0263 56.4576 43.314 56.4611 43.6097C56.4508 43.7434 56.4704 43.8776 56.5186 44.0026C56.5667 44.1277 56.6423 44.2404 56.7396 44.3326C56.8369 44.4247 56.9535 44.4939 57.081 44.5352C57.2085 44.5765 57.3437 44.5889 57.4765 44.5713L61.5918 43.9944Z" fill="#ABABAB"/>
<path id="Vector_45" d="M62.3005 34.2938L56.8235 35.063C56.533 35.1201 56.2712 35.2763 56.0832 35.5051C55.8952 35.7338 55.7925 36.0207 55.7927 36.3168C55.7836 36.4508 55.8044 36.5851 55.8535 36.7102C55.9026 36.8352 55.9789 36.9478 56.0768 37.0397C56.1747 37.1317 56.2917 37.2008 56.4195 37.2421C56.5474 37.2834 56.6826 37.2957 56.8158 37.2783L62.2928 36.5091C62.5834 36.452 62.8449 36.2958 63.033 36.067C63.221 35.8383 63.3237 35.5514 63.3235 35.2553C63.334 35.1209 63.3143 34.9859 63.2656 34.8602C63.217 34.7346 63.1409 34.6214 63.0427 34.5291C62.9445 34.4368 62.8268 34.3677 62.6983 34.327C62.5698 34.2863 62.434 34.2749 62.3005 34.2938Z" fill="white"/>
<g id="Vector_46">
<path d="M71.8938 18.1484L75.4016 20.056C74.8526 19.7639 74.2605 19.5613 73.6477 19.456L70.1476 17.5483C70.758 17.6537 71.3476 17.8563 71.8938 18.1484Z" fill="#ABABAB"/>
<path d="M53.0311 61.7789L49.5234 59.8712C41.5541 55.5328 36.5234 46.6944 36.5388 36.1946L40.0464 38.1022C40.031 48.6021 45.0542 57.4405 53.0311 61.7789Z" fill="#ABABAB"/>
<path d="M61.2545 17.3017L57.7468 15.394L70.1476 17.5483L73.6545 19.4478L61.2545 17.3017Z" fill="#ABABAB"/>
<path d="M57.4324 17.8405L53.9246 15.9328C54.5309 15.6584 55.1733 15.4719 55.8323 15.379C56.4671 15.2828 57.1128 15.2828 57.7477 15.379L61.2554 17.2867C60.6206 17.1905 59.9749 17.1905 59.34 17.2867C58.681 17.3796 58.0387 17.566 57.4324 17.8405Z" fill="#ABABAB"/>
<path d="M45.0164 23.4871L41.5087 21.5794L53.9318 15.9333L57.4395 17.841L45.0164 23.4871Z" fill="#ABABAB"/>
<path d="M40.0478 38.0939L36.5478 36.1863L36.5555 29.3633L40.0632 31.2709L40.0478 38.0939Z" fill="#ABABAB"/>
<path d="M40.0613 31.2715L36.5538 29.3639C36.5693 27.734 37.0408 26.141 37.915 24.7652C38.7891 23.3895 40.031 22.2858 41.4999 21.5793L45.0076 23.487C43.537 24.1913 42.2936 25.2944 41.4191 26.6706C40.5447 28.0469 40.0742 29.641 40.0613 31.2715Z" fill="#ABABAB"/>
</g>
<g id="Vector_47">
<path d="M71.8938 18.1484L75.4016 20.056C74.8526 19.7639 74.2605 19.5613 73.6477 19.456L70.1476 17.5483C70.758 17.6537 71.3476 17.8563 71.8938 18.1484Z" fill="black" fill-opacity="0.1"/>
<path d="M53.0311 61.7789L49.5234 59.8712C41.5541 55.5328 36.5234 46.6944 36.5388 36.1946L40.0464 38.1022C40.031 48.6021 45.0542 57.4405 53.0311 61.7789Z" fill="black" fill-opacity="0.1"/>
<path d="M61.2545 17.3017L57.7468 15.394L70.1476 17.5483L73.6545 19.4478L61.2545 17.3017Z" fill="black" fill-opacity="0.1"/>
<path d="M57.4324 17.8405L53.9246 15.9328C54.5309 15.6584 55.1733 15.4719 55.8323 15.379C56.4671 15.2828 57.1128 15.2828 57.7477 15.379L61.2554 17.2867C60.6206 17.1905 59.9749 17.1905 59.34 17.2867C58.681 17.3796 58.0387 17.566 57.4324 17.8405Z" fill="black" fill-opacity="0.1"/>
<path d="M45.0164 23.4871L41.5087 21.5794L53.9318 15.9333L57.4395 17.841L45.0164 23.4871Z" fill="black" fill-opacity="0.1"/>
<path d="M40.0478 38.0939L36.5478 36.1863L36.5555 29.3633L40.0632 31.2709L40.0478 38.0939Z" fill="black" fill-opacity="0.1"/>
<path d="M40.0613 31.2715L36.5538 29.3639C36.5693 27.734 37.0408 26.141 37.915 24.7652C38.7891 23.3895 40.031 22.2858 41.4999 21.5793L45.0076 23.487C43.537 24.1913 42.2936 25.2944 41.4191 26.6706C40.5447 28.0469 40.0742 29.641 40.0613 31.2715Z" fill="black" fill-opacity="0.1"/>
</g>
</g>
</g>
</g>
</g>
<defs>
<filter id="filter0_f_1218_14534" x="-5" y="23" width="115" height="106" filterUnits="userSpaceOnUse" color-interpolation-filters="sRGB">
<feFlood flood-opacity="0" result="BackgroundImageFix"/>
<feBlend mode="normal" in="SourceGraphic" in2="BackgroundImageFix" result="shape"/>
<feGaussianBlur stdDeviation="21" result="effect1_foregroundBlur_1218_14534"/>
</filter>
<linearGradient id="paint0_linear_1218_14534" x1="62.7498" y1="85.46" x2="103.988" y2="85.46" gradientUnits="userSpaceOnUse">
<stop stop-color="white"/>
<stop offset="1" stop-color="#ABABAB"/>
</linearGradient>
<linearGradient id="paint1_linear_1218_14534" x1="15.7772" y1="85.4464" x2="57.3003" y2="85.4464" gradientUnits="userSpaceOnUse">
<stop stop-color="#ABABAB"/>
<stop offset="1" stop-color="white"/>
</linearGradient>
<linearGradient id="paint2_linear_1218_14534" x1="60.0078" y1="92.0504" x2="60.0078" y2="52.0504" gradientUnits="userSpaceOnUse">
<stop stop-color="white"/>
<stop offset="1" stop-color="#ABABAB"/>
</linearGradient>
<linearGradient id="paint3_linear_1218_14534" x1="60.0159" y1="110.124" x2="60.0159" y2="6.48832" gradientUnits="userSpaceOnUse">
<stop stop-color="#ABABAB"/>
<stop offset="1" stop-color="white" stop-opacity="0"/>
</linearGradient>
<linearGradient id="paint4_linear_1218_14534" x1="59.8697" y1="44.1682" x2="59.8697" y2="83.3336" gradientUnits="userSpaceOnUse">
<stop stop-color="white" stop-opacity="0"/>
<stop offset="1" stop-color="white"/>
</linearGradient>
<linearGradient id="paint5_linear_1218_14534" x1="59.8697" y1="36.4758" x2="59.8697" y2="75.6412" gradientUnits="userSpaceOnUse">
<stop stop-color="white" stop-opacity="0"/>
<stop offset="1" stop-color="white"/>
</linearGradient>
<clipPath id="clip0_1218_14534">
<rect width="120" height="120" fill="white"/>
</clipPath>
</defs>
</svg>
