<svg width="22" height="22" viewBox="0 0 22 22" fill="none" xmlns="http://www.w3.org/2000/svg">
<g id="Frame">
<path id="Vector" d="M2.29167 11H19.7083" stroke="#333333" stroke-width="1.8" stroke-linejoin="round"/>
<path id="Vector_2" d="M12.8333 1.83333H9.16667C8.66039 1.83333 8.25 2.24373 8.25 2.74999V6.41666C8.25 6.92294 8.66039 7.33333 9.16667 7.33333H12.8333C13.3396 7.33333 13.75 6.92294 13.75 6.41666V2.74999C13.75 2.24373 13.3396 1.83333 12.8333 1.83333Z" stroke="#333333" stroke-width="1.8" stroke-linejoin="round"/>
<path id="Vector_3" d="M7.33333 14.6667H3.66667C3.16041 14.6667 2.75 15.0771 2.75 15.5833V19.25C2.75 19.7563 3.16041 20.1667 3.66667 20.1667H7.33333C7.83961 20.1667 8.25 19.7563 8.25 19.25V15.5833C8.25 15.0771 7.83961 14.6667 7.33333 14.6667Z" stroke="#333333" stroke-width="1.8" stroke-linejoin="round"/>
<path id="Vector_4" d="M18.3333 14.6667H14.6667C14.1604 14.6667 13.75 15.0771 13.75 15.5833V19.25C13.75 19.7563 14.1604 20.1667 14.6667 20.1667H18.3333C18.8396 20.1667 19.25 19.7563 19.25 19.25V15.5833C19.25 15.0771 18.8396 14.6667 18.3333 14.6667Z" stroke="#333333" stroke-width="1.8" stroke-linejoin="round"/>
<path id="Vector_5" d="M11 11V7.33333" stroke="#333333" stroke-width="1.8" stroke-linejoin="round"/>
<path id="Vector_6" d="M16.5 14.6667V11" stroke="#333333" stroke-width="1.8" stroke-linejoin="round"/>
<path id="Vector_7" d="M5.5 14.6667V11" stroke="#333333" stroke-width="1.8" stroke-linejoin="round"/>
</g>
</svg>