<svg width="22" height="22" viewBox="0 0 22 22" fill="none" xmlns="http://www.w3.org/2000/svg">
<g id="Frame">
<path id="Vector" d="M20.1667 14.2083C20.1667 16.7396 18.1146 18.7917 15.5833 18.7917C14.7625 18.7917 13.992 18.5759 13.3256 18.1979C12.1524 17.5326 11.3015 16.3646 11.0658 14.9867C11.0226 14.7337 11 14.4737 11 14.2083C11 13.0315 11.4436 11.9582 12.1726 11.1466C13.0117 10.2125 14.2289 9.625 15.5833 9.625C18.1146 9.625 20.1667 11.6771 20.1667 14.2083Z" stroke="#333333" stroke-width="1.5" stroke-linejoin="round"/>
<g id="Frame_2" clip-path="url(#clip0_1298_14472)">
<path id="Vector_2" d="M14.914 16.836C14.4533 16.6989 14.0431 16.4442 13.7184 16.1067C13.8395 15.9631 13.9125 15.7776 13.9125 15.575C13.9125 15.1194 13.5432 14.75 13.0875 14.75C13.06 14.75 13.0327 14.7514 13.0059 14.754C12.9692 14.5751 12.95 14.3898 12.95 14.2C12.95 13.9126 12.9941 13.6354 13.0759 13.3749C13.0798 13.375 13.0837 13.375 13.0875 13.375C13.5432 13.375 13.9125 13.0056 13.9125 12.55C13.9125 12.4192 13.8821 12.2955 13.8279 12.1856C14.1459 11.8899 14.5341 11.6686 14.9647 11.5494C15.1011 11.8169 15.3792 12 15.7 12C16.0208 12 16.2989 11.8169 16.4354 11.5494C16.8659 11.6686 17.2541 11.8899 17.5721 12.1856C17.518 12.2955 17.4875 12.4192 17.4875 12.55C17.4875 13.0056 17.8569 13.375 18.3125 13.375C18.3164 13.375 18.3202 13.375 18.3241 13.3749C18.4059 13.6354 18.45 13.9126 18.45 14.2C18.45 14.3898 18.4308 14.5751 18.3942 14.754C18.3673 14.7514 18.3401 14.75 18.3125 14.75C17.8569 14.75 17.4875 15.1194 17.4875 15.575C17.4875 15.7776 17.5605 15.9631 17.6817 16.1067C17.3569 16.4442 16.9468 16.6989 16.486 16.836C16.3796 16.5034 16.068 16.2625 15.7 16.2625C15.3321 16.2625 15.0204 16.5034 14.914 16.836Z" stroke="#333333" stroke-width="0.8" stroke-linejoin="round"/>
<path id="Vector_3" d="M15.7 15.1625C16.2316 15.1625 16.6625 14.7316 16.6625 14.2C16.6625 13.6684 16.2316 13.2375 15.7 13.2375C15.1684 13.2375 14.7375 13.6684 14.7375 14.2C14.7375 14.7316 15.1684 15.1625 15.7 15.1625Z" stroke="#333333" stroke-width="0.8" stroke-linejoin="round"/>
</g>
<path id="Vector_4" d="M15.5833 5.5V9.16667V9.625C14.2289 9.625 13.0117 10.2125 12.1726 11.1466C11.4436 11.9582 11 13.0315 11 14.2083C11 14.4737 11.0225 14.7337 11.0658 14.9867C11.3015 16.3646 12.1524 17.5326 13.3256 18.1979C12.1053 18.5669 10.4856 18.7917 8.70833 18.7917C4.91136 18.7917 1.83333 17.7656 1.83333 16.5V12.8333V9.16667V5.5" stroke="#333333" stroke-width="1.5" stroke-linejoin="round"/>
<path id="Vector_5" d="M15.5833 5.49999C15.5833 6.76564 12.5053 7.79166 8.70833 7.79166C4.91136 7.79166 1.83333 6.76564 1.83333 5.49999C1.83333 4.23434 4.91136 3.20833 8.70833 3.20833C12.5053 3.20833 15.5833 4.23434 15.5833 5.49999Z" stroke="#333333" stroke-width="1.5" stroke-linejoin="round"/>
<path id="Vector_6" d="M1.83333 12.8333C1.83333 14.099 4.91136 15.125 8.70833 15.125C9.53654 15.125 10.3305 15.0762 11.0658 14.9867" stroke="#333333" stroke-width="1.5" stroke-linejoin="round"/>
<path id="Vector_7" d="M1.83333 9.16667C1.83333 10.4323 4.91136 11.4583 8.70833 11.4583C9.97163 11.4583 11.1554 11.3448 12.1726 11.1466" stroke="#333333" stroke-width="1.5" stroke-linejoin="round"/>
</g>
<defs>
<clipPath id="clip0_1298_14472">
<rect width="6.59998" height="6.59998" fill="white" transform="translate(12.4 10.9)"/>
</clipPath>
</defs>
</svg>